<?xml version="1.0" encoding="UTF-8"?>
<svg fill="#777777" width="100pt" height="100pt" version="1.1" viewBox="0 0 100 100" xmlns="http://www.w3.org/2000/svg">
 <path d="m66.57 40.375c-1.1172 0-2.2109 0.11328-3.2812 0.28516v-32.242c0-4.1367-3.3633-7.5-7.5-7.5h-35.797c-4.1367 0-7.5 3.3633-7.5 7.5v83.164c0 4.1367 3.3633 7.5 7.5 7.5h35.797c4.1367 0 7.5-3.3633 7.5-7.5v-9.4609c1.0703 0.17188 2.1641 0.28516 3.2812 0.28516 11.547 0 20.938-9.4219 20.938-21 0-11.594-9.3906-21.031-20.938-21.031zm-1.5664 37.766c-3.3945-2.1875-5.9453-5.4141-7.3828-9.2305h7.3828zm-8.2578-12.234c-0.29688-1.4141-0.45312-2.8828-0.45312-4.3906 0-1.5781 0.17969-3.1211 0.50781-4.6094h8.2031v9zm-8.1094-4.5c0-1.5586 0.21875-3.0586 0.58984-4.5h4.3711c-0.28516 1.4961-0.44531 3.0391-0.44531 4.6094 0 1.5039 0.14453 2.9688 0.40234 4.3906h-4.3281c-0.37109-1.4414-0.58984-2.9414-0.58984-4.5zm9.0625-7.5c1.4609-3.8047 3.9961-7.0508 7.3047-9.2188v9.2188zm10.445-9.2188c3.3047 2.1719 5.8438 5.4141 7.3047 9.2188h-7.3047zm-13.773 9.2188h-4.0898c1.9453-4.2539 5.4805-7.6094 9.8477-9.3086-2.6094 2.5391-4.5859 5.7383-5.7578 9.3086zm-0.074219 15c1.1328 3.543 3.0703 6.6953 5.668 9.2188-4.2852-1.7109-7.7578-5.0312-9.6797-9.2188zm13.848 9.2344v-9.2305h7.3828c-1.4414 3.8164-3.9922 7.0391-7.3828 9.2305zm0-12.234v-9h8.2031c0.32812 1.4883 0.50781 3.0312 0.50781 4.6094 0 1.5078-0.16016 2.9766-0.45312 4.3906zm11.406-9h4.3672c0.37109 1.4414 0.58984 2.9453 0.58984 4.5s-0.21875 3.0586-0.58984 4.5h-4.3242c0.25781-1.4258 0.40234-2.8906 0.40234-4.3906 0-1.5703-0.16016-3.1094-0.44531-4.6094zm3.3125-3h-4.0898c-1.1719-3.5703-3.1484-6.7695-5.7578-9.3086 4.3633 1.6992 7.9023 5.0547 9.8477 9.3086zm-36.508-47.094h0.75c0.82812 0 1.5 0.67188 1.5 1.5s-0.67188 1.5-1.5 1.5h-0.75c-0.82812 0-1.5-0.67188-1.5-1.5s0.67188-1.5 1.5-1.5zm-15.5 0h10.75c0.82812 0 1.5 0.67188 1.5 1.5s-0.67188 1.5-1.5 1.5h-10.75c-0.82812 0-1.5-0.67188-1.5-1.5s0.67188-1.5 1.5-1.5zm7.0352 89.051c-2.457 0-4.4492-1.9922-4.4492-4.4492 0-2.457 1.9922-4.4492 4.4492-4.4492 2.4609 0 4.4492 1.9922 4.4492 4.4492 0 2.457-1.9922 4.4492-4.4492 4.4492zm20.906-11.57h-41.812v-68.461h41.812v26.066c-7.7031 3.1094-13.16 10.676-13.16 19.512 0 8.8203 5.4609 16.379 13.16 19.48zm14.383-6.168c2.6016-2.5234 4.5391-5.6758 5.668-9.2188h4.0078c-1.9219 4.1875-5.3906 7.5078-9.6758 9.2188z"/>
</svg>
