<?xml version="1.0" encoding="UTF-8"?>
<svg fill="#777777" width="100pt" height="100pt" version="1.1" viewBox="0 0 100 100" xmlns="http://www.w3.org/2000/svg">
 <g>
  <path d="m87.5 0h-75c-1.25 0-2.082 0.83203-2.082 2.082v95.832c0 1.25 0.83203 2.082 2.082 2.082h75c1.25 0 2.082-0.83203 2.082-2.082v-95.832c0-1.25-0.83203-2.082-2.082-2.082zm-2.082 95.832h-70.836v-91.664h70.832z"/>
  <path d="m22.5 29.375h55c1.25 0 2.082-0.83203 2.082-2.082v-15.836c0-1.25-0.83203-2.082-2.082-2.082h-55c-1.25 0-2.082 0.83203-2.082 2.082v15.832c0 1.2539 1.0391 2.0859 2.082 2.0859zm2.082-15.832h50.832v11.668l-50.832-0.003907z"/>
  <path d="m77.5 35.832h-23.125c-1.25 0-2.082 0.83203-2.082 2.082v30.832c0 1.25 0.83203 2.082 2.082 2.082h23.125c1.25 0 2.082-0.83203 2.082-2.082v-30.828c0-1.25-1.0391-2.0859-2.082-2.0859zm-2.082 30.625h-18.957l-0.003907-26.457h18.957z"/>
  <path d="m22.5 40h23.125c1.25 0 2.082-0.83203 2.082-2.082s-0.83203-2.082-2.082-2.082l-23.125-0.003907c-1.25 0-2.082 0.83203-2.082 2.082 0 1.043 1.0391 2.0859 2.082 2.0859z"/>
  <path d="m22.5 50.625h23.125c1.25 0 2.082-0.83203 2.082-2.082s-0.83203-2.082-2.082-2.082l-23.125-0.003907c-1.25 0-2.082 0.83203-2.082 2.082 0 1.043 1.0391 2.0859 2.082 2.0859z"/>
  <path d="m22.5 61.043h23.125c1.25 0 2.082-0.83203 2.082-2.082s-0.83203-2.082-2.082-2.082l-23.125-0.003906c-1.25 0-2.082 0.83203-2.082 2.082s1.0391 2.0859 2.082 2.0859z"/>
  <path d="m22.5 71.668h23.125c1.25 0 2.082-0.83203 2.082-2.082s-0.83203-2.082-2.082-2.082l-23.125-0.003906c-1.25 0-2.082 0.83203-2.082 2.082s1.0391 2.0859 2.082 2.0859z"/>
  <path d="m22.5 81.25h55c1.25 0 2.082-0.83203 2.082-2.082s-0.83203-2.082-2.082-2.082l-55-0.003907c-1.25 0-2.082 0.83203-2.082 2.082 0 1.2539 1.0391 2.0859 2.082 2.0859z"/>
  <path d="m22.5 90.207h55c1.25 0 2.082-0.83203 2.082-2.082s-0.83203-2.082-2.082-2.082h-55c-1.25 0-2.082 0.83203-2.082 2.082s1.0391 2.082 2.082 2.082z"/>
 </g>
</svg>
