<svg height="100%" width="100%" viewBox="0 0 363 80" fill="none" xmlns="http://www.w3.org/2000/svg">
<g clip-path="url(#clip0_5258_169)">
<path fill-rule="evenodd" clip-rule="evenodd" d="M29.0705 42.8838C29.425 43.0864 29.8049 43.289 30.1847 43.4663C33.0209 44.783 34.3376 45.644 34.3376 47.4672C34.3376 49.4171 32.7423 51.0124 30.7925 51.0124C29.2731 51.0124 28.007 50.0502 27.5005 48.7081C25.6519 50.5819 23.1197 51.7468 20.2835 51.7468C14.6872 51.7468 10.1544 47.214 10.1544 41.6177C10.1544 41.0859 10.2304 40.5541 10.3064 40.0224C5.1152 38.503 1.1142 34.1728 0.202582 28.7537C0.0759682 27.9687 0 27.1837 0 26.3734C0 25.5631 0.0759682 24.7781 0.202582 23.9931C1.13952 18.5993 5.1152 14.2438 10.3064 12.7244C10.3032 12.7022 10.3 12.6801 10.2968 12.658C10.2242 12.1503 10.1544 11.6629 10.1544 11.1291C10.1544 5.53277 14.6872 1 20.2835 1C23.0943 1 25.6519 2.16485 27.5005 4.03873C28.007 2.69662 29.2731 1.73436 30.7925 1.73436C32.7423 1.73436 34.3376 3.32969 34.3376 5.27954C34.3376 7.25472 33.0209 8.11569 30.1847 9.43248C29.9037 9.5636 29.6366 9.70858 29.3628 9.85717C29.2665 9.90945 29.1694 9.96218 29.0705 10.0149H29.0704C28.8426 10.1415 28.6147 10.2681 28.4121 10.3947C28.2349 10.496 28.0829 10.5973 27.931 10.6986C27.8803 10.7239 27.836 10.7556 27.7917 10.7872C27.7474 10.8189 27.7031 10.8505 27.6524 10.8759C26.7915 11.433 26.0065 12.0914 25.2468 12.7751C25.2215 12.7877 25.2025 12.8067 25.1835 12.8257C25.1645 12.8447 25.1455 12.8637 25.1202 12.8764C24.8163 13.1802 24.5124 13.4841 24.2339 13.788C24.1959 13.826 24.1579 13.8703 24.1199 13.9146C24.0819 13.9589 24.0439 14.0032 24.006 14.0412C23.8864 14.1907 23.7629 14.3363 23.6401 14.481C23.4508 14.704 23.2633 14.9251 23.0943 15.1554C20.7393 18.2954 19.2959 22.2205 19.2959 26.4494C19.2959 30.6783 20.714 34.6033 23.0943 37.7433C23.3729 38.1231 23.6768 38.503 24.006 38.8575C24.0439 38.8955 24.0819 38.9398 24.1199 38.9841C24.1579 39.0284 24.1959 39.0728 24.2339 39.1107C24.4424 39.3572 24.6652 39.5753 24.8915 39.7969C24.9674 39.8712 25.0438 39.946 25.1202 40.0224C25.1455 40.035 25.1645 40.054 25.1835 40.073C25.2025 40.092 25.2215 40.111 25.2468 40.1236C26.0065 40.8074 26.7915 41.4658 27.6524 42.0229C27.7031 42.0482 27.7474 42.0798 27.7917 42.1115C27.836 42.1431 27.8803 42.1748 27.931 42.2001C28.007 42.2508 28.0893 42.3014 28.1716 42.3521C28.2539 42.4027 28.3362 42.4533 28.4121 42.504C28.5261 42.5673 28.6337 42.6306 28.7414 42.6939C28.849 42.7572 28.9566 42.8205 29.0705 42.8838ZM64.2693 12.826C69.4604 14.3453 73.4614 18.6755 74.3731 24.0946C74.4997 24.8543 74.5756 25.6646 74.5756 26.6269C74.5756 27.4372 74.4997 28.2222 74.3731 29.0072C73.4361 34.4009 69.4604 38.7565 64.2693 40.2758L64.2788 40.3423C64.3515 40.85 64.4212 41.3373 64.4212 41.8712C64.4212 47.4675 59.8884 52.0003 54.2921 52.0003C51.4813 52.0003 48.9237 50.8354 47.0751 48.9615C46.5687 50.3036 45.3025 51.2659 43.7832 51.2659C41.8333 51.2659 40.238 49.6706 40.238 47.7207C40.238 45.7455 41.5548 44.8846 44.3909 43.5678C44.6719 43.4367 44.939 43.2917 45.2128 43.1431C45.3091 43.0908 45.4063 43.0381 45.5051 42.9854C45.733 42.8587 45.9609 42.7321 46.1635 42.6055C46.3407 42.5042 46.4926 42.403 46.6445 42.3017L46.6446 42.3016C46.6953 42.2763 46.7396 42.2447 46.7839 42.213C46.8282 42.1814 46.8725 42.1497 46.9232 42.1244C47.7842 41.5673 48.5692 40.9089 49.3289 40.2252C49.3542 40.2125 49.3732 40.1935 49.3922 40.1745C49.4112 40.1555 49.4301 40.1365 49.4555 40.1239C49.7593 39.82 50.0632 39.5161 50.3418 39.2123C50.3797 39.1743 50.4177 39.13 50.4557 39.0856C50.4937 39.0413 50.5317 38.997 50.5697 38.959C50.6893 38.8096 50.8128 38.664 50.9356 38.5193C51.1248 38.2962 51.3124 38.0752 51.4813 37.8448C53.8363 34.7048 55.2797 30.7798 55.2797 26.5509C55.2797 22.322 53.8616 18.397 51.4813 15.257C51.2027 14.8771 50.8989 14.4973 50.5697 14.1428C50.5317 14.1048 50.4937 14.0605 50.4557 14.0161C50.4177 13.9718 50.3797 13.9275 50.3418 13.8895C50.0632 13.5603 49.7593 13.2565 49.4555 12.9779C49.4301 12.9652 49.4112 12.9463 49.3922 12.9273C49.3732 12.9083 49.3542 12.8893 49.3289 12.8766C48.5692 12.1929 47.7842 11.5598 46.9232 10.9774C46.8726 10.9521 46.8282 10.9204 46.7839 10.8888C46.7396 10.8571 46.6953 10.8255 46.6446 10.8001C46.5687 10.7495 46.4864 10.6988 46.4041 10.6482C46.3218 10.5976 46.2395 10.5469 46.1635 10.4963C46.0496 10.433 45.9419 10.3697 45.8343 10.3064C45.7267 10.243 45.6191 10.1797 45.5051 10.1164C45.1506 9.91385 44.7708 9.71127 44.3909 9.53401C41.5801 8.19191 40.238 7.33093 40.238 5.38108C40.238 3.43123 41.8333 1.8359 43.7832 1.8359C45.3025 1.8359 46.5687 2.79816 47.0751 4.14027C48.9237 2.26638 51.456 1.10154 54.2921 1.10154C59.8884 1.10154 64.4212 5.63431 64.4212 11.2306C64.4212 11.7624 64.3452 12.2942 64.2693 12.826Z" fill="#034AD8"/>
<path d="M48.3405 26.475C48.3405 20.3723 43.4025 15.4343 37.2998 15.4343C31.197 15.4343 26.259 20.3723 26.259 26.475C26.259 32.5778 31.197 37.5158 37.2998 37.5158C43.4025 37.5158 48.3405 32.5778 48.3405 26.475Z" fill="#034AD8"/>
<path fill-rule="evenodd" clip-rule="evenodd" d="M119.934 36.2634V0.83252H113.425V36.2634H119.934ZM98.4922 36.9972C101.494 36.9972 103.973 36.1979 105.931 34.5993C107.888 33.0006 109.161 31.0921 109.748 28.8735L104.022 26.965C103.696 28.0742 103.076 29.0285 102.162 29.8278C101.249 30.6271 100.026 31.0268 98.4922 31.0268C96.763 31.0268 95.303 30.4151 94.1122 29.1916C92.9214 27.9682 92.326 26.3125 92.326 24.2245C92.326 22.1365 92.9133 20.4889 94.0878 19.2818C95.2623 18.0746 96.7141 17.4711 98.4432 17.4711C101.216 17.4711 102.994 18.825 103.777 21.5329L109.601 19.5754C109.046 17.3242 107.79 15.4075 105.833 13.8252C103.875 12.2429 101.363 11.4517 98.2964 11.4517C94.7729 11.4517 91.8122 12.6588 89.4142 15.0731C87.0163 17.4874 85.8173 20.5378 85.8173 24.2245C85.8173 27.8785 87.0326 30.9208 89.4631 33.3513C91.8937 35.7819 94.9034 36.9972 98.4922 36.9972ZM145.097 33.3758C142.699 35.7901 139.689 36.9972 136.068 36.9972C132.446 36.9972 129.437 35.7901 127.039 33.3758C124.641 30.9616 123.442 27.9111 123.442 24.2245C123.442 20.5378 124.633 17.4874 127.014 15.0731C129.429 12.6588 132.446 11.4517 136.068 11.4517C139.689 11.4517 142.699 12.6588 145.097 15.0731C147.495 17.4874 148.694 20.5378 148.694 24.2245C148.694 27.9111 147.495 30.9616 145.097 33.3758ZM136.069 31.0757C134.373 31.0757 132.921 30.4721 131.714 29.265C130.539 28.0579 129.952 26.3777 129.952 24.2244C129.952 22.0712 130.547 20.391 131.738 19.1838C132.929 17.9767 134.373 17.3731 136.069 17.3731C137.766 17.3731 139.209 17.9767 140.4 19.1838C141.591 20.391 142.186 22.0712 142.186 24.2244C142.186 26.3777 141.591 28.0579 140.4 29.265C139.209 30.4721 137.766 31.0757 136.069 31.0757ZM164.901 36.0918C163.677 36.6301 162.381 36.8993 161.01 36.8993C158.172 36.8993 155.937 35.994 154.306 34.1833C152.675 32.3726 151.859 30.1133 151.859 27.4054V12.1858H158.368V26.0841C158.368 27.5196 158.743 28.6859 159.493 29.5831C160.244 30.4803 161.337 30.9289 162.772 30.9289C164.175 30.9289 165.284 30.4966 166.1 29.632C166.915 28.7675 167.323 27.6174 167.323 26.1819V12.1858H173.832V31.9077C173.832 33.441 173.914 34.8929 174.077 36.2631H167.862C167.731 35.6106 167.666 34.746 167.666 33.6694C167.046 34.746 166.124 35.5535 164.901 36.0918ZM189.5 36.8506C191.066 36.8506 192.444 36.5407 193.635 35.9208C194.826 35.3009 195.698 34.4853 196.253 33.4739C196.253 34.5179 196.335 35.4478 196.498 36.2634H202.713C202.582 34.9584 202.517 33.5066 202.517 31.9079V0.83252H196.106V14.584C195.03 12.5938 192.762 11.5988 189.304 11.5988C185.943 11.5988 183.178 12.8059 181.009 15.2202C178.839 17.6344 177.755 20.6196 177.755 24.1758C177.755 27.8298 178.856 30.8558 181.058 33.2537C183.26 35.6517 186.074 36.8506 189.5 36.8506ZM185.977 29.1918C187.086 30.4153 188.522 31.027 190.283 31.027C192.013 31.027 193.432 30.4071 194.541 29.1673C195.65 27.9276 196.205 26.2474 196.205 24.1268C196.205 22.0387 195.65 20.3993 194.541 19.2085C193.432 18.0177 192.013 17.4223 190.283 17.4223C188.554 17.4223 187.127 18.0259 186.001 19.233C184.876 20.4401 184.313 22.0877 184.313 24.1757C184.313 26.2963 184.868 27.9684 185.977 29.1918ZM218.798 36.9972C221.8 36.9972 224.279 36.1979 226.237 34.5993C228.194 33.0006 229.466 31.0921 230.054 28.8735L224.328 26.965C224.002 28.0742 223.382 29.0285 222.468 29.8278C221.555 30.6271 220.331 31.0268 218.798 31.0268C217.069 31.0268 215.609 30.4151 214.418 29.1916C213.227 27.9682 212.632 26.3125 212.632 24.2245C212.632 22.1365 213.219 20.4889 214.394 19.2818C215.568 18.0746 217.02 17.4711 218.749 17.4711C221.522 17.4711 223.3 18.825 224.083 21.5329L229.907 19.5754C229.352 17.3242 228.096 15.4075 226.139 13.8252C224.181 12.2429 221.669 11.4517 218.602 11.4517C215.079 11.4517 212.118 12.6588 209.72 15.0731C207.322 17.4874 206.123 20.5378 206.123 24.2245C206.123 27.8785 207.338 30.9208 209.769 33.3513C212.2 35.7819 215.209 36.9972 218.798 36.9972ZM248.562 33.3758C247.028 35.7574 244.663 36.9482 241.466 36.9482C238.986 36.9482 236.988 36.2305 235.471 34.795C233.954 33.3594 233.195 31.6629 233.195 29.7054C233.195 27.65 233.864 26.0025 235.202 24.7627C236.539 23.523 238.268 22.74 240.389 22.4137L246.311 21.5328C247.518 21.3697 248.121 20.7988 248.121 19.82C248.121 18.9065 247.77 18.1561 247.069 17.5689C246.368 16.9816 245.364 16.688 244.059 16.688C242.689 16.688 241.604 17.0632 240.805 17.8136C240.006 18.5639 239.557 19.4938 239.459 20.603L233.685 19.3796C233.913 17.2916 234.941 15.4482 236.768 13.8496C238.595 12.251 241.009 11.4517 244.01 11.4517C247.599 11.4517 250.242 12.3081 251.938 14.0209C253.635 15.7337 254.483 17.9278 254.483 20.603V32.4459C254.483 33.8814 254.581 35.1538 254.777 36.2631H248.806C248.643 35.5453 248.562 34.5829 248.562 33.3758ZM242.836 32.1036C241.857 32.1036 241.09 31.8345 240.536 31.2962C239.981 30.7578 239.704 30.0972 239.704 29.3142C239.704 27.585 240.699 26.5737 242.689 26.28L248.121 25.4481V26.5247C248.121 28.5149 247.624 29.9422 246.629 30.8068C245.633 31.6713 244.369 32.1036 242.836 32.1036ZM265.918 22.4141V36.2635H259.41V12.1862H265.723V15.1714C266.408 13.9968 267.386 13.0997 268.659 12.4798C269.931 11.8599 271.269 11.55 272.672 11.55C275.51 11.55 277.672 12.439 279.156 14.2171C280.64 15.9951 281.383 18.2871 281.383 21.0928V36.2635H274.874V22.2184C274.874 20.7829 274.507 19.6247 273.773 18.7438C273.039 17.8629 271.921 17.4225 270.421 17.4225C269.05 17.4225 267.957 17.8956 267.142 18.8417C266.326 19.7878 265.918 20.9786 265.918 22.4141ZM292.866 36.2635V22.4141C292.866 20.9786 293.274 19.7878 294.09 18.8417C294.905 17.8956 295.998 17.4225 297.368 17.4225C298.869 17.4225 299.987 17.8629 300.721 18.7438C301.455 19.6247 301.822 20.7829 301.822 22.2184V36.2635H308.33V21.0928C308.33 18.2871 307.588 15.9951 306.104 14.2171C304.619 12.439 302.458 11.55 299.619 11.55C298.217 11.55 296.879 11.8599 295.607 12.4798C294.334 13.0997 293.355 13.9968 292.67 15.1714V12.1862H286.357V36.2635H292.866ZM333.149 33.3758C330.751 35.79 327.742 36.9971 324.12 36.9971C320.499 36.9971 317.489 35.79 315.091 33.3758C312.693 30.9615 311.494 27.911 311.494 24.2244C311.494 20.5378 312.685 17.4873 315.067 15.073C317.481 12.6588 320.499 11.4517 324.12 11.4517C327.742 11.4517 330.751 12.6588 333.149 15.073C335.547 17.4873 336.746 20.5378 336.746 24.2244C336.746 27.911 335.547 30.9615 333.149 33.3758ZM324.121 31.0756C322.425 31.0756 320.973 30.4721 319.766 29.2649C318.591 28.0578 318.004 26.3776 318.004 24.2244C318.004 22.0711 318.6 20.3909 319.79 19.1838C320.981 17.9766 322.425 17.3731 324.121 17.3731C325.818 17.3731 327.262 17.9766 328.452 19.1838C329.643 20.3909 330.239 22.0711 330.239 24.2244C330.239 26.3776 329.643 28.0578 328.452 29.2649C327.262 30.4721 325.818 31.0756 324.121 31.0756ZM346.762 22.4141V36.2635H340.254V12.1862H346.567V15.1714C347.252 13.9968 348.23 13.0997 349.503 12.4798C350.775 11.8599 352.113 11.55 353.516 11.55C356.354 11.55 358.515 12.439 360 14.2171C361.484 15.9951 362.227 18.2871 362.227 21.0928V36.2635H355.718V22.2184C355.718 20.7829 355.351 19.6247 354.617 18.7438C353.883 17.8629 352.765 17.4225 351.265 17.4225C349.894 17.4225 348.801 17.8956 347.986 18.8417C347.17 19.7878 346.762 20.9786 346.762 22.4141Z" fill="#034AD8"/>
<path d="M315.211 65.2638C309.672 65.2638 305.451 61.043 305.451 55.767C305.451 50.491 309.672 46.2702 315.211 46.2702C320.224 46.2702 322.73 49.8315 322.73 49.8315L320.883 51.6781C320.883 51.6781 319.037 48.9082 315.211 48.9082C311.386 48.9082 308.353 51.9419 308.353 55.767C308.353 59.5921 311.386 62.6258 315.211 62.6258C319.037 62.6258 321.015 59.724 321.015 59.724L322.862 61.5706C322.862 61.5706 320.224 65.2638 315.211 65.2638ZM326.294 65V46.534H328.932L335.923 55.5032L342.914 46.534H345.552V65H342.65V51.4143L335.923 59.9878L329.196 51.4143V65H326.294ZM355.568 65.2638C351.083 65.2638 348.973 62.4939 348.973 62.4939L350.951 60.5154C350.951 60.5154 352.402 62.6258 355.568 62.6258C357.942 62.6258 359.261 61.3068 359.261 59.8559C359.261 55.767 349.5 58.2731 349.5 51.4143C349.5 48.6444 351.875 46.2702 355.832 46.2702C359.657 46.2702 361.635 48.6444 361.635 48.6444L359.657 50.6229C359.657 50.6229 358.338 48.9082 355.832 48.9082C353.589 48.9082 352.402 50.0953 352.402 51.4143C352.402 55.5032 362.163 52.9971 362.163 59.8559C362.163 62.7577 359.657 65.2638 355.568 65.2638Z" fill="#034AD8"/>
</g>
<defs>
<clipPath id="clip0_5258_169">
<rect height="100%" width="100%" fill="white"/>
</clipPath>
</defs>
</svg>
