<?xml version="1.0" encoding="utf-8"?>
<!-- Generator: Adobe Illustrator 24.0.0, SVG Export Plug-In . SVG Version: 6.00 Build 0)  -->
<svg version="1.1" id="图层_1" xmlns="http://www.w3.org/2000/svg" xmlns:xlink="http://www.w3.org/1999/xlink"
	 viewBox="0 0 299 118"  height="100%" width="100%" style="enable-background:new 0 0 299 118;" xml:space="preserve">
<style type="text/css">
	.st0{clip-path:url(#SVGID_2_);}
	.st1{fill:#414141;}
	.st2{fill:#3D4DF4;}
</style>
<g>
	<defs>
		<rect id="SVGID_1_" x="0.4" y="0" width="66.5" height="67.8"/>
	</defs>
	<clipPath id="SVGID_2_">
		<use xlink:href="#SVGID_1_"  style="overflow:visible;"/>
	</clipPath>
	<g class="st0">
		<path class="st1" d="M34.2,28l31.4,18.3c0.9,0.5,1.1,1.6,0.6,2.4c-0.2,0.3-0.4,0.5-0.6,0.6L35.6,66.9c-1.4,0.8-3.1,0.8-4.5,0
			L1.3,49.6c-0.9-0.5-1.1-1.6-0.6-2.4c0.2-0.3,0.4-0.5,0.6-0.6l23-13.4l7.9,13.6c0.5,0.8,1.5,1.1,2.4,0.7l0.1,0l0.1,0
			c0.6-0.4,0.9-1.2,0.7-2l-5-15.7l2.5-1.5C33.3,27.8,33.8,27.8,34.2,28z M36,58.6c-1.4-0.8-3.9-0.7-5.5,0.3l-3,1.7l7,4.1l2-1.2
			l-2-1.1l1-0.6C37.1,60.9,37.3,59.4,36,58.6z M32.1,59.9c0.6-0.3,1.4-0.4,1.8-0.1c0.5,0.3,0.4,0.7-0.2,1.1l-1,0.6l-1.7-1L32.1,59.9
			z M36.2,55.6l-2,1.2l7,4.1l2-1.2L36.2,55.6z M42.6,51.9l-2,1.2l2.9,1.7l-4.5-0.8L37,55.1l7,4.1l2-1.2L43,56.3l4.5,0.8l2.1-1.2
			L42.6,51.9z M56.3,43.8l-6,3.5l2.5,1.4l-3.7-0.7L47,49.3l2.9,1.7l-4.5-0.8l-2.1,1.2l7,4.1l2-1.2l-2.9-1.7l4.5,0.8l2.1-1.2
			l-2.9-1.7l4,0.7l0.2,0.1l2-1.2l4-2.3l-1.7-1l-4,2.3l-1-0.6l4-2.3l-1.7-1l-4,2.3L54,47.1l4-2.3L56.3,43.8z"/>
		<path class="st2" d="M41.7,0c0.1,0,0.2,0,0.3,0c1,0.2,1.6,1.1,1.5,2.1l-2.3,13.5c3.9,2.5,6.5,6.9,6.5,11.9v0.7l-10.3,0l-2,17.9
			c-0.1,0.8-0.7,1.4-1.5,1.5l-0.1,0c-1,0.1-1.9-0.6-2-1.5l-2-17.9H19.6v-0.7c0-5,2.6-9.4,6.5-11.9L23.8,2.1c0-0.1,0-0.2,0-0.3
			c0-1,0.8-1.8,1.8-1.8H41.7z"/>
	</g>
</g>
<path class="st1" d="M277.4,61c-3.7,0-7.1-0.8-10-2.4c-2.8-1.6-5.1-3.9-6.7-6.8c-1.6-2.9-2.4-6.4-2.4-10.3v-0.9
	c0-4,0.8-7.4,2.4-10.3c1.6-2.9,3.8-5.2,6.6-6.8c2.8-1.6,6.1-2.4,9.9-2.4c3.7,0,6.9,0.8,9.7,2.5c2.7,1.6,4.9,3.9,6.4,6.8
	c1.5,2.9,2.3,6.3,2.3,10.1v3.3h-27.4c0.1,2.6,1.1,4.7,2.9,6.3c1.8,1.6,4.1,2.4,6.7,2.4c2.7,0,4.7-0.6,5.9-1.7
	c1.3-1.2,2.2-2.5,2.9-3.9l7.8,4.1c-0.7,1.3-1.7,2.8-3.1,4.3c-1.3,1.5-3.1,2.8-5.3,4C283.6,60.5,280.8,61,277.4,61z M268.2,36.8h17.6
	c-0.2-2.2-1.1-3.9-2.7-5.2c-1.5-1.3-3.5-2-6-2c-2.6,0-4.6,0.7-6.2,2C269.5,32.9,268.5,34.6,268.2,36.8z"/>
<path class="st1" d="M192.9,60V6.8h18.6l9.2,46.4h1.4l9.2-46.4h18.6V60h-9.7V14.1h-1.4L229.6,60h-16.6L204,14.1h-1.4V60H192.9z"/>
<path class="st1" d="M146.3,60V22.3h9.4v4.9h1.4c0.6-1.3,1.7-2.6,3.4-3.7c1.7-1.2,4.2-1.8,7.6-1.8c2.9,0,5.5,0.7,7.7,2.1
	c2.2,1.3,4,3.2,5.2,5.5c1.2,2.3,1.8,5.1,1.8,8.2V60h-9.6V38.2c0-2.8-0.7-5-2.1-6.4c-1.4-1.4-3.3-2.1-5.9-2.1c-2.9,0-5.2,1-6.8,3
	c-1.6,1.9-2.4,4.6-2.4,8.1V60H146.3z"/>
<path class="st1" d="M126.1,60V22.3h9.6V60H126.1z M130.9,17.9c-1.7,0-3.2-0.6-4.4-1.7c-1.2-1.1-1.7-2.6-1.7-4.4
	c0-1.8,0.6-3.3,1.7-4.4c1.2-1.1,2.7-1.7,4.4-1.7c1.8,0,3.2,0.6,4.4,1.7c1.2,1.1,1.7,2.6,1.7,4.4c0,1.8-0.6,3.3-1.7,4.4
	C134.2,17.3,132.7,17.9,130.9,17.9z"/>
<path class="st1" d="M79.9,60V6.8h21.9c3.3,0,6.3,0.7,8.8,2.1c2.6,1.3,4.6,3.2,6,5.6c1.5,2.4,2.2,5.3,2.2,8.7v1.1
	c0,3.3-0.8,6.2-2.3,8.7c-1.5,2.4-3.5,4.3-6.1,5.7c-2.5,1.3-5.4,2-8.7,2H89.9V60H79.9z M89.9,31.4h10.9c2.4,0,4.3-0.7,5.8-2
	c1.5-1.3,2.2-3.1,2.2-5.4v-0.8c0-2.3-0.7-4.1-2.2-5.4c-1.5-1.3-3.4-2-5.8-2H89.9V31.4z"/>
<path class="st2" d="M285.3,112V91h13.5v3.6h-9.5v5h8.7v3.6h-8.7v5.2h9.7v3.6H285.3z"/>
<path class="st2" d="M268.7,112V91h13.5v3.6h-9.5v5h8.7v3.6h-8.7v5.2h9.7v3.6H268.7z"/>
<path class="st2" d="M249.7,112V91h9.1c1.3,0,2.5,0.2,3.4,0.7c1,0.5,1.7,1.1,2.3,1.9c0.5,0.8,0.8,1.8,0.8,3v0.4
	c0,1.3-0.3,2.3-0.9,3.1c-0.6,0.8-1.3,1.4-2.2,1.7v0.5c0.8,0,1.4,0.3,1.9,0.8c0.4,0.5,0.7,1.2,0.7,2v6.9h-4v-6.3
	c0-0.5-0.1-0.9-0.4-1.2c-0.2-0.3-0.6-0.4-1.2-0.4h-5.5v7.9H249.7z M253.7,100.4h4.7c0.9,0,1.7-0.2,2.2-0.8c0.5-0.5,0.8-1.2,0.8-2
	v-0.3c0-0.8-0.3-1.5-0.8-2c-0.5-0.5-1.3-0.8-2.2-0.8h-4.7V100.4z"/>
<path class="st2" d="M233.7,112V91h13.2v3.6h-9.2v5.1h8.5v3.6h-8.5v8.7H233.7z"/>
<path class="st1" d="M214.3,112V97.1h3.7v1.7h0.5c0.2-0.6,0.6-1,1.1-1.3c0.5-0.3,1.1-0.4,1.8-0.4h1.8v3.4h-1.9c-1,0-1.8,0.3-2.4,0.8
	c-0.6,0.5-0.9,1.3-0.9,2.3v8.5H214.3z"/>
<path class="st1" d="M203,112.4c-1.5,0-2.8-0.3-4-0.9c-1.2-0.6-2.1-1.5-2.8-2.6c-0.7-1.1-1-2.5-1-4.1v-0.5c0-1.6,0.3-3,1-4.1
	c0.7-1.1,1.6-2,2.8-2.6c1.2-0.6,2.5-0.9,4-0.9c1.5,0,2.8,0.3,4,0.9c1.2,0.6,2.1,1.5,2.8,2.6c0.7,1.1,1,2.5,1,4.1v0.5
	c0,1.6-0.3,3-1,4.1c-0.7,1.1-1.6,2-2.8,2.6C205.8,112.1,204.5,112.4,203,112.4z M203,109c1.2,0,2.1-0.4,2.9-1.1
	c0.8-0.8,1.1-1.8,1.1-3.2v-0.3c0-1.4-0.4-2.5-1.1-3.2c-0.7-0.8-1.7-1.1-2.9-1.1c-1.2,0-2.1,0.4-2.9,1.1c-0.8,0.7-1.1,1.8-1.1,3.2
	v0.3c0,1.4,0.4,2.5,1.1,3.2C200.9,108.7,201.8,109,203,109z"/>
<path class="st1" d="M185.8,112v-11.8H182v-3.1h3.8v-2.8c0-1,0.3-1.8,0.9-2.4c0.6-0.6,1.4-0.9,2.4-0.9h3.9v3.1h-2.6
	c-0.6,0-0.8,0.3-0.8,0.9v2.1h3.9v3.1h-3.9V112H185.8z"/>
<path class="st1" d="M155.9,104.6v-0.5c0-1.6,0.3-2.9,0.9-4c0.6-1.1,1.4-2,2.5-2.5c1-0.6,2.2-0.9,3.4-0.9c1.4,0,2.4,0.2,3.1,0.7
	c0.7,0.5,1.2,1,1.5,1.5h0.5v-1.8h3.7v17.5c0,1-0.3,1.8-0.9,2.4c-0.6,0.6-1.4,0.9-2.4,0.9h-10v-3.3h8.6c0.6,0,0.8-0.3,0.8-0.9v-3.9
	h-0.5c-0.2,0.3-0.5,0.7-0.8,1c-0.4,0.3-0.8,0.6-1.4,0.8c-0.6,0.2-1.4,0.3-2.3,0.3c-1.2,0-2.3-0.3-3.4-0.9c-1-0.6-1.8-1.4-2.5-2.6
	C156.2,107.5,155.9,106.1,155.9,104.6z M163.7,108.7c1.2,0,2.1-0.4,2.9-1.1s1.2-1.8,1.2-3.1v-0.3c0-1.4-0.4-2.4-1.2-3.1
	c-0.8-0.7-1.7-1.1-2.9-1.1c-1.2,0-2.1,0.4-2.9,1.1c-0.8,0.7-1.2,1.8-1.2,3.1v0.3c0,1.3,0.4,2.4,1.2,3.1S162.6,108.7,163.7,108.7z"/>
<path class="st1" d="M145.3,112.4c-1.5,0-2.8-0.3-4-0.9c-1.2-0.6-2.1-1.5-2.8-2.6s-1-2.5-1-4.1v-0.5c0-1.6,0.3-3,1-4.1
	c0.7-1.1,1.6-2,2.8-2.6c1.2-0.6,2.5-0.9,4-0.9s2.8,0.3,4,0.9c1.2,0.6,2.1,1.5,2.8,2.6c0.7,1.1,1,2.5,1,4.1v0.5c0,1.6-0.3,3-1,4.1
	c-0.7,1.1-1.6,2-2.8,2.6C148.1,112.1,146.8,112.4,145.3,112.4z M145.3,109c1.2,0,2.1-0.4,2.9-1.1c0.8-0.8,1.1-1.8,1.1-3.2v-0.3
	c0-1.4-0.4-2.5-1.1-3.2c-0.7-0.8-1.7-1.1-2.9-1.1c-1.2,0-2.1,0.4-2.9,1.1c-0.8,0.7-1.1,1.8-1.1,3.2v0.3c0,1.4,0.4,2.5,1.1,3.2
	C143.2,108.7,144.1,109,145.3,109z"/>
<path class="st1" d="M130.3,112V91h3.8v21H130.3z"/>
<path class="st1" d="M109.6,112v-3.5h2.8v-14h-2.8V91h10.8c1.3,0,2.4,0.2,3.3,0.7c1,0.4,1.7,1,2.2,1.8c0.5,0.8,0.8,1.7,0.8,2.8v0.3
	c0,1-0.2,1.8-0.5,2.4c-0.4,0.6-0.8,1.1-1.3,1.4c-0.5,0.3-0.9,0.6-1.4,0.7v0.5c0.4,0.1,0.9,0.3,1.4,0.7c0.5,0.3,1,0.8,1.3,1.4
	c0.4,0.6,0.6,1.4,0.6,2.4v0.3c0,1.2-0.3,2.2-0.8,3c-0.5,0.8-1.3,1.4-2.2,1.9c-0.9,0.4-2,0.7-3.3,0.7H109.6z M116.3,108.4h3.7
	c0.9,0,1.6-0.2,2.1-0.6c0.5-0.4,0.8-1,0.8-1.8v-0.3c0-0.8-0.3-1.4-0.8-1.8c-0.5-0.4-1.2-0.6-2.1-0.6h-3.7V108.4z M116.3,99.6h3.7
	c0.8,0,1.5-0.2,2-0.6c0.5-0.4,0.8-1,0.8-1.7v-0.3c0-0.8-0.3-1.3-0.8-1.7c-0.5-0.4-1.2-0.6-2-0.6h-3.7V99.6z"/>
<path class="st1" d="M85.9,118v-3.3H94c0.6,0,0.8-0.3,0.8-0.9V110h-0.5c-0.2,0.3-0.4,0.7-0.8,1c-0.3,0.3-0.8,0.6-1.4,0.8
	c-0.6,0.2-1.3,0.3-2.2,0.3c-1.2,0-2.2-0.3-3.1-0.8c-0.9-0.5-1.5-1.3-2-2.2c-0.5-0.9-0.7-2-0.7-3.2v-8.9h3.8v8.6c0,1.1,0.3,2,0.8,2.5
	c0.6,0.6,1.4,0.8,2.4,0.8c1.2,0,2.1-0.4,2.7-1.1c0.6-0.8,1-1.9,1-3.2v-7.6h3.8v17.5c0,1-0.3,1.8-0.9,2.4c-0.6,0.6-1.4,0.9-2.4,0.9
	H85.9z"/>
<path class="st1" d="M72.9,112.4c-1.5,0-2.8-0.3-4-0.9s-2.1-1.5-2.8-2.6s-1-2.5-1-4.1v-0.5c0-1.6,0.3-3,1-4.1c0.7-1.1,1.6-2,2.8-2.6
	s2.5-0.9,4-0.9c1.5,0,2.8,0.3,4,0.9s2.1,1.5,2.8,2.6c0.7,1.1,1,2.5,1,4.1v0.5c0,1.6-0.3,3-1,4.1s-1.6,2-2.8,2.6
	S74.4,112.4,72.9,112.4z M72.9,109c1.2,0,2.1-0.4,2.9-1.1c0.8-0.8,1.1-1.8,1.1-3.2v-0.3c0-1.4-0.4-2.5-1.1-3.2
	c-0.7-0.8-1.7-1.1-2.9-1.1c-1.2,0-2.1,0.4-2.9,1.1c-0.8,0.7-1.1,1.8-1.1,3.2v0.3c0,1.4,0.4,2.5,1.1,3.2
	C70.8,108.7,71.8,109,72.9,109z"/>
<path class="st1" d="M57.9,112V91h3.8v21H57.9z"/>
<path class="st1" d="M38.8,118V97.1h3.7v1.8H43c0.3-0.6,0.9-1.1,1.6-1.5c0.7-0.5,1.8-0.7,3.1-0.7c1.2,0,2.3,0.3,3.3,0.9
	c1,0.6,1.8,1.4,2.5,2.6c0.6,1.1,0.9,2.5,0.9,4.1v0.5c0,1.6-0.3,3-0.9,4.1c-0.6,1.1-1.4,2-2.5,2.6c-1,0.6-2.1,0.9-3.3,0.9
	c-0.9,0-1.7-0.1-2.3-0.3c-0.6-0.2-1.1-0.5-1.5-0.8c-0.4-0.3-0.7-0.7-0.9-1h-0.5v7.7H38.8z M46.6,109.1c1.2,0,2.1-0.4,2.9-1.1
	c0.8-0.8,1.2-1.9,1.2-3.3v-0.3c0-1.4-0.4-2.5-1.2-3.3c-0.8-0.8-1.8-1.1-2.9-1.1s-2.1,0.4-2.9,1.1c-0.8,0.7-1.2,1.8-1.2,3.3v0.3
	c0,1.4,0.4,2.5,1.2,3.3C44.4,108.7,45.4,109.1,46.6,109.1z"/>
<path class="st1" d="M28.2,112.4c-1.5,0-2.8-0.3-3.9-0.9c-1.1-0.6-2-1.5-2.6-2.7c-0.6-1.2-0.9-2.5-0.9-4.1v-0.4
	c0-1.6,0.3-2.9,0.9-4.1c0.6-1.2,1.5-2,2.6-2.7c1.1-0.6,2.4-1,3.9-1c1.5,0,2.7,0.3,3.8,1c1.1,0.6,1.9,1.5,2.5,2.7
	c0.6,1.1,0.9,2.5,0.9,4v1.3H24.6c0,1,0.4,1.8,1.1,2.5c0.7,0.6,1.6,1,2.6,1c1.1,0,1.8-0.2,2.3-0.7s0.9-1,1.1-1.5l3.1,1.6
	c-0.3,0.5-0.7,1.1-1.2,1.7c-0.5,0.6-1.2,1.1-2.1,1.6C30.7,112.2,29.6,112.4,28.2,112.4z M24.6,102.8h7c-0.1-0.9-0.4-1.6-1-2.1
	c-0.6-0.5-1.4-0.8-2.4-0.8c-1,0-1.8,0.3-2.4,0.8C25.1,101.3,24.7,102,24.6,102.8z"/>
<path class="st1" d="M0.8,112v-3.5h2.8v-14H0.8V91h8.6c2.8,0,5,0.7,6.4,2.2c1.5,1.4,2.2,3.5,2.2,6.4v4c0,2.8-0.7,4.9-2.2,6.4
	c-1.5,1.4-3.6,2.1-6.4,2.1H0.8z M7.5,108.4h2c1.6,0,2.8-0.4,3.5-1.3c0.7-0.8,1.1-2,1.1-3.5v-4.2c0-1.5-0.4-2.7-1.1-3.5
	c-0.7-0.8-1.9-1.3-3.5-1.3h-2V108.4z"/>
</svg>
