<svg width="100%" height="100%" viewBox="0 0 600 600" version="1.1" xmlns="http://www.w3.org/2000/svg" xmlns:xlink="http://www.w3.org/1999/xlink" xml:space="preserve" style="fill-rule:evenodd;clip-rule:evenodd;stroke-linejoin:round;stroke-miterlimit:1.41421;">
  <g transform="matrix(2.02793,0,0,2.13124,-464.113,-349.991)">
    <path d="M493.269,343.75C493.269,343.75 493.269,279.796 493.269,252.569C493.269,245.11 489.118,238.209 482.359,234.43C460.478,222.197 411.293,194.7 387.449,181.369C379.162,176.736 368.863,176.841 360.682,181.641C338.901,194.421 295.851,219.681 273.892,232.566C265.456,237.515 260.319,246.272 260.319,255.702C260.319,281.201 260.319,332.352 260.319,357.806C260.319,367.16 265.536,375.812 274.024,380.533C296.799,393.2 341.997,418.339 362.901,429.965C369.767,433.784 378.242,433.868 385.191,430.186C407.742,418.235 458.399,391.389 481.447,379.175C488.745,375.308 493.269,367.984 493.269,360.036C493.269,352.224 493.269,343.75 493.269,343.75Z" style="fill:rgb(255,64,136);" />
    <path d="M374.371,171.632L374.493,171.632L374.507,171.633L374.63,171.633L374.644,171.634L374.766,171.635L374.78,171.635L374.903,171.637L374.917,171.637L375.039,171.64L375.053,171.64L375.175,171.643L375.189,171.643L375.312,171.647L375.326,171.647L375.448,171.651L375.462,171.652L375.585,171.656L375.599,171.656L375.721,171.661L375.735,171.662L375.857,171.667L375.871,171.668L375.994,171.674L376.007,171.674L376.13,171.681L376.144,171.681L376.266,171.688L376.28,171.689L376.402,171.696L376.416,171.697L376.539,171.705L376.552,171.706L376.675,171.714L376.689,171.715L376.811,171.724L376.825,171.725L376.947,171.734L376.961,171.735L377.083,171.745L377.097,171.746L377.219,171.756L377.233,171.757L377.355,171.768L377.369,171.769L377.491,171.78L377.505,171.782L377.627,171.793L377.641,171.795L377.763,171.807L377.777,171.808L377.899,171.821L377.913,171.822L378.035,171.836L378.048,171.837L378.17,171.851L378.184,171.852L378.306,171.866L378.32,171.868L378.442,171.883L378.456,171.884L378.577,171.899L378.591,171.901L378.713,171.917L378.727,171.918L378.848,171.935L378.862,171.936L378.984,171.953L378.998,171.955L379.119,171.972L379.133,171.974L379.254,171.991L379.268,171.993L379.39,172.011L379.403,172.013L379.525,172.032L379.539,172.034L379.66,172.053L379.674,172.055L379.795,172.075L379.809,172.077L379.93,172.097L379.944,172.099L380.065,172.12L380.079,172.122L380.2,172.143L380.213,172.145L380.334,172.167L380.348,172.169L380.469,172.191L380.483,172.194L380.604,172.216L380.617,172.219L380.738,172.242L380.752,172.244L380.873,172.268L380.886,172.27L381.007,172.294L381.021,172.297L381.141,172.321L381.155,172.324L381.275,172.349L381.289,172.352L381.409,172.377L381.423,172.38L381.543,172.406L381.557,172.409L381.677,172.435L381.691,172.438L381.811,172.465L381.825,172.468L381.945,172.495L381.958,172.498L382.078,172.526L382.092,172.529L382.212,172.558L382.225,172.561L382.345,172.59L382.359,172.593L382.478,172.622L382.492,172.626L382.611,172.655L382.625,172.659L382.744,172.689L382.758,172.692L382.877,172.723L382.891,172.727L383.01,172.758L383.024,172.761L383.143,172.793L383.156,172.797L383.275,172.829L383.289,172.833L383.408,172.865L383.421,172.869L383.54,172.902L383.553,172.906L383.672,172.94L383.686,172.943L383.804,172.978L383.818,172.982L383.936,173.016L383.95,173.02L384.068,173.055L384.082,173.059L384.2,173.095L384.213,173.099L384.331,173.135L384.345,173.139L384.463,173.176L384.476,173.18L384.594,173.217L384.607,173.221L384.725,173.259L384.738,173.263L384.856,173.301L384.869,173.305L384.987,173.344L385,173.348L385.117,173.387L385.131,173.392L385.248,173.431L385.261,173.436L385.378,173.476L385.392,173.48L385.509,173.521L385.522,173.526L385.639,173.567L385.652,173.571L385.769,173.613L385.782,173.617L385.898,173.659L385.912,173.664L386.028,173.707L386.041,173.711L386.157,173.754L386.171,173.759L386.287,173.803L386.3,173.808L386.416,173.852L386.429,173.857L386.545,173.901L386.558,173.906L386.674,173.951L386.687,173.956L386.802,174.001L386.815,174.007L386.931,174.053L386.944,174.058L387.059,174.104L387.072,174.109L387.187,174.156L387.2,174.162L387.315,174.209L387.328,174.214L387.442,174.262L387.456,174.268L387.57,174.316L387.583,174.321L387.698,174.37L387.711,174.376L387.825,174.425L387.838,174.431L387.952,174.48L387.965,174.486L388.078,174.536L388.091,174.542L388.205,174.593L388.218,174.599L388.331,174.65L388.344,174.656L388.457,174.707L388.47,174.713L388.583,174.766L388.596,174.772L388.709,174.824L388.722,174.83L388.835,174.883L388.848,174.889L388.96,174.943L388.973,174.949L389.085,175.003L389.098,175.009L389.21,175.064L389.223,175.07L389.335,175.126L389.348,175.132L389.46,175.188L389.472,175.194L389.584,175.25L389.597,175.256L389.708,175.313L389.72,175.319L389.832,175.376L389.844,175.383L389.956,175.441L389.968,175.447L390.079,175.505L390.092,175.512L390.202,175.57L390.215,175.577L390.325,175.636L390.338,175.643L390.448,175.702L390.46,175.709L390.57,175.769L390.583,175.776L390.693,175.836L390.705,175.843L390.818,175.906L485.734,228.97L485.828,229.023L485.84,229.029L485.93,229.081L485.943,229.088L486.033,229.14L486.045,229.146L486.135,229.198L486.146,229.205L486.236,229.258L486.249,229.265L486.338,229.318L486.349,229.324L486.438,229.377L486.45,229.384L486.539,229.437L486.551,229.445L486.64,229.498L486.651,229.505L486.739,229.559L486.751,229.566L486.84,229.621L486.851,229.628L486.939,229.682L486.95,229.69L487.038,229.745L487.049,229.752L487.136,229.807L487.148,229.814L487.235,229.87L487.247,229.877L487.334,229.933L487.345,229.941L487.431,229.997L487.442,230.004L487.529,230.06L487.54,230.068L487.626,230.125L487.637,230.132L487.722,230.189L487.734,230.197L487.819,230.254L487.83,230.262L487.916,230.32L487.927,230.328L488.012,230.386L488.023,230.393L488.107,230.451L488.118,230.459L488.202,230.518L488.214,230.526L488.298,230.585L488.308,230.592L488.392,230.651L488.402,230.659L488.486,230.719L488.497,230.727L488.58,230.787L488.591,230.795L488.674,230.855L488.684,230.862L488.766,230.923L488.778,230.931L488.86,230.992L488.871,231L488.952,231.061L488.963,231.069L489.047,231.132L489.063,231.144L489.223,231.266L489.244,231.282L489.405,231.407L489.426,231.423L489.586,231.549L489.607,231.566L489.766,231.693L489.786,231.71L489.944,231.838L489.965,231.855L490.121,231.984L490.141,232.001L490.296,232.132L490.316,232.149L490.47,232.281L490.49,232.298L490.643,232.431L490.663,232.448L490.814,232.582L490.834,232.6L490.984,232.735L491.004,232.752L491.153,232.888L491.172,232.906L491.319,233.043L491.339,233.061L491.486,233.199L491.504,233.217L491.65,233.357L491.669,233.375L491.813,233.515L491.831,233.534L491.974,233.675L491.992,233.694L492.134,233.836L492.152,233.854L492.292,233.998L492.311,234.017L492.449,234.161L492.468,234.18L492.605,234.325L492.623,234.344L492.759,234.491L492.777,234.51L492.912,234.657L492.929,234.676L493.063,234.825L493.08,234.844L493.212,234.993L493.23,235.013L493.361,235.163L493.378,235.183L493.507,235.334L493.524,235.354L493.652,235.506L493.669,235.526L493.796,235.679L493.813,235.699L493.939,235.853L493.955,235.873L494.079,236.028L494.095,236.048L494.218,236.204L494.234,236.224L494.356,236.381L494.372,236.402L494.492,236.56L494.508,236.58L494.626,236.738L494.642,236.759L494.76,236.919L494.775,236.939L494.891,237.099L494.906,237.12L495.021,237.282L495.036,237.303L495.15,237.465L495.164,237.486L495.276,237.649L495.291,237.67L495.401,237.834L495.416,237.855L495.525,238.019L495.539,238.041L495.647,238.206L495.661,238.228L495.768,238.394L495.782,238.416L495.887,238.583L495.9,238.604L496.004,238.772L496.017,238.794L496.119,238.962L496.133,238.984L496.234,239.154L496.247,239.176L496.346,239.345L496.359,239.368L496.457,239.538L496.469,239.561L496.566,239.732L496.578,239.754L496.673,239.927L496.686,239.95L496.78,240.123L496.792,240.145L496.884,240.319L496.896,240.342L496.986,240.516L496.998,240.538L497.087,240.713L497.099,240.737L497.187,240.913L497.198,240.936L497.284,241.112L497.295,241.135L497.38,241.312L497.392,241.336L497.475,241.513L497.485,241.536L497.567,241.715L497.578,241.738L497.658,241.918L497.669,241.941L497.748,242.121L497.758,242.144L497.835,242.325L497.845,242.348L497.921,242.53L497.931,242.553L498.005,242.735L498.015,242.759L498.088,242.941L498.097,242.965L498.168,243.148L498.177,243.172L498.247,243.355L498.256,243.379L498.324,243.563L498.333,243.588L498.4,243.773L498.408,243.796L498.474,243.982L498.482,244.007L498.546,244.193L498.554,244.217L498.616,244.403L498.624,244.427L498.684,244.614L498.692,244.638L498.751,244.826L498.759,244.851L498.816,245.039L498.824,245.064L498.879,245.253L498.886,245.277L498.941,245.466L498.948,245.491L499,245.68L499.007,245.705L499.058,245.895L499.064,245.92L499.114,246.111L499.12,246.136L499.168,246.327L499.174,246.352L499.22,246.543L499.226,246.568L499.271,246.761L499.277,246.786L499.32,246.978L499.325,247.004L499.366,247.196L499.372,247.221L499.411,247.415L499.417,247.44L499.455,247.634L499.459,247.66L499.496,247.854L499.501,247.88L499.535,248.074L499.54,248.099L499.573,248.294L499.577,248.319L499.609,248.515L499.613,248.541L499.642,248.733L499.645,248.752L499.66,248.854L499.662,248.868L499.676,248.966L499.677,248.977L499.691,249.075L499.692,249.088L499.705,249.187L499.707,249.2L499.72,249.299L499.721,249.312L499.734,249.41L499.735,249.422L499.747,249.52L499.748,249.534L499.76,249.633L499.761,249.646L499.772,249.744L499.774,249.757L499.784,249.856L499.786,249.87L499.796,249.969L499.797,249.98L499.806,250.079L499.808,250.093L499.817,250.192L499.818,250.205L499.827,250.304L499.828,250.317L499.837,250.416L499.838,250.43L499.846,250.529L499.847,250.542L499.854,250.641L499.855,250.654L499.862,250.753L499.863,250.765L499.87,250.865L499.871,250.879L499.877,250.979L499.878,250.991L499.884,251.091L499.884,251.105L499.89,251.205L499.891,251.217L499.895,251.317L499.896,251.329L499.901,251.429L499.901,251.443L499.905,251.543L499.906,251.557L499.91,251.656L499.91,251.668L499.913,251.768L499.914,251.783L499.917,251.883L499.917,251.896L499.919,251.995L499.919,252.008L499.921,252.108L499.922,252.122L499.923,252.222L499.923,252.234L499.924,252.335L499.925,252.348L499.925,252.449L499.925,252.463L499.926,252.566L499.926,360.039L499.926,360.046L499.925,360.149L499.925,360.163L499.925,360.269L499.924,360.282L499.923,360.388L499.923,360.402L499.921,360.508L499.921,360.522L499.919,360.628L499.919,360.641L499.916,360.747L499.916,360.761L499.913,360.867L499.912,360.881L499.909,360.987L499.908,361L499.904,361.106L499.904,361.119L499.899,361.225L499.899,361.238L499.894,361.344L499.893,361.358L499.888,361.463L499.887,361.476L499.881,361.582L499.88,361.596L499.874,361.702L499.873,361.716L499.866,361.821L499.866,361.833L499.858,361.938L499.857,361.953L499.85,362.058L499.849,362.07L499.84,362.175L499.839,362.189L499.831,362.295L499.829,362.309L499.82,362.413L499.819,362.425L499.81,362.53L499.809,362.544L499.798,362.65L499.797,362.664L499.787,362.768L499.785,362.78L499.774,362.885L499.773,362.899L499.762,363.003L499.76,363.016L499.748,363.121L499.747,363.135L499.734,363.239L499.733,363.252L499.72,363.356L499.718,363.37L499.705,363.474L499.703,363.487L499.69,363.591L499.688,363.604L499.674,363.708L499.672,363.721L499.658,363.825L499.656,363.838L499.641,363.943L499.639,363.957L499.623,364.06L499.621,364.072L499.605,364.176L499.603,364.189L499.587,364.293L499.585,364.307L499.568,364.41L499.566,364.422L499.549,364.526L499.546,364.54L499.528,364.643L499.526,364.655L499.508,364.758L499.506,364.771L499.487,364.874L499.485,364.887L499.466,364.99L499.463,365.003L499.444,365.106L499.441,365.119L499.421,365.222L499.419,365.235L499.398,365.338L499.396,365.351L499.375,365.453L499.372,365.466L499.351,365.568L499.348,365.581L499.327,365.683L499.324,365.696L499.302,365.799L499.299,365.812L499.276,365.914L499.273,365.926L499.25,366.028L499.248,366.041L499.224,366.143L499.221,366.156L499.197,366.258L499.194,366.271L499.169,366.372L499.166,366.384L499.142,366.485L499.139,366.497L499.114,366.599L499.11,366.613L499.084,366.715L499.081,366.727L499.055,366.827L499.052,366.84L499.025,366.94L499.022,366.953L498.995,367.054L498.992,367.066L498.964,367.167L498.961,367.18L498.933,367.281L498.929,367.294L498.901,367.394L498.897,367.407L498.869,367.506L498.865,367.519L498.836,367.619L498.832,367.632L498.803,367.732L498.799,367.744L498.769,367.843L498.766,367.856L498.735,367.955L498.731,367.969L498.7,368.068L498.697,368.08L498.665,368.18L498.661,368.193L498.629,368.292L498.625,368.305L498.593,368.403L498.589,368.416L498.557,368.514L498.553,368.527L498.52,368.625L498.516,368.637L498.483,368.736L498.478,368.749L498.444,368.848L498.44,368.86L498.406,368.958L498.402,368.97L498.367,369.068L498.363,369.08L498.328,369.178L498.323,369.191L498.288,369.289L498.283,369.302L498.247,369.4L498.243,369.411L498.207,369.508L498.202,369.521L498.165,369.618L498.161,369.63L498.124,369.727L498.119,369.74L498.081,369.837L498.077,369.848L498.039,369.945L498.034,369.958L497.995,370.055L497.991,370.066L497.952,370.162L497.947,370.175L497.908,370.272L497.903,370.285L497.863,370.381L497.858,370.392L497.818,370.488L497.813,370.5L497.773,370.596L497.768,370.608L497.727,370.704L497.722,370.716L497.681,370.811L497.676,370.822L497.634,370.918L497.628,370.931L497.586,371.026L497.581,371.038L497.539,371.132L497.534,371.143L497.491,371.238L497.485,371.251L497.442,371.346L497.437,371.357L497.393,371.451L497.387,371.464L497.343,371.558L497.337,371.57L497.293,371.664L497.288,371.675L497.243,371.769L497.237,371.781L497.192,371.875L497.187,371.886L497.141,371.979L497.135,371.992L497.089,372.085L497.083,372.097L497.036,372.19L497.031,372.202L496.984,372.294L496.978,372.306L496.931,372.399L496.925,372.411L496.877,372.503L496.871,372.514L496.823,372.607L496.817,372.619L496.768,372.712L496.763,372.722L496.714,372.813L496.708,372.826L496.658,372.918L496.652,372.929L496.603,373.02L496.596,373.032L496.546,373.124L496.54,373.135L496.49,373.226L496.483,373.237L496.432,373.328L496.426,373.34L496.375,373.431L496.368,373.442L496.317,373.532L496.31,373.544L496.259,373.634L496.252,373.645L496.2,373.735L496.193,373.747L496.14,373.837L496.134,373.848L496.08,373.938L496.074,373.949L496.02,374.039L496.014,374.05L495.96,374.139L495.953,374.15L495.899,374.239L495.892,374.251L495.837,374.34L495.83,374.351L495.775,374.44L495.769,374.45L495.713,374.538L495.706,374.55L495.65,374.639L495.643,374.65L495.587,374.737L495.58,374.748L495.524,374.835L495.516,374.847L495.459,374.935L495.452,374.946L495.395,375.033L495.388,375.044L495.33,375.131L495.323,375.142L495.264,375.23L495.257,375.24L495.199,375.327L495.192,375.337L495.133,375.424L495.126,375.434L495.066,375.521L495.059,375.532L494.999,375.618L494.992,375.629L494.932,375.715L494.924,375.725L494.864,375.811L494.856,375.822L494.795,375.907L494.788,375.917L494.727,376.002L494.719,376.013L494.658,376.098L494.65,376.109L494.588,376.193L494.581,376.203L494.519,376.288L494.51,376.3L494.448,376.384L494.441,376.393L494.378,376.477L494.369,376.488L494.306,376.572L494.298,376.583L494.234,376.666L494.226,376.676L494.162,376.76L494.154,376.77L494.09,376.853L494.082,376.863L494.017,376.946L494.009,376.956L493.944,377.038L493.936,377.049L493.87,377.131L493.862,377.141L493.797,377.223L493.788,377.234L493.722,377.316L493.713,377.327L493.646,377.408L493.639,377.417L493.572,377.498L493.564,377.508L493.496,377.59L493.487,377.6L493.42,377.681L493.411,377.691L493.344,377.771L493.335,377.781L493.267,377.861L493.258,377.872L493.189,377.952L493.18,377.962L493.111,378.042L493.103,378.051L493.034,378.13L493.025,378.14L492.955,378.22L492.946,378.23L492.876,378.309L492.867,378.319L492.797,378.397L492.788,378.407L492.717,378.485L492.709,378.495L492.637,378.573L492.628,378.584L492.556,378.662L492.548,378.671L492.476,378.748L492.467,378.758L492.394,378.836L492.385,378.845L492.313,378.922L492.304,378.932L492.231,379.009L492.221,379.019L492.148,379.095L492.139,379.105L492.066,379.181L492.056,379.19L491.982,379.266L491.973,379.276L491.899,379.352L491.89,379.361L491.815,379.436L491.805,379.446L491.73,379.521L491.721,379.531L491.646,379.605L491.636,379.615L491.56,379.689L491.551,379.698L491.475,379.773L491.465,379.783L491.389,379.857L491.38,379.865L491.303,379.939L491.292,379.949L491.215,380.023L491.206,380.032L491.129,380.104L491.119,380.114L491.041,380.187L491.032,380.195L490.954,380.268L490.943,380.278L490.865,380.35L490.856,380.359L490.777,380.431L490.766,380.44L490.688,380.512L490.678,380.52L490.599,380.592L490.589,380.601L490.509,380.672L490.499,380.681L490.419,380.752L490.409,380.76L490.329,380.831L490.318,380.84L490.237,380.911L490.227,380.919L490.146,380.989L490.136,380.998L490.055,381.068L490.044,381.077L489.962,381.146L489.952,381.155L489.87,381.224L489.86,381.232L489.777,381.301L489.767,381.31L489.684,381.378L489.674,381.387L489.591,381.455L489.581,381.463L489.497,381.531L489.487,381.539L489.403,381.607L489.393,381.615L489.309,381.683L489.298,381.691L489.214,381.758L489.203,381.767L489.118,381.833L489.107,381.842L489.023,381.908L489.012,381.916L488.927,381.982L488.916,381.991L488.83,382.056L488.82,382.064L488.734,382.13L488.723,382.138L488.637,382.203L488.626,382.211L488.54,382.275L488.529,382.283L488.442,382.348L488.431,382.356L488.343,382.42L488.332,382.428L488.245,382.492L488.234,382.5L488.146,382.563L488.135,382.571L488.047,382.634L488.036,382.642L487.948,382.705L487.936,382.713L487.848,382.775L487.836,382.784L487.747,382.846L487.736,382.853L487.647,382.915L487.635,382.923L487.546,382.984L487.535,382.992L487.445,383.052L487.433,383.06L487.343,383.121L487.331,383.129L487.241,383.189L487.229,383.197L487.139,383.257L487.128,383.264L487.036,383.324L487.024,383.332L486.933,383.391L486.921,383.399L486.83,383.458L486.818,383.465L486.726,383.524L486.714,383.531L486.622,383.59L486.61,383.597L486.517,383.655L486.506,383.662L486.413,383.72L486.401,383.727L486.308,383.785L486.296,383.792L486.202,383.849L486.19,383.856L486.097,383.913L486.085,383.92L485.991,383.976L485.979,383.983L485.884,384.039L485.873,384.046L485.778,384.101L485.766,384.108L485.671,384.164L485.659,384.171L485.563,384.226L485.551,384.233L485.455,384.287L485.443,384.294L485.348,384.348L485.336,384.355L485.239,384.409L485.227,384.416L485.13,384.469L485.118,384.476L485.022,384.529L485.01,384.535L484.912,384.588L484.9,384.595L484.802,384.647L484.79,384.654L484.696,384.704L484.69,384.707L388.427,435.721L388.421,435.724L388.331,435.772L388.319,435.778L388.225,435.827L388.213,435.834L388.119,435.882L388.106,435.889L388.012,435.937L388.001,435.943L387.907,435.99L387.894,435.997L387.799,436.044L387.788,436.05L387.694,436.097L387.681,436.103L387.586,436.15L387.575,436.155L387.48,436.202L387.467,436.208L387.372,436.254L387.36,436.26L387.265,436.305L387.254,436.31L387.158,436.355L387.145,436.361L387.05,436.406L387.037,436.412L386.942,436.456L386.929,436.462L386.834,436.505L386.822,436.511L386.726,436.554L386.715,436.559L386.619,436.602L386.606,436.608L386.509,436.651L386.497,436.656L386.401,436.699L386.389,436.704L386.292,436.746L386.28,436.751L386.183,436.793L386.171,436.798L386.074,436.839L386.062,436.844L385.965,436.885L385.952,436.89L385.855,436.93L385.843,436.935L385.746,436.975L385.732,436.981L385.635,437.02L385.623,437.025L385.527,437.064L385.514,437.069L385.417,437.108L385.404,437.113L385.307,437.151L385.294,437.156L385.196,437.194L385.182,437.199L385.085,437.236L385.073,437.241L384.976,437.278L384.963,437.282L384.865,437.319L384.851,437.324L384.753,437.361L384.741,437.365L384.643,437.401L384.629,437.406L384.531,437.441L384.519,437.446L384.421,437.481L384.407,437.485L384.309,437.52L384.297,437.524L384.198,437.559L384.184,437.563L384.086,437.597L384.074,437.601L383.975,437.635L383.961,437.639L383.862,437.672L383.85,437.676L383.751,437.709L383.737,437.714L383.638,437.746L383.625,437.75L383.526,437.782L383.514,437.786L383.415,437.817L383.401,437.822L383.301,437.853L383.288,437.857L383.189,437.888L383.177,437.891L383.077,437.922L383.064,437.926L382.963,437.956L382.95,437.96L382.85,437.989L382.837,437.993L382.734,438.023L382.716,438.029L382.518,438.085L382.492,438.092L382.291,438.148L382.265,438.155L382.064,438.209L382.038,438.216L381.837,438.268L381.812,438.275L381.61,438.325L381.583,438.332L381.381,438.381L381.355,438.388L381.152,438.435L381.126,438.441L380.923,438.488L380.897,438.493L380.695,438.538L380.668,438.543L380.465,438.586L380.439,438.592L380.235,438.633L380.209,438.638L380.005,438.678L379.978,438.683L379.774,438.721L379.748,438.726L379.544,438.763L379.518,438.767L379.313,438.802L379.286,438.807L379.082,438.84L379.056,438.844L378.851,438.876L378.824,438.88L378.619,438.911L378.593,438.914L378.388,438.943L378.361,438.947L378.155,438.974L378.129,438.977L377.923,439.003L377.896,439.006L377.691,439.03L377.665,439.033L377.459,439.055L377.432,439.058L377.225,439.079L377.199,439.082L376.993,439.101L376.967,439.103L376.76,439.121L376.733,439.123L376.527,439.139L376.501,439.141L376.294,439.156L376.267,439.158L376.06,439.17L376.034,439.172L375.827,439.183L375.8,439.185L375.594,439.195L375.567,439.196L375.361,439.204L375.333,439.205L375.127,439.211L375.1,439.212L374.894,439.217L374.866,439.218L374.659,439.221L374.633,439.222L374.426,439.224L374.399,439.224L374.192,439.224L374.166,439.224L373.959,439.223L373.933,439.222L373.726,439.22L373.699,439.219L373.492,439.215L373.465,439.214L373.258,439.208L373.232,439.207L373.025,439.2L372.998,439.198L372.792,439.189L372.765,439.188L372.558,439.177L372.532,439.176L372.325,439.164L372.298,439.162L372.092,439.148L372.065,439.146L371.859,439.131L371.833,439.129L371.627,439.112L371.599,439.109L371.393,439.091L371.366,439.088L371.161,439.068L371.135,439.065L370.929,439.044L370.901,439.041L370.696,439.017L370.67,439.014L370.464,438.989L370.438,438.986L370.232,438.96L370.205,438.956L370,438.928L369.974,438.924L369.769,438.895L369.742,438.891L369.538,438.86L369.511,438.855L369.306,438.823L369.28,438.818L369.076,438.784L369.05,438.779L368.846,438.744L368.819,438.739L368.615,438.701L368.589,438.696L368.385,438.657L368.358,438.652L368.155,438.611L368.129,438.606L367.926,438.564L367.9,438.558L367.697,438.515L367.671,438.509L367.468,438.463L367.442,438.457L367.239,438.41L367.213,438.404L367.011,438.356L366.985,438.349L366.783,438.299L366.758,438.293L366.557,438.241L366.531,438.234L366.33,438.181L366.303,438.174L366.102,438.119L366.077,438.112L365.877,438.056L365.851,438.048L365.651,437.99L365.626,437.983L365.426,437.923L365.4,437.915L365.204,437.855L365.185,437.849L365.082,437.817L365.068,437.813L364.969,437.781L364.957,437.777L364.859,437.746L364.846,437.741L364.746,437.709L364.734,437.705L364.635,437.672L364.622,437.668L364.523,437.635L364.51,437.63L364.411,437.597L364.399,437.593L364.3,437.559L364.287,437.554L364.188,437.52L364.176,437.515L364.077,437.481L364.065,437.476L363.967,437.441L363.955,437.437L363.857,437.402L363.843,437.397L363.745,437.361L363.732,437.356L363.634,437.32L363.622,437.315L363.525,437.279L363.511,437.274L363.413,437.236L363.4,437.232L363.303,437.194L363.291,437.19L363.194,437.152L363.18,437.147L363.083,437.108L363.071,437.104L362.974,437.065L362.962,437.06L362.864,437.021L362.851,437.016L362.754,436.976L362.742,436.971L362.646,436.932L362.633,436.927L362.537,436.887L362.524,436.881L362.427,436.84L362.414,436.835L362.317,436.794L362.305,436.789L362.21,436.748L362.197,436.742L362.101,436.7L362.089,436.695L361.993,436.653L361.98,436.647L361.884,436.605L361.872,436.599L361.776,436.557L361.765,436.551L361.669,436.508L361.656,436.502L361.56,436.458L361.548,436.452L361.453,436.408L361.44,436.403L361.346,436.358L361.334,436.353L361.239,436.308L361.226,436.302L361.131,436.256L361.12,436.251L361.025,436.205L361.012,436.199L360.917,436.153L360.906,436.147L360.812,436.101L360.8,436.095L360.705,436.048L360.692,436.041L360.598,435.994L360.587,435.988L360.493,435.941L360.481,435.935L360.387,435.887L360.375,435.88L360.281,435.832L360.269,435.826L360.176,435.777L360.164,435.771L360.071,435.721L360.059,435.715L359.965,435.665L359.954,435.659L359.861,435.609L359.848,435.602L359.756,435.552L359.744,435.546L359.651,435.495L359.639,435.488L359.55,435.439L359.544,435.435L270.662,386L270.656,385.997L270.547,385.936L270.535,385.93L270.425,385.867L270.413,385.86L270.302,385.797L270.29,385.791L270.18,385.727L270.169,385.721L270.059,385.657L270.047,385.65L269.937,385.585L269.925,385.579L269.816,385.514L269.805,385.507L269.696,385.442L269.684,385.435L269.575,385.37L269.564,385.363L269.456,385.297L269.444,385.29L269.336,385.224L269.325,385.217L269.217,385.15L269.206,385.143L269.099,385.076L269.087,385.069L268.98,385.002L268.969,384.995L268.863,384.927L268.851,384.92L268.745,384.852L268.734,384.844L268.628,384.776L268.616,384.768L268.511,384.7L268.499,384.692L268.394,384.623L268.383,384.616L268.279,384.546L268.267,384.538L268.163,384.468L268.152,384.461L268.048,384.391L268.037,384.383L267.933,384.312L267.922,384.305L267.818,384.234L267.807,384.226L267.704,384.155L267.693,384.147L267.591,384.075L267.58,384.067L267.477,383.995L267.466,383.987L267.365,383.915L267.354,383.907L267.252,383.834L267.241,383.826L267.14,383.753L267.129,383.745L267.028,383.671L267.017,383.663L266.917,383.589L266.906,383.581L266.806,383.507L266.795,383.499L266.695,383.424L266.685,383.416L266.585,383.341L266.575,383.333L266.476,383.257L266.465,383.249L266.366,383.173L266.356,383.165L266.258,383.089L266.247,383.081L266.149,383.004L266.138,382.996L266.041,382.919L266.03,382.911L265.933,382.833L265.923,382.825L265.826,382.747L265.815,382.739L265.719,382.661L265.709,382.653L265.613,382.575L265.602,382.566L265.506,382.487L265.496,382.479L265.401,382.4L265.39,382.391L265.296,382.312L265.285,382.304L265.191,382.224L265.18,382.215L265.086,382.135L265.076,382.127L264.983,382.046L264.972,382.038L264.879,381.957L264.869,381.948L264.775,381.867L264.766,381.858L264.673,381.777L264.663,381.768L264.57,381.686L264.561,381.678L264.469,381.596L264.459,381.587L264.367,381.504L264.357,381.496L264.266,381.413L264.256,381.404L264.165,381.321L264.156,381.312L264.065,381.229L264.055,381.219L263.965,381.136L263.956,381.127L263.866,381.043L263.856,381.034L263.767,380.949L263.757,380.94L263.668,380.856L263.659,380.847L263.571,380.762L263.561,380.753L263.472,380.667L263.463,380.658L263.375,380.572L263.366,380.563L263.278,380.477L263.269,380.468L263.182,380.382L263.173,380.372L263.086,380.286L263.077,380.277L262.991,380.19L262.981,380.18L262.895,380.093L262.886,380.084L262.801,379.996L262.792,379.987L262.707,379.899L262.697,379.889L262.613,379.801L262.604,379.792L262.519,379.704L262.51,379.694L262.427,379.605L262.418,379.596L262.334,379.507L262.325,379.497L262.242,379.408L262.233,379.398L262.15,379.308L262.141,379.299L262.059,379.209L262.05,379.199L261.968,379.109L261.96,379.099L261.878,379.009L261.87,378.999L261.788,378.908L261.78,378.898L261.699,378.807L261.69,378.797L261.61,378.706L261.601,378.696L261.521,378.604L261.513,378.595L261.434,378.503L261.425,378.492L261.346,378.4L261.337,378.39L261.259,378.298L261.25,378.288L261.172,378.195L261.164,378.185L261.086,378.092L261.077,378.082L261,377.988L260.991,377.978L260.914,377.884L260.906,377.874L260.83,377.78L260.821,377.77L260.745,377.676L260.737,377.666L260.661,377.571L260.653,377.561L260.577,377.466L260.569,377.456L260.494,377.361L260.486,377.351L260.412,377.255L260.404,377.245L260.33,377.149L260.322,377.139L260.248,377.043L260.24,377.033L260.167,376.937L260.159,376.926L260.086,376.83L260.078,376.819L260.006,376.722L259.998,376.712L259.926,376.615L259.918,376.605L259.846,376.507L259.839,376.497L259.767,376.399L259.76,376.389L259.689,376.291L259.681,376.28L259.611,376.182L259.603,376.172L259.533,376.073L259.526,376.063L259.456,375.964L259.449,375.954L259.38,375.855L259.372,375.844L259.303,375.745L259.296,375.734L259.228,375.635L259.22,375.624L259.153,375.525L259.145,375.514L259.078,375.414L259.071,375.403L259.003,375.303L258.996,375.292L258.93,375.192L258.923,375.181L258.856,375.08L258.849,375.07L258.784,374.969L258.777,374.958L258.711,374.857L258.704,374.846L258.639,374.744L258.632,374.734L258.568,374.632L258.561,374.621L258.497,374.519L258.49,374.508L258.426,374.406L258.42,374.395L258.357,374.293L258.35,374.282L258.287,374.179L258.28,374.168L258.218,374.065L258.211,374.054L258.149,373.951L258.143,373.94L258.081,373.837L258.075,373.826L258.014,373.722L258.007,373.711L257.947,373.607L257.94,373.596L257.88,373.492L257.874,373.481L257.814,373.376L257.808,373.365L257.748,373.261L257.742,373.25L257.683,373.145L257.677,373.133L257.619,373.029L257.612,373.017L257.554,372.912L257.548,372.901L257.491,372.795L257.485,372.784L257.428,372.679L257.421,372.667L257.365,372.561L257.359,372.55L257.303,372.444L257.297,372.433L257.241,372.326L257.235,372.315L257.18,372.208L257.174,372.197L257.119,372.09L257.113,372.079L257.059,371.972L257.053,371.96L256.999,371.853L256.993,371.841L256.94,371.734L256.934,371.723L256.881,371.615L256.875,371.603L256.823,371.496L256.817,371.484L256.765,371.376L256.76,371.364L256.708,371.256L256.702,371.245L256.651,371.136L256.646,371.125L256.595,371.016L256.59,371.004L256.539,370.895L256.534,370.884L256.484,370.775L256.479,370.763L256.429,370.654L256.424,370.642L256.375,370.533L256.37,370.521L256.321,370.411L256.316,370.4L256.268,370.29L256.263,370.278L256.216,370.168L256.21,370.156L256.163,370.046L256.158,370.034L256.112,369.924L256.107,369.912L256.061,369.801L256.056,369.789L256.01,369.678L256.005,369.666L255.96,369.555L255.955,369.543L255.91,369.432L255.906,369.42L255.861,369.309L255.857,369.297L255.813,369.185L255.808,369.173L255.765,369.062L255.76,369.05L255.717,368.938L255.712,368.926L255.67,368.814L255.666,368.802L255.624,368.689L255.619,368.677L255.578,368.565L255.573,368.553L255.532,368.44L255.528,368.428L255.487,368.315L255.483,368.303L255.443,368.19L255.438,368.178L255.399,368.065L255.395,368.053L255.356,367.939L255.351,367.927L255.313,367.813L255.309,367.801L255.27,367.687L255.266,367.675L255.229,367.561L255.225,367.549L255.187,367.435L255.183,367.423L255.147,367.309L255.143,367.296L255.106,367.182L255.103,367.17L255.067,367.055L255.063,367.043L255.028,366.928L255.024,366.916L254.989,366.801L254.985,366.789L254.951,366.674L254.947,366.661L254.913,366.546L254.91,366.534L254.876,366.418L254.873,366.406L254.84,366.291L254.836,366.278L254.804,366.162L254.801,366.15L254.769,366.034L254.765,366.022L254.734,365.906L254.73,365.893L254.7,365.777L254.696,365.765L254.666,365.649L254.663,365.636L254.633,365.519L254.629,365.507L254.6,365.391L254.597,365.378L254.568,365.261L254.565,365.249L254.536,365.132L254.533,365.119L254.505,365.002L254.502,364.99L254.475,364.873L254.472,364.86L254.445,364.743L254.442,364.73L254.415,364.613L254.412,364.6L254.386,364.482L254.384,364.47L254.358,364.352L254.355,364.34L254.33,364.222L254.328,364.209L254.303,364.091L254.3,364.078L254.276,363.96L254.274,363.948L254.25,363.829L254.248,363.817L254.225,363.698L254.222,363.686L254.2,363.567L254.197,363.554L254.175,363.436L254.173,363.423L254.151,363.304L254.149,363.291L254.128,363.173L254.126,363.16L254.105,363.041L254.103,363.028L254.083,362.909L254.081,362.896L254.062,362.777L254.059,362.764L254.04,362.645L254.038,362.632L254.02,362.513L254.018,362.5L254,362.38L253.998,362.367L253.981,362.247L253.979,362.235L253.962,362.115L253.96,362.102L253.943,361.982L253.942,361.969L253.926,361.849L253.924,361.836L253.909,361.716L253.907,361.703L253.892,361.583L253.89,361.57L253.876,361.45L253.875,361.437L253.861,361.316L253.859,361.303L253.846,361.183L253.844,361.17L253.831,361.049L253.83,361.036L253.818,360.915L253.816,360.902L253.805,360.782L253.803,360.769L253.792,360.648L253.791,360.635L253.78,360.514L253.779,360.5L253.769,360.379L253.768,360.366L253.758,360.245L253.757,360.232L253.748,360.111L253.747,360.098L253.738,359.976L253.737,359.963L253.729,359.842L253.728,359.829L253.72,359.707L253.719,359.694L253.712,359.572L253.712,359.559L253.705,359.437L253.704,359.424L253.698,359.302L253.697,359.289L253.692,359.167L253.691,359.154L253.686,359.032L253.686,359.019L253.681,358.897L253.681,358.884L253.677,358.762L253.676,358.749L253.673,358.626L253.673,358.613L253.67,358.491L253.669,358.478L253.667,358.355L253.667,358.342L253.665,358.22L253.665,358.207L253.663,358.084L253.663,358.071L253.662,357.948L253.662,357.935L253.662,357.816L253.662,357.809L253.662,255.699L253.662,255.692L253.662,255.572L253.662,255.559L253.663,255.436L253.663,255.423L253.665,255.3L253.665,255.287L253.667,255.164L253.667,255.152L253.669,255.028L253.67,255.016L253.672,254.893L253.673,254.88L253.676,254.757L253.676,254.744L253.68,254.621L253.681,254.609L253.685,254.486L253.686,254.473L253.691,254.35L253.691,254.338L253.697,254.215L253.697,254.202L253.703,254.08L253.704,254.067L253.71,253.945L253.711,253.932L253.718,253.81L253.719,253.797L253.726,253.675L253.727,253.662L253.735,253.54L253.736,253.527L253.745,253.405L253.746,253.392L253.755,253.27L253.756,253.257L253.765,253.136L253.766,253.123L253.776,253.001L253.778,252.988L253.788,252.867L253.789,252.854L253.8,252.732L253.802,252.72L253.813,252.598L253.814,252.585L253.827,252.464L253.828,252.451L253.841,252.33L253.842,252.317L253.855,252.196L253.856,252.183L253.87,252.062L253.872,252.05L253.886,251.929L253.887,251.916L253.902,251.795L253.903,251.782L253.919,251.662L253.92,251.649L253.936,251.528L253.938,251.516L253.954,251.395L253.955,251.383L253.972,251.262L253.974,251.249L253.991,251.129L253.993,251.117L254.011,250.996L254.012,250.984L254.031,250.863L254.033,250.851L254.051,250.731L254.053,250.718L254.072,250.598L254.074,250.586L254.094,250.466L254.096,250.453L254.116,250.334L254.119,250.321L254.139,250.202L254.141,250.189L254.163,250.07L254.165,250.057L254.186,249.938L254.189,249.925L254.211,249.806L254.213,249.794L254.236,249.675L254.238,249.662L254.261,249.543L254.264,249.531L254.287,249.412L254.29,249.399L254.314,249.281L254.317,249.268L254.341,249.15L254.344,249.137L254.369,249.019L254.372,249.007L254.397,248.888L254.4,248.876L254.426,248.758L254.429,248.745L254.455,248.627L254.458,248.615L254.485,248.497L254.488,248.485L254.515,248.367L254.518,248.355L254.546,248.237L254.549,248.225L254.578,248.107L254.581,248.095L254.61,247.978L254.613,247.965L254.642,247.848L254.645,247.836L254.675,247.719L254.679,247.706L254.709,247.59L254.712,247.577L254.743,247.461L254.746,247.448L254.778,247.332L254.781,247.32L254.813,247.203L254.816,247.191L254.849,247.074L254.852,247.062L254.885,246.946L254.888,246.934L254.922,246.818L254.925,246.806L254.959,246.69L254.962,246.678L254.997,246.562L255,246.55L255.035,246.434L255.039,246.422L255.074,246.307L255.077,246.295L255.113,246.18L255.117,246.168L255.153,246.052L255.157,246.04L255.193,245.925L255.197,245.914L255.234,245.799L255.238,245.787L255.276,245.672L255.28,245.66L255.318,245.546L255.322,245.534L255.36,245.419L255.364,245.407L255.403,245.293L255.407,245.281L255.447,245.167L255.451,245.156L255.491,245.042L255.495,245.03L255.535,244.916L255.54,244.904L255.581,244.791L255.585,244.779L255.626,244.666L255.63,244.654L255.672,244.541L255.676,244.529L255.719,244.416L255.723,244.404L255.766,244.292L255.77,244.28L255.813,244.167L255.818,244.156L255.862,244.043L255.866,244.032L255.91,243.919L255.915,243.908L255.959,243.796L255.964,243.784L256.009,243.672L256.014,243.66L256.059,243.549L256.064,243.537L256.11,243.426L256.115,243.414L256.161,243.303L256.166,243.291L256.213,243.18L256.218,243.168L256.265,243.058L256.27,243.046L256.317,242.935L256.322,242.924L256.371,242.813L256.376,242.802L256.424,242.691L256.429,242.68L256.478,242.57L256.484,242.558L256.533,242.448L256.538,242.437L256.588,242.327L256.593,242.316L256.644,242.206L256.649,242.195L256.7,242.085L256.705,242.074L256.757,241.965L256.762,241.953L256.814,241.844L256.819,241.833L256.871,241.724L256.877,241.713L256.93,241.604L256.935,241.593L256.988,241.485L256.994,241.474L257.047,241.365L257.053,241.354L257.107,241.246L257.112,241.235L257.167,241.127L257.173,241.116L257.227,241.009L257.233,240.997L257.288,240.89L257.294,240.879L257.35,240.772L257.356,240.761L257.412,240.654L257.418,240.643L257.475,240.536L257.48,240.525L257.538,240.418L257.544,240.407L257.601,240.301L257.607,240.29L257.665,240.184L257.671,240.173L257.729,240.067L257.736,240.056L257.794,239.951L257.8,239.94L257.86,239.834L257.866,239.823L257.926,239.718L257.932,239.707L257.992,239.602L257.998,239.592L258.059,239.487L258.065,239.476L258.126,239.372L258.133,239.361L258.194,239.256L258.2,239.245L258.262,239.142L258.269,239.131L258.331,239.027L258.337,239.016L258.4,238.913L258.407,238.902L258.47,238.799L258.476,238.788L258.54,238.685L258.547,238.674L258.611,238.571L258.617,238.561L258.682,238.458L258.688,238.448L258.753,238.345L258.76,238.334L258.825,238.232L258.832,238.222L258.898,238.12L258.905,238.109L258.971,238.008L258.978,237.997L259.044,237.896L259.051,237.885L259.118,237.784L259.125,237.774L259.192,237.673L259.199,237.662L259.267,237.562L259.274,237.551L259.343,237.451L259.35,237.44L259.418,237.34L259.426,237.33L259.495,237.23L259.502,237.219L259.571,237.12L259.578,237.11L259.648,237.01L259.656,237L259.726,236.901L259.733,236.89L259.804,236.792L259.811,236.781L259.883,236.683L259.89,236.672L259.962,236.574L259.969,236.564L260.041,236.466L260.048,236.456L260.121,236.358L260.128,236.348L260.201,236.25L260.209,236.24L260.282,236.143L260.29,236.132L260.363,236.035L260.371,236.025L260.445,235.929L260.453,235.918L260.527,235.822L260.535,235.812L260.61,235.716L260.618,235.706L260.693,235.61L260.701,235.6L260.776,235.504L260.784,235.494L260.86,235.399L260.868,235.389L260.945,235.294L260.953,235.284L261.029,235.189L261.038,235.179L261.115,235.084L261.123,235.074L261.201,234.98L261.209,234.97L261.287,234.876L261.295,234.867L261.373,234.773L261.382,234.763L261.461,234.67L261.469,234.66L261.548,234.567L261.556,234.557L261.636,234.464L261.644,234.454L261.724,234.362L261.733,234.352L261.813,234.26L261.822,234.25L261.902,234.158L261.911,234.149L261.992,234.057L262.001,234.047L262.082,233.956L262.091,233.946L262.173,233.855L262.182,233.845L262.264,233.755L262.273,233.745L262.355,233.655L262.364,233.645L262.447,233.555L262.456,233.546L262.54,233.456L262.548,233.446L262.632,233.356L262.641,233.347L262.725,233.258L262.734,233.248L262.819,233.159L262.828,233.15L262.913,233.061L262.922,233.052L263.008,232.963L263.017,232.954L263.103,232.866L263.111,232.857L263.198,232.769L263.207,232.76L263.294,232.672L263.303,232.663L263.39,232.576L263.399,232.567L263.487,232.48L263.496,232.471L263.583,232.384L263.593,232.375L263.681,232.289L263.69,232.28L263.779,232.194L263.788,232.185L263.877,232.099L263.887,232.09L263.976,232.005L263.985,231.996L264.075,231.911L264.084,231.902L264.174,231.817L264.184,231.808L264.275,231.724L264.284,231.715L264.375,231.631L264.385,231.622L264.476,231.538L264.485,231.53L264.577,231.446L264.587,231.437L264.679,231.354L264.688,231.345L264.781,231.262L264.791,231.254L264.883,231.171L264.893,231.163L264.986,231.081L264.996,231.072L265.089,230.99L265.099,230.982L265.193,230.9L265.203,230.892L265.297,230.811L265.307,230.802L265.402,230.721L265.412,230.713L265.507,230.632L265.517,230.624L265.612,230.544L265.622,230.535L265.718,230.455L265.728,230.447L265.824,230.368L265.834,230.359L265.93,230.28L265.941,230.272L266.037,230.193L266.048,230.185L266.145,230.106L266.155,230.098L266.253,230.02L266.263,230.012L266.361,229.934L266.371,229.926L266.469,229.849L266.48,229.84L266.578,229.763L266.589,229.755L266.688,229.679L266.698,229.671L266.797,229.594L266.808,229.586L266.908,229.51L266.918,229.502L267.018,229.427L267.029,229.419L267.129,229.343L267.14,229.335L267.24,229.26L267.251,229.253L267.352,229.178L267.363,229.17L267.464,229.096L267.475,229.088L267.577,229.014L267.588,229.007L267.69,228.933L267.7,228.925L267.803,228.852L267.814,228.845L267.917,228.772L267.928,228.764L268.031,228.692L268.042,228.684L268.145,228.612L268.156,228.605L268.26,228.533L268.271,228.525L268.375,228.454L268.386,228.447L268.491,228.376L268.502,228.368L268.607,228.297L268.618,228.29L268.723,228.22L268.734,228.213L268.84,228.143L268.851,228.135L268.957,228.066L268.968,228.059L269.074,227.99L269.086,227.982L269.193,227.913L269.204,227.906L269.311,227.838L269.322,227.831L269.43,227.763L269.441,227.756L269.548,227.688L269.56,227.681L269.668,227.614L269.679,227.607L269.788,227.54L269.799,227.533L269.908,227.467L269.919,227.46L270.028,227.394L270.04,227.387L270.149,227.321L270.16,227.314L270.27,227.249L270.282,227.242L270.389,227.179L270.395,227.176L357.191,176.247L357.198,176.244L357.303,176.183L357.315,176.175L357.423,176.113L357.436,176.106L357.545,176.043L357.557,176.036L357.666,175.975L357.678,175.968L357.787,175.906L357.799,175.899L357.909,175.839L357.921,175.832L358.031,175.772L358.043,175.765L358.153,175.705L358.165,175.698L358.275,175.639L358.288,175.632L358.398,175.573L358.41,175.567L358.52,175.508L358.533,175.502L358.644,175.444L358.656,175.437L358.767,175.38L358.78,175.373L358.891,175.316L358.903,175.31L359.014,175.254L359.027,175.247L359.138,175.191L359.151,175.185L359.262,175.13L359.275,175.123L359.387,175.068L359.4,175.062L359.511,175.008L359.524,175.001L359.636,174.947L359.649,174.941L359.762,174.888L359.774,174.882L359.886,174.829L359.899,174.823L360.012,174.77L360.025,174.764L360.138,174.712L360.151,174.706L360.264,174.655L360.277,174.649L360.39,174.598L360.403,174.592L360.516,174.541L360.529,174.536L360.642,174.486L360.655,174.48L360.769,174.43L360.782,174.425L360.896,174.375L360.909,174.37L361.023,174.321L361.036,174.316L361.15,174.267L361.163,174.262L361.278,174.214L361.291,174.209L361.406,174.162L361.418,174.156L361.533,174.11L361.546,174.104L361.661,174.058L361.674,174.053L361.789,174.007L361.802,174.002L361.918,173.957L361.931,173.952L362.046,173.907L362.059,173.902L362.175,173.857L362.188,173.852L362.304,173.808L362.317,173.803L362.433,173.76L362.446,173.755L362.562,173.712L362.575,173.708L362.691,173.665L362.704,173.66L362.821,173.619L362.834,173.614L362.95,173.572L362.963,173.568L363.08,173.527L363.093,173.522L363.21,173.482L363.223,173.477L363.34,173.437L363.354,173.433L363.471,173.393L363.484,173.389L363.601,173.35L363.614,173.345L363.732,173.307L363.745,173.303L363.862,173.265L363.876,173.26L363.993,173.223L364.007,173.219L364.124,173.182L364.137,173.177L364.255,173.141L364.269,173.137L364.387,173.101L364.4,173.097L364.518,173.061L364.532,173.057L364.65,173.022L364.663,173.018L364.781,172.983L364.795,172.98L364.913,172.945L364.927,172.942L365.045,172.908L365.059,172.904L365.177,172.871L365.191,172.867L365.31,172.835L365.323,172.831L365.442,172.799L365.455,172.795L365.574,172.764L365.588,172.76L365.707,172.729L365.721,172.725L365.84,172.695L365.853,172.691L365.972,172.661L365.986,172.657L366.105,172.628L366.119,172.624L366.238,172.595L366.252,172.592L366.372,172.563L366.385,172.56L366.505,172.532L366.518,172.528L366.638,172.501L366.652,172.498L366.772,172.47L366.785,172.467L366.905,172.44L366.919,172.437L367.039,172.411L367.053,172.408L367.173,172.382L367.186,172.379L367.307,172.354L367.32,172.351L367.441,172.326L367.454,172.323L367.575,172.299L367.588,172.296L367.709,172.272L367.723,172.27L367.843,172.246L367.857,172.244L367.978,172.221L367.991,172.218L368.112,172.196L368.126,172.193L368.246,172.171L368.26,172.169L368.381,172.147L368.395,172.145L368.516,172.124L368.53,172.122L368.651,172.101L368.664,172.099L368.785,172.079L368.799,172.077L368.92,172.057L368.934,172.055L369.055,172.036L369.069,172.034L369.19,172.015L369.204,172.013L369.325,171.995L369.339,171.993L369.46,171.976L369.474,171.974L369.596,171.957L369.61,171.955L369.731,171.938L369.745,171.936L369.866,171.92L369.88,171.918L370.002,171.903L370.016,171.901L370.137,171.886L370.151,171.884L370.273,171.87L370.287,171.868L370.409,171.854L370.422,171.852L370.544,171.839L370.558,171.837L370.68,171.824L370.694,171.822L370.816,171.81L370.83,171.808L370.952,171.796L370.965,171.795L371.087,171.783L371.101,171.782L371.223,171.771L371.237,171.769L371.359,171.759L371.373,171.757L371.495,171.747L371.509,171.746L371.631,171.736L371.645,171.735L371.767,171.726L371.781,171.725L371.903,171.716L371.917,171.715L372.04,171.707L372.053,171.706L372.176,171.698L372.19,171.697L372.312,171.69L372.326,171.689L372.448,171.682L372.462,171.681L372.584,171.675L372.598,171.674L372.721,171.668L372.735,171.668L372.857,171.662L372.871,171.662L372.993,171.657L373.007,171.656L373.13,171.652L373.143,171.652L373.266,171.648L373.28,171.647L373.402,171.644L373.416,171.643L373.539,171.64L373.553,171.64L373.675,171.638L373.689,171.637L373.811,171.635L373.825,171.635L373.948,171.634L373.962,171.634L374.084,171.633L374.098,171.633L374.221,171.632L374.235,171.632L374.357,171.632L374.371,171.632ZM374.258,184.301L374.178,184.301L374.097,184.302L374.016,184.303L373.935,184.304L373.855,184.306L373.774,184.308L373.693,184.31L373.612,184.312L373.532,184.315L373.451,184.319L373.37,184.322L373.29,184.326L373.209,184.33L373.128,184.335L373.048,184.34L372.967,184.345L372.886,184.35L372.806,184.356L372.725,184.362L372.645,184.368L372.564,184.375L372.484,184.382L372.403,184.39L372.323,184.397L372.242,184.406L372.162,184.414L372.082,184.423L372.001,184.432L371.921,184.441L371.841,184.451L371.761,184.46L371.681,184.471L371.6,184.481L371.52,184.492L371.44,184.504L371.36,184.515L371.28,184.527L371.2,184.539L371.121,184.552L371.041,184.565L370.961,184.578L370.881,184.591L370.802,184.605L370.722,184.619L370.642,184.634L370.563,184.648L370.483,184.664L370.404,184.679L370.325,184.695L370.245,184.711L370.166,184.727L370.087,184.744L370.008,184.761L369.929,184.778L369.85,184.796L369.771,184.814L369.692,184.832L369.613,184.851L369.534,184.87L369.456,184.889L369.377,184.908L369.298,184.928L369.22,184.949L369.142,184.969L369.063,184.99L368.985,185.011L368.907,185.033L368.829,185.054L368.751,185.077L368.673,185.099L368.595,185.122L368.517,185.145L368.439,185.168L368.362,185.192L368.284,185.216L368.207,185.24L368.129,185.265L368.052,185.29L367.975,185.316L367.898,185.341L367.821,185.367L367.744,185.393L367.667,185.42L367.59,185.447L367.514,185.474L367.437,185.502L367.361,185.53L367.284,185.558L367.208,185.586L367.132,185.615L367.056,185.644L366.98,185.674L366.904,185.704L366.828,185.734L366.753,185.764L366.677,185.795L366.601,185.826L366.526,185.858L366.451,185.889L366.376,185.921L366.301,185.954L366.226,185.986L366.151,186.019L366.076,186.053L366.002,186.086L365.927,186.12L365.853,186.155L365.779,186.189L365.705,186.224L365.63,186.26L365.557,186.295L365.483,186.331L365.409,186.367L365.336,186.404L365.262,186.441L365.189,186.478L365.116,186.515L365.043,186.553L364.97,186.591L364.897,186.63L364.825,186.669L364.752,186.708L364.68,186.747L364.607,186.787L364.535,186.827L364.463,186.868L364.391,186.908L364.32,186.95L364.248,186.991L364.17,187.036L277.392,237.954L277.31,238.002L277.235,238.047L277.159,238.092L277.084,238.138L277.009,238.183L276.935,238.229L276.86,238.275L276.786,238.322L276.712,238.369L276.639,238.416L276.565,238.463L276.492,238.51L276.419,238.558L276.347,238.606L276.274,238.655L276.202,238.703L276.13,238.752L276.058,238.801L275.987,238.85L275.916,238.9L275.845,238.95L275.774,238.999L275.704,239.05L275.633,239.1L275.563,239.151L275.494,239.202L275.424,239.253L275.355,239.305L275.286,239.357L275.217,239.409L275.149,239.461L275.08,239.513L275.012,239.566L274.945,239.619L274.877,239.672L274.81,239.726L274.743,239.779L274.676,239.833L274.61,239.887L274.543,239.942L274.477,239.996L274.412,240.051L274.346,240.106L274.281,240.161L274.216,240.217L274.151,240.273L274.087,240.329L274.022,240.385L273.958,240.441L273.895,240.498L273.831,240.555L273.768,240.612L273.705,240.669L273.642,240.727L273.58,240.784L273.518,240.842L273.456,240.9L273.394,240.959L273.333,241.018L273.272,241.076L273.211,241.135L273.15,241.195L273.09,241.254L273.03,241.314L272.97,241.374L272.911,241.434L272.851,241.494L272.792,241.555L272.734,241.616L272.675,241.677L272.617,241.738L272.559,241.799L272.501,241.861L272.444,241.923L272.387,241.985L272.33,242.047L272.273,242.109L272.217,242.172L272.161,242.235L272.105,242.298L272.049,242.361L271.994,242.424L271.939,242.488L271.884,242.552L271.83,242.616L271.776,242.68L271.722,242.744L271.668,242.809L271.615,242.874L271.562,242.939L271.509,243.004L271.457,243.069L271.404,243.135L271.352,243.2L271.301,243.266L271.249,243.332L271.198,243.399L271.147,243.465L271.097,243.532L271.047,243.599L270.997,243.666L270.947,243.733L270.897,243.8L270.848,243.868L270.799,243.936L270.751,244.004L270.702,244.072L270.654,244.14L270.607,244.208L270.559,244.277L270.512,244.346L270.465,244.415L270.419,244.484L270.372,244.553L270.326,244.623L270.281,244.692L270.235,244.762L270.19,244.832L270.145,244.902L270.101,244.972L270.056,245.043L270.012,245.114L269.969,245.185L269.925,245.255L269.882,245.327L269.839,245.398L269.797,245.469L269.755,245.541L269.713,245.613L269.671,245.685L269.63,245.757L269.589,245.829L269.548,245.901L269.508,245.974L269.468,246.046L269.428,246.119L269.388,246.192L269.349,246.266L269.31,246.339L269.272,246.412L269.233,246.486L269.195,246.559L269.158,246.633L269.12,246.707L269.083,246.782L269.046,246.856L269.01,246.93L268.974,247.005L268.938,247.08L268.902,247.155L268.867,247.229L268.832,247.305L268.797,247.38L268.763,247.455L268.729,247.531L268.695,247.607L268.662,247.682L268.629,247.758L268.596,247.834L268.564,247.911L268.531,247.987L268.5,248.063L268.468,248.14L268.437,248.217L268.406,248.293L268.375,248.37L268.345,248.448L268.315,248.525L268.286,248.602L268.256,248.679L268.227,248.757L268.199,248.835L268.17,248.913L268.142,248.99L268.115,249.068L268.087,249.147L268.06,249.225L268.033,249.303L268.007,249.382L267.981,249.46L267.955,249.539L267.929,249.618L267.904,249.697L267.88,249.776L267.855,249.855L267.831,249.934L267.807,250.014L267.784,250.093L267.76,250.173L267.737,250.253L267.715,250.332L267.693,250.412L267.671,250.492L267.649,250.572L267.628,250.652L267.607,250.733L267.587,250.813L267.566,250.894L267.546,250.974L267.527,251.055L267.508,251.136L267.489,251.217L267.47,251.298L267.452,251.379L267.434,251.46L267.416,251.541L267.399,251.622L267.382,251.704L267.366,251.785L267.35,251.867L267.334,251.949L267.318,252.03L267.303,252.112L267.288,252.194L267.274,252.276L267.259,252.358L267.245,252.44L267.232,252.523L267.219,252.605L267.206,252.687L267.194,252.77L267.181,252.852L267.17,252.935L267.158,253.018L267.147,253.101L267.136,253.184L267.126,253.267L267.116,253.35L267.106,253.433L267.097,253.516L267.088,253.599L267.079,253.683L267.071,253.766L267.063,253.849L267.055,253.933L267.048,254.017L267.041,254.1L267.034,254.184L267.028,254.268L267.022,254.352L267.017,254.435L267.011,254.519L267.007,254.604L267.002,254.688L266.998,254.772L266.994,254.856L266.991,254.941L266.988,255.025L266.985,255.109L266.983,255.194L266.981,255.278L266.979,255.363L266.978,255.448L266.977,255.532L266.976,255.617L266.976,255.708L266.976,357.799L266.976,357.889L266.977,357.972L266.978,358.056L266.979,358.139L266.981,358.222L266.983,358.305L266.985,358.388L266.988,358.471L266.991,358.554L266.994,358.637L266.998,358.719L267.002,358.802L267.007,358.885L267.012,358.967L267.017,359.05L267.022,359.132L267.028,359.214L267.034,359.297L267.041,359.379L267.048,359.461L267.055,359.543L267.063,359.625L267.071,359.707L267.079,359.789L267.088,359.871L267.097,359.952L267.107,360.034L267.116,360.115L267.127,360.197L267.137,360.278L267.148,360.36L267.159,360.441L267.171,360.522L267.182,360.603L267.195,360.684L267.207,360.765L267.22,360.846L267.233,360.927L267.247,361.007L267.261,361.088L267.275,361.168L267.29,361.249L267.304,361.329L267.32,361.409L267.335,361.49L267.351,361.57L267.368,361.65L267.384,361.729L267.401,361.809L267.418,361.889L267.436,361.969L267.454,362.048L267.472,362.128L267.491,362.207L267.51,362.286L267.529,362.365L267.549,362.444L267.569,362.523L267.589,362.602L267.61,362.681L267.631,362.76L267.652,362.838L267.674,362.917L267.696,362.995L267.718,363.073L267.741,363.151L267.764,363.229L267.787,363.307L267.81,363.385L267.834,363.463L267.859,363.54L267.883,363.618L267.908,363.695L267.933,363.773L267.959,363.85L267.985,363.927L268.011,364.004L268.037,364.08L268.064,364.157L268.091,364.234L268.119,364.31L268.147,364.387L268.175,364.463L268.203,364.539L268.232,364.615L268.261,364.691L268.291,364.767L268.32,364.842L268.35,364.918L268.381,364.993L268.411,365.068L268.442,365.143L268.473,365.218L268.505,365.293L268.537,365.368L268.569,365.442L268.602,365.517L268.635,365.591L268.668,365.665L268.701,365.739L268.735,365.814L268.769,365.887L268.804,365.961L268.838,366.034L268.873,366.108L268.909,366.181L268.944,366.254L268.98,366.327L269.017,366.4L269.053,366.472L269.09,366.545L269.127,366.617L269.165,366.689L269.202,366.762L269.24,366.834L269.279,366.905L269.318,366.977L269.357,367.049L269.396,367.12L269.435,367.191L269.475,367.262L269.515,367.333L269.556,367.404L269.597,367.474L269.638,367.544L269.679,367.615L269.721,367.685L269.763,367.755L269.805,367.824L269.847,367.894L269.89,367.964L269.934,368.033L269.977,368.102L270.021,368.171L270.065,368.24L270.109,368.308L270.154,368.377L270.199,368.445L270.244,368.513L270.289,368.581L270.335,368.649L270.381,368.716L270.427,368.784L270.474,368.851L270.521,368.918L270.568,368.985L270.615,369.051L270.663,369.118L270.711,369.185L270.76,369.25L270.808,369.316L270.857,369.382L270.906,369.448L270.956,369.513L271.005,369.578L271.056,369.644L271.106,369.708L271.156,369.773L271.207,369.838L271.259,369.902L271.31,369.966L271.361,370.03L271.414,370.094L271.466,370.158L271.518,370.221L271.571,370.284L271.624,370.347L271.678,370.41L271.731,370.472L271.785,370.534L271.839,370.597L271.894,370.659L271.948,370.72L272.003,370.782L272.059,370.843L272.114,370.905L272.17,370.965L272.226,371.026L272.282,371.087L272.339,371.147L272.395,371.207L272.453,371.267L272.51,371.327L272.568,371.386L272.626,371.446L272.684,371.505L272.742,371.564L272.801,371.622L272.86,371.681L272.919,371.739L272.979,371.797L273.038,371.855L273.098,371.912L273.159,371.97L273.219,372.027L273.28,372.084L273.341,372.14L273.402,372.197L273.464,372.253L273.525,372.309L273.587,372.365L273.65,372.421L273.713,372.476L273.775,372.531L273.838,372.586L273.902,372.64L273.965,372.695L274.029,372.749L274.093,372.803L274.158,372.857L274.222,372.911L274.287,372.964L274.352,373.017L274.418,373.07L274.483,373.122L274.549,373.175L274.615,373.227L274.681,373.278L274.748,373.33L274.815,373.381L274.882,373.433L274.949,373.484L275.017,373.534L275.085,373.585L275.153,373.635L275.221,373.685L275.29,373.734L275.359,373.784L275.428,373.833L275.497,373.882L275.566,373.93L275.636,373.979L275.706,374.027L275.776,374.075L275.847,374.123L275.918,374.17L275.989,374.217L276.06,374.264L276.132,374.311L276.203,374.357L276.275,374.403L276.348,374.449L276.42,374.495L276.493,374.54L276.566,374.586L276.639,374.63L276.712,374.675L276.786,374.719L276.859,374.763L276.934,374.807L277.008,374.851L277.082,374.894L277.158,374.937L277.232,374.98L277.308,375.022L277.389,375.068L366.255,424.494L366.317,424.528L366.374,424.559L366.431,424.59L366.488,424.621L366.545,424.651L366.602,424.681L366.66,424.711L366.717,424.741L366.774,424.771L366.833,424.8L366.89,424.829L366.947,424.857L367.006,424.886L367.064,424.914L367.122,424.942L367.18,424.97L367.238,424.998L367.297,425.025L367.355,425.052L367.413,425.079L367.472,425.105L367.531,425.132L367.59,425.158L367.648,425.184L367.707,425.209L367.767,425.235L367.826,425.26L367.884,425.285L367.943,425.309L368.004,425.334L368.063,425.358L368.121,425.382L368.182,425.406L368.241,425.429L368.301,425.452L368.362,425.475L368.421,425.498L368.48,425.52L368.541,425.543L368.6,425.564L368.66,425.586L368.721,425.608L368.782,425.629L368.842,425.65L368.902,425.671L368.963,425.691L369.023,425.712L369.084,425.732L369.144,425.751L369.206,425.771L369.267,425.79L369.321,425.807L369.449,425.847L369.571,425.883L369.694,425.919L369.817,425.953L369.94,425.987L370.062,426.019L370.186,426.051L370.31,426.082L370.434,426.112L370.558,426.14L370.682,426.168L370.806,426.195L370.931,426.221L371.055,426.246L371.18,426.27L371.305,426.293L371.43,426.315L371.556,426.336L371.681,426.356L371.807,426.375L371.933,426.393L372.059,426.411L372.184,426.427L372.311,426.442L372.437,426.456L372.563,426.47L372.69,426.482L372.816,426.493L372.942,426.504L373.069,426.513L373.196,426.522L373.323,426.529L373.45,426.536L373.576,426.542L373.704,426.546L373.831,426.55L373.957,426.553L374.084,426.554L374.211,426.555L374.338,426.555L374.465,426.554L374.592,426.552L374.719,426.549L374.846,426.545L374.973,426.54L375.1,426.534L375.226,426.527L375.353,426.519L375.48,426.51L375.606,426.5L375.733,426.489L375.86,426.477L375.986,426.464L376.112,426.451L376.239,426.436L376.365,426.42L376.491,426.404L376.617,426.386L376.742,426.367L376.868,426.348L376.994,426.327L377.119,426.306L377.244,426.283L377.37,426.26L377.494,426.236L377.619,426.21L377.743,426.184L377.868,426.157L377.993,426.128L378.116,426.099L378.24,426.069L378.363,426.038L378.487,426.006L378.611,425.973L378.733,425.939L378.863,425.902L378.918,425.886L378.979,425.868L379.039,425.849L379.101,425.831L379.163,425.812L379.223,425.793L379.284,425.774L379.346,425.754L379.406,425.734L379.466,425.714L379.527,425.694L379.588,425.673L379.648,425.652L379.709,425.631L379.769,425.61L379.83,425.589L379.89,425.567L379.951,425.545L380.011,425.523L380.07,425.5L380.131,425.477L380.191,425.454L380.25,425.431L380.31,425.408L380.369,425.384L380.43,425.36L380.489,425.336L380.548,425.312L380.608,425.287L380.667,425.262L380.726,425.237L380.786,425.211L380.845,425.186L380.904,425.16L380.962,425.134L381.021,425.108L381.081,425.081L381.139,425.054L381.198,425.027L381.256,425L381.314,424.972L381.373,424.944L381.431,424.916L381.489,424.888L381.547,424.859L381.606,424.83L381.663,424.801L381.721,424.772L381.779,424.742L381.836,424.713L381.894,424.682L381.957,424.649L478.202,373.644L478.269,373.609L478.33,373.576L478.39,373.543L478.451,373.51L478.511,373.477L478.57,373.444L478.63,373.41L478.69,373.376L478.749,373.342L478.808,373.308L478.867,373.273L478.926,373.238L478.984,373.203L479.043,373.168L479.101,373.132L479.158,373.097L479.216,373.061L479.274,373.025L479.331,372.989L479.388,372.952L479.446,372.915L479.502,372.879L479.559,372.842L479.615,372.804L479.672,372.767L479.727,372.729L479.783,372.691L479.839,372.653L479.895,372.615L479.95,372.576L480.005,372.538L480.059,372.499L480.114,372.46L480.169,372.42L480.223,372.38L480.277,372.341L480.33,372.301L480.385,372.261L480.438,372.22L480.492,372.18L480.545,372.139L480.597,372.098L480.65,372.057L480.703,372.016L480.755,371.975L480.807,371.933L480.859,371.891L480.91,371.849L480.962,371.807L481.013,371.764L481.064,371.721L481.115,371.679L481.166,371.636L481.216,371.593L481.267,371.549L481.316,371.506L481.366,371.462L481.416,371.418L481.465,371.374L481.515,371.33L481.564,371.285L481.613,371.24L481.661,371.196L481.709,371.151L481.758,371.105L481.806,371.059L481.854,371.014L481.901,370.969L481.948,370.923L481.995,370.877L482.043,370.83L482.089,370.784L482.136,370.737L482.182,370.691L482.228,370.643L482.274,370.596L482.32,370.549L482.365,370.501L482.41,370.454L482.456,370.406L482.5,370.358L482.545,370.31L482.589,370.261L482.633,370.213L482.677,370.165L482.721,370.116L482.764,370.067L482.808,370.018L482.851,369.968L482.894,369.918L482.936,369.869L482.979,369.82L483.021,369.769L483.063,369.719L483.104,369.67L483.146,369.619L483.188,369.568L483.228,369.518L483.269,369.467L483.31,369.416L483.35,369.364L483.391,369.313L483.431,369.261L483.471,369.21L483.51,369.157L483.549,369.106L483.588,369.054L483.627,369.001L483.666,368.949L483.704,368.896L483.742,368.844L483.78,368.791L483.818,368.737L483.855,368.685L483.892,368.632L483.929,368.579L483.966,368.525L484.003,368.471L484.039,368.417L484.075,368.363L484.111,368.309L484.147,368.254L484.182,368.201L484.217,368.146L484.252,368.091L484.286,368.037L484.321,367.982L484.356,367.926L484.389,367.871L484.423,367.816L484.456,367.76L484.49,367.705L484.523,367.649L484.555,367.593L484.587,367.538L484.62,367.481L484.652,367.424L484.684,367.368L484.715,367.312L484.747,367.255L484.778,367.198L484.808,367.142L484.839,367.085L484.869,367.027L484.9,366.97L484.929,366.913L484.959,366.855L484.988,366.798L485.017,366.74L485.046,366.682L485.074,366.625L485.103,366.567L485.131,366.508L485.159,366.45L485.187,366.391L485.214,366.333L485.241,366.274L485.268,366.216L485.294,366.158L485.321,366.097L485.347,366.039L485.373,365.98L485.399,365.92L485.424,365.861L485.449,365.802L485.474,365.741L485.498,365.682L485.522,365.623L485.546,365.563L485.57,365.503L485.594,365.443L485.617,365.382L485.64,365.322L485.663,365.261L485.686,365.201L485.708,365.14L485.73,365.08L485.751,365.019L485.773,364.958L485.794,364.897L485.815,364.836L485.836,364.775L485.856,364.714L485.876,364.652L485.897,364.59L485.916,364.529L485.935,364.468L485.954,364.406L485.973,364.345L485.992,364.282L486.01,364.22L486.028,364.158L486.046,364.095L486.064,364.033L486.081,363.972L486.098,363.91L486.114,363.847L486.131,363.784L486.147,363.721L486.163,363.659L486.178,363.597L486.194,363.533L486.209,363.469L486.224,363.407L486.238,363.344L486.253,363.281L486.267,363.217L486.281,363.154L486.294,363.091L486.307,363.027L486.32,362.963L486.333,362.9L486.345,362.836L486.357,362.773L486.369,362.709L486.381,362.645L486.392,362.58L486.403,362.516L486.414,362.452L486.424,362.388L486.434,362.325L486.444,362.259L486.454,362.195L486.463,362.131L486.472,362.066L486.481,362.001L486.49,361.936L486.498,361.872L486.506,361.807L486.513,361.742L486.521,361.678L486.528,361.613L486.534,361.547L486.541,361.482L486.547,361.418L486.553,361.352L486.559,361.286L486.564,361.222L486.569,361.156L486.574,361.091L486.579,361.025L486.583,360.959L486.587,360.894L486.59,360.828L486.594,360.763L486.597,360.697L486.6,360.631L486.602,360.565L486.604,360.499L486.606,360.433L486.608,360.367L486.609,360.3L486.61,360.235L486.611,360.168L486.611,360.102L486.611,360.029L486.611,252.575L486.611,252.508L486.611,252.447L486.61,252.386L486.609,252.325L486.608,252.264L486.607,252.202L486.605,252.142L486.603,252.081L486.601,252.019L486.598,251.96L486.596,251.899L486.592,251.838L486.589,251.777L486.586,251.717L486.582,251.657L486.578,251.596L486.573,251.535L486.569,251.474L486.564,251.414L486.559,251.355L486.553,251.294L486.548,251.234L486.542,251.174L486.536,251.113L486.529,251.054L486.523,250.994L486.516,250.934L486.509,250.874L486.501,250.813L486.494,250.754L486.486,250.696L486.478,250.635L486.469,250.575L486.461,250.523L486.442,250.397L486.423,250.279L486.403,250.16L486.382,250.042L486.36,249.924L486.337,249.807L486.313,249.69L486.288,249.572L486.262,249.455L486.235,249.339L486.206,249.223L486.177,249.106L486.148,248.991L486.117,248.876L486.085,248.761L486.052,248.646L486.018,248.531L485.983,248.417L485.947,248.304L485.911,248.19L485.873,248.076L485.834,247.964L485.795,247.851L485.754,247.739L485.713,247.627L485.67,247.516L485.627,247.404L485.583,247.294L485.538,247.184L485.492,247.074L485.445,246.964L485.397,246.855L485.348,246.746L485.298,246.637L485.248,246.529L485.196,246.422L485.144,246.314L485.09,246.208L485.036,246.101L484.981,245.995L484.925,245.89L484.868,245.784L484.81,245.68L484.752,245.576L484.692,245.472L484.632,245.368L484.57,245.266L484.508,245.163L484.445,245.061L484.381,244.96L484.317,244.859L484.251,244.759L484.185,244.659L484.117,244.559L484.049,244.46L483.98,244.362L483.911,244.264L483.84,244.167L483.769,244.07L483.696,243.974L483.623,243.878L483.55,243.783L483.475,243.688L483.399,243.594L483.323,243.501L483.246,243.408L483.168,243.315L483.089,243.223L483.009,243.132L482.929,243.042L482.848,242.951L482.766,242.862L482.683,242.773L482.6,242.685L482.516,242.598L482.431,242.511L482.345,242.424L482.258,242.338L482.171,242.253L482.083,242.169L481.994,242.085L481.904,242.002L481.814,241.919L481.723,241.837L481.631,241.756L481.538,241.675L481.445,241.596L481.351,241.516L481.256,241.438L481.16,241.36L481.064,241.283L480.967,241.206L480.869,241.13L480.765,241.051L480.721,241.018L480.671,240.981L480.622,240.944L480.571,240.908L480.521,240.871L480.471,240.835L480.42,240.799L480.369,240.762L480.318,240.727L480.267,240.691L480.215,240.655L480.164,240.62L480.113,240.585L480.061,240.55L480.009,240.516L479.957,240.481L479.904,240.446L479.851,240.412L479.799,240.378L479.746,240.345L479.693,240.311L479.64,240.278L479.586,240.244L479.533,240.211L479.479,240.178L479.425,240.146L479.371,240.114L479.316,240.081L479.261,240.049L479.207,240.017L479.152,239.985L479.097,239.954L479.042,239.923L478.981,239.888L384.083,186.834L384.004,186.79L383.931,186.75L383.859,186.711L383.786,186.671L383.713,186.632L383.64,186.594L383.567,186.555L383.494,186.518L383.42,186.48L383.347,186.442L383.273,186.405L383.199,186.369L383.126,186.332L383.052,186.296L382.977,186.261L382.903,186.225L382.829,186.19L382.754,186.156L382.68,186.121L382.605,186.087L382.53,186.053L382.456,186.02L382.381,185.987L382.305,185.954L382.23,185.921L382.155,185.889L382.08,185.858L382.004,185.826L381.928,185.795L381.853,185.764L381.777,185.734L381.701,185.703L381.625,185.674L381.549,185.644L381.472,185.615L381.396,185.586L381.32,185.557L381.243,185.529L381.167,185.501L381.09,185.473L381.013,185.446L380.936,185.419L380.859,185.392L380.782,185.366L380.705,185.34L380.628,185.314L380.55,185.289L380.473,185.264L380.396,185.239L380.318,185.215L380.24,185.191L380.162,185.167L380.085,185.144L380.007,185.121L379.929,185.098L379.851,185.075L379.773,185.053L379.694,185.031L379.616,185.01L379.538,184.989L379.459,184.968L379.381,184.947L379.302,184.927L379.224,184.907L379.145,184.887L379.066,184.868L378.987,184.849L378.908,184.831L378.829,184.812L378.75,184.794L378.671,184.777L378.592,184.759L378.513,184.742L378.434,184.726L378.354,184.709L378.275,184.693L378.195,184.678L378.116,184.662L378.037,184.647L377.957,184.632L377.877,184.618L377.798,184.604L377.718,184.59L377.638,184.577L377.558,184.563L377.478,184.551L377.398,184.538L377.318,184.526L377.238,184.514L377.158,184.502L377.078,184.491L376.998,184.48L376.918,184.47L376.838,184.459L376.757,184.45L376.677,184.44L376.597,184.431L376.516,184.422L376.436,184.413L376.356,184.405L376.275,184.397L376.195,184.389L376.114,184.382L376.034,184.375L375.953,184.368L375.873,184.361L375.792,184.355L375.711,184.35L375.631,184.344L375.55,184.339L375.47,184.334L375.389,184.33L375.308,184.326L375.228,184.322L375.147,184.318L375.066,184.315L374.985,184.312L374.905,184.31L374.824,184.307L374.743,184.305L374.662,184.304L374.582,184.303L374.501,184.302L374.42,184.301L374.339,184.301L374.258,184.301Z"
      style="fill:rgb(201,23,126);" />
  </g>
  <g transform="matrix(1.92045,0,0,2.00409,-453.15,-314.469)">
    <path d="M330.703,383.498L330.703,229.716L364.279,229.716L364.279,285.731L419.973,285.731L419.973,229.716L453.645,229.716L453.645,383.498L419.973,383.498L419.973,316.258L364.279,316.258L364.279,383.498L330.703,383.498Z" style="fill:white;fill-rule:nonzero;" />
  </g>
</svg>
