<svg id="hugo-h-only" width="{{ .size }}" height="{{ .size }}" viewBox="0 0 400 400" version="1.1" xmlns="http://www.w3.org/2000/svg" xmlns:xlink="http://www.w3.org/1999/xlink" xml:space="preserve" style="fill-rule:evenodd;clip-rule:evenodd;stroke-linejoin:round;stroke-miterlimit:1.41421;">
    <g transform="matrix(1.36352,0,0,1.43298,-313.768,-237.035)">
        <path d="M493.269,343.75C493.269,343.75 493.269,287.991 493.269,258.436C493.269,247.342 487.095,237.078 477.043,231.458C455.469,219.397 417.354,198.088 394.012,185.038C381.687,178.148 366.37,178.304 354.203,185.443C333.547,197.563 301.313,216.476 280.505,228.685C267.959,236.047 260.319,249.07 260.319,263.095C260.319,287.479 260.319,326.102 260.319,350.446C260.319,364.359 268.079,377.226 280.702,384.247C302.664,396.462 337.188,415.664 357.502,426.963C367.714,432.643 380.32,432.767 390.654,427.291C413.085,415.403 452.801,394.356 475.687,382.228C486.54,376.476 493.269,365.583 493.269,353.762C493.269,348.276 493.269,343.75 493.269,343.75Z" style="fill:rgb(255,64,136);"/>
        <path d="M374.562,170.557L374.744,170.557L374.765,170.557L374.947,170.559L374.968,170.559L375.15,170.561L375.17,170.561L375.352,170.564L375.373,170.565L375.555,170.568L375.576,170.569L375.758,170.573L375.779,170.574L375.961,170.579L375.982,170.579L376.164,170.585L376.185,170.586L376.367,170.592L376.387,170.593L376.569,170.6L376.59,170.601L376.772,170.609L376.793,170.61L376.975,170.619L376.996,170.62L377.178,170.629L377.198,170.63L377.38,170.64L377.401,170.641L377.583,170.652L377.604,170.653L377.786,170.665L377.806,170.666L377.988,170.679L378.009,170.68L378.191,170.693L378.211,170.695L378.393,170.708L378.414,170.71L378.595,170.724L378.616,170.726L378.798,170.741L378.818,170.743L379,170.759L379.021,170.761L379.202,170.777L379.223,170.779L379.404,170.797L379.425,170.799L379.607,170.817L379.627,170.819L379.809,170.838L379.829,170.84L380.011,170.859L380.031,170.862L380.213,170.882L380.233,170.884L380.414,170.905L380.435,170.908L380.616,170.929L380.637,170.932L380.818,170.954L380.838,170.957L381.019,170.98L381.04,170.983L381.221,171.007L381.241,171.009L381.422,171.034L381.443,171.037L381.624,171.062L381.644,171.065L381.825,171.091L381.845,171.094L382.026,171.121L382.047,171.124L382.227,171.152L382.248,171.155L382.428,171.183L382.448,171.186L382.629,171.215L382.649,171.218L382.83,171.248L382.85,171.252L383.03,171.282L383.051,171.286L383.231,171.317L383.251,171.32L383.431,171.352L383.451,171.356L383.631,171.388L383.652,171.392L383.831,171.425L383.852,171.429L384.032,171.463L384.052,171.467L384.231,171.502L384.252,171.506L384.431,171.542L384.452,171.546L384.631,171.582L384.651,171.586L384.83,171.623L384.851,171.627L385.03,171.665L385.05,171.669L385.229,171.708L385.249,171.712L385.428,171.751L385.448,171.756L385.627,171.795L385.647,171.8L385.826,171.841L385.846,171.845L386.024,171.887L386.045,171.891L386.223,171.933L386.243,171.938L386.421,171.981L386.441,171.986L386.619,172.029L386.64,172.034L386.817,172.079L386.838,172.084L387.015,172.129L387.035,172.134L387.213,172.179L387.233,172.185L387.41,172.231L387.431,172.236L387.608,172.284L387.628,172.289L387.805,172.337L387.825,172.342L388.002,172.391L388.022,172.396L388.199,172.446L388.219,172.451L388.395,172.501L388.415,172.507L388.592,172.558L388.612,172.564L388.788,172.615L388.808,172.621L388.984,172.673L389.004,172.679L389.18,172.732L389.2,172.738L389.375,172.792L389.395,172.798L389.571,172.852L389.591,172.859L389.766,172.914L389.786,172.92L389.961,172.976L389.981,172.982L390.156,173.039L390.176,173.045L390.35,173.103L390.37,173.109L390.545,173.167L390.565,173.174L390.739,173.233L390.759,173.24L390.933,173.299L390.953,173.306L391.127,173.366L391.146,173.373L391.32,173.434L391.34,173.441L391.513,173.502L391.533,173.51L391.706,173.572L391.726,173.579L391.899,173.642L391.919,173.649L392.092,173.713L392.111,173.721L392.284,173.785L392.303,173.793L392.476,173.858L392.495,173.865L392.668,173.931L392.687,173.939L392.859,174.006L392.879,174.013L393.05,174.081L393.07,174.088L393.242,174.157L393.261,174.164L393.432,174.233L393.452,174.241L393.623,174.311L393.642,174.319L393.813,174.389L393.832,174.397L394.003,174.468L394.022,174.476L394.192,174.548L394.212,174.556L394.382,174.629L394.401,174.637L394.571,174.711L394.59,174.719L394.76,174.793L394.779,174.801L394.948,174.876L394.968,174.885L395.137,174.96L395.156,174.969L395.325,175.045L395.344,175.054L395.512,175.131L395.531,175.139L395.7,175.217L395.719,175.226L395.887,175.304L395.906,175.313L396.074,175.392L396.093,175.401L396.26,175.481L396.279,175.49L396.446,175.571L396.465,175.58L396.632,175.661L396.651,175.671L396.818,175.753L396.836,175.762L397.003,175.845L397.022,175.854L397.188,175.937L397.206,175.947L397.372,176.031L397.391,176.041L397.557,176.126L397.575,176.135L397.74,176.221L397.759,176.231L397.924,176.317L397.942,176.327L398.107,176.414L398.126,176.424L398.29,176.512L398.309,176.522L398.473,176.61L398.491,176.62L398.655,176.709L398.673,176.72L398.837,176.81L398.855,176.82L399.013,176.908L399.023,176.913L482.063,223.338L482.202,223.416L482.22,223.426L482.355,223.503L482.373,223.513L482.507,223.59L482.524,223.6L482.659,223.677L482.676,223.687L482.81,223.765L482.827,223.775L482.96,223.854L482.978,223.864L483.111,223.943L483.128,223.953L483.26,224.033L483.277,224.043L483.409,224.123L483.427,224.133L483.558,224.214L483.575,224.224L483.706,224.305L483.724,224.316L483.855,224.397L483.872,224.408L484.002,224.489L484.019,224.5L484.149,224.582L484.166,224.593L484.295,224.676L484.312,224.687L484.441,224.77L484.458,224.78L484.586,224.864L484.603,224.875L484.732,224.959L484.749,224.971L484.876,225.055L484.893,225.066L485.02,225.151L485.037,225.162L485.164,225.248L485.18,225.259L485.307,225.345L485.323,225.356L485.45,225.442L485.466,225.454L485.592,225.541L485.608,225.552L485.733,225.639L485.75,225.651L485.875,225.739L485.891,225.75L486.015,225.838L486.032,225.85L486.156,225.939L486.172,225.95L486.295,226.039L486.311,226.051L486.434,226.14L486.451,226.152L486.573,226.242L486.589,226.254L486.712,226.345L486.728,226.356L486.849,226.447L486.865,226.459L486.991,226.553L487.014,226.571L487.252,226.752L487.283,226.776L487.522,226.962L487.554,226.986L487.792,227.174L487.823,227.199L488.059,227.388L488.089,227.412L488.324,227.603L488.354,227.628L488.587,227.821L488.617,227.846L488.848,228.04L488.878,228.066L489.107,228.262L489.137,228.287L489.364,228.484L489.393,228.51L489.618,228.71L489.648,228.736L489.871,228.936L489.9,228.963L490.122,229.165L490.151,229.192L490.37,229.396L490.399,229.422L490.616,229.628L490.645,229.655L490.861,229.862L490.889,229.889L491.103,230.097L491.131,230.125L491.343,230.335L491.371,230.363L491.581,230.574L491.608,230.602L491.817,230.815L491.844,230.843L492.05,231.058L492.077,231.086L492.281,231.302L492.308,231.331L492.511,231.548L492.537,231.577L492.738,231.796L492.764,231.824L492.962,232.045L492.988,232.074L493.185,232.296L493.211,232.325L493.406,232.549L493.431,232.578L493.624,232.803L493.649,232.832L493.84,233.058L493.865,233.088L494.054,233.316L494.078,233.345L494.265,233.574L494.289,233.604L494.474,233.835L494.498,233.865L494.681,234.096L494.705,234.127L494.886,234.36L494.909,234.39L495.088,234.625L495.111,234.656L495.288,234.891L495.311,234.922L495.486,235.159L495.509,235.19L495.682,235.429L495.704,235.46L495.875,235.699L495.897,235.73L496.066,235.971L496.088,236.003L496.255,236.245L496.276,236.277L496.441,236.52L496.462,236.552L496.624,236.796L496.646,236.828L496.806,237.074L496.827,237.106L496.985,237.353L497.006,237.385L497.162,237.633L497.182,237.666L497.337,237.915L497.357,237.948L497.509,238.199L497.528,238.231L497.678,238.483L497.698,238.516L497.846,238.769L497.865,238.802L498.01,239.056L498.029,239.089L498.173,239.344L498.192,239.378L498.333,239.634L498.351,239.667L498.49,239.924L498.508,239.958L498.645,240.216L498.663,240.25L498.798,240.509L498.816,240.543L498.948,240.804L498.966,240.838L499.096,241.099L499.113,241.133L499.241,241.395L499.258,241.43L499.384,241.694L499.4,241.728L499.524,241.993L499.54,242.027L499.662,242.293L499.678,242.328L499.798,242.594L499.813,242.629L499.93,242.896L499.945,242.931L500.06,243.2L500.075,243.235L500.188,243.504L500.202,243.539L500.313,243.81L500.328,243.845L500.436,244.117L500.45,244.152L500.556,244.424L500.569,244.459L500.673,244.732L500.687,244.768L500.788,245.043L500.801,245.078L500.9,245.353L500.913,245.389L501.01,245.664L501.022,245.7L501.117,245.977L501.129,246.014L501.222,246.291L501.233,246.327L501.323,246.605L501.335,246.641L501.423,246.92L501.434,246.957L501.519,247.237L501.53,247.273L501.613,247.554L501.624,247.59L501.704,247.871L501.715,247.908L501.793,248.19L501.803,248.227L501.879,248.51L501.889,248.547L501.962,248.831L501.972,248.868L502.043,249.152L502.052,249.189L502.121,249.474L502.129,249.511L502.196,249.797L502.204,249.835L502.268,250.121L502.276,250.158L502.338,250.445L502.346,250.483L502.405,250.77L502.412,250.808L502.469,251.096L502.476,251.134L502.53,251.423L502.537,251.461L502.589,251.75L502.596,251.788L502.645,252.078L502.651,252.116L502.698,252.407L502.704,252.445L502.748,252.731L502.752,252.76L502.774,252.91L502.777,252.929L502.797,253.075L502.8,253.094L502.82,253.241L502.823,253.26L502.842,253.406L502.844,253.425L502.863,253.571L502.866,253.59L502.884,253.736L502.886,253.755L502.904,253.902L502.906,253.922L502.923,254.069L502.925,254.088L502.941,254.235L502.943,254.253L502.959,254.401L502.961,254.42L502.976,254.568L502.978,254.586L502.992,254.734L502.994,254.753L503.008,254.901L503.01,254.92L503.023,255.067L503.025,255.086L503.037,255.233L503.039,255.253L503.051,255.401L503.052,255.42L503.063,255.568L503.065,255.587L503.075,255.735L503.077,255.754L503.087,255.903L503.088,255.922L503.097,256.071L503.098,256.09L503.107,256.238L503.108,256.257L503.116,256.405L503.117,256.425L503.125,256.573L503.126,256.593L503.132,256.741L503.133,256.76L503.139,256.908L503.14,256.929L503.146,257.078L503.146,257.097L503.151,257.246L503.152,257.264L503.156,257.413L503.156,257.434L503.16,257.583L503.16,257.602L503.163,257.751L503.164,257.771L503.166,257.92L503.166,257.939L503.168,258.088L503.168,258.108L503.169,258.257L503.169,258.276L503.169,258.431L503.169,353.767L503.169,353.777L503.169,353.931L503.169,353.95L503.168,354.109L503.168,354.129L503.166,354.287L503.166,354.307L503.163,354.465L503.163,354.484L503.16,354.643L503.159,354.663L503.155,354.821L503.155,354.841L503.15,354.998L503.15,355.018L503.144,355.176L503.144,355.196L503.138,355.354L503.137,355.373L503.13,355.53L503.129,355.551L503.122,355.709L503.121,355.728L503.113,355.886L503.112,355.905L503.103,356.062L503.102,356.081L503.093,356.238L503.091,356.259L503.081,356.416L503.08,356.436L503.069,356.593L503.068,356.612L503.056,356.768L503.055,356.788L503.043,356.945L503.041,356.965L503.028,357.122L503.027,357.142L503.013,357.298L503.011,357.318L502.997,357.474L502.995,357.493L502.98,357.649L502.978,357.668L502.963,357.824L502.961,357.845L502.944,358.001L502.942,358.02L502.926,358.175L502.923,358.196L502.906,358.351L502.903,358.37L502.885,358.526L502.883,358.546L502.864,358.702L502.861,358.72L502.842,358.875L502.839,358.895L502.819,359.05L502.816,359.07L502.795,359.224L502.792,359.244L502.771,359.399L502.768,359.419L502.746,359.573L502.743,359.592L502.72,359.746L502.717,359.766L502.693,359.921L502.69,359.94L502.666,360.094L502.662,360.114L502.638,360.267L502.634,360.286L502.609,360.44L502.605,360.46L502.579,360.614L502.575,360.633L502.549,360.786L502.545,360.805L502.517,360.959L502.514,360.979L502.485,361.132L502.482,361.151L502.453,361.303L502.449,361.323L502.42,361.475L502.416,361.494L502.385,361.647L502.382,361.667L502.351,361.819L502.347,361.838L502.315,361.991L502.311,362.011L502.278,362.162L502.275,362.18L502.242,362.332L502.237,362.352L502.204,362.504L502.199,362.523L502.165,362.675L502.161,362.693L502.126,362.845L502.122,362.863L502.086,363.015L502.081,363.034L502.045,363.185L502.041,363.204L502.004,363.355L501.999,363.374L501.961,363.525L501.957,363.543L501.919,363.693L501.914,363.713L501.875,363.863L501.87,363.882L501.83,364.032L501.825,364.051L501.785,364.201L501.78,364.219L501.74,364.369L501.734,364.388L501.693,364.537L501.688,364.556L501.646,364.705L501.641,364.724L501.598,364.872L501.592,364.892L501.549,365.041L501.543,365.06L501.499,365.209L501.494,365.227L501.45,365.375L501.444,365.394L501.399,365.542L501.393,365.56L501.347,365.708L501.341,365.728L501.295,365.876L501.289,365.894L501.242,366.041L501.236,366.059L501.188,366.206L501.182,366.225L501.134,366.372L501.128,366.391L501.079,366.538L501.073,366.555L501.023,366.702L501.017,366.721L500.966,366.868L500.96,366.886L500.909,367.032L500.903,367.05L500.851,367.196L500.845,367.214L500.793,367.36L500.786,367.378L500.734,367.524L500.727,367.543L500.673,367.688L500.667,367.706L500.613,367.851L500.606,367.869L500.551,368.014L500.544,368.032L500.489,368.176L500.482,368.195L500.427,368.339L500.419,368.357L500.363,368.501L500.356,368.519L500.299,368.663L500.292,368.681L500.234,368.825L500.227,368.843L500.168,368.986L500.161,369.004L500.102,369.147L500.095,369.165L500.035,369.307L500.028,369.325L499.968,369.468L499.96,369.486L499.899,369.628L499.892,369.646L499.831,369.788L499.823,369.806L499.761,369.947L499.753,369.966L499.69,370.107L499.683,370.125L499.62,370.266L499.612,370.284L499.548,370.424L499.54,370.442L499.475,370.583L499.467,370.601L499.402,370.741L499.395,370.758L499.329,370.898L499.32,370.916L499.254,371.056L499.246,371.073L499.18,371.213L499.171,371.231L499.103,371.371L499.095,371.388L499.027,371.526L499.019,371.544L498.95,371.683L498.942,371.7L498.873,371.838L498.864,371.856L498.794,371.994L498.785,372.011L498.715,372.15L498.706,372.167L498.635,372.305L498.627,372.322L498.555,372.459L498.546,372.476L498.474,372.613L498.465,372.631L498.392,372.767L498.383,372.785L498.31,372.921L498.301,372.938L498.227,373.074L498.217,373.092L498.143,373.228L498.134,373.244L498.059,373.379L498.05,373.396L497.974,373.532L497.964,373.549L497.888,373.684L497.879,373.701L497.802,373.836L497.793,373.852L497.716,373.986L497.706,374.003L497.628,374.138L497.618,374.154L497.54,374.288L497.529,374.305L497.45,374.439L497.441,374.455L497.361,374.588L497.351,374.605L497.271,374.738L497.261,374.755L497.18,374.887L497.17,374.904L497.089,375.036L497.078,375.053L496.997,375.184L496.987,375.201L496.904,375.332L496.894,375.349L496.811,375.48L496.8,375.497L496.717,375.627L496.706,375.644L496.622,375.775L496.612,375.79L496.527,375.921L496.516,375.938L496.431,376.068L496.42,376.083L496.335,376.213L496.324,376.229L496.237,376.359L496.226,376.375L496.139,376.504L496.129,376.52L496.041,376.649L496.03,376.666L495.942,376.794L495.931,376.809L495.843,376.937L495.831,376.953L495.742,377.081L495.731,377.096L495.642,377.223L495.63,377.24L495.54,377.367L495.528,377.383L495.437,377.51L495.426,377.525L495.335,377.651L495.323,377.667L495.231,377.793L495.219,377.809L495.127,377.934L495.116,377.949L495.023,378.075L495.011,378.091L494.917,378.216L494.905,378.232L494.812,378.356L494.8,378.371L494.706,378.495L494.693,378.511L494.598,378.635L494.586,378.651L494.49,378.774L494.478,378.789L494.382,378.912L494.37,378.927L494.274,379.05L494.261,379.066L494.163,379.188L494.151,379.203L494.053,379.325L494.041,379.341L493.942,379.462L493.931,379.477L493.832,379.598L493.819,379.614L493.719,379.735L493.707,379.75L493.607,379.87L493.595,379.885L493.494,380.005L493.481,380.021L493.38,380.14L493.368,380.154L493.266,380.274L493.252,380.29L493.15,380.409L493.138,380.423L493.036,380.541L493.022,380.556L492.919,380.675L492.906,380.69L492.802,380.807L492.789,380.822L492.685,380.939L492.672,380.954L492.567,381.071L492.554,381.085L492.449,381.202L492.435,381.217L492.329,381.333L492.316,381.347L492.21,381.463L492.196,381.478L492.089,381.593L492.076,381.608L491.968,381.723L491.955,381.737L491.847,381.852L491.833,381.866L491.725,381.98L491.712,381.994L491.603,382.108L491.589,382.123L491.479,382.236L491.466,382.25L491.356,382.363L491.342,382.378L491.231,382.49L491.217,382.505L491.106,382.616L491.092,382.63L490.981,382.742L490.966,382.757L490.854,382.868L490.841,382.882L490.728,382.992L490.714,383.006L490.601,383.117L490.587,383.131L490.473,383.241L490.458,383.255L490.344,383.365L490.33,383.378L490.216,383.487L490.201,383.501L490.086,383.61L490.071,383.624L489.956,383.732L489.942,383.745L489.826,383.853L489.811,383.867L489.694,383.975L489.679,383.988L489.563,384.095L489.548,384.108L489.431,384.215L489.416,384.229L489.297,384.335L489.282,384.349L489.164,384.454L489.149,384.467L489.03,384.573L489.014,384.586L488.895,384.691L488.88,384.704L488.761,384.808L488.746,384.821L488.625,384.925L488.609,384.939L488.488,385.043L488.473,385.056L488.351,385.159L488.336,385.171L488.215,385.274L488.199,385.287L488.077,385.389L488.061,385.402L487.938,385.504L487.922,385.517L487.799,385.618L487.784,385.631L487.66,385.731L487.644,385.744L487.519,385.845L487.503,385.858L487.379,385.957L487.364,385.969L487.239,386.069L487.222,386.082L487.096,386.181L487.081,386.193L486.954,386.292L486.938,386.304L486.811,386.403L486.795,386.415L486.668,386.512L486.652,386.524L486.524,386.621L486.507,386.634L486.379,386.731L486.364,386.743L486.235,386.838L486.219,386.851L486.09,386.946L486.074,386.958L485.944,387.054L485.927,387.066L485.797,387.161L485.781,387.172L485.65,387.267L485.633,387.279L485.502,387.373L485.486,387.385L485.355,387.478L485.339,387.489L485.207,387.581L485.189,387.594L485.057,387.686L485.04,387.698L484.907,387.79L484.89,387.801L484.757,387.892L484.74,387.904L484.607,387.995L484.59,388.006L484.455,388.097L484.438,388.108L484.303,388.198L484.287,388.209L484.152,388.298L484.134,388.31L483.999,388.398L483.982,388.41L483.846,388.498L483.829,388.509L483.692,388.597L483.675,388.608L483.538,388.695L483.52,388.707L483.383,388.793L483.366,388.804L483.228,388.89L483.211,388.901L483.073,388.987L483.055,388.998L482.916,389.083L482.898,389.094L482.759,389.179L482.742,389.189L482.602,389.274L482.584,389.284L482.444,389.368L482.427,389.378L482.287,389.461L482.269,389.472L482.127,389.555L482.109,389.566L481.968,389.648L481.951,389.657L481.81,389.739L481.791,389.75L481.648,389.831L481.63,389.841L481.488,389.921L481.471,389.931L481.327,390.011L481.309,390.022L481.165,390.101L481.147,390.111L481.003,390.19L480.985,390.2L480.841,390.278L480.823,390.288L480.678,390.366L480.659,390.376L480.519,390.451L480.509,390.456L395.466,435.524L395.457,435.529L395.323,435.6L395.306,435.609L395.166,435.681L395.148,435.691L395.008,435.763L394.99,435.772L394.85,435.844L394.832,435.853L394.692,435.924L394.674,435.933L394.534,436.004L394.516,436.013L394.376,436.082L394.358,436.091L394.217,436.161L394.199,436.169L394.058,436.238L394.04,436.247L393.899,436.315L393.88,436.324L393.738,436.391L393.721,436.4L393.579,436.467L393.561,436.475L393.419,436.541L393.4,436.55L393.258,436.616L393.241,436.624L393.099,436.689L393.08,436.698L392.937,436.763L392.918,436.771L392.776,436.835L392.757,436.843L392.615,436.906L392.596,436.914L392.454,436.977L392.436,436.985L392.293,437.047L392.273,437.055L392.13,437.117L392.111,437.125L391.967,437.186L391.948,437.194L391.804,437.254L391.786,437.262L391.642,437.322L391.624,437.329L391.48,437.388L391.461,437.396L391.316,437.455L391.297,437.463L391.152,437.521L391.134,437.528L390.99,437.585L390.971,437.593L390.826,437.65L390.807,437.657L390.661,437.714L390.642,437.721L390.497,437.776L390.479,437.783L390.333,437.838L390.314,437.846L390.168,437.901L390.149,437.908L390.003,437.961L389.985,437.968L389.839,438.021L389.82,438.028L389.673,438.081L389.654,438.088L389.508,438.14L389.489,438.147L389.342,438.199L389.323,438.205L389.177,438.256L389.158,438.263L389.011,438.313L388.992,438.32L388.845,438.37L388.826,438.376L388.678,438.425L388.658,438.432L388.511,438.481L388.493,438.487L388.345,438.534L388.326,438.541L388.179,438.588L388.16,438.594L388.011,438.641L387.991,438.647L387.843,438.694L387.825,438.699L387.677,438.745L387.657,438.751L387.509,438.796L387.49,438.802L387.342,438.847L387.322,438.853L387.173,438.896L387.155,438.902L387.001,438.947L386.972,438.955L386.678,439.039L386.64,439.05L386.342,439.132L386.303,439.143L386.004,439.223L385.965,439.233L385.665,439.311L385.627,439.321L385.327,439.397L385.288,439.406L384.987,439.48L384.949,439.489L384.648,439.56L384.609,439.569L384.307,439.637L384.268,439.646L383.966,439.712L383.927,439.721L383.625,439.785L383.586,439.793L383.283,439.854L383.244,439.862L382.941,439.921L382.902,439.929L382.598,439.985L382.56,439.993L382.256,440.047L382.216,440.054L381.912,440.106L381.873,440.113L381.568,440.162L381.529,440.169L381.224,440.216L381.185,440.222L380.88,440.267L380.84,440.273L380.535,440.315L380.496,440.321L380.19,440.361L380.151,440.366L379.845,440.404L379.805,440.409L379.499,440.445L379.46,440.449L379.154,440.482L379.114,440.487L378.808,440.518L378.768,440.521L378.461,440.55L378.422,440.554L378.115,440.58L378.075,440.583L377.768,440.607L377.728,440.61L377.422,440.631L377.382,440.634L377.075,440.653L377.035,440.656L376.728,440.673L376.688,440.675L376.38,440.689L376.341,440.691L376.033,440.703L375.994,440.704L375.686,440.714L375.646,440.715L375.338,440.723L375.299,440.724L374.991,440.729L374.952,440.729L374.644,440.732L374.604,440.732L374.296,440.733L374.256,440.733L373.949,440.731L373.91,440.731L373.602,440.726L373.562,440.726L373.254,440.719L373.215,440.718L372.907,440.709L372.867,440.708L372.559,440.697L372.52,440.695L372.213,440.681L372.173,440.68L371.866,440.664L371.826,440.661L371.519,440.643L371.479,440.641L371.172,440.62L371.133,440.617L370.826,440.594L370.786,440.591L370.479,440.566L370.44,440.562L370.133,440.535L370.093,440.531L369.787,440.501L369.748,440.497L369.442,440.465L369.402,440.46L369.096,440.426L369.057,440.421L368.751,440.384L368.711,440.379L368.406,440.34L368.367,440.334L368.061,440.293L368.022,440.287L367.717,440.243L367.678,440.237L367.373,440.191L367.334,440.185L367.029,440.136L366.99,440.13L366.686,440.079L366.647,440.072L366.343,440.018L366.304,440.011L366.001,439.956L365.962,439.948L365.659,439.89L365.619,439.882L365.317,439.822L365.278,439.814L364.976,439.751L364.937,439.743L364.635,439.678L364.596,439.669L364.295,439.602L364.256,439.593L363.955,439.523L363.917,439.514L363.616,439.442L363.577,439.432L363.277,439.358L363.239,439.348L362.939,439.271L362.9,439.261L362.601,439.182L362.563,439.171L362.264,439.09L362.226,439.079L361.928,438.995L361.89,438.984L361.593,438.898L361.555,438.887L361.258,438.798L361.22,438.787L360.928,438.697L360.899,438.688L360.747,438.641L360.728,438.635L360.58,438.588L360.56,438.581L360.413,438.534L360.394,438.528L360.247,438.48L360.228,438.474L360.081,438.425L360.062,438.419L359.915,438.369L359.896,438.363L359.749,438.313L359.73,438.307L359.583,438.256L359.564,438.25L359.418,438.199L359.399,438.192L359.253,438.14L359.234,438.134L359.088,438.082L359.069,438.075L358.922,438.022L358.904,438.015L358.758,437.962L358.739,437.955L358.593,437.901L358.575,437.894L358.429,437.84L358.411,437.833L358.265,437.777L358.247,437.77L358.101,437.714L358.082,437.707L357.937,437.651L357.919,437.644L357.775,437.587L357.756,437.58L357.611,437.522L357.592,437.514L357.447,437.456L357.429,437.449L357.285,437.39L357.267,437.383L357.123,437.324L357.103,437.316L356.96,437.256L356.942,437.249L356.798,437.188L356.78,437.18L356.636,437.119L356.617,437.111L356.474,437.05L356.456,437.042L356.313,436.98L356.295,436.972L356.152,436.909L356.133,436.901L355.991,436.838L355.973,436.83L355.831,436.766L355.812,436.757L355.669,436.693L355.651,436.684L355.509,436.619L355.491,436.611L355.35,436.546L355.331,436.537L355.19,436.471L355.171,436.462L355.029,436.395L355.012,436.387L354.871,436.32L354.853,436.311L354.712,436.243L354.694,436.234L354.554,436.166L354.536,436.157L354.395,436.088L354.377,436.079L354.236,436.009L354.218,436L354.078,435.93L354.061,435.921L353.921,435.85L353.903,435.84L353.763,435.769L353.746,435.76L353.607,435.688L353.589,435.679L353.45,435.606L353.432,435.597L353.293,435.524L353.275,435.514L353.137,435.44L353.119,435.431L352.981,435.356L352.964,435.347L352.826,435.272L352.807,435.262L352.67,435.187L352.653,435.177L352.52,435.104L352.511,435.099L275.701,392.378L275.692,392.373L275.531,392.283L275.514,392.273L275.349,392.18L275.331,392.17L275.167,392.077L275.15,392.067L274.986,391.973L274.968,391.962L274.804,391.867L274.787,391.857L274.624,391.762L274.607,391.752L274.444,391.656L274.426,391.645L274.265,391.549L274.247,391.538L274.086,391.441L274.068,391.43L273.908,391.333L273.891,391.323L273.731,391.224L273.713,391.213L273.553,391.114L273.536,391.104L273.377,391.005L273.36,390.994L273.201,390.894L273.184,390.883L273.025,390.782L273.008,390.771L272.85,390.67L272.834,390.659L272.676,390.557L272.659,390.546L272.503,390.444L272.486,390.433L272.33,390.33L272.313,390.319L272.157,390.216L272.14,390.204L271.985,390.1L271.968,390.089L271.814,389.985L271.797,389.973L271.642,389.868L271.626,389.857L271.472,389.751L271.456,389.74L271.303,389.633L271.287,389.622L271.134,389.515L271.118,389.504L270.966,389.396L270.949,389.385L270.798,389.277L270.781,389.265L270.63,389.156L270.614,389.145L270.463,389.036L270.448,389.024L270.298,388.915L270.281,388.903L270.132,388.792L270.116,388.78L269.967,388.67L269.951,388.658L269.803,388.547L269.787,388.535L269.639,388.423L269.623,388.411L269.476,388.299L269.46,388.287L269.313,388.174L269.297,388.161L269.151,388.048L269.135,388.036L268.99,387.923L268.974,387.91L268.829,387.796L268.813,387.784L268.669,387.668L268.653,387.656L268.509,387.54L268.494,387.528L268.351,387.413L268.335,387.4L268.191,387.283L268.176,387.271L268.034,387.154L268.019,387.141L267.877,387.024L267.862,387.011L267.72,386.893L267.705,386.88L267.564,386.762L267.55,386.749L267.409,386.63L267.394,386.617L267.254,386.498L267.239,386.485L267.1,386.365L267.085,386.352L266.947,386.231L266.932,386.218L266.794,386.097L266.78,386.085L266.642,385.963L266.627,385.949L266.49,385.827L266.476,385.814L266.34,385.692L266.325,385.679L266.189,385.556L266.175,385.543L266.04,385.419L266.025,385.406L265.89,385.282L265.876,385.268L265.742,385.144L265.727,385.13L265.594,385.005L265.58,384.992L265.447,384.867L265.433,384.853L265.3,384.727L265.286,384.714L265.154,384.587L265.14,384.574L265.009,384.447L264.995,384.433L264.864,384.306L264.851,384.292L264.721,384.164L264.707,384.151L264.577,384.022L264.563,384.008L264.434,383.879L264.42,383.866L264.292,383.736L264.278,383.722L264.151,383.593L264.137,383.579L264.01,383.449L263.996,383.435L263.87,383.304L263.856,383.29L263.73,383.159L263.717,383.145L263.592,383.013L263.578,382.999L263.453,382.867L263.44,382.853L263.315,382.72L263.302,382.706L263.179,382.574L263.166,382.559L263.043,382.426L263.029,382.411L262.907,382.278L262.894,382.264L262.772,382.129L262.759,382.115L262.638,381.98L262.625,381.965L262.504,381.83L262.491,381.816L262.371,381.68L262.359,381.666L262.239,381.53L262.226,381.515L262.107,381.379L262.095,381.364L261.976,381.227L261.964,381.212L261.846,381.075L261.834,381.06L261.716,380.923L261.704,380.908L261.587,380.77L261.575,380.755L261.459,380.616L261.447,380.601L261.331,380.462L261.319,380.448L261.205,380.308L261.192,380.293L261.078,380.153L261.066,380.138L260.953,379.998L260.941,379.983L260.828,379.842L260.816,379.827L260.704,379.686L260.691,379.671L260.58,379.529L260.568,379.514L260.457,379.372L260.445,379.357L260.335,379.215L260.323,379.199L260.213,379.056L260.202,379.041L260.093,378.898L260.081,378.883L259.972,378.739L259.961,378.724L259.853,378.58L259.841,378.564L259.734,378.42L259.723,378.405L259.616,378.26L259.605,378.244L259.499,378.099L259.487,378.084L259.382,377.938L259.371,377.922L259.266,377.776L259.254,377.761L259.15,377.614L259.139,377.599L259.036,377.452L259.025,377.436L258.922,377.289L258.911,377.273L258.808,377.126L258.798,377.11L258.696,376.962L258.685,376.947L258.584,376.799L258.573,376.782L258.473,376.634L258.462,376.618L258.363,376.469L258.352,376.453L258.253,376.304L258.242,376.287L258.144,376.138L258.133,376.121L258.035,375.971L258.025,375.956L257.928,375.805L257.917,375.789L257.821,375.638L257.81,375.622L257.714,375.47L257.704,375.455L257.609,375.303L257.599,375.287L257.504,375.135L257.494,375.118L257.4,374.966L257.39,374.95L257.297,374.797L257.287,374.781L257.194,374.628L257.184,374.611L257.092,374.458L257.082,374.442L256.991,374.288L256.981,374.271L256.89,374.117L256.881,374.101L256.791,373.946L256.781,373.93L256.692,373.775L256.682,373.759L256.593,373.603L256.584,373.587L256.496,373.431L256.486,373.415L256.399,373.259L256.389,373.242L256.303,373.086L256.293,373.069L256.207,372.913L256.198,372.896L256.113,372.739L256.103,372.723L256.019,372.565L256.009,372.548L255.925,372.391L255.916,372.374L255.833,372.216L255.824,372.199L255.741,372.041L255.732,372.024L255.65,371.866L255.641,371.849L255.56,371.691L255.551,371.673L255.47,371.514L255.461,371.497L255.381,371.337L255.373,371.321L255.293,371.161L255.285,371.144L255.206,370.984L255.197,370.967L255.119,370.806L255.111,370.789L255.033,370.628L255.025,370.611L254.948,370.45L254.94,370.433L254.864,370.272L254.856,370.254L254.78,370.093L254.772,370.076L254.698,369.914L254.689,369.896L254.615,369.734L254.607,369.716L254.534,369.554L254.526,369.537L254.453,369.374L254.446,369.357L254.374,369.193L254.366,369.176L254.294,369.012L254.287,368.995L254.216,368.831L254.209,368.814L254.139,368.65L254.131,368.632L254.062,368.468L254.054,368.45L253.986,368.286L253.978,368.268L253.91,368.103L253.903,368.086L253.836,367.921L253.829,367.903L253.762,367.737L253.755,367.719L253.689,367.554L253.682,367.536L253.617,367.37L253.61,367.353L253.545,367.186L253.538,367.168L253.475,367.002L253.468,366.984L253.405,366.817L253.398,366.799L253.335,366.632L253.329,366.615L253.267,366.447L253.261,366.429L253.2,366.262L253.193,366.244L253.133,366.076L253.126,366.058L253.067,365.89L253.06,365.872L253.001,365.703L252.995,365.685L252.937,365.517L252.931,365.499L252.873,365.33L252.867,365.311L252.81,365.142L252.804,365.124L252.748,364.955L252.742,364.937L252.687,364.767L252.681,364.749L252.626,364.579L252.62,364.561L252.566,364.391L252.561,364.372L252.507,364.202L252.502,364.184L252.449,364.013L252.444,363.995L252.392,363.824L252.386,363.806L252.335,363.634L252.33,363.616L252.279,363.445L252.274,363.426L252.224,363.255L252.219,363.237L252.17,363.065L252.165,363.046L252.117,362.874L252.112,362.856L252.064,362.683L252.059,362.665L252.012,362.492L252.007,362.474L251.961,362.301L251.956,362.283L251.911,362.11L251.906,362.091L251.862,361.918L251.857,361.899L251.813,361.726L251.808,361.708L251.765,361.534L251.761,361.515L251.718,361.341L251.714,361.323L251.672,361.149L251.668,361.13L251.627,360.956L251.622,360.937L251.582,360.763L251.578,360.744L251.538,360.569L251.534,360.55L251.495,360.376L251.491,360.357L251.453,360.182L251.449,360.163L251.412,359.988L251.408,359.969L251.372,359.793L251.368,359.775L251.332,359.599L251.328,359.58L251.293,359.404L251.289,359.385L251.255,359.209L251.252,359.19L251.218,359.014L251.214,358.995L251.182,358.819L251.178,358.8L251.146,358.623L251.143,358.604L251.111,358.427L251.108,358.409L251.078,358.232L251.074,358.213L251.045,358.035L251.041,358.016L251.012,357.839L251.009,357.82L250.981,357.643L250.978,357.623L250.95,357.446L250.948,357.427L250.921,357.249L250.918,357.23L250.892,357.052L250.889,357.032L250.864,356.854L250.861,356.835L250.837,356.657L250.834,356.638L250.81,356.459L250.808,356.44L250.785,356.261L250.782,356.242L250.76,356.063L250.758,356.044L250.736,355.865L250.734,355.846L250.714,355.667L250.711,355.647L250.691,355.468L250.689,355.449L250.67,355.269L250.668,355.25L250.65,355.07L250.648,355.051L250.63,354.871L250.628,354.852L250.612,354.672L250.61,354.653L250.594,354.473L250.592,354.453L250.577,354.273L250.575,354.254L250.561,354.073L250.559,354.054L250.545,353.874L250.544,353.854L250.531,353.674L250.53,353.654L250.517,353.474L250.516,353.454L250.505,353.273L250.504,353.254L250.493,353.073L250.492,353.053L250.482,352.872L250.481,352.853L250.472,352.671L250.471,352.652L250.463,352.471L250.462,352.451L250.454,352.27L250.453,352.25L250.447,352.069L250.446,352.049L250.44,351.867L250.44,351.848L250.434,351.666L250.434,351.647L250.43,351.465L250.429,351.445L250.426,351.263L250.425,351.244L250.422,351.061L250.422,351.042L250.42,350.859L250.42,350.84L250.419,350.658L250.419,350.638L250.418,350.46L250.418,350.451L250.418,263.09L250.418,263.081L250.419,262.902L250.419,262.883L250.42,262.7L250.42,262.681L250.422,262.498L250.422,262.479L250.425,262.296L250.425,262.277L250.429,262.094L250.429,262.074L250.434,261.892L250.434,261.873L250.439,261.69L250.44,261.671L250.446,261.488L250.446,261.469L250.453,261.287L250.453,261.268L250.461,261.085L250.462,261.066L250.47,260.884L250.471,260.865L250.48,260.683L250.481,260.664L250.49,260.482L250.491,260.463L250.502,260.281L250.503,260.262L250.514,260.08L250.515,260.061L250.527,259.879L250.529,259.86L250.541,259.679L250.543,259.66L250.556,259.478L250.558,259.46L250.572,259.278L250.573,259.259L250.588,259.078L250.59,259.059L250.606,258.878L250.607,258.859L250.624,258.679L250.626,258.66L250.643,258.479L250.645,258.46L250.663,258.279L250.665,258.261L250.684,258.08L250.686,258.061L250.705,257.881L250.707,257.862L250.728,257.682L250.73,257.663L250.751,257.483L250.753,257.464L250.775,257.284L250.777,257.266L250.8,257.086L250.802,257.067L250.826,256.888L250.828,256.869L250.852,256.69L250.855,256.671L250.879,256.492L250.882,256.473L250.908,256.294L250.91,256.275L250.937,256.096L250.939,256.078L250.966,255.899L250.969,255.88L250.997,255.702L251,255.683L251.029,255.505L251.032,255.486L251.061,255.308L251.064,255.289L251.094,255.111L251.097,255.093L251.128,254.915L251.131,254.896L251.163,254.718L251.166,254.7L251.198,254.522L251.201,254.504L251.234,254.327L251.238,254.308L251.272,254.131L251.275,254.112L251.31,253.935L251.313,253.917L251.348,253.74L251.352,253.722L251.388,253.545L251.392,253.527L251.428,253.35L251.432,253.332L251.469,253.156L251.473,253.137L251.511,252.961L251.515,252.943L251.554,252.767L251.558,252.749L251.598,252.573L251.602,252.555L251.642,252.38L251.646,252.361L251.687,252.186L251.692,252.168L251.733,251.993L251.738,251.974L251.78,251.8L251.785,251.781L251.828,251.607L251.832,251.589L251.876,251.414L251.881,251.396L251.925,251.222L251.93,251.204L251.975,251.03L251.98,251.012L252.026,250.838L252.031,250.82L252.077,250.646L252.082,250.628L252.13,250.455L252.135,250.437L252.183,250.264L252.188,250.246L252.237,250.073L252.242,250.055L252.291,249.882L252.297,249.864L252.347,249.692L252.352,249.674L252.403,249.502L252.408,249.484L252.46,249.312L252.466,249.294L252.518,249.122L252.523,249.104L252.576,248.933L252.582,248.915L252.636,248.744L252.641,248.726L252.696,248.555L252.702,248.537L252.757,248.366L252.763,248.349L252.818,248.178L252.824,248.16L252.881,247.99L252.887,247.972L252.944,247.802L252.95,247.784L253.008,247.615L253.014,247.597L253.073,247.428L253.079,247.41L253.138,247.241L253.144,247.223L253.204,247.054L253.211,247.036L253.271,246.868L253.278,246.85L253.339,246.682L253.346,246.664L253.408,246.496L253.414,246.478L253.477,246.31L253.484,246.293L253.547,246.125L253.554,246.107L253.618,245.94L253.625,245.923L253.69,245.756L253.696,245.738L253.762,245.571L253.769,245.554L253.835,245.387L253.842,245.37L253.909,245.203L253.916,245.186L253.983,245.02L253.99,245.003L254.059,244.837L254.066,244.82L254.135,244.654L254.142,244.637L254.212,244.472L254.219,244.454L254.289,244.289L254.297,244.272L254.368,244.108L254.375,244.09L254.447,243.926L254.454,243.909L254.526,243.745L254.534,243.728L254.607,243.564L254.615,243.547L254.688,243.383L254.696,243.366L254.77,243.203L254.778,243.186L254.853,243.023L254.861,243.006L254.936,242.843L254.944,242.827L255.021,242.664L255.029,242.647L255.106,242.485L255.114,242.468L255.191,242.307L255.2,242.29L255.278,242.128L255.286,242.112L255.365,241.95L255.373,241.934L255.453,241.773L255.461,241.756L255.541,241.596L255.55,241.579L255.631,241.419L255.639,241.402L255.721,241.242L255.729,241.225L255.812,241.066L255.82,241.049L255.903,240.89L255.912,240.873L255.995,240.714L256.004,240.698L256.088,240.539L256.097,240.523L256.182,240.364L256.191,240.348L256.277,240.19L256.285,240.174L256.372,240.016L256.381,239.999L256.468,239.842L256.477,239.826L256.564,239.669L256.573,239.652L256.661,239.496L256.671,239.479L256.759,239.323L256.769,239.307L256.858,239.151L256.867,239.135L256.957,238.979L256.967,238.963L257.057,238.807L257.067,238.791L257.158,238.636L257.168,238.62L257.26,238.466L257.27,238.449L257.362,238.295L257.372,238.279L257.465,238.125L257.475,238.109L257.569,237.956L257.578,237.94L257.673,237.786L257.683,237.77L257.778,237.617L257.788,237.601L257.884,237.449L257.894,237.433L257.99,237.281L258,237.265L258.097,237.113L258.108,237.097L258.205,236.946L258.215,236.93L258.314,236.779L258.324,236.763L258.423,236.613L258.433,236.597L258.533,236.447L258.543,236.431L258.643,236.281L258.654,236.265L258.755,236.116L258.765,236.1L258.867,235.951L258.877,235.935L258.979,235.786L258.99,235.771L259.093,235.622L259.104,235.607L259.207,235.459L259.218,235.443L259.322,235.295L259.332,235.28L259.437,235.133L259.448,235.117L259.553,234.97L259.564,234.955L259.67,234.808L259.681,234.793L259.787,234.647L259.798,234.632L259.905,234.486L259.917,234.471L260.024,234.325L260.036,234.31L260.144,234.165L260.155,234.15L260.264,234.005L260.275,233.99L260.385,233.846L260.396,233.831L260.506,233.687L260.518,233.672L260.629,233.528L260.64,233.513L260.751,233.37L260.763,233.355L260.875,233.213L260.887,233.198L260.999,233.055L261.011,233.041L261.124,232.899L261.136,232.884L261.249,232.742L261.261,232.728L261.376,232.587L261.388,232.572L261.503,232.431L261.515,232.417L261.63,232.276L261.642,232.262L261.758,232.122L261.77,232.107L261.887,231.968L261.899,231.953L262.017,231.814L262.029,231.8L262.147,231.661L262.159,231.647L262.278,231.509L262.29,231.494L262.409,231.357L262.421,231.342L262.541,231.205L262.554,231.191L262.674,231.054L262.687,231.039L262.807,230.903L262.82,230.889L262.941,230.753L262.954,230.739L263.076,230.603L263.089,230.589L263.212,230.454L263.224,230.44L263.348,230.305L263.36,230.291L263.484,230.157L263.497,230.142L263.622,230.009L263.635,229.995L263.76,229.861L263.773,229.847L263.898,229.715L263.911,229.701L264.037,229.568L264.051,229.554L264.177,229.422L264.191,229.408L264.318,229.277L264.331,229.263L264.459,229.132L264.472,229.118L264.601,228.988L264.614,228.974L264.743,228.844L264.757,228.83L264.886,228.7L264.9,228.687L265.03,228.557L265.043,228.544L265.174,228.415L265.188,228.402L265.319,228.273L265.333,228.26L265.465,228.132L265.479,228.119L265.611,227.991L265.625,227.978L265.758,227.851L265.772,227.838L265.905,227.711L265.919,227.698L266.053,227.572L266.067,227.559L266.202,227.433L266.216,227.42L266.351,227.295L266.365,227.282L266.501,227.157L266.515,227.144L266.652,227.02L266.666,227.007L266.803,226.883L266.817,226.87L266.955,226.747L266.969,226.734L267.107,226.612L267.122,226.599L267.26,226.477L267.275,226.464L267.414,226.342L267.428,226.329L267.568,226.208L267.583,226.196L267.723,226.075L267.738,226.062L267.878,225.942L267.893,225.929L268.034,225.81L268.049,225.797L268.191,225.678L268.206,225.665L268.348,225.547L268.363,225.534L268.506,225.416L268.521,225.404L268.665,225.286L268.68,225.274L268.824,225.157L268.839,225.144L268.983,225.028L268.999,225.015L269.144,224.899L269.159,224.887L269.305,224.771L269.32,224.759L269.466,224.644L269.481,224.632L269.628,224.517L269.644,224.505L269.791,224.391L269.806,224.379L269.954,224.266L269.97,224.254L270.118,224.141L270.133,224.129L270.282,224.016L270.298,224.005L270.448,223.893L270.463,223.881L270.613,223.77L270.629,223.758L270.779,223.647L270.795,223.635L270.946,223.525L270.962,223.513L271.113,223.403L271.129,223.392L271.281,223.283L271.297,223.271L271.45,223.162L271.466,223.151L271.619,223.043L271.635,223.031L271.788,222.923L271.805,222.912L271.959,222.805L271.975,222.794L272.129,222.687L272.146,222.676L272.301,222.57L272.317,222.559L272.473,222.453L272.489,222.442L272.645,222.337L272.662,222.326L272.818,222.222L272.835,222.211L272.992,222.107L273.009,222.096L273.166,221.993L273.183,221.982L273.341,221.879L273.358,221.868L273.516,221.766L273.533,221.756L273.692,221.654L273.709,221.643L273.869,221.542L273.885,221.532L274.046,221.431L274.062,221.421L274.223,221.321L274.24,221.31L274.401,221.211L274.418,221.2L274.58,221.101L274.597,221.091L274.759,220.993L274.776,220.983L274.939,220.885L274.956,220.875L275.119,220.778L275.136,220.768L275.296,220.674L275.304,220.669L349.011,177.421L349.02,177.416L349.177,177.324L349.195,177.314L349.356,177.221L349.374,177.21L349.536,177.118L349.554,177.107L349.716,177.015L349.735,177.005L349.897,176.914L349.915,176.903L350.078,176.813L350.096,176.803L350.259,176.713L350.277,176.703L350.441,176.614L350.459,176.604L350.623,176.516L350.641,176.506L350.805,176.418L350.824,176.409L350.988,176.322L351.007,176.312L351.171,176.226L351.19,176.216L351.354,176.131L351.373,176.121L351.538,176.036L351.557,176.027L351.722,175.943L351.741,175.934L351.906,175.85L351.925,175.841L352.091,175.758L352.11,175.749L352.276,175.667L352.295,175.658L352.462,175.577L352.481,175.568L352.647,175.487L352.666,175.478L352.833,175.399L352.852,175.39L353.019,175.311L353.039,175.302L353.206,175.224L353.225,175.215L353.393,175.138L353.412,175.129L353.58,175.052L353.599,175.043L353.768,174.967L353.787,174.959L353.956,174.884L353.975,174.875L354.144,174.801L354.163,174.792L354.332,174.718L354.351,174.71L354.521,174.637L354.54,174.628L354.71,174.556L354.729,174.548L354.899,174.476L354.918,174.468L355.089,174.397L355.108,174.389L355.278,174.319L355.298,174.311L355.468,174.242L355.488,174.234L355.659,174.165L355.678,174.157L355.849,174.089L355.869,174.081L356.04,174.014L356.06,174.006L356.231,173.94L356.251,173.932L356.423,173.866L356.442,173.859L356.614,173.794L356.634,173.786L356.806,173.722L356.826,173.714L356.998,173.651L357.018,173.644L357.191,173.581L357.21,173.573L357.383,173.511L357.403,173.504L357.576,173.443L357.596,173.436L357.769,173.375L357.789,173.368L357.962,173.308L357.982,173.301L358.156,173.242L358.176,173.235L358.35,173.176L358.37,173.17L358.544,173.112L358.564,173.105L358.738,173.048L358.758,173.041L358.933,172.985L358.952,172.978L359.127,172.923L359.147,172.916L359.322,172.861L359.342,172.855L359.517,172.801L359.537,172.795L359.712,172.741L359.732,172.735L359.908,172.682L359.928,172.676L360.104,172.624L360.124,172.618L360.299,172.567L360.319,172.561L360.495,172.51L360.516,172.504L360.692,172.454L360.712,172.449L360.888,172.399L360.908,172.394L361.085,172.345L361.105,172.34L361.282,172.292L361.302,172.287L361.479,172.24L361.499,172.234L361.676,172.188L361.696,172.183L361.873,172.137L361.893,172.132L362.071,172.087L362.091,172.082L362.269,172.038L362.289,172.033L362.466,171.989L362.487,171.984L362.665,171.941L362.685,171.937L362.863,171.895L362.883,171.89L363.061,171.849L363.081,171.844L363.26,171.803L363.28,171.799L363.458,171.759L363.479,171.754L363.657,171.715L363.677,171.711L363.856,171.672L363.876,171.668L364.055,171.63L364.076,171.626L364.254,171.589L364.275,171.585L364.454,171.549L364.474,171.545L364.653,171.509L364.674,171.505L364.853,171.47L364.873,171.467L365.053,171.432L365.073,171.429L365.253,171.395L365.273,171.392L365.453,171.359L365.473,171.355L365.653,171.323L365.674,171.32L365.853,171.289L365.874,171.285L366.054,171.255L366.074,171.251L366.254,171.221L366.275,171.218L366.455,171.189L366.475,171.186L366.656,171.158L366.676,171.154L366.857,171.127L366.877,171.124L367.058,171.097L367.078,171.094L367.259,171.068L367.279,171.065L367.46,171.039L367.48,171.037L367.661,171.012L367.682,171.009L367.862,170.985L367.883,170.983L368.064,170.959L368.084,170.957L368.265,170.934L368.286,170.932L368.467,170.91L368.487,170.908L368.669,170.887L368.689,170.884L368.87,170.864L368.891,170.862L369.072,170.842L369.093,170.84L369.274,170.821L369.295,170.819L369.476,170.801L369.497,170.799L369.678,170.781L369.699,170.779L369.88,170.763L369.901,170.761L370.082,170.745L370.103,170.743L370.285,170.728L370.305,170.726L370.487,170.712L370.508,170.71L370.689,170.696L370.71,170.695L370.892,170.682L370.912,170.68L371.094,170.668L371.115,170.666L371.297,170.655L371.317,170.653L371.499,170.643L371.52,170.641L371.702,170.631L371.723,170.63L371.904,170.621L371.925,170.62L372.107,170.611L372.128,170.61L372.31,170.602L372.331,170.601L372.513,170.594L372.533,170.593L372.715,170.586L372.736,170.586L372.918,170.58L372.939,170.579L373.121,170.574L373.142,170.574L373.324,170.569L373.344,170.569L373.527,170.565L373.547,170.565L373.729,170.562L373.75,170.561L373.932,170.559L373.953,170.559L374.135,170.558L374.156,170.557L374.338,170.557L374.359,170.557L374.541,170.557L374.562,170.557ZM374.394,189.398L374.274,189.399L374.154,189.4L374.034,189.401L373.914,189.403L373.794,189.406L373.674,189.409L373.554,189.412L373.434,189.416L373.313,189.42L373.193,189.425L373.073,189.43L372.953,189.436L372.833,189.442L372.713,189.449L372.594,189.456L372.474,189.464L372.354,189.472L372.234,189.481L372.114,189.49L371.994,189.499L371.875,189.509L371.755,189.52L371.635,189.531L371.516,189.542L371.396,189.554L371.277,189.567L371.157,189.58L371.038,189.593L370.918,189.607L370.799,189.621L370.68,189.636L370.56,189.651L370.441,189.667L370.322,189.683L370.203,189.7L370.084,189.717L369.965,189.735L369.846,189.753L369.727,189.772L369.609,189.791L369.49,189.811L369.372,189.831L369.253,189.851L369.135,189.872L369.016,189.894L368.898,189.916L368.78,189.938L368.662,189.961L368.544,189.984L368.426,190.008L368.308,190.033L368.19,190.057L368.072,190.083L367.955,190.109L367.837,190.135L367.72,190.162L367.602,190.189L367.485,190.216L367.368,190.245L367.251,190.273L367.134,190.302L367.017,190.332L366.901,190.362L366.784,190.393L366.668,190.424L366.551,190.455L366.435,190.487L366.319,190.519L366.203,190.552L366.087,190.586L365.971,190.62L365.855,190.654L365.74,190.689L365.624,190.724L365.509,190.76L365.394,190.796L365.279,190.833L365.164,190.87L365.049,190.908L364.934,190.946L364.82,190.984L364.705,191.024L364.591,191.063L364.477,191.103L364.363,191.144L364.249,191.185L364.135,191.226L364.022,191.268L363.908,191.311L363.795,191.353L363.682,191.397L363.569,191.441L363.456,191.485L363.343,191.53L363.231,191.575L363.119,191.621L363.006,191.667L362.894,191.714L362.782,191.761L362.671,191.809L362.559,191.857L362.448,191.906L362.336,191.955L362.225,192.004L362.114,192.054L362.004,192.105L361.893,192.156L361.783,192.207L361.673,192.259L361.562,192.312L361.452,192.365L361.343,192.418L361.233,192.472L361.124,192.526L361.015,192.581L360.906,192.637L360.797,192.692L360.688,192.749L360.58,192.805L360.472,192.863L360.364,192.92L360.256,192.979L360.148,193.037L360.04,193.097L359.933,193.156L359.826,193.216L359.719,193.277L359.613,193.338L359.506,193.399L359.391,193.467L285.711,236.699L285.589,236.77L285.477,236.837L285.365,236.904L285.253,236.972L285.142,237.04L285.031,237.108L284.92,237.177L284.81,237.246L284.7,237.316L284.591,237.386L284.482,237.456L284.373,237.527L284.264,237.598L284.156,237.669L284.049,237.741L283.941,237.813L283.834,237.886L283.728,237.959L283.621,238.032L283.515,238.106L283.41,238.18L283.305,238.254L283.2,238.329L283.095,238.404L282.991,238.48L282.888,238.556L282.784,238.632L282.681,238.708L282.579,238.785L282.476,238.863L282.375,238.94L282.273,239.018L282.172,239.097L282.071,239.175L281.971,239.255L281.871,239.334L281.771,239.414L281.672,239.494L281.573,239.574L281.474,239.655L281.376,239.737L281.278,239.818L281.181,239.9L281.084,239.982L280.987,240.065L280.891,240.148L280.795,240.231L280.7,240.314L280.605,240.398L280.51,240.483L280.415,240.567L280.321,240.652L280.228,240.737L280.135,240.823L280.042,240.909L279.949,240.995L279.857,241.081L279.766,241.168L279.674,241.255L279.583,241.343L279.493,241.431L279.403,241.519L279.313,241.608L279.224,241.696L279.135,241.785L279.046,241.875L278.958,241.965L278.87,242.055L278.783,242.145L278.696,242.236L278.609,242.327L278.523,242.418L278.437,242.51L278.352,242.602L278.267,242.694L278.182,242.786L278.098,242.879L278.014,242.972L277.931,243.066L277.848,243.159L277.765,243.253L277.683,243.348L277.601,243.442L277.52,243.537L277.439,243.632L277.358,243.728L277.278,243.824L277.198,243.92L277.119,244.016L277.04,244.113L276.962,244.21L276.884,244.307L276.806,244.404L276.729,244.502L276.652,244.6L276.575,244.698L276.499,244.797L276.424,244.896L276.348,244.995L276.274,245.094L276.199,245.194L276.125,245.294L276.052,245.394L275.979,245.495L275.906,245.595L275.834,245.696L275.762,245.798L275.691,245.899L275.62,246.001L275.549,246.103L275.479,246.205L275.409,246.308L275.34,246.411L275.271,246.514L275.203,246.617L275.135,246.721L275.067,246.825L275,246.929L274.933,247.033L274.867,247.138L274.801,247.243L274.736,247.348L274.671,247.453L274.606,247.558L274.542,247.664L274.478,247.77L274.415,247.876L274.353,247.983L274.29,248.09L274.228,248.197L274.167,248.304L274.106,248.411L274.045,248.519L273.985,248.627L273.926,248.735L273.866,248.843L273.808,248.952L273.749,249.061L273.691,249.17L273.634,249.279L273.577,249.388L273.52,249.498L273.464,249.608L273.409,249.718L273.354,249.828L273.299,249.939L273.245,250.049L273.191,250.16L273.137,250.271L273.085,250.383L273.032,250.494L272.98,250.606L272.929,250.718L272.878,250.83L272.827,250.943L272.777,251.055L272.727,251.168L272.678,251.281L272.629,251.394L272.581,251.507L272.533,251.621L272.486,251.734L272.439,251.848L272.392,251.963L272.347,252.077L272.301,252.191L272.256,252.306L272.212,252.421L272.167,252.536L272.124,252.651L272.081,252.766L272.038,252.882L271.996,252.997L271.954,253.113L271.913,253.23L271.872,253.346L271.832,253.462L271.792,253.579L271.753,253.695L271.714,253.812L271.676,253.929L271.638,254.047L271.6,254.164L271.563,254.282L271.527,254.399L271.491,254.517L271.456,254.635L271.421,254.754L271.386,254.872L271.352,254.99L271.319,255.109L271.286,255.228L271.253,255.347L271.221,255.466L271.189,255.585L271.158,255.705L271.128,255.824L271.098,255.944L271.068,256.064L271.039,256.184L271.01,256.304L270.982,256.424L270.955,256.545L270.928,256.665L270.901,256.786L270.875,256.907L270.849,257.028L270.824,257.149L270.799,257.27L270.775,257.391L270.752,257.513L270.729,257.634L270.706,257.756L270.684,257.878L270.662,258L270.641,258.122L270.621,258.244L270.6,258.367L270.581,258.489L270.562,258.612L270.543,258.734L270.525,258.857L270.508,258.98L270.491,259.103L270.474,259.226L270.458,259.35L270.443,259.473L270.428,259.597L270.413,259.72L270.399,259.844L270.386,259.968L270.373,260.092L270.36,260.216L270.349,260.34L270.337,260.464L270.326,260.588L270.316,260.713L270.306,260.837L270.297,260.962L270.288,261.087L270.28,261.212L270.272,261.337L270.265,261.462L270.258,261.587L270.252,261.712L270.247,261.837L270.242,261.963L270.237,262.088L270.233,262.214L270.23,262.34L270.227,262.465L270.224,262.591L270.222,262.717L270.221,262.843L270.22,262.969L270.22,263.105L270.22,350.436L270.22,350.57L270.221,350.694L270.222,350.817L270.224,350.941L270.227,351.065L270.23,351.188L270.233,351.312L270.237,351.435L270.242,351.558L270.247,351.681L270.252,351.804L270.259,351.927L270.265,352.05L270.273,352.173L270.28,352.295L270.289,352.418L270.297,352.54L270.307,352.663L270.317,352.785L270.327,352.907L270.338,353.029L270.349,353.151L270.361,353.273L270.374,353.395L270.387,353.516L270.4,353.638L270.414,353.759L270.429,353.881L270.444,354.002L270.459,354.123L270.475,354.244L270.492,354.365L270.509,354.485L270.527,354.606L270.545,354.726L270.563,354.847L270.583,354.967L270.602,355.087L270.622,355.207L270.643,355.327L270.664,355.447L270.686,355.566L270.708,355.686L270.731,355.805L270.754,355.924L270.778,356.043L270.802,356.162L270.827,356.281L270.852,356.4L270.878,356.518L270.904,356.637L270.931,356.755L270.958,356.873L270.986,356.991L271.014,357.109L271.043,357.227L271.072,357.344L271.102,357.462L271.132,357.579L271.162,357.696L271.194,357.813L271.225,357.93L271.257,358.047L271.29,358.163L271.323,358.28L271.357,358.396L271.391,358.512L271.426,358.628L271.461,358.743L271.496,358.859L271.532,358.975L271.569,359.09L271.606,359.205L271.643,359.32L271.681,359.435L271.72,359.549L271.759,359.664L271.798,359.778L271.838,359.892L271.879,360.006L271.92,360.12L271.961,360.233L272.003,360.346L272.045,360.46L272.088,360.573L272.131,360.685L272.175,360.798L272.219,360.911L272.264,361.023L272.309,361.135L272.354,361.247L272.4,361.359L272.447,361.47L272.494,361.581L272.541,361.692L272.589,361.803L272.638,361.914L272.687,362.025L272.736,362.135L272.786,362.245L272.836,362.355L272.887,362.465L272.938,362.575L272.99,362.684L273.042,362.793L273.094,362.902L273.147,363.01L273.201,363.119L273.255,363.227L273.309,363.335L273.364,363.443L273.419,363.551L273.475,363.658L273.531,363.766L273.588,363.872L273.645,363.979L273.702,364.086L273.76,364.192L273.819,364.298L273.877,364.404L273.937,364.51L273.997,364.615L274.057,364.72L274.117,364.825L274.179,364.93L274.24,365.034L274.302,365.138L274.364,365.242L274.427,365.346L274.491,365.45L274.554,365.553L274.618,365.656L274.683,365.759L274.748,365.861L274.813,365.963L274.879,366.066L274.946,366.168L275.013,366.269L275.08,366.37L275.147,366.471L275.215,366.572L275.284,366.672L275.353,366.773L275.422,366.873L275.492,366.972L275.562,367.072L275.633,367.171L275.704,367.27L275.775,367.368L275.847,367.467L275.919,367.565L275.992,367.663L276.065,367.761L276.139,367.858L276.213,367.955L276.287,368.052L276.362,368.148L276.437,368.244L276.513,368.34L276.589,368.436L276.665,368.531L276.742,368.627L276.819,368.721L276.897,368.816L276.975,368.91L277.054,369.004L277.133,369.097L277.212,369.191L277.292,369.284L277.372,369.377L277.452,369.469L277.533,369.561L277.615,369.653L277.697,369.745L277.778,369.836L277.861,369.927L277.944,370.018L278.027,370.108L278.111,370.198L278.196,370.288L278.28,370.377L278.365,370.466L278.45,370.555L278.536,370.644L278.622,370.732L278.709,370.82L278.796,370.907L278.883,370.994L278.97,371.081L279.059,371.168L279.147,371.254L279.236,371.34L279.325,371.426L279.415,371.511L279.505,371.596L279.595,371.681L279.686,371.765L279.777,371.849L279.869,371.933L279.961,372.016L280.053,372.099L280.146,372.182L280.238,372.264L280.332,372.346L280.426,372.428L280.52,372.509L280.615,372.59L280.71,372.671L280.805,372.751L280.901,372.831L280.997,372.91L281.094,372.99L281.19,373.068L281.287,373.147L281.385,373.225L281.483,373.303L281.581,373.38L281.68,373.458L281.779,373.535L281.878,373.611L281.978,373.687L282.078,373.762L282.179,373.838L282.28,373.913L282.381,373.987L282.483,374.062L282.585,374.136L282.687,374.209L282.79,374.282L282.893,374.355L282.996,374.427L283.1,374.5L283.205,374.571L283.309,374.643L283.414,374.713L283.519,374.784L283.624,374.854L283.73,374.924L283.837,374.993L283.944,375.062L284.051,375.131L284.157,375.199L284.265,375.267L284.374,375.335L284.482,375.402L284.591,375.468L284.7,375.535L284.81,375.601L284.919,375.666L285.029,375.731L285.14,375.796L285.251,375.86L285.362,375.924L285.474,375.988L285.586,376.051L285.707,376.119L362.489,418.824L362.583,418.876L362.668,418.922L362.752,418.968L362.837,419.014L362.922,419.059L363.007,419.104L363.092,419.149L363.178,419.193L363.264,419.237L363.35,419.281L363.436,419.324L363.521,419.366L363.607,419.409L363.694,419.451L363.78,419.493L363.867,419.534L363.954,419.575L364.04,419.615L364.127,419.656L364.215,419.696L364.301,419.735L364.388,419.774L364.476,419.813L364.563,419.851L364.652,419.89L364.739,419.927L364.826,419.964L364.915,420.002L365.003,420.038L365.091,420.074L365.18,420.111L365.268,420.146L365.356,420.181L365.445,420.216L365.535,420.251L365.623,420.285L365.712,420.318L365.802,420.352L365.891,420.385L365.98,420.417L366.069,420.45L366.159,420.482L366.249,420.514L366.339,420.545L366.428,420.576L366.518,420.606L366.608,420.636L366.698,420.666L366.789,420.696L366.88,420.725L366.97,420.753L367.051,420.779L367.242,420.837L367.423,420.892L367.606,420.945L367.788,420.996L367.971,421.046L368.154,421.094L368.338,421.141L368.521,421.187L368.706,421.231L368.89,421.274L369.075,421.316L369.26,421.356L369.445,421.394L369.631,421.431L369.816,421.467L370.002,421.501L370.188,421.534L370.375,421.565L370.562,421.595L370.749,421.623L370.936,421.65L371.123,421.676L371.31,421.7L371.497,421.723L371.685,421.744L371.873,421.764L372.061,421.782L372.249,421.799L372.437,421.815L372.626,421.829L372.814,421.842L373.003,421.853L373.191,421.863L373.38,421.871L373.569,421.878L373.758,421.883L373.946,421.887L374.135,421.89L374.324,421.891L374.513,421.891L374.701,421.889L374.891,421.886L375.079,421.881L375.268,421.875L375.457,421.868L375.645,421.859L375.834,421.848L376.022,421.837L376.211,421.823L376.4,421.809L376.588,421.793L376.776,421.775L376.964,421.756L377.152,421.736L377.339,421.714L377.527,421.69L377.714,421.666L377.902,421.639L378.089,421.612L378.276,421.583L378.462,421.552L378.649,421.52L378.835,421.487L379.021,421.452L379.207,421.416L379.393,421.378L379.578,421.339L379.763,421.298L379.947,421.256L380.132,421.213L380.316,421.168L380.5,421.122L380.684,421.074L380.867,421.025L381.05,420.974L381.242,420.919L381.324,420.895L381.415,420.869L381.506,420.841L381.597,420.814L381.688,420.785L381.778,420.757L381.868,420.729L381.959,420.699L382.05,420.67L382.141,420.64L382.23,420.61L382.321,420.579L382.411,420.548L382.501,420.517L382.591,420.485L382.68,420.453L382.77,420.421L382.859,420.388L382.95,420.355L383.038,420.322L383.127,420.288L383.217,420.254L383.306,420.219L383.394,420.185L383.484,420.149L383.572,420.114L383.66,420.078L383.749,420.041L383.838,420.004L383.926,419.967L384.014,419.93L384.101,419.893L384.189,419.855L384.278,419.816L384.366,419.777L384.453,419.737L384.54,419.698L384.627,419.658L384.715,419.618L384.801,419.577L384.889,419.536L384.976,419.495L385.062,419.453L385.148,419.411L385.235,419.368L385.321,419.325L385.408,419.282L385.494,419.238L385.58,419.194L385.665,419.15L385.75,419.105L385.845,419.055L470.861,374.002L470.96,373.949L471.05,373.901L471.14,373.852L471.23,373.802L471.319,373.753L471.408,373.703L471.498,373.653L471.585,373.603L471.674,373.552L471.762,373.5L471.849,373.45L471.937,373.398L472.024,373.346L472.111,373.293L472.197,373.241L472.283,373.188L472.369,373.134L472.455,373.081L472.54,373.027L472.625,372.973L472.71,372.918L472.794,372.863L472.879,372.808L472.963,372.752L473.046,372.697L473.129,372.641L473.212,372.584L473.295,372.527L473.378,372.47L473.459,372.414L473.541,372.356L473.624,372.297L473.705,372.239L473.786,372.181L473.866,372.122L473.946,372.063L474.026,372.004L474.107,371.944L474.186,371.884L474.265,371.824L474.345,371.763L474.423,371.703L474.501,371.642L474.579,371.58L474.657,371.518L474.735,371.456L474.812,371.394L474.889,371.331L474.965,371.269L475.041,371.206L475.117,371.142L475.193,371.078L475.269,371.014L475.344,370.95L475.418,370.886L475.493,370.821L475.567,370.756L475.641,370.691L475.714,370.625L475.787,370.559L475.86,370.493L475.933,370.426L476.005,370.36L476.077,370.293L476.149,370.225L476.22,370.158L476.292,370.09L476.362,370.022L476.432,369.954L476.502,369.886L476.573,369.816L476.642,369.747L476.711,369.678L476.78,369.608L476.849,369.539L476.917,369.469L476.984,369.399L477.052,369.328L477.12,369.257L477.187,369.186L477.253,369.114L477.319,369.043L477.386,368.971L477.451,368.899L477.517,368.826L477.582,368.754L477.646,368.681L477.711,368.608L477.775,368.535L477.839,368.461L477.902,368.387L477.965,368.313L478.028,368.239L478.09,368.164L478.153,368.089L478.214,368.015L478.275,367.939L478.337,367.863L478.397,367.788L478.458,367.713L478.518,367.636L478.578,367.559L478.637,367.483L478.696,367.407L478.755,367.329L478.814,367.251L478.871,367.175L478.929,367.097L478.987,367.018L479.044,366.941L479.1,366.862L479.157,366.783L479.212,366.705L479.268,366.626L479.324,366.547L479.379,366.467L479.434,366.387L479.488,366.307L479.542,366.227L479.595,366.148L479.649,366.067L479.702,365.986L479.754,365.905L479.807,365.824L479.858,365.743L479.91,365.661L479.961,365.579L480.012,365.497L480.063,365.415L480.112,365.333L480.162,365.251L480.212,365.168L480.261,365.085L480.309,365.002L480.358,364.919L480.406,364.835L480.454,364.751L480.501,364.668L480.547,364.584L480.594,364.499L480.64,364.415L480.686,364.331L480.732,364.246L480.777,364.161L480.821,364.076L480.866,363.99L480.91,363.905L480.953,363.819L480.996,363.734L481.039,363.648L481.082,363.561L481.124,363.475L481.166,363.388L481.207,363.302L481.248,363.215L481.289,363.128L481.33,363.04L481.369,362.953L481.409,362.866L481.448,362.778L481.487,362.69L481.525,362.603L481.563,362.514L481.601,362.426L481.638,362.338L481.675,362.249L481.712,362.16L481.748,362.071L481.784,361.982L481.819,361.893L481.854,361.803L481.889,361.714L481.923,361.624L481.957,361.534L481.991,361.444L482.023,361.354L482.056,361.265L482.088,361.174L482.121,361.083L482.152,360.992L482.183,360.902L482.214,360.811L482.244,360.719L482.274,360.628L482.304,360.537L482.333,360.445L482.362,360.354L482.39,360.262L482.418,360.17L482.446,360.077L482.474,359.985L482.5,359.894L482.527,359.801L482.553,359.708L482.578,359.616L482.604,359.523L482.629,359.43L482.653,359.337L482.677,359.244L482.701,359.15L482.724,359.057L482.747,358.964L482.769,358.87L482.791,358.776L482.813,358.682L482.834,358.588L482.855,358.494L482.876,358.4L482.896,358.305L482.915,358.211L482.934,358.117L482.953,358.022L482.972,357.927L482.99,357.832L483.007,357.737L483.024,357.642L483.041,357.547L483.058,357.452L483.073,357.357L483.089,357.261L483.104,357.165L483.119,357.07L483.133,356.974L483.147,356.878L483.161,356.782L483.174,356.686L483.186,356.59L483.198,356.493L483.21,356.397L483.222,356.3L483.233,356.204L483.243,356.107L483.253,356.01L483.263,355.914L483.272,355.816L483.281,355.719L483.289,355.623L483.297,355.526L483.305,355.429L483.312,355.331L483.319,355.233L483.325,355.136L483.331,355.039L483.336,354.94L483.341,354.842L483.346,354.745L483.35,354.647L483.354,354.549L483.357,354.451L483.36,354.353L483.362,354.255L483.364,354.157L483.366,354.058L483.367,353.959L483.367,353.861L483.368,353.752L483.368,258.446L483.367,258.345L483.367,258.254L483.366,258.163L483.365,258.072L483.363,257.981L483.361,257.891L483.358,257.801L483.355,257.709L483.352,257.62L483.348,257.529L483.344,257.439L483.339,257.349L483.334,257.258L483.329,257.167L483.324,257.078L483.317,256.988L483.311,256.898L483.304,256.808L483.297,256.719L483.289,256.63L483.281,256.539L483.273,256.45L483.264,256.36L483.255,256.271L483.246,256.182L483.236,256.093L483.226,256.004L483.215,255.915L483.204,255.826L483.192,255.737L483.181,255.648L483.169,255.56L483.156,255.471L483.144,255.392L483.116,255.206L483.088,255.029L483.058,254.853L483.026,254.678L482.994,254.503L482.959,254.327L482.923,254.153L482.886,253.979L482.847,253.805L482.807,253.632L482.765,253.459L482.722,253.286L482.677,253.114L482.632,252.943L482.584,252.772L482.535,252.601L482.485,252.43L482.433,252.261L482.38,252.092L482.325,251.923L482.269,251.754L482.212,251.587L482.153,251.419L482.093,251.252L482.031,251.086L481.968,250.92L481.904,250.755L481.838,250.59L481.771,250.426L481.702,250.262L481.632,250.099L481.561,249.937L481.489,249.775L481.415,249.614L481.339,249.453L481.263,249.293L481.185,249.133L481.105,248.974L481.025,248.816L480.943,248.659L480.86,248.502L480.775,248.345L480.689,248.19L480.602,248.035L480.513,247.88L480.423,247.727L480.332,247.574L480.24,247.421L480.146,247.27L480.051,247.119L479.955,246.969L479.857,246.82L479.758,246.671L479.658,246.523L479.557,246.376L479.455,246.23L479.351,246.084L479.246,245.939L479.14,245.795L479.032,245.652L478.923,245.51L478.814,245.368L478.702,245.228L478.59,245.088L478.476,244.948L478.362,244.81L478.246,244.673L478.129,244.536L478.01,244.401L477.891,244.266L477.77,244.132L477.648,243.999L477.525,243.867L477.401,243.736L477.276,243.605L477.149,243.476L477.022,243.347L476.893,243.22L476.763,243.093L476.632,242.967L476.5,242.843L476.366,242.719L476.232,242.596L476.097,242.475L475.96,242.354L475.822,242.234L475.683,242.115L475.543,241.997L475.402,241.881L475.26,241.765L475.117,241.65L474.973,241.536L474.827,241.424L474.673,241.306L474.607,241.256L474.533,241.201L474.459,241.146L474.385,241.092L474.31,241.038L474.234,240.983L474.159,240.93L474.084,240.876L474.008,240.823L473.932,240.77L473.856,240.717L473.779,240.665L473.702,240.612L473.625,240.56L473.548,240.509L473.47,240.457L473.392,240.406L473.314,240.356L473.235,240.305L473.157,240.255L473.078,240.205L472.998,240.155L472.919,240.106L472.839,240.056L472.759,240.008L472.679,239.959L472.598,239.911L472.518,239.863L472.437,239.815L472.355,239.768L472.274,239.72L472.192,239.673L472.11,239.627L472.019,239.576L389.005,193.166L388.888,193.101L388.781,193.042L388.673,192.983L388.564,192.924L388.456,192.866L388.347,192.809L388.239,192.752L388.129,192.695L388.02,192.639L387.911,192.584L387.802,192.529L387.692,192.474L387.582,192.42L387.472,192.367L387.362,192.314L387.251,192.261L387.141,192.209L387.03,192.157L386.919,192.106L386.808,192.055L386.697,192.005L386.586,191.955L386.474,191.906L386.363,191.857L386.251,191.809L386.139,191.761L386.026,191.714L385.914,191.667L385.802,191.621L385.689,191.575L385.576,191.53L385.463,191.485L385.35,191.44L385.237,191.396L385.124,191.353L385.01,191.31L384.896,191.267L384.783,191.225L384.669,191.184L384.555,191.143L384.44,191.102L384.326,191.062L384.212,191.022L384.097,190.983L383.982,190.944L383.867,190.906L383.752,190.868L383.637,190.831L383.522,190.794L383.407,190.758L383.291,190.722L383.175,190.687L383.06,190.652L382.944,190.618L382.828,190.584L382.712,190.55L382.595,190.518L382.479,190.485L382.363,190.453L382.246,190.422L382.129,190.391L382.013,190.36L381.896,190.33L381.779,190.3L381.662,190.271L381.545,190.243L381.427,190.214L381.31,190.187L381.193,190.16L381.075,190.133L380.957,190.107L380.84,190.081L380.722,190.055L380.604,190.031L380.486,190.006L380.368,189.982L380.25,189.959L380.132,189.936L380.013,189.914L379.895,189.892L379.777,189.87L379.658,189.849L379.539,189.829L379.421,189.809L379.302,189.789L379.183,189.77L379.064,189.751L378.945,189.733L378.826,189.716L378.707,189.699L378.588,189.682L378.469,189.666L378.35,189.65L378.23,189.635L378.111,189.62L377.992,189.606L377.872,189.592L377.753,189.578L377.633,189.565L377.514,189.553L377.394,189.541L377.274,189.53L377.155,189.519L377.035,189.508L376.915,189.498L376.795,189.489L376.675,189.48L376.555,189.471L376.436,189.463L376.316,189.455L376.196,189.448L376.076,189.442L375.956,189.435L375.836,189.43L375.716,189.424L375.596,189.42L375.475,189.415L375.355,189.412L375.235,189.408L375.115,189.405L374.995,189.403L374.875,189.401L374.755,189.4L374.635,189.399L374.515,189.398L374.394,189.398Z" style="fill:rgb(201,23,126);"/>
    </g>
    <g transform="matrix(1.29126,0,0,1.3475,-306.396,-213.151)">
        <path d="M330.703,383.498L330.703,229.716L364.279,229.716L364.279,285.731L419.973,285.731L419.973,229.716L453.645,229.716L453.645,383.498L419.973,383.498L419.973,316.258L364.279,316.258L364.279,383.498L330.703,383.498Z" style="fill:white;fill-rule:nonzero;"/>
    </g>
</svg>
