<svg viewBox="0 0 255 180" fill="none" xmlns="http://www.w3.org/2000/svg">
<rect fill="#AD1E1E"/>
<path d="M29.25 60.5C31.1167 60.0667 32.85 59.85 34.45 59.85C36.05 59.85 37.4 59.9 38.5 60V72.5C39.2 72 40.1333 71.5667 41.3 71.2C42.4667 70.8 43.5833 70.6 44.65 70.6C48.2833 70.6 50.8333 71.5333 52.3 73.4C53.7667 75.2667 54.5 78.45 54.5 82.95C54.5 85.45 54.15 87.6167 53.45 89.45C52.7833 91.25 51.8667 92.6333 50.7 93.6C48.5 95.4667 45.9 96.4 42.9 96.4C40.6333 96.4 38.4 95.8333 36.2 94.7C35.5667 95.5667 34.8333 96 34 96H31.5V66.05C30.3333 65.65 29.4167 65.0833 28.75 64.35L29.25 60.5ZM42.5 91.3C45.7 91.3 47.3 88.6167 47.3 83.25C47.3 80.4167 47.0167 78.5 46.45 77.5C45.9167 76.4667 44.9667 75.95 43.6 75.95C41.5333 75.95 39.8333 76.5 38.5 77.6V90.45C39.9333 91.0167 41.2667 91.3 42.5 91.3ZM69.1555 96.4C65.1555 96.4 62.1388 95.3333 60.1055 93.2C58.1055 91.0667 57.1055 87.9667 57.1055 83.9C57.1055 81.4333 57.4555 79.3167 58.1555 77.55C58.8555 75.75 59.8055 74.3667 61.0055 73.4C63.3388 71.5333 66.0555 70.6 69.1555 70.6C72.2555 70.6 74.6221 71.4 76.2555 73C77.9221 74.5667 78.7555 77.4 78.7555 81.5C78.7555 83.9 77.5721 85.1 75.2055 85.1H64.3555C64.4888 87.2 65.0221 88.6833 65.9555 89.55C66.9221 90.4167 68.4388 90.85 70.5055 90.85C71.6388 90.85 72.7221 90.7167 73.7555 90.45C74.7888 90.1833 75.5388 89.9167 76.0055 89.65L76.7055 89.25L78.2055 93.25C78.0055 93.4833 77.7055 93.7833 77.3055 94.15C76.9388 94.4833 75.9721 94.95 74.4055 95.55C72.8721 96.1167 71.1221 96.4 69.1555 96.4ZM72.3055 80.65C72.3721 80.1833 72.4055 79.6167 72.4055 78.95C72.4055 78.2833 72.1388 77.5833 71.6055 76.85C71.0721 76.0833 70.1388 75.7 68.8055 75.7C67.5055 75.7 66.5055 76.1 65.8055 76.9C65.1055 77.7 64.6388 79.05 64.4055 80.95L72.3055 80.65ZM81.2754 71C83.1087 70.6 84.7587 70.4 86.2254 70.4C87.6921 70.4 88.9087 70.4333 89.8754 70.5V72.95C92.1087 71.3833 94.4921 70.6 97.0254 70.6C100.359 70.6 102.775 71.55 104.275 73.45C105.775 75.35 106.525 78.5167 106.525 82.95C106.525 85.3167 106.175 87.4 105.475 89.2C104.775 91 103.825 92.4 102.625 93.4C100.325 95.4 97.5921 96.4 94.4254 96.4C93.0587 96.4 91.7587 96.2667 90.5254 96V100.3C92.4921 100.833 93.7587 101.45 94.3254 102.15L93.8254 106H81.2754L80.7754 102.15C81.2087 101.55 82.1254 100.983 83.5254 100.45V76.55C82.3587 76.15 81.4421 75.5833 80.7754 74.85L81.2754 71ZM93.9254 91.3C95.5921 91.3 96.9087 90.5667 97.8754 89.1C98.8421 87.6 99.3254 85.55 99.3254 82.95C99.3254 80.3167 99.0587 78.5167 98.5254 77.55C97.9921 76.5833 97.0254 76.1 95.6254 76.1C93.4921 76.1 91.7921 76.6 90.5254 77.6V90.9C91.5587 91.1667 92.6921 91.3 93.9254 91.3ZM110.689 96.24C109.361 96.24 108.697 95.64 108.697 94.44C108.697 93.224 109.361 92.616 110.689 92.616C112.033 92.616 112.705 93.224 112.705 94.44C112.705 95.64 112.033 96.24 110.689 96.24ZM119.838 86.256C118.366 86.256 117.63 87.52 117.63 90.048C117.63 91.328 117.83 92.224 118.23 92.736C118.646 93.232 119.238 93.48 120.006 93.48C121.222 93.48 122.294 93.368 123.222 93.144L123.942 94.992C123.43 95.328 122.742 95.616 121.878 95.856C121.014 96.08 120.174 96.192 119.358 96.192C115.902 96.192 114.174 94.192 114.174 90.192C114.174 87.856 114.774 86.176 115.974 85.152C117.046 84.256 118.35 83.808 119.886 83.808C121.422 83.808 122.702 84.096 123.726 84.672C123.742 84.832 123.75 84.984 123.75 85.128C123.75 86.04 123.542 86.904 123.126 87.72H121.014C120.79 87.32 120.654 86.84 120.606 86.28C120.414 86.264 120.158 86.256 119.838 86.256ZM130.453 96.192C128.565 96.192 127.165 95.688 126.253 94.68C125.341 93.672 124.885 92.152 124.885 90.12C124.885 88.072 125.389 86.512 126.397 85.44C127.421 84.352 128.885 83.808 130.789 83.808C132.693 83.808 134.101 84.288 135.013 85.248C135.941 86.208 136.405 87.712 136.405 89.76C136.405 91.792 135.885 93.376 134.845 94.512C133.821 95.632 132.357 96.192 130.453 96.192ZM128.341 89.904C128.341 92.464 129.109 93.744 130.645 93.744C131.429 93.744 132.005 93.456 132.373 92.88C132.757 92.288 132.949 91.328 132.949 90C132.949 87.504 132.165 86.256 130.597 86.256C129.829 86.256 129.261 86.536 128.893 87.096C128.525 87.64 128.341 88.576 128.341 89.904ZM137.876 84C138.756 83.808 139.548 83.712 140.252 83.712C140.956 83.712 141.54 83.728 142.004 83.76V84.96C142.404 84.624 142.932 84.352 143.588 84.144C144.26 83.92 144.9 83.808 145.508 83.808C147.076 83.808 148.172 84.176 148.796 84.912C149.436 85.648 149.756 86.92 149.756 88.728V93.336C150.38 93.576 150.82 93.848 151.076 94.152L150.836 96H145.316L145.076 94.152C145.3 93.848 145.74 93.576 146.396 93.336V88.584C146.396 87.72 146.252 87.144 145.964 86.856C145.692 86.552 145.196 86.4 144.476 86.4C143.756 86.4 143.036 86.656 142.316 87.168V93.336C142.94 93.576 143.38 93.848 143.636 94.152L143.396 96H137.876L137.636 94.152C137.86 93.848 138.3 93.576 138.956 93.336V86.664C138.396 86.472 137.956 86.2 137.636 85.848L137.876 84ZM156.709 85.968C155.653 85.968 155.125 86.28 155.125 86.904C155.125 87.496 155.677 87.936 156.781 88.224L158.677 88.728C160.629 89.24 161.605 90.368 161.605 92.112C161.605 93.312 161.181 94.296 160.333 95.064C159.501 95.816 158.165 96.192 156.325 96.192C154.501 96.192 153.077 95.936 152.053 95.424C152.037 95.248 152.029 95.072 152.029 94.896C152.029 94.016 152.205 93.224 152.557 92.52H154.549C154.757 92.904 154.893 93.304 154.957 93.72C155.277 93.816 155.733 93.864 156.325 93.864C157.733 93.864 158.437 93.464 158.437 92.664C158.437 92.408 158.341 92.2 158.149 92.04C157.957 91.864 157.581 91.696 157.021 91.536L155.125 90.984C154.149 90.712 153.389 90.312 152.845 89.784C152.301 89.24 152.029 88.448 152.029 87.408C152.029 86.352 152.453 85.488 153.301 84.816C154.149 84.144 155.357 83.808 156.925 83.808C158.509 83.808 159.845 84.04 160.933 84.504C160.949 84.664 160.957 84.824 160.957 84.984C160.957 85.816 160.781 86.584 160.429 87.288H158.461C158.253 86.92 158.117 86.536 158.053 86.136C157.605 86.024 157.157 85.968 156.709 85.968ZM171.593 94.992C170.489 95.792 169.185 96.192 167.681 96.192C166.193 96.192 165.153 95.88 164.561 95.256C163.969 94.632 163.673 93.616 163.673 92.208V86.664C163.113 86.472 162.673 86.2 162.353 85.848L162.593 84C163.489 83.792 164.321 83.688 165.089 83.688C165.857 83.688 166.505 83.712 167.033 83.76V91.416C167.033 92.28 167.161 92.856 167.417 93.144C167.689 93.416 168.217 93.552 169.001 93.552C169.785 93.552 170.513 93.296 171.185 92.784V86.664C170.625 86.472 170.185 86.2 169.865 85.848L170.105 84C171.001 83.792 171.833 83.688 172.601 83.688C173.369 83.688 174.017 83.712 174.545 83.76V93.12C175.105 93.232 175.545 93.368 175.865 93.528V95.424C174.905 95.936 173.697 96.192 172.241 96.192C171.841 95.904 171.625 95.504 171.593 94.992ZM176.799 78.96C177.695 78.752 178.527 78.648 179.295 78.648C180.063 78.648 180.711 78.672 181.239 78.72V93.336C181.863 93.576 182.303 93.848 182.559 94.152L182.319 96H176.799L176.559 94.152C176.783 93.848 177.223 93.576 177.879 93.336V81.624C177.319 81.432 176.879 81.16 176.559 80.808L176.799 78.96ZM187.918 80.976V84H191.35V86.016H187.918V92.088C187.918 92.6 187.99 92.976 188.134 93.216C188.278 93.44 188.622 93.552 189.166 93.552C189.71 93.552 190.294 93.432 190.918 93.192L191.638 95.064C190.406 95.688 189.142 96 187.846 96C186.566 96 185.694 95.728 185.23 95.184C184.782 94.624 184.558 93.816 184.558 92.76V86.016H183.478L183.214 84.552C183.47 84.248 183.998 83.944 184.798 83.64C184.99 82.328 185.446 81.44 186.166 80.976H187.918ZM192.767 84C193.663 83.792 194.495 83.688 195.263 83.688C196.031 83.688 196.679 83.712 197.207 83.76V93.336C197.831 93.576 198.271 93.848 198.527 94.152L198.287 96H192.767L192.527 94.152C192.751 93.848 193.191 93.576 193.847 93.336V86.664C193.287 86.472 192.847 86.2 192.527 85.848L192.767 84ZM195.479 82.344C194.151 82.344 193.487 81.744 193.487 80.544C193.487 79.328 194.151 78.72 195.479 78.72C196.823 78.72 197.495 79.328 197.495 80.544C197.495 81.744 196.823 82.344 195.479 82.344ZM199.727 84C200.607 83.808 201.399 83.712 202.103 83.712C202.807 83.712 203.391 83.728 203.855 83.76V84.96C204.255 84.624 204.783 84.352 205.439 84.144C206.111 83.92 206.751 83.808 207.359 83.808C208.927 83.808 210.023 84.176 210.647 84.912C211.287 85.648 211.607 86.92 211.607 88.728V93.336C212.231 93.576 212.671 93.848 212.927 94.152L212.687 96H207.167L206.927 94.152C207.151 93.848 207.591 93.576 208.247 93.336V88.584C208.247 87.72 208.103 87.144 207.815 86.856C207.543 86.552 207.047 86.4 206.327 86.4C205.607 86.4 204.887 86.656 204.167 87.168V93.336C204.791 93.576 205.231 93.848 205.487 94.152L205.247 96H199.727L199.487 94.152C199.711 93.848 200.151 93.576 200.807 93.336V86.664C200.247 86.472 199.807 86.2 199.487 85.848L199.727 84ZM219.281 98.544C220.705 98.544 221.417 97.688 221.417 95.976V94.92C220.633 95.4 219.649 95.64 218.465 95.64C216.961 95.64 215.801 95.2 214.985 94.32C214.185 93.44 213.785 91.976 213.785 89.928C213.785 85.848 215.657 83.808 219.401 83.808C220.361 83.808 221.257 84.016 222.089 84.432C222.249 84.144 222.489 84 222.809 84H224.777V95.808C224.777 97.568 224.337 98.872 223.457 99.72C222.593 100.568 221.249 100.992 219.425 100.992C218.465 100.992 217.473 100.88 216.449 100.656C215.425 100.432 214.649 100.152 214.121 99.816C214.105 99.672 214.097 99.528 214.097 99.384C214.097 98.504 214.305 97.656 214.721 96.84H216.833C217.009 97.176 217.137 97.624 217.217 98.184C217.825 98.424 218.513 98.544 219.281 98.544ZM217.097 89.784C217.097 90.984 217.257 91.824 217.577 92.304C217.913 92.784 218.473 93.024 219.257 93.024C220.057 93.024 220.777 92.8 221.417 92.352V86.664C220.777 86.392 220.081 86.256 219.329 86.256C217.841 86.256 217.097 87.432 217.097 89.784Z" fill="white"/>
</svg>
