<svg viewBox="0 0 363 80" fill="none" xmlns="http://www.w3.org/2000/svg">
<path fill-rule="evenodd" clip-rule="evenodd" d="M29.0705 42.8838C29.425 43.0864 29.8049 43.289 30.1847 43.4663C33.0209 44.783 34.3376 45.644 34.3376 47.4672C34.3376 49.4171 32.7423 51.0124 30.7925 51.0124C29.2731 51.0124 28.007 50.0502 27.5005 48.7081C25.6519 50.5819 23.1197 51.7468 20.2835 51.7468C14.6872 51.7468 10.1544 47.214 10.1544 41.6177C10.1544 41.0859 10.2304 40.5541 10.3064 40.0224C5.1152 38.503 1.1142 34.1728 0.202582 28.7537C0.0759682 27.9687 0 27.1837 0 26.3734C0 25.5631 0.0759682 24.7781 0.202582 23.9931C1.13952 18.5993 5.1152 14.2438 10.3064 12.7244C10.3032 12.7022 10.3 12.6801 10.2968 12.658C10.2242 12.1503 10.1544 11.6629 10.1544 11.1291C10.1544 5.53277 14.6872 1 20.2835 1C23.0943 1 25.6519 2.16485 27.5005 4.03873C28.007 2.69662 29.2731 1.73436 30.7925 1.73436C32.7423 1.73436 34.3376 3.32969 34.3376 5.27954C34.3376 7.25472 33.0209 8.11569 30.1847 9.43248C29.9037 9.5636 29.6366 9.70858 29.3628 9.85717C29.2665 9.90945 29.1694 9.96218 29.0705 10.0149H29.0704C28.8426 10.1415 28.6147 10.2681 28.4121 10.3947C28.2349 10.496 28.0829 10.5973 27.931 10.6986C27.8803 10.7239 27.836 10.7556 27.7917 10.7872C27.7474 10.8189 27.7031 10.8505 27.6524 10.8759C26.7915 11.433 26.0065 12.0914 25.2468 12.7751C25.2215 12.7877 25.2025 12.8067 25.1835 12.8257C25.1645 12.8447 25.1455 12.8637 25.1202 12.8764C24.8163 13.1802 24.5124 13.4841 24.2339 13.788C24.1959 13.826 24.1579 13.8703 24.1199 13.9146C24.0819 13.9589 24.0439 14.0032 24.006 14.0412C23.8864 14.1907 23.7629 14.3363 23.6401 14.481C23.4508 14.704 23.2633 14.9251 23.0943 15.1554C20.7393 18.2954 19.2959 22.2205 19.2959 26.4494C19.2959 30.6783 20.714 34.6033 23.0943 37.7433C23.3729 38.1231 23.6768 38.503 24.006 38.8575C24.0439 38.8955 24.0819 38.9398 24.1199 38.9841C24.1579 39.0284 24.1959 39.0728 24.2339 39.1107C24.4424 39.3572 24.6652 39.5753 24.8915 39.7969C24.9674 39.8712 25.0438 39.946 25.1202 40.0224C25.1455 40.035 25.1645 40.054 25.1835 40.073C25.2025 40.092 25.2215 40.111 25.2468 40.1236C26.0065 40.8074 26.7915 41.4658 27.6524 42.0229C27.7031 42.0482 27.7474 42.0798 27.7917 42.1115C27.836 42.1431 27.8803 42.1748 27.931 42.2001C28.007 42.2508 28.0893 42.3014 28.1716 42.3521C28.2539 42.4027 28.3362 42.4533 28.4121 42.504C28.5261 42.5673 28.6337 42.6306 28.7414 42.6939C28.849 42.7572 28.9566 42.8205 29.0705 42.8838ZM64.2693 12.826C69.4604 14.3453 73.4614 18.6755 74.3731 24.0946C74.4997 24.8543 74.5756 25.6646 74.5756 26.6269C74.5756 27.4372 74.4997 28.2222 74.3731 29.0072C73.4361 34.4009 69.4604 38.7565 64.2693 40.2758L64.2788 40.3423C64.3515 40.85 64.4212 41.3373 64.4212 41.8712C64.4212 47.4675 59.8884 52.0003 54.2921 52.0003C51.4813 52.0003 48.9237 50.8354 47.0751 48.9615C46.5687 50.3036 45.3025 51.2659 43.7832 51.2659C41.8333 51.2659 40.238 49.6706 40.238 47.7207C40.238 45.7455 41.5548 44.8846 44.3909 43.5678C44.6719 43.4367 44.939 43.2917 45.2128 43.1431C45.3091 43.0908 45.4063 43.0381 45.5051 42.9854C45.733 42.8587 45.9609 42.7321 46.1635 42.6055C46.3407 42.5042 46.4926 42.403 46.6445 42.3017L46.6446 42.3016C46.6953 42.2763 46.7396 42.2447 46.7839 42.213C46.8282 42.1814 46.8725 42.1497 46.9232 42.1244C47.7842 41.5673 48.5692 40.9089 49.3289 40.2252C49.3542 40.2125 49.3732 40.1935 49.3922 40.1745C49.4112 40.1555 49.4301 40.1365 49.4555 40.1239C49.7593 39.82 50.0632 39.5161 50.3418 39.2123C50.3797 39.1743 50.4177 39.13 50.4557 39.0856C50.4937 39.0413 50.5317 38.997 50.5697 38.959C50.6893 38.8096 50.8128 38.664 50.9356 38.5193C51.1248 38.2962 51.3124 38.0752 51.4813 37.8448C53.8363 34.7048 55.2797 30.7798 55.2797 26.5509C55.2797 22.322 53.8616 18.397 51.4813 15.257C51.2027 14.8771 50.8989 14.4973 50.5697 14.1428C50.5317 14.1048 50.4937 14.0605 50.4557 14.0161C50.4177 13.9718 50.3797 13.9275 50.3418 13.8895C50.0632 13.5603 49.7593 13.2565 49.4555 12.9779C49.4301 12.9652 49.4112 12.9463 49.3922 12.9273C49.3732 12.9083 49.3542 12.8893 49.3289 12.8766C48.5692 12.1929 47.7842 11.5598 46.9232 10.9774C46.8726 10.9521 46.8282 10.9204 46.7839 10.8888C46.7396 10.8571 46.6953 10.8255 46.6446 10.8001C46.5687 10.7495 46.4864 10.6988 46.4041 10.6482C46.3218 10.5976 46.2395 10.5469 46.1635 10.4963C46.0496 10.433 45.9419 10.3697 45.8343 10.3064C45.7267 10.243 45.6191 10.1797 45.5051 10.1164C45.1506 9.91385 44.7708 9.71127 44.3909 9.53401C41.5801 8.19191 40.238 7.33093 40.238 5.38108C40.238 3.43123 41.8333 1.8359 43.7832 1.8359C45.3025 1.8359 46.5687 2.79816 47.0751 4.14027C48.9237 2.26638 51.456 1.10154 54.2921 1.10154C59.8884 1.10154 64.4212 5.63431 64.4212 11.2306C64.4212 11.7624 64.3452 12.2942 64.2693 12.826Z" fill="#034AD8"/>
<path d="M48.3405 26.475C48.3405 20.3723 43.4025 15.4343 37.2998 15.4343C31.197 15.4343 26.259 20.3723 26.259 26.475C26.259 32.5778 31.197 37.5158 37.2998 37.5158C43.4025 37.5158 48.3405 32.5778 48.3405 26.475Z" fill="#034AD8"/>
<path fill-rule="evenodd" clip-rule="evenodd" d="M119.934 36.2635V0.832581H113.425V36.2635H119.934ZM98.4922 36.9973C101.494 36.9973 103.973 36.198 105.931 34.5994C107.888 33.0007 109.161 31.0922 109.748 28.8736L104.022 26.9651C103.696 28.0743 103.076 29.0286 102.162 29.8279C101.249 30.6272 100.026 31.0269 98.4922 31.0269C96.763 31.0269 95.303 30.4152 94.1122 29.1917C92.9214 27.9683 92.326 26.3126 92.326 24.2246C92.326 22.1366 92.9133 20.489 94.0878 19.2819C95.2623 18.0747 96.7141 17.4712 98.4432 17.4712C101.216 17.4712 102.994 18.8251 103.777 21.533L109.601 19.5755C109.046 17.3243 107.79 15.4076 105.833 13.8253C103.875 12.243 101.363 11.4518 98.2964 11.4518C94.7729 11.4518 91.8122 12.6589 89.4142 15.0732C87.0163 17.4875 85.8173 20.5379 85.8173 24.2246C85.8173 27.8786 87.0326 30.9209 89.4631 33.3514C91.8937 35.782 94.9034 36.9973 98.4922 36.9973ZM145.097 33.3759C142.699 35.7902 139.689 36.9973 136.068 36.9973C132.446 36.9973 129.437 35.7902 127.039 33.3759C124.641 30.9617 123.442 27.9112 123.442 24.2246C123.442 20.5379 124.633 17.4875 127.014 15.0732C129.429 12.6589 132.446 11.4518 136.068 11.4518C139.689 11.4518 142.699 12.6589 145.097 15.0732C147.495 17.4875 148.694 20.5379 148.694 24.2246C148.694 27.9112 147.495 30.9617 145.097 33.3759ZM136.069 31.0758C134.373 31.0758 132.921 30.4722 131.714 29.2651C130.539 28.058 129.952 26.3778 129.952 24.2245C129.952 22.0713 130.547 20.3911 131.738 19.1839C132.929 17.9768 134.373 17.3732 136.069 17.3732C137.766 17.3732 139.209 17.9768 140.4 19.1839C141.591 20.3911 142.186 22.0713 142.186 24.2245C142.186 26.3778 141.591 28.058 140.4 29.2651C139.209 30.4722 137.766 31.0758 136.069 31.0758ZM164.901 36.0919C163.677 36.6302 162.381 36.8994 161.01 36.8994C158.172 36.8994 155.937 35.9941 154.306 34.1834C152.675 32.3727 151.859 30.1134 151.859 27.4055V12.1859H158.368V26.0842C158.368 27.5197 158.743 28.686 159.493 29.5832C160.244 30.4804 161.337 30.929 162.772 30.929C164.175 30.929 165.284 30.4967 166.1 29.6321C166.915 28.7676 167.323 27.6175 167.323 26.182V12.1859H173.832V31.9078C173.832 33.4411 173.914 34.893 174.077 36.2632H167.862C167.731 35.6107 167.666 34.7461 167.666 33.6695C167.046 34.7461 166.124 35.5536 164.901 36.0919ZM189.5 36.8507C191.066 36.8507 192.444 36.5408 193.635 35.9209C194.826 35.301 195.698 34.4854 196.253 33.474C196.253 34.518 196.335 35.4479 196.498 36.2635H202.713C202.582 34.9585 202.517 33.5067 202.517 31.908V0.832581H196.106V14.5841C195.03 12.5939 192.762 11.5989 189.304 11.5989C185.943 11.5989 183.178 12.806 181.009 15.2203C178.839 17.6345 177.755 20.6197 177.755 24.1759C177.755 27.8299 178.856 30.8559 181.058 33.2538C183.26 35.6518 186.074 36.8507 189.5 36.8507ZM185.977 29.1919C187.086 30.4154 188.522 31.0271 190.283 31.0271C192.013 31.0271 193.432 30.4072 194.541 29.1674C195.65 27.9277 196.205 26.2475 196.205 24.1269C196.205 22.0388 195.65 20.3994 194.541 19.2086C193.432 18.0178 192.013 17.4224 190.283 17.4224C188.554 17.4224 187.127 18.026 186.001 19.2331C184.876 20.4402 184.313 22.0878 184.313 24.1758C184.313 26.2964 184.868 27.9685 185.977 29.1919ZM218.798 36.9973C221.8 36.9973 224.279 36.198 226.237 34.5994C228.194 33.0007 229.466 31.0922 230.054 28.8736L224.328 26.9651C224.002 28.0743 223.382 29.0286 222.468 29.8279C221.555 30.6272 220.331 31.0269 218.798 31.0269C217.069 31.0269 215.609 30.4152 214.418 29.1917C213.227 27.9683 212.632 26.3126 212.632 24.2246C212.632 22.1366 213.219 20.489 214.394 19.2819C215.568 18.0747 217.02 17.4712 218.749 17.4712C221.522 17.4712 223.3 18.8251 224.083 21.533L229.907 19.5755C229.352 17.3243 228.096 15.4076 226.139 13.8253C224.181 12.243 221.669 11.4518 218.602 11.4518C215.079 11.4518 212.118 12.6589 209.72 15.0732C207.322 17.4875 206.123 20.5379 206.123 24.2246C206.123 27.8786 207.338 30.9209 209.769 33.3514C212.2 35.782 215.209 36.9973 218.798 36.9973ZM248.562 33.3759C247.028 35.7575 244.663 36.9483 241.466 36.9483C238.986 36.9483 236.988 36.2306 235.471 34.7951C233.954 33.3595 233.195 31.663 233.195 29.7055C233.195 27.6501 233.864 26.0026 235.202 24.7628C236.539 23.5231 238.268 22.7401 240.389 22.4138L246.311 21.5329C247.518 21.3698 248.121 20.7989 248.121 19.8201C248.121 18.9066 247.77 18.1562 247.069 17.569C246.368 16.9817 245.364 16.6881 244.059 16.6881C242.689 16.6881 241.604 17.0633 240.805 17.8137C240.006 18.564 239.557 19.4939 239.459 20.6031L233.685 19.3797C233.913 17.2917 234.941 15.4483 236.768 13.8497C238.595 12.2511 241.009 11.4518 244.01 11.4518C247.599 11.4518 250.242 12.3082 251.938 14.021C253.635 15.7338 254.483 17.9279 254.483 20.6031V32.446C254.483 33.8815 254.581 35.1539 254.777 36.2632H248.806C248.643 35.5454 248.562 34.583 248.562 33.3759ZM242.836 32.1037C241.857 32.1037 241.09 31.8346 240.536 31.2963C239.981 30.7579 239.704 30.0973 239.704 29.3143C239.704 27.5851 240.699 26.5738 242.689 26.2801L248.121 25.4482V26.5248C248.121 28.515 247.624 29.9423 246.629 30.8069C245.633 31.6714 244.369 32.1037 242.836 32.1037ZM265.918 22.4142V36.2636H259.41V12.1863H265.723V15.1715C266.408 13.9969 267.386 13.0998 268.659 12.4799C269.931 11.86 271.269 11.5501 272.672 11.5501C275.51 11.5501 277.672 12.4391 279.156 14.2172C280.64 15.9952 281.383 18.2872 281.383 21.0929V36.2636H274.874V22.2185C274.874 20.783 274.507 19.6248 273.773 18.7439C273.039 17.863 271.921 17.4226 270.421 17.4226C269.05 17.4226 267.957 17.8957 267.142 18.8418C266.326 19.7879 265.918 20.9787 265.918 22.4142ZM292.866 36.2636V22.4142C292.866 20.9787 293.274 19.7879 294.09 18.8418C294.905 17.8957 295.998 17.4226 297.368 17.4226C298.869 17.4226 299.987 17.863 300.721 18.7439C301.455 19.6248 301.822 20.783 301.822 22.2185V36.2636H308.33V21.0929C308.33 18.2872 307.588 15.9952 306.104 14.2172C304.619 12.4391 302.458 11.5501 299.619 11.5501C298.217 11.5501 296.879 11.86 295.607 12.4799C294.334 13.0998 293.355 13.9969 292.67 15.1715V12.1863H286.357V36.2636H292.866ZM333.149 33.3759C330.751 35.7901 327.742 36.9972 324.12 36.9972C320.499 36.9972 317.489 35.7901 315.091 33.3759C312.693 30.9616 311.494 27.9111 311.494 24.2245C311.494 20.5379 312.685 17.4874 315.067 15.0731C317.481 12.6589 320.499 11.4518 324.12 11.4518C327.742 11.4518 330.751 12.6589 333.149 15.0731C335.547 17.4874 336.746 20.5379 336.746 24.2245C336.746 27.9111 335.547 30.9616 333.149 33.3759ZM324.121 31.0757C322.425 31.0757 320.973 30.4722 319.766 29.265C318.591 28.0579 318.004 26.3777 318.004 24.2245C318.004 22.0712 318.6 20.391 319.79 19.1839C320.981 17.9767 322.425 17.3732 324.121 17.3732C325.818 17.3732 327.262 17.9767 328.452 19.1839C329.643 20.391 330.239 22.0712 330.239 24.2245C330.239 26.3777 329.643 28.0579 328.452 29.265C327.262 30.4722 325.818 31.0757 324.121 31.0757ZM346.762 22.4142V36.2636H340.254V12.1863H346.567V15.1715C347.252 13.9969 348.23 13.0998 349.503 12.4799C350.775 11.86 352.113 11.5501 353.516 11.5501C356.354 11.5501 358.515 12.4391 360 14.2172C361.484 15.9952 362.227 18.2872 362.227 21.0929V36.2636H355.718V22.2185C355.718 20.783 355.351 19.6248 354.617 18.7439C353.883 17.863 352.765 17.4226 351.265 17.4226C349.894 17.4226 348.801 17.8957 347.986 18.8418C347.17 19.7879 346.762 20.9787 346.762 22.4142Z" fill="#034AD8"/>
<path d="M313.211 64.2638C318.224 64.2638 320.862 60.5706 320.862 60.5706L319.015 58.724C319.015 58.724 317.037 61.6258 313.211 61.6258C309.386 61.6258 306.353 58.5921 306.353 54.767C306.353 50.9419 309.386 47.9082 313.211 47.9082C317.037 47.9082 318.883 50.6781 318.883 50.6781L320.73 48.8315C320.73 48.8315 318.224 45.2702 313.211 45.2702C307.672 45.2702 303.451 49.491 303.451 54.767C303.451 60.043 307.672 64.2638 313.211 64.2638ZM324.294 64H327.196V50.4143L333.923 58.9878L340.65 50.4143V64H343.552V45.534H340.914L333.923 54.5032L326.932 45.534H324.294V64ZM353.568 64.2638C357.657 64.2638 360.163 61.7577 360.163 58.8559C360.163 51.9971 350.402 54.5032 350.402 50.4143C350.402 49.0953 351.589 47.9082 353.832 47.9082C356.338 47.9082 357.657 49.6229 357.657 49.6229L359.635 47.6444C359.635 47.6444 357.657 45.2702 353.832 45.2702C349.875 45.2702 347.5 47.6444 347.5 50.4143C347.5 57.2731 357.261 54.767 357.261 58.8559C357.261 60.3068 355.942 61.6258 353.568 61.6258C350.402 61.6258 348.951 59.5154 348.951 59.5154L346.973 61.4939C346.973 61.4939 349.083 64.2638 353.568 64.2638Z" fill="#034AD8"/>
</svg>
