<svg viewBox="0 0 298 144"  xmlns="http://www.w3.org/2000/svg">
<path d="M92.056 39.544H86.68L68.536 66.616V80.056H78.712V91H46.072V80.056H55.672V66.52L36.952 39.544H31.384V28.6H57.208V39.544H52.024L62.488 55.288H63.064L73.432 39.544H67.48V28.6H92.056V39.544ZM134.601 69.4C134.601 76.248 132.361 81.72 127.881 85.816C123.401 89.912 117.705 91.96 110.793 91.96C104.137 91.96 98.6965 90.04 94.4725 86.2C90.3125 82.296 88.2325 76.856 88.2325 69.88C88.2325 63.544 90.1525 58.104 93.9925 53.56C97.8325 49.016 103.657 46.744 111.465 46.744C119.273 46.744 125.065 49.016 128.841 53.56C132.681 58.04 134.601 63.32 134.601 69.4ZM121.833 69.016C121.833 64.6 120.809 61.368 118.761 59.32C116.713 57.272 114.217 56.248 111.273 56.248C108.073 56.248 105.545 57.4 103.689 59.704C101.897 61.944 101.001 65.112 101.001 69.208C101.001 72.92 101.833 76.056 103.497 78.616C105.225 81.176 107.785 82.456 111.177 82.456C114.377 82.456 116.937 81.272 118.857 78.904C120.841 76.472 121.833 73.176 121.833 69.016ZM191.379 91H172.755V84.376C169.875 89.368 165.235 91.864 158.835 91.864C154.739 91.864 151.187 90.648 148.179 88.216C145.171 85.784 143.667 82.008 143.667 76.888V57.016H137.907V47.704H156.051V72.088C156.051 75.864 156.659 78.552 157.875 80.152C159.155 81.688 161.011 82.456 163.443 82.456C166.387 82.456 168.659 81.496 170.259 79.576C171.923 77.656 172.755 75.192 172.755 72.184V57.016H165.747V47.704H185.139V81.688H191.379V91ZM222.863 47.128C224.079 47.128 225.423 47.32 226.895 47.704C228.431 48.024 229.935 48.632 231.407 49.528L233.327 64.696L223.919 65.752L222.287 58.36C221.007 57.592 219.887 57.208 218.927 57.208C217.519 57.208 216.271 57.752 215.183 58.84C214.159 59.928 213.647 61.528 213.647 63.64V81.688H221.327V91H195.503V81.688H201.263V57.112H195.023V47.704H212.687V55.96C213.391 53.464 214.511 51.384 216.047 49.72C217.647 47.992 219.919 47.128 222.863 47.128Z" fill="#004887"/>
<path d="M37.568 124.032C36.0747 125.44 33.9413 126.571 31.168 127.424C28.4373 128.235 25.6 128.64 22.656 128.64C16.64 128.64 11.6693 126.699 7.744 122.816C3.86133 118.891 1.92 113.856 1.92 107.712C1.92 104.256 2.64533 100.843 4.096 97.472C5.54667 94.1013 7.808 91.3067 10.88 89.088C13.952 86.8693 17.8773 85.76 22.656 85.76C26.1547 85.76 29.1413 86.2507 31.616 87.232C34.0907 88.2133 36.0533 89.3653 37.504 90.688L38.592 99.712L32.768 100.288L31.744 94.528C29.184 92.864 26.112 92.032 22.528 92.032C18.6027 92.032 15.4453 93.3973 13.056 96.128C10.7093 98.8587 9.536 102.592 9.536 107.328C9.536 112.277 10.7947 116.032 13.312 118.592C15.8293 121.109 19.136 122.368 23.232 122.368C26.6453 122.368 29.44 121.771 31.616 120.576L32.64 114.368L38.464 114.944L37.568 124.032ZM72.802 113.664C72.802 118.144 71.3727 121.771 68.514 124.544C65.698 127.275 62.0287 128.64 57.506 128.64C53.1113 128.64 49.57 127.317 46.882 124.672C44.2367 122.027 42.914 118.443 42.914 113.92C42.914 109.739 44.1727 106.155 46.69 103.168C49.2073 100.139 52.9407 98.624 57.89 98.624C62.882 98.624 66.6153 100.117 69.09 103.104C71.5647 106.091 72.802 109.611 72.802 113.664ZM65.698 113.472C65.698 110.4 64.9513 108.053 63.458 106.432C62.0073 104.811 60.1087 104 57.762 104C55.33 104 53.4313 104.875 52.066 106.624C50.7007 108.331 50.018 110.635 50.018 113.536C50.018 116.267 50.658 118.571 51.938 120.448C53.2607 122.325 55.202 123.264 57.762 123.264C60.2367 123.264 62.178 122.368 63.586 120.576C64.994 118.741 65.698 116.373 65.698 113.472ZM129.478 128H116.806V122.752H118.406V111.488C118.406 108.757 117.915 106.837 116.934 105.728C115.995 104.576 114.651 104 112.902 104C110.64 104 108.976 104.768 107.91 106.304C106.886 107.84 106.352 109.589 106.31 111.552V122.752H110.597V128H97.9255V122.752H99.4615V111.488C99.4615 108.757 98.9708 106.837 97.9895 105.728C97.0508 104.576 95.7282 104 94.0215 104C91.8028 104 90.1602 104.768 89.0935 106.304C88.0268 107.797 87.4722 109.525 87.4295 111.488V122.752H92.8055V128H76.2935V122.752H80.5815V104.576H76.3575V99.264H87.4295V104C88.3255 102.421 89.5202 101.141 91.0135 100.16C92.5068 99.1787 94.3202 98.688 96.4535 98.688C98.5868 98.688 100.507 99.2213 102.214 100.288C103.92 101.312 105.115 102.933 105.798 105.152C106.651 103.189 107.888 101.632 109.51 100.48C111.131 99.2853 113.115 98.688 115.462 98.688C118.064 98.688 120.347 99.52 122.31 101.184C124.272 102.848 125.254 105.451 125.254 108.992V122.752H129.478V128ZM164.428 112.896C164.428 116.992 163.34 120.64 161.164 123.84C159.03 127.04 155.724 128.64 151.244 128.64C147.105 128.64 144.097 127.147 142.22 124.16V136.256H147.916V141.632H131.084V136.256H135.372V104.512H130.892V99.264H142.22V104.96C143.03 103.253 144.204 101.781 145.74 100.544C147.318 99.3067 149.43 98.688 152.076 98.688C155.745 98.688 158.71 99.9467 160.972 102.464C163.276 104.939 164.428 108.416 164.428 112.896ZM157.324 113.6C157.324 110.528 156.62 108.203 155.212 106.624C153.804 105.003 152.012 104.192 149.836 104.192C147.532 104.192 145.718 105.067 144.396 106.816C143.073 108.565 142.369 110.613 142.284 112.96L142.22 115.2C142.22 117.589 142.902 119.509 144.268 120.96C145.676 122.411 147.468 123.136 149.644 123.136C152.076 123.136 153.953 122.283 155.276 120.576C156.641 118.869 157.324 116.544 157.324 113.6ZM170.922 101.376C173.055 100.352 174.954 99.648 176.618 99.264C178.282 98.88 180.202 98.688 182.378 98.688C185.578 98.688 188.202 99.4987 190.25 101.12C192.341 102.741 193.386 105.173 193.386 108.416V121.344C193.386 123.051 194.09 123.904 195.498 123.904C195.882 123.904 196.373 123.819 196.97 123.648L197.034 127.424C195.626 128.235 194.09 128.64 192.426 128.64C188.799 128.64 186.837 126.741 186.538 122.944V122.816C185.685 124.309 184.469 125.653 182.89 126.848C181.354 128.043 179.434 128.64 177.13 128.64C175.125 128.64 173.141 128.043 171.178 126.848C169.258 125.611 168.298 123.477 168.298 120.448C168.298 116.907 169.706 114.581 172.522 113.472C175.338 112.32 178.389 111.744 181.674 111.744C182.485 111.744 183.317 111.765 184.17 111.808C185.023 111.851 185.813 111.915 186.538 112V110.4C186.538 108.693 186.239 107.157 185.642 105.792C185.045 104.427 183.551 103.744 181.162 103.744C180.266 103.744 179.413 103.808 178.602 103.936C177.834 104.064 177.087 104.32 176.362 104.704L175.21 109.12L169.706 108.544L170.922 101.376ZM186.538 116.608V115.584C185.813 115.499 185.066 115.413 184.298 115.328C183.53 115.243 182.741 115.2 181.93 115.2C180.223 115.2 178.687 115.499 177.322 116.096C175.999 116.693 175.338 117.888 175.338 119.68C175.338 122.283 176.725 123.584 179.498 123.584C181.119 123.584 182.655 123.008 184.106 121.856C185.557 120.661 186.367 118.912 186.538 116.608ZM234.863 128H219.503V122.752H223.727V111.488C223.727 108.757 223.236 106.837 222.255 105.728C221.273 104.576 219.908 104 218.159 104C215.983 104 214.255 104.704 212.975 106.112C211.737 107.52 211.097 109.248 211.055 111.296V122.752H215.343V128H199.919V122.752H204.207V104.576H199.727V99.264H211.055V103.936C213.06 100.437 216.239 98.688 220.591 98.688C223.321 98.688 225.668 99.52 227.631 101.184C229.593 102.848 230.575 105.451 230.575 108.992V122.752H234.863V128ZM267.085 104.512H264.077L254.477 128L251.277 136.256H255.501V141.632H240.141V136.256H245.005L247.821 128.256L237.645 104.512H234.509V99.264H248.653V104.512H245.005L251.661 120.064H252.045L257.421 104.512H254.157V99.264H267.085V104.512ZM275.625 98.688L270.121 98.176L271.145 89.152C273.15 88.0427 275.22 87.2107 277.353 86.656C279.486 86.1013 281.449 85.824 283.241 85.824C286.825 85.824 289.812 86.6347 292.201 88.256C294.633 89.8347 295.849 92.032 295.849 94.848C295.849 97.024 295.209 98.7947 293.929 100.16C292.649 101.483 291.177 102.592 289.513 103.488C287.892 104.384 286.441 105.237 285.161 106.048C283.881 106.859 283.241 107.84 283.241 108.992C283.241 110.4 284.201 111.104 286.121 111.104V115.456C279.252 116.139 275.817 114.24 275.817 109.76C275.817 107.755 276.436 106.197 277.673 105.088C278.91 103.936 280.34 102.976 281.961 102.208C283.582 101.44 285.012 100.608 286.249 99.712C287.486 98.7733 288.105 97.536 288.105 96C288.105 93.3547 286.206 92.032 282.409 92.032C281.428 92.032 280.382 92.16 279.273 92.416C278.206 92.672 277.289 93.056 276.521 93.568L275.625 98.688ZM277.673 128V119.872H285.865V128H277.673Z" fill="#004887"/>
</svg>
