<svg id="Layer_1" xmlns="http://www.w3.org/2000/svg" viewBox="0 0 395.8 102"><style>.st0{fill:#181919}</style><path class="st0" d="M98.7 34.3L80 53V41.7l24.3-24.3-5.6-5.7L80 30.4V.6h-8v29.8L53.3 11.7l-5.6 5.7L72 41.7V53L53.3 34.4 31.9 12.9V.6h-8v12.3L-.4 37.2l5.6 5.7 18.7-18.7v11.4L-.4 59.8l5.6 5.7 18.7-18.6v55.5h8V46.8l18.6 18.7 5.7-5.7-24.3-24.3V24.2l18.6 18.7L72 64.3v38.1h8V64.3L104.3 40zM126.8 53.1h6.9V37.2h16.8V31h-16.8V20.9h17.9v-6.1h-24.8zM190.2 19.1c-1.8-1.8-3.9-3.1-6.4-4-2.5-.9-5.2-1.4-8.2-1.3-3 0-5.7.5-8.1 1.4-2.5 1-4.6 2.3-6.4 4.1-1.8 1.8-3.2 3.9-4.2 6.4-1 2.5-1.5 5.3-1.5 8.4 0 3 .5 5.7 1.5 8.2 1 2.5 2.4 4.6 4.2 6.3 1.8 1.7 3.9 3.1 6.4 4.1 2.5 1 5.2 1.4 8.1 1.4 3 0 5.7-.6 8.2-1.5 2.5-1 4.6-2.4 6.4-4.1 1.8-1.8 3.2-3.9 4.2-6.3 1-2.5 1.5-5.2 1.5-8.2 0-3.1-.5-5.8-1.5-8.3-1-2.7-2.4-4.8-4.2-6.6zm-2.3 20.2c-.6 1.7-1.5 3.2-2.7 4.5-1.2 1.3-2.5 2.3-4.2 3-1.6.7-3.4 1.1-5.4 1.1-2 0-3.8-.4-5.4-1.1-1.6-.7-3-1.7-4.1-3-1.2-1.3-2-2.8-2.7-4.5-.6-1.7-.9-3.6-.9-5.7 0-1.9.3-3.7.9-5.4.6-1.7 1.5-3.1 2.7-4.4 1.2-1.2 2.5-2.2 4.1-2.9 1.6-.7 3.4-1.1 5.4-1.1 2 0 3.8.3 5.4 1.1 1.6.7 3 1.7 4.2 2.9 1.2 1.2 2 2.7 2.7 4.4.6 1.7 1 3.4 1 5.4-.1 2.1-.4 4-1 5.7zM226.5 32.7c1.5-1.9 2.3-4.2 2.3-7 0-2.2-.4-3.9-1.2-5.4-.8-1.4-1.9-2.5-3.2-3.4-1.3-.8-2.9-1.4-4.6-1.8-1.7-.3-3.5-.5-5.3-.5h-13.3v38.3h6.8V36.8h5l8.9 16.2h8.2l-10.2-16.9c2.9-.4 5.1-1.5 6.6-3.4zm-10.3-1.8c-1 .1-1.9.1-2.9.1H208V20.6h5.9c.9 0 1.8.1 2.7.2.9.1 1.8.3 2.5.7.8.3 1.4.9 1.8 1.5.5.7.7 1.6.7 2.7 0 1.3-.3 2.2-.8 2.9-.5.7-1.2 1.2-2 1.6-.7.4-1.6.6-2.6.7zM241.6 36.5h17.6v-6.2h-17.6v-9.4h18.6v-6.1h-25.4v38.3h26.4v-6.2h-19.6zM286.8 33c-1.3-.8-2.8-1.5-4.4-1.9-1.6-.5-3-1-4.4-1.5-1.3-.5-2.5-1.1-3.4-1.8-.9-.7-1.4-1.7-1.4-3 0-.9.2-1.6.5-2.2.4-.6.8-1.1 1.4-1.5.6-.4 1.3-.7 2-.9.7-.2 1.5-.3 2.3-.3 1.3 0 2.6.2 3.8.7 1.2.5 2.2 1.3 2.9 2.3l5-5.2c-1.5-1.4-3.2-2.4-5.1-3-1.9-.6-3.8-.9-5.9-.9-1.8 0-3.5.2-5.2.7-1.7.5-3.2 1.2-4.5 2.1-1.3 1-2.4 2.2-3.2 3.6-.8 1.4-1.2 3.2-1.2 5.1 0 2.3.5 4.1 1.4 5.4.9 1.4 2 2.4 3.3 3.2 1.3.8 2.8 1.5 4.4 1.9 1.6.5 3 1 4.4 1.5 1.3.5 2.5 1.2 3.4 1.9.9.8 1.4 1.8 1.4 3.2 0 .9-.2 1.6-.6 2.3-.4.7-.9 1.2-1.6 1.7-.7.4-1.4.8-2.2 1-.8.2-1.6.3-2.4.3-1.5 0-2.9-.3-4.3-1.1s-2.4-1.7-3.3-2.9l-5.1 5c1.6 1.9 3.5 3.2 5.7 4 2.2.8 4.5 1.2 6.9 1.2 1.9 0 3.7-.3 5.4-.8 1.7-.5 3.2-1.3 4.5-2.3 1.3-1 2.3-2.3 3.1-3.8.8-1.5 1.1-3.3 1.1-5.4 0-2.3-.5-4.1-1.3-5.5-.9-1.1-2-2.2-3.4-3.1zM294.4 20.9h11.7v32.2h6.8V20.9h11.8v-6.1h-30.3zM356 32.7c1.5-1.9 2.3-4.2 2.3-7 0-2.2-.4-3.9-1.2-5.4-.8-1.4-1.9-2.5-3.2-3.4-1.3-.8-2.9-1.4-4.6-1.8-1.7-.3-3.5-.5-5.3-.5h-13.3v38.3h6.8V36.8h5l8.9 16.2h8.2l-10.2-16.9c2.9-.4 5-1.5 6.6-3.4zm-10.3-1.8c-1 .1-1.9.1-2.9.1h-5.3V20.6h5.9c.9 0 1.8.1 2.7.2.9.1 1.8.3 2.5.7.8.3 1.4.9 1.8 1.5.5.7.7 1.6.7 2.7 0 1.3-.3 2.2-.8 2.9-.5.7-1.2 1.2-2 1.6-.7.4-1.6.6-2.6.7zM387.1 14.8L377.6 30l-9.4-15.2h-8.6L374 36.7v16.4h6.8V36.7l14.4-21.9z"/><g><path class="st0" d="M136 67.6h2.4l9 21.1h-2.9l-2.1-5.2h-10.5l-2.2 5.2h-2.8l9.1-21.1zm1.1 3.2l-4.4 10.4h8.6l-4.2-10.4zM173.1 72c-.6-.9-1.4-1.5-2.4-1.9s-1.9-.6-2.9-.6c-1.2 0-2.2.2-3.2.7s-1.8 1.1-2.5 1.9c-.7.8-1.3 1.7-1.7 2.8s-.6 2.2-.6 3.3c0 1.2.2 2.4.6 3.4.4 1.1.9 2 1.7 2.8.7.8 1.5 1.4 2.5 1.9s2.1.7 3.3.7c1.3 0 2.4-.3 3.5-.8 1-.5 1.9-1.2 2.6-2.2l1.9 1.6c-1 1.3-2.1 2.2-3.4 2.8-1.3.6-2.9.9-4.5.9-1.5 0-2.9-.3-4.2-.8-1.3-.6-2.4-1.3-3.4-2.3-1-1-1.7-2.1-2.3-3.5-.5-1.3-.8-2.8-.8-4.4 0-1.5.3-3 .8-4.3s1.3-2.5 2.2-3.5 2.1-1.8 3.4-2.4c1.3-.6 2.7-.9 4.3-.9 1.4 0 2.8.3 4.1.8 1.3.5 2.4 1.4 3.3 2.5l-2.3 1.5zM179.3 67.6h3.7l7.1 16.5h.1l7.2-16.5h3.6v21.1h-2.5V71h-.1l-7.6 17.7h-1.5L181.9 71h-.1v17.7h-2.5V67.6zM216.3 71.3c-.4-.7-1-1.2-1.7-1.5-.7-.3-1.4-.5-2.2-.5-.6 0-1.1.1-1.6.2s-1 .3-1.4.6c-.4.3-.8.6-1 1.1-.3.5-.4 1-.4 1.6 0 .5.1.9.2 1.3s.4.7.7 1c.3.3.8.6 1.4.8.6.3 1.3.5 2.1.8.8.3 1.6.5 2.4.8.8.3 1.4.7 2 1.1.6.5 1.1 1 1.4 1.7.3.7.5 1.5.5 2.6s-.2 2-.6 2.7c-.4.8-1 1.4-1.7 1.9s-1.5.9-2.4 1.1-1.8.4-2.8.4c-.6 0-1.2-.1-1.8-.2-.6-.1-1.2-.3-1.8-.5-.6-.2-1.1-.5-1.6-.9s-.9-.8-1.3-1.4l2.1-1.8c.5.8 1.1 1.4 1.9 1.8.8.4 1.7.6 2.6.6.5 0 1.1-.1 1.6-.2s1-.4 1.5-.7c.4-.3.8-.7 1.1-1.1.3-.5.4-1 .4-1.6 0-.7-.1-1.2-.3-1.6-.2-.4-.6-.8-1-1.1-.5-.3-1-.6-1.7-.8-.7-.2-1.5-.5-2.4-.8-.8-.2-1.4-.5-2.1-.8-.6-.3-1.2-.7-1.7-1.1-.5-.4-.8-1-1.1-1.6-.3-.6-.4-1.4-.4-2.2 0-1 .2-1.9.6-2.6.4-.8.9-1.4 1.6-1.9.7-.5 1.4-.9 2.3-1.1.9-.3 1.7-.4 2.7-.4 1.2 0 2.3.2 3.3.5 1 .4 1.9 1 2.6 1.9l-2 1.9zM231.1 67.6h13.1v2.3h-10.6v7h9.8v2.3h-9.8v9.5h-2.5V67.6zM257.5 89.2c-1.6 0-3.1-.3-4.4-.8-1.3-.6-2.5-1.3-3.5-2.3-1-1-1.7-2.2-2.3-3.5s-.8-2.8-.8-4.4c0-1.6.3-3.1.8-4.4.5-1.4 1.3-2.5 2.3-3.5 1-1 2.1-1.8 3.5-2.3 1.3-.6 2.8-.8 4.4-.8 1.6 0 3.1.3 4.4.8 1.3.6 2.5 1.3 3.5 2.3 1 1 1.7 2.2 2.3 3.5.5 1.4.8 2.8.8 4.4 0 1.6-.3 3.1-.8 4.4s-1.3 2.5-2.3 3.5c-1 1-2.1 1.8-3.5 2.3-1.4.6-2.8.8-4.4.8zm0-2.3c1.2 0 2.4-.2 3.4-.7 1-.5 1.9-1.1 2.6-1.9.7-.8 1.3-1.7 1.7-2.8.4-1.1.6-2.2.6-3.4 0-1.2-.2-2.3-.6-3.4-.4-1.1-1-2-1.7-2.8-.7-.8-1.6-1.4-2.6-1.9s-2.1-.7-3.4-.7c-1.2 0-2.4.2-3.4.7-1 .5-1.9 1.1-2.6 1.9-.7.8-1.3 1.7-1.7 2.8-.4 1.1-.6 2.2-.6 3.4 0 1.2.2 2.3.6 3.4.4 1.1 1 2 1.7 2.8.7.8 1.6 1.4 2.6 1.9s2.1.7 3.4.7zM272.5 67.6h5.4c1 0 2 .1 3 .2s1.9.4 2.7.8c.8.4 1.4 1 1.9 1.7.5.8.7 1.8.7 3.1 0 1.5-.5 2.8-1.4 3.7s-2.2 1.6-3.9 1.8l6 9.7h-3.1l-5.7-9.5H275v9.5h-2.5v-21zm2.5 9.3h2.2c.7 0 1.4 0 2.2-.1.7 0 1.4-.2 2.1-.4s1.1-.6 1.5-1c.4-.5.6-1.1.6-2 0-.8-.1-1.4-.4-1.8-.3-.5-.7-.8-1.2-1.1s-1-.4-1.6-.5c-.6-.1-1.2-.1-1.8-.1H275v7zM298.9 67.6h2.5v8.9h11.2v-8.9h2.5v21.1h-2.5v-9.8h-11.2v9.8h-2.5V67.6zM336.2 80.7c0 1.2-.1 2.2-.4 3.3-.3 1-.7 1.9-1.4 2.7-.6.8-1.4 1.4-2.5 1.9-1 .5-2.2.7-3.7.7s-2.7-.2-3.7-.7c-1-.5-1.8-1.1-2.5-1.9-.6-.8-1.1-1.7-1.4-2.7-.3-1-.4-2.1-.4-3.3v-13h2.5v12.7c0 .9.1 1.7.3 2.5s.5 1.5.9 2.1c.4.6 1 1.1 1.7 1.5.7.4 1.6.6 2.6.6s1.9-.2 2.6-.6 1.2-.9 1.7-1.5c.4-.6.7-1.3.9-2.1.2-.8.3-1.6.3-2.5V67.6h2.5v13.1zM359.3 87.3c-1.2.7-2.5 1.2-3.8 1.5-1.3.3-2.7.5-4.1.5-1.6 0-3.2-.3-4.5-.8-1.4-.5-2.6-1.3-3.6-2.3-1-1-1.8-2.1-2.3-3.5-.6-1.4-.8-2.9-.8-4.5 0-1.7.3-3.2.9-4.5s1.4-2.5 2.4-3.5 2.2-1.7 3.6-2.2c1.4-.5 2.8-.8 4.4-.8 1.4 0 2.7.2 4 .6s2.4 1.1 3.4 2.1l-1.9 2c-.7-.8-1.6-1.4-2.6-1.8-1-.4-2.1-.6-3.1-.6-1.2 0-2.3.2-3.4.7-1 .4-1.9 1-2.7 1.8-.8.8-1.4 1.7-1.8 2.8s-.6 2.2-.6 3.5c0 1.2.2 2.4.6 3.5s1 2 1.8 2.8c.8.8 1.7 1.4 2.8 1.8s2.3.7 3.5.7c.9 0 1.7-.1 2.7-.3.9-.2 1.8-.5 2.6-.9v-6.5h-4.9v-2.3h7.4v10.2zM374.3 89.2c-1.6 0-3.1-.3-4.4-.8-1.3-.6-2.5-1.3-3.5-2.3-1-1-1.7-2.2-2.3-3.5s-.8-2.8-.8-4.4c0-1.6.3-3.1.8-4.4.5-1.4 1.3-2.5 2.3-3.5 1-1 2.1-1.8 3.5-2.3 1.3-.6 2.8-.8 4.4-.8 1.6 0 3.1.3 4.4.8 1.3.6 2.5 1.3 3.5 2.3 1 1 1.7 2.2 2.3 3.5.5 1.4.8 2.8.8 4.4 0 1.6-.3 3.1-.8 4.4s-1.3 2.5-2.3 3.5c-1 1-2.1 1.8-3.5 2.3-1.3.6-2.8.8-4.4.8zm0-2.3c1.2 0 2.4-.2 3.4-.7 1-.5 1.9-1.1 2.6-1.9.7-.8 1.3-1.7 1.7-2.8.4-1.1.6-2.2.6-3.4 0-1.2-.2-2.3-.6-3.4-.4-1.1-1-2-1.7-2.8-.7-.8-1.6-1.4-2.6-1.9s-2.1-.7-3.4-.7c-1.2 0-2.4.2-3.4.7-1 .5-1.9 1.1-2.6 1.9-.7.8-1.3 1.7-1.7 2.8-.4 1.1-.6 2.2-.6 3.4 0 1.2.2 2.3.6 3.4.4 1.1 1 2 1.7 2.8.7.8 1.6 1.4 2.6 1.9 1.1.5 2.2.7 3.4.7z"/></g></svg>