<?xml version="1.0" encoding="UTF-8" standalone="no"?>
<!DOCTYPE svg PUBLIC "-//W3C//DTD SVG 1.1//EN" "http://www.w3.org/Graphics/SVG/1.1/DTD/svg11.dtd">
<svg width="100%" height="100%" viewBox="0 0 512 512" version="1.1" xmlns="http://www.w3.org/2000/svg" xmlns:xlink="http://www.w3.org/1999/xlink" xml:space="preserve" style="fill-rule:evenodd;clip-rule:evenodd;stroke-linejoin:round;stroke-miterlimit:1.41421;">
    <g transform="matrix(1.47445,0,0,1.47445,-125.537,-123.683)">
        <path d="M332.615,235.15C330.448,235.15 328.317,235.312 326.213,235.56C317.01,197.167 282.482,168.62 241.264,168.62C200.043,168.62 165.521,197.17 156.305,235.56C154.214,235.312 152.08,235.15 149.913,235.15C120.025,235.15 95.793,259.376 95.793,289.267C95.793,319.151 120.025,343.38 149.916,343.38L332.617,343.38C362.505,343.38 386.737,319.151 386.737,289.267C386.735,259.376 362.503,235.15 332.615,235.15Z" style="fill:white;fill-rule:nonzero;"/>
    </g>
    <g transform="matrix(1.47445,0,0,1.47445,-125.537,-123.683)">
        <path d="M386.141,219.714C384.939,219.714 383.753,219.803 382.59,219.942C377.47,198.61 358.288,182.751 335.393,182.751C312.485,182.751 293.31,198.61 288.193,219.942C287.024,219.803 285.838,219.714 284.642,219.714C268.033,219.714 254.569,233.175 254.569,249.78C254.569,266.385 268.03,279.846 284.642,279.846L386.144,279.846C402.749,279.846 416.21,266.385 416.21,249.78C416.21,233.175 402.749,219.714 386.141,219.714Z" style="fill:rgb(0,131,192);fill-rule:nonzero;"/>
    </g>
    <g transform="matrix(1.47445,0,0,1.47445,-125.537,-123.683)">
        <path d="M307.474,231.173C306.965,231.173 306.443,231.11 305.928,230.985C302.38,230.136 300.194,226.572 301.043,223.024C304.862,207.089 318.989,195.964 335.393,195.964C339.04,195.964 341.999,198.924 341.999,202.57C341.999,206.216 339.039,209.176 335.393,209.176C325.123,209.176 316.281,216.136 313.892,226.102C313.166,229.135 310.457,231.173 307.474,231.173Z" style="fill:white;fill-rule:nonzero;"/>
    </g>
</svg>
