<svg version="1.1" xmlns="http://www.w3.org/2000/svg" xmlns:xlink="http://www.w3.org/1999/xlink" x="0px" y="0px" viewBox="0 0 1000 1000" enable-background="new 0 0 1000 1000" xml:space="preserve">
<g><path d="M81.5,647.7C11,409.2,148.6,158.9,388.6,88.9c106.5-31.1,215.5-21.4,309.8,19.8c-4.9,6.9-9.5,14-13.7,21c-46.1-10.7-81.4,3.8-90.2,43.3c-13.9,62.1,42.9,162.8,126.6,224.7c83.7,61.9,162.9,61.7,176.8-0.4c3.5-15.9,2.5-34.4-2.5-54.1c9.7-5.8,19.2-12.3,28.6-19.3c10.9,22.2,20,45.6,27.3,70.1c70.5,238.4-67.1,488.8-307.1,558.8S151.9,886.1,81.5,647.7z M667.1,204.7c0.4-0.4,0.7-0.7,1-1.1C776.9,92.3,912.3,26.4,970.4,56.4c58.1,30.1-25.5,176.7-91.7,256.3c-20.1,20.6-41.2,39.7-62.5,56.8C742.2,343.2,686.1,282.8,667.1,204.7L667.1,204.7z M11,108.5C0.7,28.8,68.9,4.9,163.2,55.2c22.4,11.9,44.3,27,64.7,44.1c-56.2,38.6-104.5,90.4-139.5,154C46.4,206.7,16.9,153.5,11,108.5z"/></g>
</svg>
