<?xml version="1.0" encoding="utf-8"?>
<!-- Generator: Adobe Illustrator 18.1.0, SVG Export Plug-In . SVG Version: 6.00 Build 0)  -->
<svg version="1.1" id="Gopher" xmlns="http://www.w3.org/2000/svg" xmlns:xlink="http://www.w3.org/1999/xlink" x="0px" y="0px"
	 viewBox="0 0 215.6 281.6" enable-background="new 0 0 215.6 281.6" xml:space="preserve">
<g>
	<path fill="#8CC5E7" d="M207.3,44.6c-6.7-13.7-22.9-1.6-27-5.9c-21-21.6-46.4-27-66.3-28c0,0-9,0-11,0c-20,0.5-45.4,6.3-66.3,28
		c-4.1,4.3-20.4-7.8-27,5.9c-7.7,16,15.7,17.6,14.5,24.7c-2.3,12.8-0.8,31.8,1,50.5C28,151.5,4.3,227.4,53.6,257.9
		c9.3,5.8,34.4,9,56.2,9.5l0,0c0,0,0.1,0,0.1,0c0,0,0.1,0,0.1,0l0,0c21.8-0.5,43.9-3.7,53.2-9.5c49.4-30.5,25.7-106.4,28.6-138.1
		c1.7-18.7,3.2-37.7,1-50.5C191.6,62.2,215,60.5,207.3,44.6z"/>
	<g>
		<path fill="#E0DEDC" d="M143.2,54.3c-33.4,3.9-28.9,38.7-16,50c24,21,49,0,46.2-21.2C170.9,62.7,153.6,53.1,143.2,54.3z"/>
		<circle fill="#111212" cx="145.5" cy="84.3" r="11.4"/>
		<circle fill="#FFFFFF" cx="142.5" cy="79.4" r="3.6"/>
	</g>
	<g>
		<path fill="#B8937F" d="M108.5,107c-16,2.4-21.7,7-20.5,14.2c2,11.8,39.7,10.5,40.9,0.6C129.9,113.3,114.8,106.1,108.5,107z"/>
		<path d="M98.2,111.8c-2.7,9.8,21.7,8.3,21.1,2c-0.3-3.7-3.6-8.4-12.3-8.2C103.6,105.7,99.4,107.2,98.2,111.8z"/>
		<path fill="#E0DEDC" d="M99,127.7c-0.9,0.4-2.4,10.2,2.2,10.7c3.1,0.3,11.6,1.3,13.6,0c3.9-2.5,3.5-8.5,1.3-10
			C112.4,126,100,127.2,99,127.7z"/>
	</g>
	<g>
		<path fill="#E0DEDC" d="M73.6,54.3c33.4,3.9,28.9,38.7,16,50c-24,21-49,0-46.2-21.2C46,62.7,63.3,53.1,73.6,54.3z"/>
		<circle fill="#111212" cx="71.4" cy="84.3" r="11.4"/>
		<circle fill="#FFFFFF" cx="74.4" cy="79.4" r="3.6"/>
	</g>
	<path fill="#B8937F" d="M193.6,186.7c11,0.1,5.6-23.5-1.2-18.8c-3.3,2.3-3.9,7.6-3.9,12.1C188.5,182.5,190.5,186.6,193.6,186.7z"/>
	<path fill="#B8937F" d="M23.3,186.7c-11,0.1-5.6-23.5,1.2-18.8c3.3,2.3,3.9,7.6,3.9,12.1C28.4,182.5,26.4,186.6,23.3,186.7z"/>
	<path fill="#B8937F" d="M172.7,259.2c-6-8.9-11.4-2-20.1,2.4c-4.1,2.1,6.8,9.6,19,4C174.8,264.1,174.7,262.1,172.7,259.2z"/>
	<path fill="#B8937F" d="M44.2,260.2c6-8.9,11.4-2,20.1,2.4c4.1,2.1-6.8,9.6-19,4C42.1,265.1,42.2,263.1,44.2,260.2z"/>
	<path fill="#3C89BF" d="M188.6,47c-0.6,2.1,2.1,1.8,3.1,8.3c0.4,2.4,9-3.5,5.5-7.8C194.3,43.9,189.1,44.9,188.6,47z"/>
	<path fill="#3C89BF" d="M28.3,47c0.6,2.1-2.1,1.8-3.1,8.3c-0.4,2.4-9-3.5-5.5-7.8C22.5,43.9,27.7,44.9,28.3,47z"/>
</g>
</svg>
