<?xml version="1.0" encoding="utf-8"?>
<!-- Svg Vector Icons : http://www.onlinewebfonts.com/icon -->
<!DOCTYPE svg PUBLIC "-//W3C//DTD SVG 1.1//EN" "http://www.w3.org/Graphics/SVG/1.1/DTD/svg11.dtd">
<svg version="1.1" xmlns="http://www.w3.org/2000/svg" xmlns:xlink="http://www.w3.org/1999/xlink" x="0px" y="0px" viewBox="0 0 1000 1000" enable-background="new 0 0 1000 1000" xml:space="preserve">
<metadata> Svg Vector Icons : http://www.onlinewebfonts.com/icon </metadata>
<g><g><path d="M919.3,193.8H80.7c-39,0-70.7,31.7-70.7,70.7v471.2c0,39,31.7,70.7,70.7,70.7h838.7c39,0,70.7-31.7,70.7-70.7V264.4C990,225.5,958.3,193.8,919.3,193.8z M561.3,683.6l-122.5,0.1V500l-91.9,117.8L255,500v183.8H132.5V316.3H255l91.9,122.5l91.9-122.5l122.5-0.1V683.6z M744.1,714.3L591.9,500h91.9V316.3h122.5V500h91.9L744.1,714.3z"/></g></g>
</svg>