<svg id="content-icon" class="focus-row-icon"width="100%" height="100%" viewBox="0 0 512 512" version="1.1" xmlns="http://www.w3.org/2000/svg" xmlns:xlink="http://www.w3.org/1999/xlink" xml:space="preserve" style="fill-rule:evenodd;clip-rule:evenodd;stroke-linejoin:round;stroke-miterlimit:1.41421;">
    <circle id="content-halo" cx="256" cy="256" r="256" style="fill:rgb(252,216,4);"/>
    <path d="M256,100.748C197.49,100.758 150.082,148.166 150.082,206.676C150.082,237.664 163.414,265.546 184.617,284.923C185.621,285.759 186.625,286.641 187.666,287.552C204.215,302.651 214.604,324.36 214.604,348.503L214.604,357.719L297.396,357.719L297.396,348.503C297.396,324.356 307.762,302.651 324.36,287.552C325.371,286.64 326.378,285.758 327.386,284.923C348.56,265.546 361.918,237.66 361.918,206.676C361.918,148.166 314.513,100.758 256,100.748Z" style="fill:white;fill-rule:nonzero;"/>
    <path d="M327.019,206.67C327.019,245.883 295.212,277.65 256.013,277.65C216.764,277.653 184.98,245.886 184.98,206.67C184.98,167.461 216.764,135.614 256.013,135.614C295.213,135.617 327.019,167.46 327.019,206.67Z" style="fill:rgb(230,229,229);fill-rule:nonzero;"/>
    <path d="M256.017,437.677L227.378,420.587L284.652,420.587L256.017,437.677Z" style="fill:white;fill-rule:nonzero;"/>
    <path d="M303.167,413.851C303.167,415.572 302.51,417.296 301.192,418.611C299.874,419.926 298.153,420.586 296.432,420.586L215.572,420.586C213.851,420.586 212.123,419.929 210.809,418.611C209.495,417.293 208.834,415.572 208.834,413.851L208.834,357.72L303.171,357.72L303.171,413.852L303.167,413.852L303.167,413.851Z" style="fill:rgb(52,59,67);fill-rule:nonzero;"/>
    <g>
        <rect x="208.83" y="364.709" width="94.337" height="6.95" style="fill:rgb(73,80,87);"/>
        <rect x="208.83" y="378.682" width="94.337" height="6.976" style="fill:rgb(73,80,87);"/>
        <rect x="208.83" y="392.621" width="94.337" height="6.98" style="fill:rgb(73,80,87);"/>
        <rect x="208.83" y="406.594" width="94.337" height="7.016" style="fill:rgb(73,80,87);"/>
    </g>
    <rect x="229.574" y="252.366" width="17.606" height="105.353" style="fill:rgb(253,131,105);"/>
    <rect x="247.18" y="252.366" width="17.613" height="105.353" style="fill:rgb(234,101,82);"/>
    <rect x="264.787" y="252.366" width="17.616" height="105.353" style="fill:rgb(226,79,59);"/>
    <path d="M282.426,252.37L264.773,221.864L247.207,221.864L229.601,252.37L282.426,252.37Z" style="fill:white;fill-rule:nonzero;"/>
    <path d="M264.773,221.864L255.97,206.633L247.207,221.864L264.773,221.864Z" style="fill:rgb(52,59,67);fill-rule:nonzero;"/>
</svg>
