<svg id="idea-icon" class="focus-row-icon" width="100%" height="100%" viewBox="0 0 512 512" version="1.1" xmlns="http://www.w3.org/2000/svg" xmlns:xlink="http://www.w3.org/1999/xlink" xml:space="preserve" style="fill-rule:evenodd;clip-rule:evenodd;stroke-linejoin:round;stroke-miterlimit:1.41421;">
    <path d="M466.287,256C466.287,372.142 372.148,466.281 256.001,466.281C139.867,466.281 45.715,372.145 45.715,256C45.715,139.853 139.867,45.719 256.001,45.719C372.146,45.719 466.287,139.853 466.287,256Z" style="fill:rgb(242,242,242);fill-rule:nonzero;"/>
    <path d="M213.597,97.925C232.469,97.925 247.681,113.142 247.681,132.022L247.681,379.945C247.681,395.525 237.277,408.655 222.987,412.71C222.987,412.71 222.954,412.741 222.91,412.71C221.896,412.992 220.862,413.196 219.674,413.419C218.499,413.685 217.196,413.841 215.783,413.903C215.102,414.046 214.321,414.046 213.597,414.046C195.498,414.046 181.369,400.598 179.697,383.38L179.697,383.342C174.917,385.902 169.329,387.435 163.536,387.435C144.758,387.435 129.442,372.17 129.442,353.28C129.442,349.284 130.266,345.244 131.508,341.676C130.827,341.676 130.136,341.712 129.442,341.712C110.662,341.712 95.386,326.49 95.386,307.618C95.386,299.267 98.389,291.741 103.337,285.781C92.808,279.998 85.701,268.811 85.701,255.983C85.701,241.696 94.5,229.451 106.969,224.444C101.176,218.323 97.62,210.054 97.62,200.992C97.62,182.209 112.919,166.926 131.699,166.926L132.324,166.926C131.472,163.982 130.985,160.654 130.985,157.375C130.985,138.6 146.301,123.312 165.082,123.312C170.176,123.312 175.614,124.531 179.994,126.558C182.58,110.316 196.671,97.925 213.597,97.925Z" style="fill:rgb(5,148,203);fill-rule:nonzero;"/>
    <g>
        <path d="M175.389,132.019C175.389,153.121 192.518,170.281 213.61,170.281C215.919,170.281 217.793,168.41 217.793,166.09C217.793,163.83 215.919,161.979 213.61,161.979C197.078,161.979 183.65,148.539 183.65,132.019C183.65,115.489 197.077,102.044 213.61,102.044C230.122,102.044 243.567,115.489 243.567,132.019L243.567,379.983C243.567,396.51 230.122,409.956 213.61,409.956C197.078,409.956 183.65,396.511 183.65,379.983C183.65,363.463 197.077,350.023 213.61,350.023C215.919,350.023 217.793,348.172 217.793,345.914C217.793,343.595 215.919,341.721 213.61,341.721C192.518,341.721 175.389,358.878 175.389,379.983C175.389,401.077 192.518,418.199 213.61,418.199C234.707,418.199 251.874,401.078 251.874,379.983L251.874,132.019C251.874,110.922 234.704,93.801 213.61,93.801C192.518,93.801 175.389,110.922 175.389,132.019Z" style="fill:rgb(0,131,192);fill-rule:nonzero;"/>
        <path d="M163.565,391.578C142.448,391.578 125.342,374.398 125.342,353.291C125.342,348.839 126.084,344.423 127.597,340.253C128.416,338.087 130.792,336.945 132.899,337.747C135.083,338.482 136.222,340.868 135.403,343.044C134.213,346.321 133.588,349.825 133.588,353.289C133.588,369.814 147.031,383.267 163.566,383.267C168.499,383.267 173.404,382.061 177.7,379.716C179.735,378.633 182.247,379.37 183.388,381.388C184.456,383.426 183.728,385.935 181.701,386.997C176.132,390.011 169.865,391.578 163.565,391.578Z" style="fill:rgb(0,131,192);fill-rule:nonzero;"/>
        <path d="M129.463,345.805C108.358,345.805 91.265,328.704 91.265,307.617C91.265,298.716 94.378,290.038 100.133,283.125C101.556,281.384 104.198,281.164 105.939,282.616C107.677,284.093 107.959,286.697 106.469,288.417C101.986,293.821 99.501,300.628 99.501,307.62C99.501,324.135 112.949,337.58 129.466,337.58C130.091,337.58 130.638,337.58 131.181,337.465C147.033,336.582 159.431,323.454 159.431,307.621C159.431,305.355 161.292,303.505 163.568,303.505C165.877,303.505 167.728,305.358 167.728,307.621C167.728,327.848 151.907,344.582 131.798,345.762C131.096,345.787 130.272,345.805 129.463,345.805Z" style="fill:rgb(0,131,192);fill-rule:nonzero;"/>
        <path d="M214.24,311.734C211.905,311.734 210.052,309.873 210.052,307.618C210.052,295.901 200.608,286.442 188.883,286.442C177.174,286.442 167.725,295.901 167.725,307.618C167.725,309.876 165.872,311.734 163.565,311.734C161.289,311.734 159.428,309.873 159.428,307.618C159.428,291.385 172.658,278.142 188.883,278.142C205.121,278.142 218.349,291.385 218.349,307.618C218.351,309.875 216.498,311.734 214.24,311.734Z" style="fill:rgb(0,131,192);fill-rule:nonzero;"/>
        <path d="M119.779,294.198C98.761,294.198 81.584,277.079 81.584,255.998C81.584,234.881 98.759,217.721 119.779,217.721C140.889,217.721 158.061,234.881 158.061,255.998C158.061,258.241 156.195,260.117 153.916,260.117C151.615,260.117 149.736,258.241 149.736,255.998C149.736,239.466 136.306,226.028 119.776,226.028C103.272,226.028 89.87,239.465 89.87,255.998C89.87,272.513 103.272,285.94 119.776,285.94C122.103,285.94 123.967,287.806 123.967,290.079C123.969,292.393 122.106,294.198 119.779,294.198Z" style="fill:rgb(0,131,192);fill-rule:nonzero;"/>
        <path d="M106.958,228.559C105.89,228.559 104.772,228.098 103.935,227.23C97.225,220.108 93.506,210.818 93.506,200.995C93.506,179.888 110.681,162.784 131.778,162.784C132.016,162.784 132.344,162.784 132.638,162.792C150.778,163.053 166.366,175.149 168.596,190.908C170.127,201.714 177.29,212.622 189.79,212.622C192.107,212.622 193.953,214.486 193.953,216.805C193.953,219.058 192.107,220.927 189.79,220.927C174.625,220.927 162.828,209.317 160.404,192.078C158.551,179.181 144.64,171.234 132.305,171.04L131.775,171.032C115.253,171.032 101.803,184.472 101.803,200.992C101.803,208.662 104.688,215.971 109.987,221.58C111.556,223.249 111.503,225.83 109.846,227.389C109.006,228.188 107.985,228.559 106.958,228.559Z" style="fill:rgb(0,131,192);fill-rule:nonzero;"/>
        <path d="M132.351,171.044C130.587,171.044 128.913,169.846 128.409,168.092C127.38,164.592 126.865,160.993 126.865,157.378C126.865,136.289 143.979,119.19 165.06,119.19C170.961,119.19 176.498,120.437 181.741,122.974C183.797,123.988 184.631,126.494 183.638,128.545C182.637,130.603 180.182,131.445 178.131,130.432C174.053,128.443 169.655,127.432 165.062,127.432C148.558,127.432 135.12,140.859 135.12,157.381C135.12,160.256 135.56,163.028 136.308,165.75C136.956,167.964 135.719,170.286 133.525,170.867C133.155,171.018 132.73,171.044 132.351,171.044Z" style="fill:rgb(0,131,192);fill-rule:nonzero;"/>
    </g>
    <path d="M298.4,97.925C279.523,97.925 264.298,113.142 264.298,132.022L264.298,379.945C264.298,395.525 274.717,408.655 289.017,412.71C289.017,412.71 289.045,412.741 289.086,412.71C290.1,412.992 291.149,413.196 292.309,413.419C293.499,413.685 294.795,413.841 296.21,413.903C296.891,414.046 297.682,414.046 298.396,414.046C316.488,414.046 330.629,400.598 332.29,383.38L332.29,383.342C337.064,385.902 342.666,387.435 348.449,387.435C367.247,387.435 382.551,372.17 382.551,353.28C382.551,349.284 381.729,345.244 380.48,341.676C381.174,341.676 381.855,341.712 382.551,341.712C401.326,341.712 416.622,326.49 416.622,307.618C416.622,299.267 413.606,291.741 408.671,285.781C419.203,279.998 426.281,268.811 426.281,255.983C426.281,241.696 417.498,229.451 405.028,224.444C410.814,218.323 414.375,210.054 414.375,200.992C414.375,182.209 399.069,166.926 380.281,166.926L379.679,166.926C380.529,163.982 381.013,160.654 381.013,157.375C381.013,138.6 365.704,123.312 346.919,123.312C341.804,123.312 336.382,124.531 332.01,126.558C329.419,110.316 315.311,97.925 298.4,97.925Z" style="fill:rgb(5,148,203);fill-rule:nonzero;"/>
    <g>
        <path d="M336.608,132.019C336.608,153.121 319.418,170.281 298.39,170.281C296.071,170.281 294.199,168.41 294.199,166.09C294.199,163.83 296.068,161.979 298.39,161.979C314.912,161.979 328.339,148.539 328.339,132.019C328.339,115.489 314.912,102.044 298.39,102.044C281.875,102.044 268.433,115.489 268.433,132.019L268.433,379.983C268.433,396.51 281.876,409.956 298.39,409.956C314.912,409.956 328.339,396.511 328.339,379.983C328.339,363.463 314.912,350.023 298.39,350.023C296.071,350.023 294.199,348.172 294.199,345.914C294.199,343.595 296.068,341.721 298.39,341.721C319.418,341.721 336.608,358.878 336.608,379.983C336.608,401.077 319.418,418.199 298.39,418.199C277.285,418.199 260.123,401.078 260.123,379.983L260.123,132.019C260.123,110.922 277.285,93.801 298.39,93.801C319.418,93.801 336.608,110.922 336.608,132.019Z" style="fill:rgb(0,131,192);fill-rule:nonzero;"/>
        <path d="M348.435,391.578C369.488,391.578 386.653,374.398 386.653,353.291C386.653,348.839 385.926,344.423 384.387,340.253C383.578,338.087 381.215,336.945 379.037,337.747C376.912,338.482 375.778,340.868 376.605,343.044C377.777,346.321 378.351,349.825 378.351,353.289C378.351,369.814 364.975,383.267 348.435,383.267C343.435,383.267 338.592,382.061 334.294,379.716C332.264,378.633 329.735,379.37 328.624,381.388C327.546,383.426 328.273,385.935 330.288,386.997C335.863,390.011 342.138,391.578 348.435,391.578Z" style="fill:rgb(0,131,192);fill-rule:nonzero;"/>
        <path d="M382.539,345.805C403.646,345.805 420.732,328.704 420.732,307.617C420.732,298.716 417.622,290.038 411.864,283.125C410.443,281.384 407.786,281.164 406.06,282.616C404.312,284.093 404.043,286.697 405.53,288.417C410.007,293.821 412.506,300.628 412.506,307.62C412.506,324.135 399.051,337.58 382.539,337.58C381.914,337.58 381.359,337.58 380.803,337.465C364.964,336.582 352.569,323.454 352.569,307.621C352.569,305.355 350.716,303.505 348.437,303.505C346.125,303.505 344.274,305.358 344.274,307.621C344.274,327.848 360.079,344.582 380.219,345.762C380.899,345.787 381.731,345.805 382.539,345.805Z" style="fill:rgb(0,131,192);fill-rule:nonzero;"/>
        <path d="M297.75,311.734C300.092,311.734 301.938,309.873 301.938,307.618C301.938,295.901 311.397,286.442 323.114,286.442C334.803,286.442 344.275,295.901 344.275,307.618C344.275,309.876 346.126,311.734 348.438,311.734C350.719,311.734 352.57,309.873 352.57,307.618C352.57,291.385 339.33,278.142 323.115,278.142C306.874,278.142 293.654,291.385 293.654,307.618C293.654,309.875 295.5,311.734 297.75,311.734Z" style="fill:rgb(0,131,192);fill-rule:nonzero;"/>
        <path d="M392.227,294.198C413.242,294.198 430.415,277.079 430.415,255.998C430.415,234.881 413.242,217.721 392.227,217.721C371.11,217.721 353.937,234.881 353.937,255.998C353.937,258.241 355.798,260.117 358.079,260.117C360.373,260.117 362.257,258.241 362.257,255.998C362.257,239.466 375.694,226.028 392.227,226.028C408.731,226.028 422.118,239.465 422.118,255.998C422.118,272.513 408.732,285.94 392.227,285.94C389.892,285.94 388.031,287.806 388.031,290.079C388.031,292.393 389.892,294.198 392.227,294.198Z" style="fill:rgb(0,131,192);fill-rule:nonzero;"/>
        <path d="M405.029,228.559C406.107,228.559 407.233,228.098 408.063,227.23C414.765,220.108 418.492,210.818 418.492,200.995C418.492,179.888 401.312,162.784 380.228,162.784C379.982,162.784 379.665,162.784 379.358,162.792C361.228,163.053 345.64,175.149 343.4,190.908C341.867,201.714 334.716,212.622 322.213,212.622C319.886,212.622 318.053,214.486 318.053,216.805C318.053,219.058 319.886,220.927 322.213,220.927C337.366,220.927 349.178,209.317 351.594,192.078C353.447,179.181 367.358,171.234 379.7,171.04L380.23,171.032C396.734,171.032 410.19,184.472 410.19,200.992C410.19,208.662 407.292,215.971 402.003,221.58C400.441,223.249 400.493,225.83 402.167,227.389C402.984,228.188 404.005,228.559 405.029,228.559Z" style="fill:rgb(0,131,192);fill-rule:nonzero;"/>
        <path d="M379.665,171.044C381.413,171.044 383.085,169.846 383.595,168.092C384.616,164.592 385.134,160.993 385.134,157.378C385.134,136.289 368.026,119.19 346.931,119.19C341.038,119.19 335.493,120.437 330.265,122.974C328.209,123.988 327.365,126.494 328.36,128.545C329.358,130.603 331.803,131.445 333.864,130.432C337.945,128.443 342.335,127.432 346.93,127.432C363.434,127.432 376.877,140.859 376.877,157.381C376.877,160.256 376.437,163.028 375.694,165.75C375.036,167.964 376.275,170.286 378.474,170.867C378.835,171.018 379.273,171.044 379.665,171.044Z" style="fill:rgb(0,131,192);fill-rule:nonzero;"/>
    </g>
    <g>
        <rect x="252.236" y="0" width="7.511" height="28.063" style="fill:rgb(53,63,73);"/>
        <path d="M199.072,6.387L206.455,4.8L212.271,32.282L204.924,33.83L199.072,6.387Z" style="fill:rgb(53,63,73);fill-rule:nonzero;"/>
        <path d="M148.433,23.662L155.306,20.605L166.744,46.246L159.843,49.306L148.433,23.662Z" style="fill:rgb(53,63,73);fill-rule:nonzero;"/>
        <path d="M102.499,51.085L108.553,46.669L125.062,69.394L118.977,73.81L102.499,51.085Z" style="fill:rgb(53,63,73);fill-rule:nonzero;"/>
        <path d="M63.233,87.501L68.261,81.907L89.123,100.685L84.079,106.281L63.233,87.501Z" style="fill:rgb(53,63,73);fill-rule:nonzero;"/>
        <path d="M32.403,131.246L36.164,124.739L60.476,138.77L56.716,145.334L32.403,131.246Z" style="fill:rgb(53,63,73);fill-rule:nonzero;"/>
        <path d="M11.365,180.477L13.682,173.325L40.367,181.988L38.058,189.158L11.365,180.477Z" style="fill:rgb(53,63,73);fill-rule:nonzero;"/>
        <path d="M1.007,232.996L1.78,225.475L29.682,228.442L28.906,235.912L1.007,232.996Z" style="fill:rgb(53,63,73);fill-rule:nonzero;"/>
        <path d="M1.007,279.009L28.906,276.096L29.682,283.566L1.78,286.525L1.007,279.009Z" style="fill:rgb(53,63,73);fill-rule:nonzero;"/>
        <path d="M11.365,331.538L38.058,322.883L40.367,330.015L13.682,338.685L11.365,331.538Z" style="fill:rgb(53,63,73);fill-rule:nonzero;"/>
        <g transform="matrix(0.8661,-0.4999,0.4999,0.8661,-182.244,73.6972)">
            <rect x="32.397" y="373.243" width="28.071" height="7.527" style="fill:rgb(53,63,73);"/>
        </g>
        <g transform="matrix(0.743,-0.6693,0.6693,0.743,-260.139,158.394)">
            <rect x="62.142" y="414.165" width="28.068" height="7.524" style="fill:rgb(53,63,73);"/>
        </g>
        <path d="M102.499,460.913L118.985,438.213L125.062,442.609L108.573,465.331L102.499,460.913Z" style="fill:rgb(53,63,73);fill-rule:nonzero;"/>
        <path d="M148.433,488.346L159.843,462.712L166.744,465.774L155.306,491.412L148.433,488.346Z" style="fill:rgb(53,63,73);fill-rule:nonzero;"/>
        <path d="M199.072,505.669L204.924,478.188L212.271,479.775L206.455,507.197L199.072,505.669Z" style="fill:rgb(53,63,73);fill-rule:nonzero;"/>
        <rect x="252.236" y="483.942" width="7.511" height="28.055" style="fill:rgb(53,63,73);"/>
        <path d="M299.677,479.775L307.06,478.188L312.925,505.669L305.545,507.197L299.677,479.775Z" style="fill:rgb(53,63,73);fill-rule:nonzero;"/>
        <path d="M345.302,465.774L352.147,462.712L363.565,488.346L356.678,491.412L345.302,465.774Z" style="fill:rgb(53,63,73);fill-rule:nonzero;"/>
        <path d="M386.927,442.609L393.01,438.213L409.545,460.913L403.427,465.331L386.927,442.609Z" style="fill:rgb(53,63,73);fill-rule:nonzero;"/>
        <g transform="matrix(0.6692,-0.7431,0.7431,0.6692,-166.397,462.098)">
            <rect x="432.046" y="403.908" width="7.514" height="28.058" style="fill:rgb(53,63,73);"/>
        </g>
        <path d="M451.521,373.248L455.267,366.748L479.592,380.759L475.826,387.272L451.521,373.248Z" style="fill:rgb(53,63,73);fill-rule:nonzero;"/>
        <path d="M471.622,330.015L473.939,322.893L500.632,331.538L498.308,338.685L471.622,330.015Z" style="fill:rgb(53,63,73);fill-rule:nonzero;"/>
        <path d="M482.31,283.584L483.083,276.116L510.99,279.009L510.219,286.525L482.31,283.584Z" style="fill:rgb(53,63,73);fill-rule:nonzero;"/>
        <path d="M482.31,228.444L510.209,225.475L510.99,232.996L483.091,235.919L482.31,228.444Z" style="fill:rgb(53,63,73);fill-rule:nonzero;"/>
        <path d="M471.622,181.993L498.308,173.325L500.632,180.477L473.96,189.158L471.622,181.993Z" style="fill:rgb(53,63,73);fill-rule:nonzero;"/>
        <path d="M451.529,138.783L475.826,124.754L479.592,131.261L455.295,145.334L451.529,138.783Z" style="fill:rgb(53,63,73);fill-rule:nonzero;"/>
        <path d="M422.895,100.685L443.741,81.907L448.756,87.501L427.918,106.281L422.895,100.685Z" style="fill:rgb(53,63,73);fill-rule:nonzero;"/>
        <path d="M386.953,69.394L403.427,46.679L409.545,51.098L393.038,73.81L386.953,69.394Z" style="fill:rgb(53,63,73);fill-rule:nonzero;"/>
        <path d="M345.302,46.239L356.678,20.621L363.565,23.662L352.17,49.298L345.302,46.239Z" style="fill:rgb(53,63,73);fill-rule:nonzero;"/>
        <path d="M299.739,32.282L305.545,4.813L312.925,6.387L307.071,33.83L299.739,32.282Z" style="fill:rgb(53,63,73);fill-rule:nonzero;"/>
    </g>
</svg>
