<svg fill="#777" stroke="#fff" width="100pt" height="100pt" version="1.1" viewBox="0 0 100 100" xmlns="http://www.w3.org/2000/svg">
 <g>
  <path d="m28.332 63.332h3.332v3.332h-3.332z"/>
  <path d="m28.332 76.668h3.332v3.332h-3.332z"/>
  <path d="m28.332 90h3.332v3.332h-3.332z"/>
  <path d="m25 56.668c-1.8438 0-3.332 1.4922-3.332 3.332v36.668c0 1.8398 1.4883 3.332 3.332 3.332h30c1.8438 0 3.332-1.4922 3.332-3.332v-36.668c0-1.8398-1.4883-3.332-3.332-3.332zm30 40h-30v-10h30zm0-13.336h-30v-10h30zm0-23.332v10h-30v-10z"/>
  <path d="m5 43.332h30c1.8438 0 3.332-1.4922 3.332-3.332v-36.668c0-1.8398-1.4883-3.332-3.332-3.332h-30c-1.8438 0-3.332 1.4922-3.332 3.332v36.668c0 1.8398 1.4883 3.332 3.332 3.332zm0-40h30v10h-30zm0 13.336h30v10h-30zm0 13.332h30v10h-30z"/>
  <path d="m8.332 6.668h3.332v3.332h-3.332z"/>
  <path d="m8.332 20h3.332v3.332h-3.332z"/>
  <path d="m8.332 33.332h3.332v3.332h-3.332z"/>
  <path d="m65 60h30c1.8438 0 3.332-1.4922 3.332-3.332v-36.668c0-1.8398-1.4883-3.332-3.332-3.332h-30c-1.8438 0-3.332 1.4922-3.332 3.332v36.668c0 1.8398 1.4883 3.332 3.332 3.332zm0-40h30v10h-30zm0 13.332h30v10h-30zm0 13.336h30v10h-30z"/>
  <path d="m68.332 23.332h3.332v3.332h-3.332z"/>
  <path d="m68.332 36.668h3.332v3.332h-3.332z"/>
  <path d="m68.332 50h3.332v3.332h-3.332z"/>
  <path d="m41.668 3.332h3.332v3.332h-3.332z"/>
  <path d="m48.332 3.332h3.332v3.332h-3.332z"/>
  <path d="m55 3.332h3.332v3.332h-3.332z"/>
  <path d="m61.668 3.332h3.332v3.332h-3.332z"/>
  <path d="m68.332 3.332h3.332v3.332h-3.332z"/>
  <path d="m75 3.332h3.332v3.332h-3.332z"/>
  <path d="m75 10h3.332v3.332h-3.332z"/>
  <path d="m81.668 70h3.332v3.332h-3.332z"/>
  <path d="m88.332 70h3.332v3.332h-3.332z"/>
  <path d="m88.332 63.332h3.332v3.332h-3.332z"/>
  <path d="m75 70h3.332v3.332h-3.332z"/>
  <path d="m68.332 70h3.332v3.332h-3.332z"/>
  <path d="m61.668 70h3.332v3.332h-3.332z"/>
  <path d="m8.332 46.668h3.332v3.332h-3.332z"/>
  <path d="m8.332 53.332h3.332v3.332h-3.332z"/>
  <path d="m8.332 60h3.332v3.332h-3.332z"/>
  <path d="m8.332 66.668h3.332v3.332h-3.332z"/>
  <path d="m8.332 73.332h3.332v3.332h-3.332z"/>
  <path d="m8.332 80h3.332v3.332h-3.332z"/>
  <path d="m15 80h3.332v3.332h-3.332z"/>
 </g>
</svg>
