<?xml version="1.0" encoding="UTF-8" standalone="no"?>
<!DOCTYPE svg PUBLIC "-//W3C//DTD SVG 1.1//EN" "http://www.w3.org/Graphics/SVG/1.1/DTD/svg11.dtd">
<svg width="100%" height="100%" viewBox="0 0 512 512" version="1.1" xmlns="http://www.w3.org/2000/svg" xmlns:xlink="http://www.w3.org/1999/xlink" xml:space="preserve" style="fill-rule:evenodd;clip-rule:evenodd;stroke-linejoin:round;stroke-miterlimit:1.41421;">
    <circle cx="255.996" cy="255.996" r="255.996" style="fill:rgb(115,115,115);"/>
    <g transform="matrix(1.46332,0,0,1.46332,-118.606,-118.61)">
        <circle cx="256" cy="256" r="153.078" style="fill:rgb(0,131,192);"/>
    </g>
    <g>
        <rect x="249.942" y="239.346" width="12.097" height="147.1" style="fill:rgb(252,216,4);"/>
        <rect x="132.681" y="373.368" width="246.64" height="12.097" style="fill:rgb(252,216,4);"/>
    </g>
    <circle cx="255.996" cy="379.421" r="19.525" style="fill:rgb(0,168,138);"/>
    <path d="M255.997,359.891C266.78,359.891 275.522,368.634 275.522,379.416C275.522,390.116 266.916,398.808 256.248,398.938L255.996,398.938L255.996,359.887L255.997,359.891Z" style="fill:rgb(0,168,138);fill-rule:nonzero;"/>
    <path d="M134.091,238.331C136.256,238.331 138.393,238.468 140.489,238.73C138.831,233.106 137.931,227.153 137.931,220.988C137.931,186.39 165.976,158.345 200.571,158.345C206.912,158.345 213.033,159.291 218.801,161.046C231.145,132.8 259.326,113.055 292.123,113.055C336.298,113.055 372.112,148.865 372.112,193.041C372.112,207.424 368.314,220.914 361.672,232.577C365.718,231.609 369.94,231.099 374.285,231.099C404.222,231.099 428.495,255.368 428.495,285.309C428.495,312.21 408.901,334.527 383.211,338.789L383.211,339.522L374.285,339.522L134.087,339.522C106.142,339.522 83.495,316.871 83.495,288.93C83.495,260.985 106.146,238.335 134.087,238.335L134.091,238.331Z" style="fill:rgb(247,247,248);fill-rule:nonzero;"/>
</svg>
