<?xml version="1.0" encoding="UTF-8" standalone="no"?>
<!DOCTYPE svg PUBLIC "-//W3C//DTD SVG 1.1//EN" "http://www.w3.org/Graphics/SVG/1.1/DTD/svg11.dtd">
<svg width="100%" height="100%" viewBox="0 0 512 512" version="1.1" xmlns="http://www.w3.org/2000/svg" xmlns:xlink="http://www.w3.org/1999/xlink" xml:space="preserve" style="fill-rule:evenodd;clip-rule:evenodd;stroke-linejoin:round;stroke-miterlimit:1.41421;">
    <g transform="matrix(1.13625,0,0,1.13625,-34.8793,-34.8782)">
        <path d="M256,30.696C131.776,30.696 30.704,131.768 30.704,256C30.704,380.224 131.776,481.296 256,481.296C380.232,481.296 481.304,380.224 481.304,256C481.304,131.768 380.232,30.696 256,30.696ZM203.656,274.208L166.944,274.208L166.944,177.368L127.584,217.496L101.384,191.936L185.304,106.376L269.216,191.936L243.016,217.496L203.656,177.368L203.656,274.208ZM326.696,405.704L242.784,320.144L268.984,294.584L308.344,334.712L308.344,237.872L345.056,237.872L345.056,334.712L384.416,294.584L410.616,320.144L326.696,405.704Z" style="fill:rgb(115,115,115);fill-rule:nonzero;"/>
    </g>
    <g transform="matrix(1.46332,0,0,1.46332,-118.606,-118.61)">
        <circle cx="256" cy="256" r="153.078" style="fill:rgb(0,131,192);"/>
    </g>
    <g transform="matrix(0.565777,0,0,0.565777,111.165,111.161)">
        <path d="M463.515,0L48.485,0L48.485,512L256,381.446L463.515,512L463.515,0Z" style="fill:rgb(255,64,136);fill-rule:nonzero;"/>
    </g>
    <g transform="matrix(0.565777,0,0,0.565777,111.165,111.161)">
        <path d="M388.692,162.487C387.81,159.771 384.934,157.259 380.179,156.972L295.445,151.308L263.874,72.471C262.132,68.038 258.853,66.079 255.998,66.079C253.143,66.079 249.864,68.038 248.122,72.471L216.551,151.308L131.817,156.972C127.062,157.259 124.186,159.771 123.304,162.487C122.422,165.202 123.272,168.926 126.949,171.952L192.171,226.339L171.374,308.675C170.177,313.285 171.679,316.799 173.987,318.476C176.296,320.153 180.101,320.494 184.116,317.932L256,272.712L327.88,317.934C331.895,320.496 335.699,320.155 338.009,318.478C340.319,316.8 341.819,313.286 340.622,308.677L319.825,226.341L385.046,171.954C388.725,168.926 389.575,165.201 388.692,162.487Z" style="fill:rgb(252,216,4);fill-rule:nonzero;"/>
    </g>
</svg>
