<?xml version="1.0" encoding="UTF-8" standalone="no"?>
<!DOCTYPE svg PUBLIC "-//W3C//DTD SVG 1.1//EN" "http://www.w3.org/Graphics/SVG/1.1/DTD/svg11.dtd">
<svg width="100%" height="100%" viewBox="0 0 512 512" version="1.1" xmlns="http://www.w3.org/2000/svg" xmlns:xlink="http://www.w3.org/1999/xlink" xml:space="preserve" style="fill-rule:evenodd;clip-rule:evenodd;stroke-linejoin:round;stroke-miterlimit:1.41421;">
    <circle cx="254.444" cy="256.182" r="254.828" style="fill:rgb(115,115,115);"/>
    <g transform="matrix(1.46332,0,0,1.46332,-118.606,-118.61)">
        <circle cx="256" cy="256" r="153.078" style="fill:rgb(0,131,192);"/>
    </g>
    <rect x="252.552" y="217.074" width="47.437" height="77.852" style="fill:rgb(201,47,0);"/>
    <g transform="matrix(1,0,0,1,1.64775,180.239)">
        <rect x="212.73" y="113.778" width="39.822" height="103.865" style="fill:rgb(235,185,81);"/>
    </g>
    <rect x="210.351" y="217.074" width="42.206" height="77.852" style="fill:rgb(255,84,25);"/>
    <rect x="133.982" y="215.609" width="80.794" height="80.794" style="fill:rgb(235,185,81);"/>
    <path d="M113.778,276.197L133.977,296.396L133.977,215.604L113.778,235.801L113.778,276.197Z" style="fill:rgb(255,198,27);fill-rule:nonzero;"/>
    <rect x="291.478" y="215.609" width="80.794" height="80.794" style="fill:rgb(255,84,25);"/>
    <path d="M392.475,235.801L372.276,215.602L372.277,296.396L392.475,276.197L392.475,235.801Z" style="fill:rgb(255,198,27);fill-rule:nonzero;"/>
    <rect x="212.73" y="113.778" width="39.822" height="103.865" style="fill:rgb(235,185,81);"/>
    <rect x="252.552" y="113.778" width="40.97" height="103.865" style="fill:rgb(255,84,25);"/>
    <path d="M232.927,93.579L212.73,113.778L252.552,113.778L252.552,93.579L232.927,93.579Z" style="fill:rgb(255,198,27);fill-rule:nonzero;"/>
    <path d="M273.325,93.579L252.552,93.579L252.552,113.778L293.523,113.778L273.325,93.579Z" style="fill:rgb(235,185,81);fill-rule:nonzero;"/>
    <rect x="252.552" y="294.357" width="40.97" height="103.865" style="fill:rgb(255,84,25);"/>
    <path d="M252.552,398.222L212.728,398.222L232.927,418.421L273.325,418.421L293.523,398.222L252.552,398.222Z" style="fill:rgb(255,198,27);fill-rule:nonzero;"/>
    <path d="M293.523,398.222L252.552,398.222L252.552,418.421L273.325,418.421L293.523,398.222Z" style="fill:rgb(235,185,81);fill-rule:nonzero;"/>
</svg>
