<?xml version="1.0" encoding="UTF-8" standalone="no"?>
<!DOCTYPE svg PUBLIC "-//W3C//DTD SVG 1.1//EN" "http://www.w3.org/Graphics/SVG/1.1/DTD/svg11.dtd">
<svg width="100%" height="100%" viewBox="0 0 512 512" version="1.1" xmlns="http://www.w3.org/2000/svg" xmlns:xlink="http://www.w3.org/1999/xlink" xml:space="preserve" style="fill-rule:evenodd;clip-rule:evenodd;stroke-linejoin:round;stroke-miterlimit:1.41421;">
    <circle cx="256" cy="256" r="256" style="fill:rgb(115,115,115);"/>
    <g transform="matrix(1.46332,0,0,1.46332,-118.606,-118.61)">
        <circle cx="256" cy="256" r="153.078" style="fill:rgb(0,131,192);"/>
    </g>
    <path d="M243.591,113.014C260.621,113.014 275.686,115.83 288.786,121.463C301.886,127.096 312.104,135.022 319.44,145.24C326.776,155.458 330.444,167.117 330.444,180.217C330.444,194.103 327.038,205.958 320.226,215.783C313.414,225.608 303.458,236.678 290.358,248.992C280.14,258.686 272.477,266.808 267.368,273.358C262.259,279.908 259.049,287.113 257.739,294.973L255.774,307.942L220.797,307.942L220.797,288.292C220.797,274.668 223.221,263.402 228.068,254.494C232.915,245.586 240.054,235.63 249.486,224.626C256.298,216.766 261.407,210.019 264.813,204.386C268.219,198.753 269.922,192.531 269.922,185.719C269.922,177.859 267.237,171.833 261.866,167.641C256.495,163.449 248.831,161.353 238.875,161.353C220.011,161.353 201.54,166.986 183.462,178.252L183.462,129.127C200.754,118.385 220.797,113.014 243.591,113.014ZM207.042,396.367L207.042,333.094L271.101,333.094L271.101,396.367L207.042,396.367Z" style="fill:white;fill-rule:nonzero;"/>
</svg>
