<?xml version="1.0" encoding="UTF-8" ?><!DOCTYPE svg PUBLIC "-//W3C//DTD SVG 1.1 Basic//EN" "http://www.w3.org/Graphics/SVG/1.1/DTD/svg11-basic.dtd">
<svg xmlns="http://www.w3.org/2000/svg" xmlns:xlink="http://www.w3.org/1999/xlink" width="88" height="31" viewBox="0 0 88 31" baseProfile="basic" version="1.1">
<g id="surface1">
<path style=" stroke:none;fill-rule:nonzero;fill:rgb(66.666667%,69.803922%,67.058824%);fill-opacity:1;" d="M 2.300781 0.375 L 85.429688 0.523438 C 86.589844 0.523438 87.628906 0.351563 87.628906 2.855469 L 87.527344 30.410156 L 0.203125 30.410156 L 0.203125 2.753906 C 0.203125 1.519531 0.324219 0.375 2.300781 0.375 Z "/>
<path style=" stroke:none;fill-rule:nonzero;fill:rgb(0%,0%,0%);fill-opacity:1;" d="M 86.351563 0 L 1.648438 0 C 0.738281 0 0 0.742188 0 1.65625 L 0 30.625 C 0 30.832031 0.167969 31 0.371094 31 L 87.628906 31 C 87.832031 31 88 30.832031 88 30.625 L 88 1.65625 C 88 0.742188 87.261719 0 86.351563 0 Z M 1.648438 0.75 L 86.351563 0.75 C 86.851563 0.75 87.253906 1.15625 87.253906 1.65625 C 87.253906 1.65625 87.253906 13.355469 87.253906 21.789063 L 26.515625 21.789063 C 24.296875 25.828125 20.023438 28.570313 15.117188 28.570313 C 10.207031 28.570313 5.933594 25.832031 3.714844 21.789063 L 0.746094 21.789063 C 0.746094 13.355469 0.746094 1.65625 0.746094 1.65625 C 0.746094 1.15625 1.148438 0.75 1.648438 0.75 Z "/>
<path style=" stroke:none;fill-rule:nonzero;fill:rgb(100%,100%,100%);fill-opacity:1;" d="M 54.125 24.171875 C 54.359375 24.171875 54.570313 24.191406 54.761719 24.230469 C 54.953125 24.273438 55.113281 24.339844 55.25 24.433594 C 55.386719 24.527344 55.492188 24.652344 55.566406 24.808594 C 55.640625 24.960938 55.679688 25.152344 55.679688 25.382813 C 55.679688 25.628906 55.625 25.832031 55.511719 25.996094 C 55.402344 26.160156 55.238281 26.296875 55.019531 26.402344 C 55.320313 26.488281 55.542969 26.640625 55.691406 26.855469 C 55.839844 27.074219 55.914063 27.335938 55.914063 27.640625 C 55.914063 27.886719 55.867188 28.101563 55.769531 28.28125 C 55.675781 28.460938 55.546875 28.609375 55.386719 28.722656 C 55.222656 28.835938 55.039063 28.921875 54.832031 28.976563 C 54.625 29.03125 54.414063 29.058594 54.195313 29.058594 L 51.835938 29.058594 L 51.835938 24.171875 Z M 53.988281 26.148438 C 54.179688 26.148438 54.335938 26.101563 54.460938 26.011719 C 54.582031 25.917969 54.644531 25.773438 54.644531 25.566406 C 54.644531 25.453125 54.625 25.359375 54.582031 25.289063 C 54.542969 25.214844 54.488281 25.15625 54.417969 25.117188 C 54.351563 25.074219 54.273438 25.046875 54.183594 25.03125 C 54.097656 25.015625 54.003906 25.007813 53.910156 25.007813 L 52.90625 25.007813 L 52.90625 26.148438 Z M 54.050781 28.222656 C 54.15625 28.222656 54.257813 28.210938 54.351563 28.191406 C 54.449219 28.171875 54.53125 28.136719 54.605469 28.089844 C 54.675781 28.039063 54.734375 27.976563 54.777344 27.894531 C 54.820313 27.8125 54.84375 27.707031 54.84375 27.578125 C 54.84375 27.328125 54.773438 27.148438 54.632813 27.042969 C 54.492188 26.933594 54.304688 26.882813 54.074219 26.882813 L 52.90625 26.882813 L 52.90625 28.222656 Z "/>
<path style=" stroke:none;fill-rule:nonzero;fill:rgb(100%,100%,100%);fill-opacity:1;" d="M 56.101563 24.171875 L 57.300781 24.171875 L 58.4375 26.101563 L 59.566406 24.171875 L 60.757813 24.171875 L 58.957031 27.183594 L 58.957031 29.058594 L 57.886719 29.058594 L 57.886719 27.15625 Z "/>
<path style=" stroke:none;fill-rule:nonzero;fill:rgb(100%,100%,100%);fill-opacity:1;" d="M 25.121094 14.472656 C 25.125 20.027344 20.648438 24.535156 15.125 24.539063 C 9.605469 24.542969 5.125 20.039063 5.121094 14.484375 C 5.121094 14.480469 5.121094 14.476563 5.121094 14.472656 C 5.117188 8.914063 9.59375 4.40625 15.113281 4.402344 C 20.636719 4.398438 25.117188 8.902344 25.121094 14.460938 C 25.121094 14.460938 25.121094 14.46875 25.121094 14.472656 Z "/>
<path style=" stroke:none;fill-rule:nonzero;fill:rgb(0%,0%,0%);fill-opacity:1;" d="M 23.25 6.273438 C 25.464844 8.507813 26.574219 11.238281 26.574219 14.472656 C 26.574219 17.703125 25.484375 20.40625 23.304688 22.582031 C 20.992188 24.871094 18.261719 26.015625 15.105469 26.015625 C 11.992188 26.015625 9.304688 24.878906 7.050781 22.609375 C 4.792969 20.339844 3.667969 17.625 3.667969 14.472656 C 3.667969 11.316406 4.792969 8.582031 7.050781 6.273438 C 9.246094 4.042969 11.933594 2.925781 15.105469 2.925781 C 18.316406 2.925781 21.03125 4.042969 23.25 6.273438 Z M 8.542969 7.777344 C 6.667969 9.679688 5.730469 11.914063 5.730469 14.472656 C 5.730469 17.035156 6.660156 19.246094 8.511719 21.113281 C 10.367188 22.980469 12.578125 23.914063 15.140625 23.914063 C 17.703125 23.914063 19.929688 22.972656 21.824219 21.085938 C 23.621094 19.332031 24.519531 17.128906 24.519531 14.472656 C 24.519531 11.835938 23.605469 9.601563 21.78125 7.761719 C 19.953125 5.921875 17.742188 5.003906 15.140625 5.003906 C 12.539063 5.003906 10.339844 5.929688 8.542969 7.777344 Z M 13.476563 13.347656 C 13.1875 12.71875 12.761719 12.40625 12.1875 12.40625 C 11.175781 12.40625 10.671875 13.089844 10.671875 14.460938 C 10.671875 15.828125 11.175781 16.511719 12.1875 16.511719 C 12.855469 16.511719 13.332031 16.179688 13.617188 15.511719 L 15.019531 16.261719 C 14.351563 17.457031 13.351563 18.054688 12.015625 18.054688 C 10.984375 18.054688 10.15625 17.738281 9.539063 17.101563 C 8.917969 16.464844 8.605469 15.589844 8.605469 14.472656 C 8.605469 13.371094 8.925781 12.5 9.566406 11.855469 C 10.207031 11.210938 11.003906 10.886719 11.957031 10.886719 C 13.371094 10.886719 14.378906 11.449219 14.992188 12.566406 Z M 20.066406 13.347656 C 19.78125 12.71875 19.359375 12.40625 18.808594 12.40625 C 17.777344 12.40625 17.257813 13.089844 17.257813 14.460938 C 17.257813 15.828125 17.777344 16.511719 18.808594 16.511719 C 19.476563 16.511719 19.945313 16.179688 20.210938 15.511719 L 21.644531 16.261719 C 20.976563 17.457031 19.976563 18.054688 18.640625 18.054688 C 17.613281 18.054688 16.789063 17.738281 16.171875 17.101563 C 15.550781 16.464844 15.242188 15.589844 15.242188 14.472656 C 15.242188 13.371094 15.554688 12.5 16.183594 11.855469 C 16.8125 11.210938 17.613281 10.886719 18.585938 10.886719 C 19.996094 10.886719 21.003906 11.449219 21.613281 12.566406 Z "/>
<path style=" stroke:none;fill-rule:nonzero;fill:rgb(100%,100%,100%);fill-opacity:1;" d="M 63.804688 11.230469 C 63.804688 15.609375 60.277344 19.15625 55.929688 19.15625 C 51.578125 19.15625 48.054688 15.609375 48.054688 11.230469 C 48.054688 6.855469 51.578125 3.304688 55.929688 3.304688 C 60.277344 3.304688 63.804688 6.855469 63.804688 11.230469 Z "/>
<path style=" stroke:none;fill-rule:nonzero;fill:rgb(0%,0%,0%);fill-opacity:1;" d="M 58.207031 8.9375 C 58.207031 8.632813 57.960938 8.386719 57.660156 8.386719 L 54.179688 8.386719 C 53.878906 8.386719 53.632813 8.632813 53.632813 8.9375 L 53.632813 12.4375 L 54.601563 12.4375 L 54.601563 16.585938 L 57.238281 16.585938 L 57.238281 12.4375 L 58.207031 12.4375 Z "/>
<path style=" stroke:none;fill-rule:nonzero;fill:rgb(0%,0%,0%);fill-opacity:1;" d="M 57.109375 6.726563 C 57.109375 7.386719 56.578125 7.925781 55.921875 7.925781 C 55.261719 7.925781 54.730469 7.386719 54.730469 6.726563 C 54.730469 6.066406 55.261719 5.53125 55.921875 5.53125 C 56.578125 5.53125 57.109375 6.066406 57.109375 6.726563 Z "/>
<path style=" stroke:none;fill-rule:evenodd;fill:rgb(0%,0%,0%);fill-opacity:1;" d="M 55.910156 2.5 C 53.554688 2.5 51.558594 3.328125 49.925781 4.980469 C 48.253906 6.691406 47.417969 8.71875 47.417969 11.058594 C 47.417969 13.394531 48.253906 15.40625 49.925781 17.089844 C 51.601563 18.773438 53.597656 19.613281 55.910156 19.613281 C 58.25 19.613281 60.28125 18.765625 61.996094 17.070313 C 63.613281 15.457031 64.425781 13.453125 64.425781 11.058594 C 64.425781 8.660156 63.601563 6.636719 61.957031 4.980469 C 60.308594 3.328125 58.292969 2.5 55.910156 2.5 Z M 55.929688 4.039063 C 57.859375 4.039063 59.5 4.722656 60.847656 6.09375 C 62.210938 7.449219 62.890625 9.101563 62.890625 11.058594 C 62.890625 13.023438 62.222656 14.660156 60.890625 15.957031 C 59.484375 17.355469 57.832031 18.054688 55.929688 18.054688 C 54.027344 18.054688 52.390625 17.363281 51.011719 15.976563 C 49.636719 14.59375 48.949219 12.953125 48.949219 11.058594 C 48.949219 9.160156 49.644531 7.503906 51.035156 6.09375 C 52.367188 4.722656 54 4.039063 55.929688 4.039063 Z "/>
</g>
</svg>
