<?xml version="1.0" encoding="utf-8"?>
<!-- Generator: Adobe Illustrator 18.1.1, SVG Export Plug-In . SVG Version: 6.00 Build 0)  -->
<svg version="1.1" id="Layer_1" xmlns="http://www.w3.org/2000/svg" xmlns:xlink="http://www.w3.org/1999/xlink" x="0px" y="0px"
	 viewBox="325 451.6 374.2 120.8" enable-background="new 325 451.6 374.2 120.8" xml:space="preserve">
<path fill="#FFFFFF" d="M491.4,451.6c-33.6,0-59.6,22.4-63.6,53.4c5.4,1.7,9.7,3.9,12.9,6.6c2.1-25.9,23-44.5,50.7-44.5
	c11.5,0,21.7,3.2,30.1,8.8c0.3-0.6,0.8-1.4,2.2-1.8c5.4-1.6,10.6-1.4,15.3,0.4c0.3-0.9,0.5-1.8,0.9-2.7
	C528.2,459.4,511.2,451.6,491.4,451.6z"/>
<path fill="#FBAA19" d="M491.4,455.5c-31.9,0-56.4,21.5-59.9,50.8c2.1,0.8,3.9,1.7,5.6,2.7c3.4-26.5,25.5-45.8,54.3-45.8
	c10.7,0,20.7,2.7,29,7.5c0.3-0.1,0.6-0.3,0.9-0.4c3.5-1,6.9-1.3,10.2-1C521.1,460.7,507.2,455.5,491.4,455.5z"/>
<g>
	<path fill="#14499E" d="M564.5,538.1v-62.1h-7.8c-0.1,4-1.6,7.8-4,10.3c-1.3,1.3-2.7,2.3-4.1,2.8c1,2.6,2.1,5.3,2.7,8.1
		c1.2,4.8,1.6,6.5,1.9,10.9c0.3,2.2,0.3,4.4,0.3,6.5c0,12.7-3.5,25.2-9.8,35.7v5h45.4v-17.6h-24.6V538.1z"/>
	<path fill="#14499E" d="M613.5,555.7h-20.7v-79.5h20.7V555.7z"/>
	<path fill="#14499E" d="M666.2,526.1h-17.2l8.7-25.3L666.2,526.1z M671.9,541.9l5.2,13.8h22.1l-29.9-79.5h-22.5l-30.5,79.5h21.9
		l5.4-13.8H671.9z"/>
	<path fill="#14499E" d="M426.1,507.2c-7-2.2-7.9-2.3-8.9-2.8c-3.6-1.7-5.4-3.7-5.4-6.2c0-3.9,3.9-6.9,8.8-6.9
		c3.4,0,6.5,0.9,9.7,2.7c1.8-5.6,4.4-10.9,7.6-15.5c-6.7-2.8-13.8-4.4-20.7-4.4c-16,0-27,10.9-27,26.8c0,6.9,2.1,12,5.9,15.5
		c3,2.5,6.5,4,15.5,6.7c9.7,2.8,12.4,4.9,12.4,9.2c0,4.7-4.3,7.9-10.3,8.3c-5.7,0.4-10.9,0.3-17.2-5.2l-9.6,13.3
		c8.4,5.8,18,8.9,27.7,8.9c19.5,0,31-10.5,31-28.3C445.7,517.8,440,511.2,426.1,507.2z"/>
</g>
<g>
	<path fill="#14499E" d="M596.7,479.9c0,6.7,0,65.2,0,71.8c3.9,0,8.9,0,12.9,0c0-6.7,0-65.2,0-71.8
		C605.7,479.9,600.7,479.9,596.7,479.9z"/>
	<path fill="#14499E" d="M649.3,479.9c-1.7,4.4-24.2,62.8-27.5,71.8c5.2,0,10.6,0,13.6,0c1.3-3.4,5.4-13.8,5.4-13.8h33.9
		c0,0,3.9,10.5,5.2,13.8c3,0,8.5,0,13.7,0c-3.4-8.8-25.3-67.4-27-71.8C662.9,479.9,652.8,479.9,649.3,479.9z M645.4,524.8l12.4-36.2
		l13.8,41.4h-27.9L645.4,524.8z"/>
	<path fill="#14499E" d="M560.6,542c0,0,0-55.2,0-62.1c-0.5,0-1.2,0-1.7,0c-0.8,3.5-2.3,6.6-4.5,9.1c-0.6,0.8-1.4,1.4-2.2,1.9
		c0.6,1.9,1.3,3.7,1.8,5.6c1.2,4.9,1.6,6.9,1.9,11.4c0.3,2.3,0.4,4.7,0.4,6.9c0,12.2-3.1,24-8.5,34.4c0,1.2,0,2.1,0,2.6
		c5.9,0,31.8,0,37.6,0c0-3.4,0-6.5,0-9.8C579.9,542,560.6,542,560.6,542z"/>
	<path fill="#14499E" d="M394.2,501c0,5.7,1.6,9.8,4.7,12.5c2.2,1.8,4.9,3.2,14,5.8c8.7,2.6,15.3,5.2,15.3,12.9
		c0,6.7-5.6,11.6-14,12.2c-5.2,0.4-10.6,0.3-16.7-3.6c-1.8,2.5-3,4.1-4.8,6.6c6.9,4,14.4,6.2,22.1,6.2c17.5,0,27.2-8.7,27.2-24.4
		c0-8-2.8-14.2-16.8-18.4l-1.8-0.5c-5.7-1.7-6.3-1.9-7.6-2.5c-5.2-2.3-7.6-5.7-7.6-9.7c0-5.9,5.6-10.7,12.7-10.7
		c2.6,0,5,0.5,7.5,1.3c1.2-2.8,2.5-5.6,4-8.3c-4.9-1.6-10.1-2.5-14.9-2.5C403.5,478,394.2,487.2,394.2,501z"/>
</g>
<path fill="#FBAA19" d="M346.5,517.3c1.2-6.1,5.2-9.6,12-9.6c5.8,0,10.5,3.5,11.9,9.3L346.5,517.3z M389.8,529.1v-2.7
	c-0.1-20.2-12.7-32.1-33-31.8c-19.5,0.1-31.9,12.8-31.8,31.9c0.1,18.9,13.7,31,34.4,30.8c15.5-0.1,25.7-7.2,29.5-21.9l-20,0.1
	c-2.6,5.4-5.2,7-10,7c-8.5,0.1-12.8-4.1-12.9-13.1L389.8,529.1z"/>
<path fill="#FBAA19" d="M506.1,485.1c0,0,1.9-3.9,6.5-6.6c-6.2-3.1-13.4-4.9-21.2-4.9c-25.2,0-44,18.2-44,42.3
	c0,24.2,18.9,42.4,44,42.4c25.2,0,44-18.2,44-42.4c0-10.5-3.5-19.8-9.6-27C517,484.2,506.1,485.1,506.1,485.1z M491.3,538.5
	c-12.4,0-22.4-10-22.4-22.4c0-12.3,10-22.2,22.4-22.2s22.4,10,22.4,22.2C513.8,528.4,503.7,538.5,491.3,538.5z"/>
<path fill="#FBAA19" d="M356.8,498.3L356.8,498.3c-17.3,0.1-28.1,10.9-27.9,28.1c0.1,16.8,11.9,27.2,30.5,27
	c12.2-0.1,20-4.8,24-14.1c-4.9,0-9.7,0.1-12.2,0.1c-2.8,4.9-6.5,7-12.3,7c-10.6,0.1-16.7-5.9-16.9-16.9c0,0,0,0,0-0.1
	c0-1,0.4-1.9,1-2.7c0.8-0.8,1.7-1.2,2.7-1.2c0,0,33.2-0.3,39.7-0.4c-0.3-8.1-2.8-14.9-7.5-19.5C373.3,500.8,365.9,498.2,356.8,498.3
	z M343.5,519.9c-0.8-0.9-1-2.1-0.9-3.2c1.4-8,7.2-12.7,15.8-12.8l0,0c7.6-0.1,13.8,4.8,15.6,12.3c0.3,1.2,0,2.3-0.6,3.4
	c-0.8,0.9-1.8,1.6-3,1.6l-23.9,0.3C345.3,521.3,344.3,520.8,343.5,519.9z"/>
<path fill="#FBAA19" d="M506.1,485.1c0,0,0.9-1.8,3-3.9c-5.3-2.3-11.2-3.6-17.7-3.6c-22.9,0-40.1,16.5-40.1,38.4
	c0,22,17.2,38.5,40.1,38.5s40.1-16.5,40.1-38.5c0-12.5-5.6-23.3-14.7-30.1C511,484.7,506.1,485.1,506.1,485.1z M517.7,516
	c0,14.5-11.8,26.2-26.2,26.2s-26.2-11.8-26.2-26.2c0-14.5,11.8-26.1,26.2-26.1C505.8,489.9,517.7,501.7,517.7,516z"/>
<path fill="#14499E" d="M518.5,562.4c-7.9,4.1-16.9,6.3-26.9,6.3c-20.2,0-37.1-9.4-46.5-24.2c-0.6,1.4-1.4,2.7-2.3,3.9
	c10.7,14.4,28.3,23.3,48.9,23.3c9.6,0,18.4-1.9,26.2-5.3c0.1-0.6,0.1-1.3,0.4-1.9C518.3,563.6,518.5,562.9,518.5,562.4z"/>
<path fill="#14499E" d="M552.9,472.6c-0.6-5-0.1-8,0.8-9.7c0-0.1-11.9-0.1-14.2,15.3c-5.7-3.2-11.5-3-16.3-1.6
	c-0.8,0.3-0.6,0.5,0.1,0.5c3.1-0.1,6.1,0.5,8.8,1.9c-5.4-1.3-15.1-1.4-20.4,3.2c-0.3,0.1-0.5,0.3-0.5,0.4c0.5,0.1,4.9-0.8,15,3.6
	c4.1,1.8,11.4,3.7,14.1-0.5c2.5,5.6,4.1,10.7,5,15.5c-1.8-3.1-4.1-4.5-4.8-4.8c-2.7-1.6-6.5-1.6-6.5-1.6s0.5,2.3,1.8,3.5
	c3,3,7.4,2.1,7.2,1.8c0-0.8-0.3-1.4-0.5-1.9c2.2,2.3,3.7,8.1,4,10.9c0.9,10-1,18.4-3.1,24.8c-3.9,10-8.5,16.9-17.3,25
	c-2.6-3.7-7.2-4.3-7.8-2.8v0.1c2.5-0.3,8.4,2.3,7.9,8.4c-0.6,7.4-6.5,5-5.3,0.1c0.8-3.4-0.6-5-1.9-6.1c0.6,1.3,1.6,3.1,0.5,6.5
	c-2.3,7.9,7,11,8.3,0.9c0-0.5,0-1,0-1.4c15.9-12.9,24.2-34.9,22.1-56c-0.4-4.1-0.6-5.8-1.8-10.5c-0.9-3.6-2.2-7.2-3.7-10.6
	C548.2,487.8,554.1,482.3,552.9,472.6z"/>
<g>
	<path fill="#14499E" d="M541.7,478.5l-0.5,3.5l0,0c0.5,1.2,1.2,2.6,1.2,2.6c0.1,0.1,0.1,0.4,0.1,0.5c0.8,0,1.7,0.1,1.7,0.1
		c0.9,0,2.5-0.4,3.7-1.9c1.8-1.9,2.7-4.7,2.7-7.9c0-0.8,0-1.6-0.1-2.3c-0.3-1.6-0.4-3.1-0.4-4.4c0-0.9,0.1-1.7,0.3-2.6
		C547.3,467.1,543,470.1,541.7,478.5z"/>
	<path fill="#14499E" d="M529.8,481.1c-3.4-0.8-6.1-0.8-10.3,0.1c2.3,0.6,4.8,1.4,7.4,2.6c4.1,1.8,9.4,3,11,0.4c0,0,1.2-1.9,1.8-3
		c-0.9-0.5-1.7-1-1.7-1c-1.8-1-3.6-1.6-5.6-1.9C534,482,529.8,481.1,529.8,481.1z"/>
</g>
<path fill="#FBAA19" d="M491.3,489.9c13.6,0,24.8,10.3,26.1,23.5c0.1-0.9,0.1-1.7,0.1-2.6c0-14.5-11.8-26.1-26.2-26.1
	c-14.5,0-26.2,11.8-26.2,26.1c0,0.9,0,1.8,0.1,2.6C466.5,500.2,477.7,489.9,491.3,489.9z"/>
</svg>
