<?xml version="1.0" standalone="no"?>
<!DOCTYPE svg PUBLIC "-//W3C//DTD SVG 1.1//EN" "http://www.w3.org/Graphics/SVG/1.1/DTD/svg11.dtd">
<svg xmlns="http://www.w3.org/2000/svg">
<defs >
<font id="Muli" horiz-adv-x="554" ><font-face
    font-family="Muli ExtraLight"
    units-per-em="1000"
    panose-1="0 0 3 0 0 0 0 0 0 0"
    ascent="1005"
    descent="-250"
    alphabetic="0" />
<glyph unicode=" " glyph-name="space" horiz-adv-x="250" />
<glyph unicode="!" glyph-name="exclam" horiz-adv-x="214" d="M93 164L80 712H133L120 164H93ZM73 71H141V0H73V71Z" />
<glyph unicode="&quot;" glyph-name="quotedbl" horiz-adv-x="397" d="M88 444L75 712H127L116 444H88ZM283 444L270 712H322L311 444H283Z" />
<glyph unicode="#" glyph-name="numbersign" horiz-adv-x="606" d="M579 487H466L417 233H560V193H409L372 0H329L366 193H176L139 0H96L133 193H26V233H141L190 487H46V527H198L234 712H277L241 527H431L467 712H510L474 527H579V487ZM374 233L423 487H233L184 233H374Z" />
<glyph unicode="$" glyph-name="dollar" horiz-adv-x="600" d="M540 106T482 54T331 -7V-116H289V-8Q220 -6 160 19T54 91L75 127Q126 81 176 59T288 33V329Q220 346 175 365T100 422T70 522Q70 577 97 621T175 691T289 720V828H331V719Q391 714 444 690T536 624L515
589Q441 669 332 678V362Q398 346 441 328T512 276T540 185Q540 106 482 54ZM113 476T136 448T196 403T288 373V679Q206 674 160 633T113 521Q113 476 136 448ZM409 40T452 80T496 186Q496 242 454 270T332 318V34Q409 40 452 80Z" />
<glyph unicode="%" glyph-name="percent" horiz-adv-x="926" d="M152 284T109 338T66 501Q66 610 109 664T230 719Q308 719 351 665T395 502Q395 393 352 339T230 284Q152 284 109 338ZM283 0H232L643 712H693L283 0ZM290 321T319 365T348 502Q348 593 319 637T230
681Q170 681 141 637T111 502Q111 410 140 366T230 321Q290 321 319 365ZM618 -7T575 48T531 211Q531 320 574 374T696 428Q774 428 817 374T861 211Q861 103 817 48T696 -7Q618 -7 575 48ZM756 31T785 74T814 211Q814 303 785 346T696 390Q636 390 607 347T577
211Q577 119 606 75T696 31Q756 31 785 74Z" />
<glyph unicode="&amp;" glyph-name="ampersand" horiz-adv-x="655" d="M572 68T654 21L626 -8Q546 38 493 96Q453 46 399 20T279 -7Q216 -7 168 15T92 78T65 172Q65 234 102 284T227 393L240 402Q188 464 170 500T151 574Q151 640 194 679T309 719Q375 719 414
683T453 586Q453 551 440 524T395 466T301 393L491 163Q544 260 545 408H588Q584 240 518 131L520 128Q572 68 654 21ZM197 541T213 511T275 424Q352 477 380 510T408 582Q408 626 381 652T309 679Q258 679 228 650T197 574Q197 541 213 511ZM396 32T468 127L266
370Q264 369 262 367T256 363Q172 307 140 265T107 171Q107 107 154 70T281 32Q396 32 468 127Z" />
<glyph unicode="&apos;" glyph-name="quotesingle" horiz-adv-x="202" d="M88 444L75 712H127L116 444H88Z" />
<glyph unicode="(" glyph-name="parenleft" horiz-adv-x="284" d="M107 29T107 266Q107 500 210 712H249Q150 488 150 266Q150 45 249 -182H211Q107 29 107 266Z" />
<glyph unicode=")" glyph-name="parenright" horiz-adv-x="284" d="M35 -182Q133 46 133 266Q133 487 35 712H74Q177 497 177 266Q177 32 73 -182H35Z" />
<glyph unicode="*" glyph-name="asterisk" horiz-adv-x="452" d="M129 376L98 399L199 532L39 582L52 619L209 564L205 730H244L241 563L400 619L411 582L252 532L353 399L321 376L226 515L129 376Z" />
<glyph unicode="+" glyph-name="plus" horiz-adv-x="600" d="M546 306V266H319V40H281V266H54V306H281V533H319V306H546Z" />
<glyph unicode="," glyph-name="comma" horiz-adv-x="214" d="M141 71V15Q141 -56 97 -99L71 -79Q90 -58 96 -40T104 0H73V71H141Z" />
<glyph unicode="-" glyph-name="hyphen" horiz-adv-x="420" d="M77 248V287H343V248H77Z" />
<glyph unicode="." glyph-name="period" horiz-adv-x="214" d="M73 71H141V0H73V71Z" />
<glyph unicode="/" glyph-name="slash" horiz-adv-x="259" d="M25 -52H-21L233 746H280L25 -52Z" />
<glyph unicode="0" glyph-name="zero" horiz-adv-x="600" d="M182 -8T121 84T60 356Q60 535 121 627T300 720Q419 720 479 629T540 357Q540 178 479 85T300 -8Q182 -8 121 84ZM399 33T447 112T495 357Q495 522 448 600T300 679Q201 679 153 600T105 357Q105 193
153 113T300 33Q399 33 447 112Z" />
<glyph unicode="1" glyph-name="one" horiz-adv-x="600" d="M343 38H501V0H142V38H301V651L153 552V600L301 699V706L305 702L320 712H343V38Z" />
<glyph unicode="2" glyph-name="two" horiz-adv-x="600" d="M534 38V0H93V32L349 321Q407 386 432 436T457 538Q457 606 418 643T307 680Q251 680 200 658T98 591L77 626Q119 669 181 694T305 720Q396 720 448 672T501 539Q501 478 472 419T378 287L152 38H534Z" />
<glyph unicode="3" glyph-name="three" horiz-adv-x="600" d="M450 348T483 304T516 192Q516 100 457 47T299 -7Q232 -7 171 17T66 87L87 122Q137 77 189 55T300 33Q381 33 426 73T472 189Q472 265 425 303T285 342H214V382H270Q358 382 407 424T456 544Q456 609
417 644T307 680Q252 680 201 658T98 591L77 626Q119 671 179 695T306 720Q395 720 448 673T501 543Q501 480 470 433T386 366Q450 348 483 304Z" />
<glyph unicode="4" glyph-name="four" horiz-adv-x="600" d="M558 207V168H445V0H403V168H84L83 166V168H58V201L409 712H445V207H558ZM111 207H403V629L111 207Z" />
<glyph unicode="5" glyph-name="five" horiz-adv-x="600" d="M425 439T484 378T543 215Q543 151 516 101T439 22T320 -7Q257 -7 196 18T91 87L112 122Q212 33 320 33Q402 33 450 83T499 216Q499 297 452 347T327 398Q266 398 223 374T148 297H108V712H518V673H151V360Q180
398 224 418T323 439Q425 439 484 378Z" />
<glyph unicode="6" glyph-name="six" horiz-adv-x="600" d="M385 438T436 410T515 332T543 215Q543 151 515 101T436 21T322 -8Q198 -8 131 81T64 334Q64 518 132 619T325 720Q385 720 441 696T542 626L521 591Q470 637 423 658T324 680Q222 680 165 588T107 333V296Q130
362 187 400T318 438Q385 438 436 410ZM401 32T450 82T499 216Q499 298 449 348T319 398Q265 398 223 375T157 311T133 216Q133 134 185 83T321 32Q401 32 450 82Z" />
<glyph unicode="7" glyph-name="seven" horiz-adv-x="600" d="M76 712H523V681L181 0H135L476 674H76V712Z" />
<glyph unicode="8" glyph-name="eight" horiz-adv-x="600" d="M467 347T506 300T545 186Q545 96 480 45T300 -7Q186 -7 121 44T55 186Q55 251 95 298T204 365Q139 384 105 427T71 532Q71 588 99 631T180 697T300 720Q368 720 420 697T500 631T529 532Q529 472
495 428T396 365Q467 347 506 300ZM116 468T166 428T300 379Q384 387 434 427T484 532Q484 601 436 640T300 680Q212 680 164 641T116 532Q116 468 166 428ZM398 33T449 72T500 187Q500 255 445 295T300 343Q210 336 155 296T100 187Q100 112 151 73T300 33Q398
33 449 72Z" />
<glyph unicode="9" glyph-name="nine" horiz-adv-x="600" d="M403 720T470 631T537 378Q537 194 469 93T276 -8Q216 -8 160 16T59 86L80 121Q132 75 179 54T277 32Q379 32 436 124T494 379V417Q471 350 414 312T283 274Q216 274 165 302T86 380T58 497Q58 561
86 611T165 691T279 720Q403 720 470 631ZM336 314T378 337T444 401T468 496Q468 578 416 629T281 680Q201 680 152 630T102 496Q102 414 152 364T282 314Q336 314 378 337Z" />
<glyph unicode=":" glyph-name="colon" horiz-adv-x="214" d="M73 489H141V418H73V489ZM73 71H141V0H73V71Z" />
<glyph unicode=";" glyph-name="semicolon" horiz-adv-x="214" d="M73 489H141V418H73V489ZM73 71H141V15Q141 -56 97 -99L71 -79Q90 -58 96 -40T104 0H73V71Z" />
<glyph unicode="&lt;" glyph-name="less" horiz-adv-x="600" d="M546 538V495L104 287L546 78V33L54 268V304L546 538Z" />
<glyph unicode="=" glyph-name="equal" horiz-adv-x="600" d="M546 407V367H54V407H546ZM546 205V165H54V205H546Z" />
<glyph unicode="&gt;" glyph-name="greater" horiz-adv-x="600" d="M54 538L546 304V268L54 33V78L496 287L54 495V538Z" />
<glyph unicode="?" glyph-name="question" horiz-adv-x="433" d="M118 701T154 710T223 719Q303 719 352 678T401 569Q401 516 379 476T312 379Q267 324 242 279T212 174L211 164H185V175Q185 244 209 293T280 403Q319 455 337 490T356 569Q356 619 321 649T224
679Q156 679 87 638V684Q118 701 154 710ZM164 0V71H232V0H164Z" />
<glyph unicode="@" glyph-name="at" horiz-adv-x="928" d="M348 -149T253 -96T107 55T55 280Q55 409 110 508T260 662T474 717Q602 717 692 662T828 523T874 349Q874 244 843 181T767 91T674 65Q619 65 591 88T561 158H559Q534 115 494 90T403 65Q341 65 301 110T260
238Q260 306 286 367T361 465T474 503Q526 503 563 477T609 412H610L622 489H665L614 196Q611 178 611 163Q611 128 629 115T682 102Q716 102 750 126T807 205T831 349Q831 426 792 501T672 625T474 674Q368 674 282 626T146 488T96 280Q96 163 141 76T272 -58T475
-106Q566 -106 633 -78T738 0H796Q751 -70 668 -109T475 -149Q348 -149 253 -96ZM467 102T508 135T571 222T593 335Q593 398 561 431T476 465Q423 465 383 433T321 350T299 243Q299 174 331 138T411 102Q467 102 508 135Z" />
<glyph unicode="A" glyph-name="A" horiz-adv-x="721" d="M642 0L557 197H163L79 0H34L340 712H381L687 0H642ZM180 237H540L360 657L180 237Z" />
<glyph unicode="B" glyph-name="B" horiz-adv-x="672" d="M533 349T567 305T601 193Q601 98 542 49T371 0H97V712H360Q468 712 526 664T585 525Q585 467 556 426T472 365Q533 349 567 305ZM139 382H355Q446 382 493 420T540 531Q540 673 355 673H139V382ZM465
39T510 75T556 188Q556 341 370 341H139V39H370Q465 39 510 75Z" />
<glyph unicode="C" glyph-name="C" horiz-adv-x="684" d="M287 -8T216 35T107 161T68 357Q68 470 106 551T216 676T385 720Q535 720 627 624L606 589Q553 637 502 658T384 679Q255 679 184 595T112 357Q112 203 183 118T384 33Q450 33 501 54T606 123L627 88Q535
-8 385 -8Q287 -8 216 35Z" />
<glyph unicode="D" glyph-name="D" horiz-adv-x="733" d="M97 712H316Q484 712 574 620T665 357Q665 186 574 93T316 0H97V712ZM315 38Q466 38 542 118T619 357Q619 515 543 594T315 674H138V38H315Z" />
<glyph unicode="E" glyph-name="E" horiz-adv-x="582" d="M97 0V712H525V673H139V381H505V341H139V39H525V0H97Z" />
<glyph unicode="F" glyph-name="F" d="M97 0V712H515V673H138V381H495V342H138V0H97Z" />
<glyph unicode="G" glyph-name="G" horiz-adv-x="723" d="M634 359V40Q597 19 530 6T394 -8Q292 -8 219 35T107 161T68 357Q68 471 106 552T217 677T390 720Q539 720 629 624L608 589Q556 637 504 658T387 679Q256 679 184 595T112 357Q112 200 185 116T394 32Q449
32 501 42T595 69V318H398V359H634Z" />
<glyph unicode="H" glyph-name="H" horiz-adv-x="759" d="M139 712V381H618V342H139V0H97V712H139ZM619 712H662V0H619V712Z" />
<glyph unicode="I" glyph-name="I" horiz-adv-x="235" d="M97 0V712H138V0H97Z" />
<glyph unicode="J" glyph-name="J" horiz-adv-x="300" d="M-8 -137Q34 -146 64 -146Q117 -146 139 -114T162 -5V712H203V-7Q203 -103 171 -144T67 -186Q37 -186 -8 -178V-137Z" />
<glyph unicode="K" glyph-name="K" horiz-adv-x="605" d="M599 0H537L138 344V0H97V712H138V379L516 712H576L181 362L599 0Z" />
<glyph unicode="L" glyph-name="L" horiz-adv-x="532" d="M97 0V712H138V38H517V0H97Z" />
<glyph unicode="M" glyph-name="M" horiz-adv-x="848" d="M715 712H751V0H710L711 610L442 0H408L137 605L138 0H97V712H133L425 49L715 712Z" />
<glyph unicode="N" glyph-name="N" horiz-adv-x="739" d="M603 712H642V0H608L136 641V0H97V712H132L603 73V712Z" />
<glyph unicode="O" glyph-name="O" horiz-adv-x="759" d="M284 -8T214 36T106 162T68 356Q68 468 105 550T213 676T379 720Q475 720 545 676T653 551T691 357Q691 245 654 163T546 36T379 -8Q284 -8 214 36ZM505 33T575 118T645 357Q645 511 576 595T379 679Q252
679 183 595T113 357Q113 204 183 119T379 33Q505 33 575 118Z" />
<glyph unicode="P" glyph-name="P" horiz-adv-x="638" d="M97 712H360Q465 712 525 661T585 520Q585 430 525 378T360 326H138V0H97V712ZM359 367Q447 367 493 407T540 520Q540 593 494 633T359 673H138V367H359Z" />
<glyph unicode="Q" glyph-name="Q" horiz-adv-x="759" d="M520 -86T600 -154L571 -191Q534 -162 494 -112T421 -6Q393 -8 379 -8Q284 -8 214 36T106 162T68 356Q68 468 105 550T213 676T379 720Q475 720 545 676T653 551T691 357Q691 217 633 125T470 4Q520 -86
600 -154ZM113 204T183 119T379 33Q505 33 575 118T645 357Q645 511 576 595T379 679Q252 679 183 595T113 357Q113 204 183 119Z" />
<glyph unicode="R" glyph-name="R" horiz-adv-x="684" d="M633 0H590L503 237Q484 289 453 306T359 324H138V0H97V712H362Q472 712 532 663T592 520Q592 451 556 405T452 341Q483 336 505 315T541 252L633 0ZM363 364Q454 364 500 404T547 521Q547 673 363 673H139V364H363Z"
/>
<glyph unicode="S" glyph-name="S" horiz-adv-x="604" d="M227 -8T165 15T52 88L73 123Q126 74 180 54T311 33Q406 33 458 73T511 187Q511 229 485 255T421 295T318 324Q233 344 186 361T101 417T64 523Q64 582 94 626T179 695T310 720Q458 720 549 624L528 589Q477
636 425 657T310 679Q214 679 161 638T107 521Q107 457 153 426T284 374L329 363Q402 346 447 330T523 278T555 184Q555 128 525 85T440 17T311 -8Q227 -8 165 15Z" />
<glyph unicode="T" glyph-name="T" horiz-adv-x="590" d="M274 0V674H12V712H578V674H315V0H274Z" />
<glyph unicode="U" glyph-name="U" horiz-adv-x="722" d="M229 -8T161 62T92 270V712H133V263Q133 33 362 33Q474 33 531 91T589 263V712H631V270Q631 133 563 63T362 -8Q229 -8 161 62Z" />
<glyph unicode="V" glyph-name="V" horiz-adv-x="677" d="M621 712H666L359 0H317L12 712H56L339 54L621 712Z" />
<glyph unicode="W" glyph-name="W" horiz-adv-x="1104" d="M1019 712H1062L815 0H776L552 643L327 0H289L42 712H84L308 60L533 712L570 711L794 61L1019 712Z" />
<glyph unicode="X" glyph-name="X" horiz-adv-x="636" d="M343 365L612 0H563L319 333L75 0H24L295 367L40 712H90L320 399L548 712H597L343 365Z" />
<glyph unicode="Y" glyph-name="Y" horiz-adv-x="587" d="M585 712L314 296V0H272V298L1 712H51L294 337L537 712H585Z" />
<glyph unicode="Z" glyph-name="Z" horiz-adv-x="585" d="M546 39V0H67L66 -2V0H42V31L486 673H42V712H513L514 714V712H536V681L94 39H546Z" />
<glyph unicode="[" glyph-name="bracketleft" horiz-adv-x="284" d="M113 -182V712H280V675H156V-144H280V-182H113Z" />
<glyph unicode="\" glyph-name="backslash" horiz-adv-x="259" d="M233 -52L-21 746H25L280 -52H233Z" />
<glyph unicode="]" glyph-name="bracketright" horiz-adv-x="284" d="M171 -182H4V-144H128V675H4V712H171V-182Z" />
<glyph unicode="^" glyph-name="asciicircum" horiz-adv-x="600" d="M552 141H509L300 582L91 141H49L282 634H318L552 141Z" />
<glyph unicode="_" glyph-name="underscore" horiz-adv-x="505" d="M4 -33V0H501V-33H4Z" />
<glyph unicode="`" glyph-name="grave" horiz-adv-x="300" d="M133 555L6 757H69L170 555H133Z" />
<glyph unicode="a" glyph-name="a" horiz-adv-x="583" d="M495 500V0H453V100Q431 48 386 21T277 -7Q210 -7 160 24T82 114T54 251Q54 329 82 388T160 479T277 512Q340 512 385 485T453 406V500H495ZM361 34T407 91T453 253Q453 358 407 414T277 471Q193 471 146
413T99 251Q99 148 146 91T278 34Q361 34 407 91Z" />
<glyph unicode="b" glyph-name="b" horiz-adv-x="583" d="M372 512T423 481T501 391T529 255Q529 177 501 118T423 26T306 -7Q242 -7 198 21T130 102V0H88V736H129V401Q151 455 196 483T306 512Q372 512 423 481ZM390 34T436 92T483 255Q483 358 437 414T306 471Q221
471 176 415T130 253Q130 148 175 91T307 34Q390 34 436 92Z" />
<glyph unicode="c" glyph-name="c" horiz-adv-x="487" d="M214 -7T163 25T83 115T54 251Q54 328 82 387T163 479T284 512Q334 512 379 494T454 445L434 409Q393 442 358 457T284 472Q198 472 149 413T99 250Q99 148 148 91T283 34Q322 34 357 48T434 96L454 61Q422
29 377 11T283 -7Q214 -7 163 25Z" />
<glyph unicode="d" glyph-name="d" horiz-adv-x="583" d="M495 736V0H453V100Q431 48 386 21T277 -7Q211 -7 161 25T82 117T54 255Q54 332 81 390T159 480T277 512Q340 512 385 485T453 406V736H495ZM361 34T407 91T453 253Q453 357 407 414T278 471Q194 471 147
415T99 255Q99 151 146 93T277 34Q361 34 407 91Z" />
<glyph unicode="e" glyph-name="e" horiz-adv-x="541" d="M101 261V252Q101 147 150 91T292 34Q339 34 380 49T461 99L481 63Q449 31 399 12T294 -7Q183 -7 119 62T54 252Q54 329 83 388T164 479T285 512Q381 512 435 449T490 273V261H101ZM211 474T164 429T104
302H448Q442 385 400 429T285 474Q211 474 164 429Z" />
<glyph unicode="f" glyph-name="f" horiz-adv-x="311" d="M196 699T173 676T150 589V500H283V464H150V0H108V464H8V500H108V602Q108 672 142 706T235 740Q263 740 293 732V691Q266 699 240 699Q196 699 173 676Z" />
<glyph unicode="g" glyph-name="g" horiz-adv-x="587" d="M499 500V-7Q499 -114 449 -168T299 -223Q187 -223 107 -167L116 -127Q166 -157 206 -169T301 -182Q378 -182 418 -139T458 -12V125Q436 71 390 43T279 15Q213 15 162 46T83 134T54 264Q54 337 82 393T162
481T279 512Q343 512 388 485T457 406V500H499ZM362 57T409 112T457 264Q457 361 410 416T279 471Q195 471 147 416T99 264Q99 167 147 112T279 57Q362 57 409 112Z" />
<glyph unicode="h" glyph-name="h" horiz-adv-x="570" d="M485 512T485 322V0H443V318Q443 398 411 435T307 472Q226 472 178 423T129 291V0H88V736H129V410Q151 460 197 486T303 512Q485 512 485 322Z" />
<glyph unicode="i" glyph-name="i" horiz-adv-x="218" d="M88 0V500H129V0H88ZM77 700H142V636H77V700Z" />
<glyph unicode="j" glyph-name="j" horiz-adv-x="218" d="M-23 -178T0 -178Q41 -178 64 -154T88 -67V500H129V-80Q129 -150 96 -184T5 -218Q-16 -218 -49 -211V-169Q-23 -178 0 -178ZM77 700H142V636H77V700Z" />
<glyph unicode="k" glyph-name="k" horiz-adv-x="482" d="M483 0H421L129 248V0H88V736H129V265L393 500H452L179 260L483 0Z" />
<glyph unicode="l" glyph-name="l" horiz-adv-x="218" d="M88 0V736H129V0H88Z" />
<glyph unicode="m" glyph-name="m" horiz-adv-x="860" d="M775 512T775 322V0H733V318Q733 398 704 435T612 472Q539 472 496 423T453 291V0H411V318Q411 398 382 435T289 472Q215 472 172 423T129 291V0H88V362Q88 440 80 500H120L127 406Q147 457 188 484T286
512Q408 512 442 413Q463 460 507 486T610 512Q775 512 775 322Z" />
<glyph unicode="n" glyph-name="n" horiz-adv-x="570" d="M485 512T485 322V0H443V318Q443 398 411 435T307 472Q226 472 178 423T129 291V0H88V362Q88 440 80 500H120L127 405Q148 457 195 484T303 512Q485 512 485 322Z" />
<glyph unicode="o" glyph-name="o" horiz-adv-x="553" d="M211 -7T160 25T82 116T54 253Q54 331 81 389T160 480T277 512Q343 512 393 480T471 390T499 253Q499 175 472 116T394 25T277 -7Q211 -7 160 25ZM361 34T407 91T454 253Q454 355 407 413T277 471Q194
471 147 414T99 253Q99 147 145 91T276 34Q361 34 407 91Z" />
<glyph unicode="p" glyph-name="p" horiz-adv-x="583" d="M372 512T422 480T501 388T529 251Q529 173 502 115T423 25T306 -7Q241 -7 196 21T129 105V-216H88V362Q88 440 80 500H120L128 398Q149 453 195 482T306 512Q372 512 422 480ZM390 34T436 91T483 251Q483
355 437 413T307 471Q221 471 176 415T130 253Q130 148 175 91T306 34Q390 34 436 91Z" />
<glyph unicode="q" glyph-name="q" horiz-adv-x="583" d="M502 500Q495 437 495 362V-216H453V100Q431 48 386 21T277 -7Q210 -7 160 24T82 114T54 251Q54 329 82 388T160 479T277 512Q341 512 386 484T455 402L464 500H502ZM361 34T407 91T453 253Q453 358 407
414T277 471Q193 471 146 413T99 251Q99 148 146 91T278 34Q361 34 407 91Z" />
<glyph unicode="r" glyph-name="r" horiz-adv-x="336" d="M315 512T329 509L326 471Q314 473 286 473Q231 473 196 448T145 383T129 300V0H88V362Q88 440 80 500H120L127 406Q147 458 189 485T287 512Q315 512 329 509Z" />
<glyph unicode="s" glyph-name="s" horiz-adv-x="492" d="M126 -7T58 61L77 96Q117 62 155 49T247 35Q314 35 349 58T384 127Q384 163 361 184T287 219L202 239Q145 252 110 288T75 370Q75 434 123 473T254 512Q307 512 351 495T423 445L403 409Q369 440 333 455T254
471Q191 471 157 446T122 376Q122 338 144 315T212 281L298 260Q364 245 397 212T430 130Q430 69 380 31T244 -7Q126 -7 58 61Z" />
<glyph unicode="t" glyph-name="t" horiz-adv-x="324" d="M150 464V145Q150 81 173 58T243 34Q273 34 299 43V2Q269 -6 239 -6Q179 -6 144 27T108 131V464H8V500H108V636L150 654V500H302V464H150Z" />
<glyph unicode="u" glyph-name="u" horiz-adv-x="561" d="M473 500V0H433V95Q409 46 364 20T261 -7Q175 -7 130 41T85 184V500H126V188Q126 109 158 72T258 34Q337 34 384 83T432 215V500H473Z" />
<glyph unicode="v" glyph-name="v" horiz-adv-x="520" d="M454 500H497L284 0H235L24 500H69L261 38L454 500Z" />
<glyph unicode="w" glyph-name="w" horiz-adv-x="857" d="M772 500H816L639 0H589L429 449L268 0H217L42 500H88L241 49L404 500H456L614 50L772 500Z" />
<glyph unicode="x" glyph-name="x" horiz-adv-x="522" d="M289 258L492 0H439L261 222L84 0H30L235 258L40 500H95L261 292L427 500H482L289 258Z" />
<glyph unicode="y" glyph-name="y" horiz-adv-x="520" d="M497 500L261 -57Q227 -137 177 -174T52 -227L44 -193Q116 -176 154 -148T217 -59L238 -6L24 500H69L261 38L454 500H497Z" />
<glyph unicode="z" glyph-name="z" horiz-adv-x="512" d="M109 37H464V0H51V28L400 464H66V500H452V466L109 37Z" />
<glyph unicode="{" glyph-name="braceleft" horiz-adv-x="321" d="M193 321T174 297T125 266Q154 259 173 235T193 167V-70Q193 -106 209 -125T257 -144H317V-182H261Q206 -182 178 -153T150 -68V166Q150 206 133 226T74 253L55 257V275L74 278Q117 285 133 305T150
366V598Q150 652 181 682T261 712H317V675H257Q226 675 210 656T193 600V365Q193 321 174 297Z" />
<glyph unicode="|" glyph-name="bar" horiz-adv-x="248" d="M102 -182V712H146V-182H102Z" />
<glyph unicode="}" glyph-name="braceright" horiz-adv-x="322" d="M267 275V257L248 253Q205 246 188 226T171 166V-68Q171 -123 143 -152T61 -182H4V-144H64Q95 -144 111 -125T128 -70V167Q128 210 147 234T197 266Q168 272 148 296T128 365V600Q128 637 112
656T64 675H4V712H61Q109 712 140 682T171 598V366Q171 325 188 305T248 278L267 275Z" />
<glyph unicode="~" glyph-name="asciitilde" horiz-adv-x="600" d="M546 316Q525 270 495 247T420 223Q386 223 356 235T280 272Q245 292 224 301T182 310Q147 310 126 291T89 240L54 256Q94 348 180 348Q214 348 244 336T320 299Q358 279 378 271T418 262Q453
262 474 280T511 331L546 316Z" />
<glyph unicode="&#xa0;" glyph-name="uni00A0" horiz-adv-x="250" />
<glyph unicode="&#xa1;" glyph-name="exclamdown" horiz-adv-x="214" d="M73 418V489H141V418H73ZM93 326H120L133 -182H80L93 326Z" />
<glyph unicode="&#xa2;" glyph-name="cent" horiz-adv-x="600" d="M375 36T408 50T481 96L500 61Q471 31 429 13T339 -7V-119H298V-5Q208 6 154 75T99 251Q99 358 153 428T298 510V624H339V512Q386 510 429 493T500 445L481 409Q441 440 408 455T339 472V34Q375
36 408 50ZM144 159T185 103T298 36V470Q226 459 185 401T144 250Q144 159 185 103Z" />
<glyph unicode="&#xa3;" glyph-name="sterling" horiz-adv-x="600" d="M204 138T186 100T125 38H558V0H49V30Q109 58 135 94T162 187V336H49V377H162V530Q162 619 209 669T342 720Q403 720 459 696T560 624L538 589Q497 633 446 656T340 680Q275 680 240 640T204
526V377H397V336H204V207Q204 138 186 100Z" />
<glyph unicode="&#xa4;" glyph-name="currency" horiz-adv-x="600" d="M543 203T529 163T488 89L541 34L505 -2L452 52Q421 26 382 12T301 -3Q258 -3 219 12T147 54L92 -2L57 34L112 91Q59 160 59 247Q59 334 112 403L57 461L92 497L146 440Q178 468 218 483T301
498Q343 498 382 484T452 443L505 497L541 461L488 406Q543 336 543 247Q543 203 529 163ZM354 36T399 64T471 141T498 247Q498 305 472 353T400 430T300 458Q246 458 201 430T129 353T102 247Q102 190 128 142T200 65T300 36Q354 36 399 64Z" />
<glyph unicode="&#xa5;" glyph-name="yen" horiz-adv-x="600" d="M598 712L352 379H526V338H321V227H526V187H321V0H279V187H74V227H279V338H74V379H249L2 712H53L298 379H303L547 712H598Z" />
<glyph unicode="&#xa6;" glyph-name="brokenbar" horiz-adv-x="248" d="M102 375V712H146V375H102ZM102 -182V156H146V-182H102Z" />
<glyph unicode="&#xa7;" glyph-name="section" horiz-adv-x="518" d="M471 145T456 113T417 57Q431 25 431 -21Q431 -96 383 -142T255 -189Q144 -189 68 -123L88 -87Q131 -120 169 -133T255 -147Q319 -147 353 -114T388 -19Q388 31 364 64T282 126L204 167Q118
210 83 252T47 352Q47 386 61 420T100 476Q88 505 88 551Q88 627 137 673T267 719Q311 719 355 701T425 652L405 616Q366 648 332 663T264 678Q199 678 165 645T130 549Q130 500 153 468T236 405L314 364Q401 318 436 277T471 178Q471 145 456 113ZM361 130T394
93Q426 131 426 184Q426 222 400 251T305 318L233 358Q154 400 123 437Q92 400 92 346Q92 309 118 280T213 212L284 173Q361 130 394 93Z" />
<glyph unicode="&#xa8;" glyph-name="dieresis" horiz-adv-x="300" d="M39 687H101V626H39V687ZM202 687H264V626H202V687Z" />
<glyph unicode="&#xa9;" glyph-name="copyright" horiz-adv-x="823" d="M312 -5T229 43T99 173T51 357Q51 458 98 540T228 669T412 717Q513 717 595 670T725 540T773 357Q773 256 726 174T595 43T412 -5Q312 -5 229 43ZM502 30T576 73T692 191T735 357Q735 448
693 522T576 639T412 682Q322 682 248 639T131 522T88 357Q88 266 130 191T247 73T412 30Q502 30 576 73ZM325 138T272 197T219 357Q219 457 272 515T416 574Q457 574 496 559T565 516L546 484Q511 512 481 524T414 536Q342 536 304 490T265 357Q265 269 303 223T414
176Q450 176 480 188T546 228L565 196Q536 169 497 154T416 138Q325 138 272 197Z" />
<glyph unicode="&#xaa;" glyph-name="ordfeminine" horiz-adv-x="328" d="M275 717T275 604V419H232V464Q219 441 196 428T143 414Q98 414 68 439T37 501Q37 535 54 553T110 580T219 588H232V608Q232 648 216 665T167 682Q114 682 66 648L49 680Q73 696 104 706T166
717Q275 717 275 604ZM182 449T207 474T232 541V560H221Q163 560 134 554T94 537T83 506Q83 482 100 466T145 449Q182 449 207 474Z" />
<glyph unicode="&#xab;" glyph-name="guillemotleft" horiz-adv-x="398" d="M159 89L29 267L161 447H208L80 268L204 89H159ZM319 89L189 267L321 447H368L240 268L364 89H319Z" />
<glyph unicode="&#xac;" glyph-name="logicalnot" horiz-adv-x="600" d="M546 413V160H510V374H54V413H546Z" />
<glyph unicode="&#xad;" glyph-name="uni00AD" horiz-adv-x="420" d="M77 248V287H343V248H77Z" />
<glyph unicode="&#xae;" glyph-name="registered" horiz-adv-x="823" d="M513 717T595 670T725 540T773 357Q773 256 726 174T595 43T412 -5Q312 -5 229 43T99 173T51 357Q51 458 98 540T228 669T412 717Q513 717 595 670ZM502 30T576 73T692 191T735 357Q735
448 693 522T576 639T412 682Q322 682 248 639T131 522T88 357Q88 266 130 191T247 73T412 30Q502 30 576 73ZM490 321T513 284L603 143H556L470 279Q453 305 435 314T385 324H316V143H274V569H439Q505 569 541 537T578 447Q578 396 548 366T463 329Q490 321 513
284ZM434 363Q486 363 510 383T535 447Q535 491 511 511T434 532H316V363H434Z" />
<glyph unicode="&#xaf;" glyph-name="overscore" horiz-adv-x="300" d="M4 635V679H299V635H4Z" />
<glyph unicode="&#xb0;" glyph-name="degree" horiz-adv-x="368" d="M144 430T112 449T60 501T41 574Q41 614 60 646T112 698T184 717Q223 717 255 698T306 647T325 574Q325 534 307 501T256 449T184 430Q144 430 112 449ZM228 471T255 499T283 574Q283 619 255
648T184 677Q140 677 113 648T85 574Q85 528 112 500T184 471Q228 471 255 499Z" />
<glyph unicode="&#xb1;" glyph-name="plusminus" horiz-adv-x="600" d="M319 343H546V304H319V114H281V304H54V343H281V533H319V343ZM54 0V40H546V0H54Z" />
<glyph unicode="&#xb2;" glyph-name="uni00B2" horiz-adv-x="380" d="M329 322V285H58V317L207 485Q238 519 253 547T268 604Q268 640 247 659T190 679Q163 679 131 665T69 627L41 658Q71 684 109 700T189 716Q247 716 279 685T311 605Q311 569 294 534T241 460L115
322H329Z" />
<glyph unicode="&#xb3;" glyph-name="uni00B3" horiz-adv-x="380" d="M278 494T298 468T318 401Q318 344 281 313T184 282Q142 282 104 298T36 341L64 371Q93 347 125 334T184 320Q226 320 251 340T277 402Q277 484 175 484H127V520H165Q212 520 239 541T266 604Q266
640 245 659T189 679Q130 679 69 627L41 658Q71 684 109 700T189 716Q246 716 278 686T310 607Q310 570 291 544T241 504Q278 494 298 468Z" />
<glyph unicode="&#xb4;" glyph-name="acute" horiz-adv-x="300" d="M170 555H133L234 757H297L170 555Z" />
<glyph unicode="&#xb5;" glyph-name="uni00B5" horiz-adv-x="561" d="M473 500V0H433V95Q409 46 364 20T261 -7Q172 -7 126 40V-216H85V500H126V188Q126 109 158 72T258 34Q337 34 384 83T432 215V500H473Z" />
<glyph unicode="&#xb6;" glyph-name="paragraph" horiz-adv-x="561" d="M464 -182H415V667H289V-182H239V338Q183 338 141 362T76 429T53 525Q53 579 76 621T141 688T241 712H464V-182Z" />
<glyph unicode="&#xb7;" glyph-name="middot" horiz-adv-x="214" d="M73 303H141V232H73V303Z" />
<glyph unicode="&#xb8;" glyph-name="cedilla" horiz-adv-x="300" d="M223 -41T245 -58T268 -111Q268 -147 240 -169T162 -192Q140 -192 117 -188T76 -173L90 -138Q122 -152 164 -152Q194 -152 209 -141T225 -111Q225 -96 216 -88T189 -80Q165 -80 137 -91L118
-77L128 20H171L165 -45Q178 -41 195 -41Q223 -41 245 -58Z" />
<glyph unicode="&#xb9;" glyph-name="uni00B9" horiz-adv-x="380" d="M235 322H309V285H120V322H195V661L125 614V663L200 712H235V322Z" />
<glyph unicode="&#xba;" glyph-name="ordmasculine" horiz-adv-x="328" d="M101 414T64 455T26 566Q26 636 63 676T163 717Q225 717 263 677T301 566Q301 496 263 455T163 414Q101 414 64 455ZM210 450T233 479T257 566Q257 621 233 651T163 682Q118 682 95 652T71
566Q71 450 163 450Q210 450 233 479Z" />
<glyph unicode="&#xbb;" glyph-name="guillemotright" horiz-adv-x="398" d="M79 89H33L158 268L30 447H77L209 267L79 89ZM239 89H193L318 268L190 447H237L369 267L239 89Z" />
<glyph unicode="&#xbc;" glyph-name="onequarter" horiz-adv-x="920" d="M235 322H309V285H120V322H195V661L125 614V663L200 712H235V322ZM267 -22L228 -1L654 734L691 713L267 -22ZM890 132V95H826V0H780V95H583V128L789 427H826V132H890ZM631 132H780V348L631 132Z" />
<glyph unicode="&#xbd;" glyph-name="onehalf" horiz-adv-x="920" d="M235 322H309V285H120V322H195V661L125 614V663L200 712H235V322ZM267 -22L228 -1L654 734L691 713L267 -22ZM869 37V0H598V32L747 200Q778 234 793 262T808 319Q808 355 787 374T730 394Q703
394 671 380T609 342L581 373Q611 399 649 415T729 431Q787 431 819 400T851 320Q851 284 834 249T781 175L655 37H869Z" />
<glyph unicode="&#xbe;" glyph-name="threequarters" horiz-adv-x="920" d="M278 494T298 468T318 401Q318 344 281 313T184 282Q142 282 104 298T36 341L64 371Q93 347 125 334T184 320Q226 320 251 340T277 402Q277 484 175 484H127V520H165Q212 520 239 541T266
604Q266 640 245 659T189 679Q130 679 69 627L41 658Q71 684 109 700T189 716Q246 716 278 686T310 607Q310 570 291 544T241 504Q278 494 298 468ZM267 -22L228 -1L654 734L691 713L267 -22ZM890 132V95H826V0H780V95H583V128L789 427H826V132H890ZM631 132H780V348L631
132Z" />
<glyph unicode="&#xbf;" glyph-name="questiondown" horiz-adv-x="433" d="M200 418V489H270V418H200ZM130 -189T81 -148T31 -41Q31 -4 43 25T72 76T120 130Q151 162 170 185T203 241T221 316V325H249V314Q249 268 236 232T204 170T154 111Q114 67 95 36T76 -41Q76
-89 112 -118T208 -148Q277 -148 346 -108V-155Q281 -189 210 -189Q130 -189 81 -148Z" />
<glyph unicode="&#xc0;" glyph-name="Agrave" horiz-adv-x="721" d="M642 0L557 197H163L79 0H34L340 712H381L687 0H642ZM180 237H540L360 657L180 237ZM342 773L217 923H278L379 773H342Z" />
<glyph unicode="&#xc1;" glyph-name="Aacute" horiz-adv-x="721" d="M642 0L557 197H163L79 0H34L340 712H381L687 0H642ZM180 237H540L360 657L180 237ZM379 773H342L443 923H504L379 773Z" />
<glyph unicode="&#xc2;" glyph-name="Acircumflex" horiz-adv-x="721" d="M642 0L557 197H163L79 0H34L340 712H381L687 0H642ZM180 237H540L360 657L180 237ZM281 773H229L342 923H379L492 773H440L361 887L281 773Z" />
<glyph unicode="&#xc3;" glyph-name="Atilde" horiz-adv-x="721" d="M642 0L557 197H163L79 0H34L340 712H381L687 0H642ZM180 237H540L360 657L180 237ZM205 847T226 873T285 900Q307 900 325 892T373 865Q393 852 406 846T432 839Q457 839 470 856T482 897H516Q516
853 495 826T436 799Q414 799 394 808T348 834Q326 847 313 853T289 859Q264 859 251 842T239 802H205Q205 847 226 873Z" />
<glyph unicode="&#xc4;" glyph-name="Adieresis" horiz-adv-x="721" d="M642 0L557 197H163L79 0H34L340 712H381L687 0H642ZM180 237H540L360 657L180 237ZM248 880H310V819H248V880ZM411 880H473V819H411V880Z" />
<glyph unicode="&#xc5;" glyph-name="Aring" horiz-adv-x="721" d="M557 197H163L79 0H34L330 688Q300 697 282 721T263 778Q263 818 291 846T361 874Q401 874 430 846T459 778Q459 746 440 722T391 688L687 0H642L557 197ZM309 755T323 740T361 724Q383 724 397
739T412 778Q412 801 398 816T361 831Q338 831 324 816T309 778Q309 755 323 740ZM180 237H540L360 657L180 237Z" />
<glyph unicode="&#xc6;" glyph-name="AE" horiz-adv-x="996" d="M939 672H536L565 381H919V341H569L598 40H939V0H565L546 197H176L59 0H14L438 712H939V672ZM542 237L499 672H457L199 237H542Z" />
<glyph unicode="&#xc7;" glyph-name="Ccedilla" horiz-adv-x="684" d="M450 33T501 54T606 123L627 88Q537 -5 396 -8L393 -45Q406 -41 423 -41Q451 -41 473 -58T496 -111Q496 -147 468 -169T390 -192Q368 -192 345 -188T304 -173L318 -138Q350 -152 392 -152Q422
-152 437 -141T453 -111Q453 -96 444 -88T417 -80Q393 -80 365 -91L346 -77L353 -7Q265 0 201 45T103 170T68 357Q68 470 106 551T216 676T385 720Q535 720 627 624L606 589Q553 637 502 658T384 679Q255 679 184 595T112 357Q112 203 183 118T384 33Q450 33 501
54Z" />
<glyph unicode="&#xc8;" glyph-name="Egrave" horiz-adv-x="582" d="M97 0V712H525V673H139V381H505V341H139V39H525V0H97ZM304 773L179 923H240L341 773H304Z" />
<glyph unicode="&#xc9;" glyph-name="Eacute" horiz-adv-x="582" d="M97 0V712H525V673H139V381H505V341H139V39H525V0H97ZM341 773H304L405 923H466L341 773Z" />
<glyph unicode="&#xca;" glyph-name="Ecircumflex" horiz-adv-x="582" d="M97 0V712H525V673H139V381H505V341H139V39H525V0H97ZM243 773H191L304 923H341L454 773H402L323 887L243 773Z" />
<glyph unicode="&#xcb;" glyph-name="Edieresis" horiz-adv-x="582" d="M97 0V712H525V673H139V381H505V341H139V39H525V0H97ZM210 880H272V819H210V880ZM373 880H435V819H373V880Z" />
<glyph unicode="&#xcc;" glyph-name="Igrave" horiz-adv-x="235" d="M97 0V712H138V0H97ZM99 773L-26 923H35L136 773H99Z" />
<glyph unicode="&#xcd;" glyph-name="Iacute" horiz-adv-x="235" d="M97 0V712H138V0H97ZM136 773H99L200 923H261L136 773Z" />
<glyph unicode="&#xce;" glyph-name="Icircumflex" horiz-adv-x="235" d="M97 0V712H138V0H97ZM38 773H-14L99 923H136L249 773H197L118 887L38 773Z" />
<glyph unicode="&#xcf;" glyph-name="Idieresis" horiz-adv-x="235" d="M97 0V712H138V0H97ZM5 880H67V819H5V880ZM168 880H230V819H168V880Z" />
<glyph unicode="&#xd0;" glyph-name="Eth" horiz-adv-x="737" d="M488 712T578 621T669 357Q669 186 578 93T320 0H101V343H4V381H101V712H320Q488 712 578 621ZM470 38T546 118T623 357Q623 515 547 594T319 674H143V381H341V343H143V38H319Q470 38 546 118Z" />
<glyph unicode="&#xd1;" glyph-name="Ntilde" horiz-adv-x="739" d="M603 712H642V0H608L136 641V0H97V712H132L603 73V712ZM214 847T235 873T294 900Q316 900 334 892T382 865Q402 852 415 846T441 839Q466 839 479 856T491 897H525Q525 853 504 826T445 799Q423
799 403 808T357 834Q335 847 322 853T298 859Q273 859 260 842T248 802H214Q214 847 235 873Z" />
<glyph unicode="&#xd2;" glyph-name="Ograve" horiz-adv-x="759" d="M284 -8T214 36T106 162T68 356Q68 468 105 550T213 676T379 720Q475 720 545 676T653 551T691 357Q691 245 654 163T546 36T379 -8Q284 -8 214 36ZM505 33T575 118T645 357Q645 511 576 595T379
679Q252 679 183 595T113 357Q113 204 183 119T379 33Q505 33 575 118ZM360 773L235 923H296L397 773H360Z" />
<glyph unicode="&#xd3;" glyph-name="Oacute" horiz-adv-x="759" d="M284 -8T214 36T106 162T68 356Q68 468 105 550T213 676T379 720Q475 720 545 676T653 551T691 357Q691 245 654 163T546 36T379 -8Q284 -8 214 36ZM505 33T575 118T645 357Q645 511 576 595T379
679Q252 679 183 595T113 357Q113 204 183 119T379 33Q505 33 575 118ZM397 773H360L461 923H522L397 773Z" />
<glyph unicode="&#xd4;" glyph-name="Ocircumflex" horiz-adv-x="759" d="M284 -8T214 36T106 162T68 356Q68 468 105 550T213 676T379 720Q475 720 545 676T653 551T691 357Q691 245 654 163T546 36T379 -8Q284 -8 214 36ZM505 33T575 118T645 357Q645 511 576
595T379 679Q252 679 183 595T113 357Q113 204 183 119T379 33Q505 33 575 118ZM299 773H247L360 923H397L510 773H458L379 887L299 773Z" />
<glyph unicode="&#xd5;" glyph-name="Otilde" horiz-adv-x="759" d="M284 -8T214 36T106 162T68 356Q68 468 105 550T213 676T379 720Q475 720 545 676T653 551T691 357Q691 245 654 163T546 36T379 -8Q284 -8 214 36ZM505 33T575 118T645 357Q645 511 576 595T379
679Q252 679 183 595T113 357Q113 204 183 119T379 33Q505 33 575 118ZM223 847T244 873T303 900Q325 900 343 892T391 865Q411 852 424 846T450 839Q475 839 488 856T500 897H534Q534 853 513 826T454 799Q432 799 412 808T366 834Q344 847 331 853T307 859Q282
859 269 842T257 802H223Q223 847 244 873Z" />
<glyph unicode="&#xd6;" glyph-name="Odieresis" horiz-adv-x="759" d="M284 -8T214 36T106 162T68 356Q68 468 105 550T213 676T379 720Q475 720 545 676T653 551T691 357Q691 245 654 163T546 36T379 -8Q284 -8 214 36ZM505 33T575 118T645 357Q645 511 576
595T379 679Q252 679 183 595T113 357Q113 204 183 119T379 33Q505 33 575 118ZM266 880H328V819H266V880ZM429 880H491V819H429V880Z" />
<glyph unicode="&#xd7;" glyph-name="multiply" horiz-adv-x="600" d="M536 495L328 287L536 78L508 51L300 259L92 51L64 78L272 287L64 495L92 523L300 315L508 523L536 495Z" />
<glyph unicode="&#xd8;" glyph-name="Oslash" horiz-adv-x="759" d="M632 608T661 532T691 357Q691 245 654 163T546 36T379 -8Q284 -8 214 36L173 -35L139 -17L183 58Q128 105 98 181T68 356Q68 468 105 550T213 676T379 720Q474 720 545 677L586 747L619 729L576
655Q632 608 661 532ZM113 269T136 203T205 95L524 641Q463 679 379 679Q252 679 183 595T113 357Q113 269 136 203ZM505 33T575 118T645 357Q645 445 622 511T554 618L235 72Q295 33 379 33Q505 33 575 118Z" />
<glyph unicode="&#xd9;" glyph-name="Ugrave" horiz-adv-x="722" d="M229 -8T161 62T92 270V712H133V263Q133 33 362 33Q474 33 531 91T589 263V712H631V270Q631 133 563 63T362 -8Q229 -8 161 62ZM343 773L218 923H279L380 773H343Z" />
<glyph unicode="&#xda;" glyph-name="Uacute" horiz-adv-x="722" d="M229 -8T161 62T92 270V712H133V263Q133 33 362 33Q474 33 531 91T589 263V712H631V270Q631 133 563 63T362 -8Q229 -8 161 62ZM380 773H343L444 923H505L380 773Z" />
<glyph unicode="&#xdb;" glyph-name="Ucircumflex" horiz-adv-x="722" d="M229 -8T161 62T92 270V712H133V263Q133 33 362 33Q474 33 531 91T589 263V712H631V270Q631 133 563 63T362 -8Q229 -8 161 62ZM282 773H230L343 923H380L493 773H441L362 887L282 773Z" />
<glyph unicode="&#xdc;" glyph-name="Udieresis" horiz-adv-x="722" d="M229 -8T161 62T92 270V712H133V263Q133 33 362 33Q474 33 531 91T589 263V712H631V270Q631 133 563 63T362 -8Q229 -8 161 62ZM249 880H311V819H249V880ZM412 880H474V819H412V880Z" />
<glyph unicode="&#xdd;" glyph-name="Yacute" horiz-adv-x="587" d="M585 712L314 296V0H272V298L1 712H51L294 337L537 712H585ZM311 773H274L375 923H436L311 773Z" />
<glyph unicode="&#xde;" glyph-name="Thorn" horiz-adv-x="638" d="M471 548T528 500T585 364Q585 274 528 225T365 176H139V0H97V712H139V548H365Q471 548 528 500ZM540 215T540 364Q540 438 497 473T365 509H139V215H365Q540 215 540 364Z" />
<glyph unicode="&#xdf;" glyph-name="germandbls" horiz-adv-x="599" d="M440 339T501 283T562 152Q562 78 515 36T387 -7Q335 -7 288 11T207 61L228 96Q271 63 308 49T386 34Q450 34 483 63T517 151Q517 214 459 260T254 347V383Q352 423 391 472T431 588Q431
642 399 670T304 699Q218 699 174 653T129 513V0H88V511Q88 622 144 680T303 739Q383 739 428 699T473 586Q473 515 435 462T309 371Q440 339 501 283Z" />
<glyph unicode="&#xe0;" glyph-name="agrave" horiz-adv-x="583" d="M495 500V0H453V100Q431 48 386 21T277 -7Q210 -7 160 24T82 114T54 251Q54 329 82 388T160 479T277 512Q340 512 385 485T453 406V500H495ZM361 34T407 91T453 253Q453 358 407 414T277 471Q193
471 146 413T99 251Q99 148 146 91T278 34Q361 34 407 91ZM274 566L147 768H210L311 566H274Z" />
<glyph unicode="&#xe1;" glyph-name="aacute" horiz-adv-x="583" d="M495 500V0H453V100Q431 48 386 21T277 -7Q210 -7 160 24T82 114T54 251Q54 329 82 388T160 479T277 512Q340 512 385 485T453 406V500H495ZM361 34T407 91T453 253Q453 358 407 414T277 471Q193
471 146 413T99 251Q99 148 146 91T278 34Q361 34 407 91ZM311 566H274L375 768H438L311 566Z" />
<glyph unicode="&#xe2;" glyph-name="acircumflex" horiz-adv-x="583" d="M495 500V0H453V100Q431 48 386 21T277 -7Q210 -7 160 24T82 114T54 251Q54 329 82 388T160 479T277 512Q340 512 385 485T453 406V500H495ZM361 34T407 91T453 253Q453 358 407 414T277
471Q193 471 146 413T99 251Q99 148 146 91T278 34Q361 34 407 91ZM213 566H161L273 768H312L424 566H372L293 725L213 566Z" />
<glyph unicode="&#xe3;" glyph-name="atilde" horiz-adv-x="583" d="M495 500V0H453V100Q431 48 386 21T277 -7Q210 -7 160 24T82 114T54 251Q54 329 82 388T160 479T277 512Q340 512 385 485T453 406V500H495ZM361 34T407 91T453 253Q453 358 407 414T277 471Q193
471 146 413T99 251Q99 148 146 91T278 34Q361 34 407 91ZM137 665T158 692T217 719Q239 719 257 711T305 684Q325 671 338 665T364 658Q389 658 402 675T414 716H448Q448 671 427 645T368 618Q346 618 328 626T280 653Q260 666 247 672T221 679Q196 679 183 662T171
621H137Q137 665 158 692Z" />
<glyph unicode="&#xe4;" glyph-name="adieresis" horiz-adv-x="583" d="M495 500V0H453V100Q431 48 386 21T277 -7Q210 -7 160 24T82 114T54 251Q54 329 82 388T160 479T277 512Q340 512 385 485T453 406V500H495ZM361 34T407 91T453 253Q453 358 407 414T277
471Q193 471 146 413T99 251Q99 148 146 91T278 34Q361 34 407 91ZM180 698H242V637H180V698ZM343 698H405V637H343V698Z" />
<glyph unicode="&#xe5;" glyph-name="aring" horiz-adv-x="583" d="M495 500V0H453V100Q431 48 386 21T277 -7Q210 -7 160 24T82 114T54 251Q54 329 82 388T160 479T277 512Q340 512 385 485T453 406V500H495ZM361 34T407 91T453 253Q453 358 407 414T277 471Q193
471 146 413T99 251Q99 148 146 91T278 34Q361 34 407 91ZM252 571T224 599T196 667Q196 707 224 734T293 762Q333 762 361 735T389 667Q389 627 361 599T293 571Q252 571 224 599ZM315 613T329 628T344 667Q344 690 330 705T293 720Q271 720 256 705T241 667Q241
644 256 629T293 613Q315 613 329 628Z" />
<glyph unicode="&#xe6;" glyph-name="ae" horiz-adv-x="890" d="M458 261V254Q458 147 507 91T647 34Q729 34 811 99L830 63Q799 32 749 13T649 -7Q570 -7 516 31T436 142Q419 72 370 33T249 -7Q199 -7 159 13T96 68T72 148Q72 204 101 237T195 286T371 302H414V324Q414
402 385 436T288 471Q243 471 201 458T113 416L93 451Q129 480 180 496T283 512Q421 512 450 401Q478 453 526 482T636 512Q732 512 785 449T839 271V261H458ZM565 474T519 428T461 302H797Q791 385 750 429T637 474Q565 474 519 428ZM297 35T334 58T392 122T414
216V261H373Q275 261 221 250T143 215T120 150Q120 98 156 67T250 35Q297 35 334 58Z" />
<glyph unicode="&#xe7;" glyph-name="ccedilla" horiz-adv-x="487" d="M424 31T381 13T292 -7L289 -45Q302 -41 319 -41Q347 -41 369 -58T392 -111Q392 -147 364 -169T286 -192Q264 -192 241 -188T200 -173L214 -138Q246 -152 288 -152Q318 -152 333 -141T349
-111Q349 -96 340 -88T313 -80Q289 -80 261 -91L242 -77L249 -5Q160 6 107 75T54 251Q54 328 82 387T163 479T284 512Q334 512 379 494T454 445L434 409Q393 442 358 457T284 472Q198 472 149 413T99 250Q99 148 148 91T283 34Q322 34 357 48T434 96L454 61Q424
31 381 13Z" />
<glyph unicode="&#xe8;" glyph-name="egrave" horiz-adv-x="541" d="M101 261V252Q101 147 150 91T292 34Q339 34 380 49T461 99L481 63Q449 31 399 12T294 -7Q183 -7 119 62T54 252Q54 329 83 388T164 479T285 512Q381 512 435 449T490 273V261H101ZM211 474T164
429T104 302H448Q442 385 400 429T285 474Q211 474 164 429ZM266 566L139 768H202L303 566H266Z" />
<glyph unicode="&#xe9;" glyph-name="eacute" horiz-adv-x="541" d="M101 261V252Q101 147 150 91T292 34Q339 34 380 49T461 99L481 63Q449 31 399 12T294 -7Q183 -7 119 62T54 252Q54 329 83 388T164 479T285 512Q381 512 435 449T490 273V261H101ZM211 474T164
429T104 302H448Q442 385 400 429T285 474Q211 474 164 429ZM303 566H266L367 768H430L303 566Z" />
<glyph unicode="&#xea;" glyph-name="ecircumflex" horiz-adv-x="541" d="M101 261V252Q101 147 150 91T292 34Q339 34 380 49T461 99L481 63Q449 31 399 12T294 -7Q183 -7 119 62T54 252Q54 329 83 388T164 479T285 512Q381 512 435 449T490 273V261H101ZM211
474T164 429T104 302H448Q442 385 400 429T285 474Q211 474 164 429ZM205 566H153L265 768H304L416 566H364L285 725L205 566Z" />
<glyph unicode="&#xeb;" glyph-name="edieresis" horiz-adv-x="541" d="M101 261V252Q101 147 150 91T292 34Q339 34 380 49T461 99L481 63Q449 31 399 12T294 -7Q183 -7 119 62T54 252Q54 329 83 388T164 479T285 512Q381 512 435 449T490 273V261H101ZM211 474T164
429T104 302H448Q442 385 400 429T285 474Q211 474 164 429ZM172 698H234V637H172V698ZM335 698H397V637H335V698Z" />
<glyph unicode="&#xec;" glyph-name="igrave" horiz-adv-x="218" d="M88 0V500H129V0H88ZM91 566L-36 768H27L128 566H91Z" />
<glyph unicode="&#xed;" glyph-name="iacute" horiz-adv-x="218" d="M88 0V500H129V0H88ZM128 566H91L192 768H255L128 566Z" />
<glyph unicode="&#xee;" glyph-name="icircumflex" horiz-adv-x="218" d="M88 0V500H129V0H88ZM30 566H-22L90 768H129L241 566H189L110 725L30 566Z" />
<glyph unicode="&#xef;" glyph-name="idieresis" horiz-adv-x="218" d="M88 0V500H129V0H88ZM-3 698H59V637H-3V698ZM160 698H222V637H160V698Z" />
<glyph unicode="&#xf0;" glyph-name="eth" horiz-adv-x="556" d="M502 501T502 291Q502 143 446 68T277 -7Q210 -7 160 22T82 106T54 231Q54 303 82 357T161 440T280 470Q341 470 385 446T456 375Q438 514 347 604L190 538L175 574L314 632Q251 679 167 706L180
741Q283 708 354 649L486 705L500 668L386 620Q502 501 502 291ZM359 34T406 86T454 231Q454 324 407 376T277 428Q193 428 146 376T99 231Q99 137 145 86T276 34Q359 34 406 86Z" />
<glyph unicode="&#xf1;" glyph-name="ntilde" horiz-adv-x="570" d="M485 512T485 322V0H443V318Q443 398 411 435T307 472Q226 472 178 423T129 291V0H88V362Q88 440 80 500H120L127 405Q148 457 195 484T303 512Q485 512 485 322ZM130 665T151 692T210 719Q232
719 250 711T298 684Q318 671 331 665T357 658Q382 658 395 675T407 716H441Q441 671 420 645T361 618Q339 618 321 626T273 653Q253 666 240 672T214 679Q189 679 176 662T164 621H130Q130 665 151 692Z" />
<glyph unicode="&#xf2;" glyph-name="ograve" horiz-adv-x="553" d="M211 -7T160 25T82 116T54 253Q54 331 81 389T160 480T277 512Q343 512 393 480T471 390T499 253Q499 175 472 116T394 25T277 -7Q211 -7 160 25ZM361 34T407 91T454 253Q454 355 407 413T277
471Q194 471 147 414T99 253Q99 147 145 91T276 34Q361 34 407 91ZM258 566L131 768H194L295 566H258Z" />
<glyph unicode="&#xf3;" glyph-name="oacute" horiz-adv-x="553" d="M211 -7T160 25T82 116T54 253Q54 331 81 389T160 480T277 512Q343 512 393 480T471 390T499 253Q499 175 472 116T394 25T277 -7Q211 -7 160 25ZM361 34T407 91T454 253Q454 355 407 413T277
471Q194 471 147 414T99 253Q99 147 145 91T276 34Q361 34 407 91ZM295 566H258L359 768H422L295 566Z" />
<glyph unicode="&#xf4;" glyph-name="ocircumflex" horiz-adv-x="553" d="M211 -7T160 25T82 116T54 253Q54 331 81 389T160 480T277 512Q343 512 393 480T471 390T499 253Q499 175 472 116T394 25T277 -7Q211 -7 160 25ZM361 34T407 91T454 253Q454 355 407 413T277
471Q194 471 147 414T99 253Q99 147 145 91T276 34Q361 34 407 91ZM197 566H145L257 768H296L408 566H356L277 725L197 566Z" />
<glyph unicode="&#xf5;" glyph-name="otilde" horiz-adv-x="553" d="M211 -7T160 25T82 116T54 253Q54 331 81 389T160 480T277 512Q343 512 393 480T471 390T499 253Q499 175 472 116T394 25T277 -7Q211 -7 160 25ZM361 34T407 91T454 253Q454 355 407 413T277
471Q194 471 147 414T99 253Q99 147 145 91T276 34Q361 34 407 91ZM121 665T142 692T201 719Q223 719 241 711T289 684Q309 671 322 665T348 658Q373 658 386 675T398 716H432Q432 671 411 645T352 618Q330 618 312 626T264 653Q244 666 231 672T205 679Q180 679
167 662T155 621H121Q121 665 142 692Z" />
<glyph unicode="&#xf6;" glyph-name="odieresis" horiz-adv-x="553" d="M211 -7T160 25T82 116T54 253Q54 331 81 389T160 480T277 512Q343 512 393 480T471 390T499 253Q499 175 472 116T394 25T277 -7Q211 -7 160 25ZM361 34T407 91T454 253Q454 355 407 413T277
471Q194 471 147 414T99 253Q99 147 145 91T276 34Q361 34 407 91ZM164 698H226V637H164V698ZM327 698H389V637H327V698Z" />
<glyph unicode="&#xf7;" glyph-name="divide" horiz-adv-x="600" d="M254 449V532H334V449H254ZM546 306V266H54V306H546ZM254 41V124H334V41H254Z" />
<glyph unicode="&#xf8;" glyph-name="oslash" horiz-adv-x="553" d="M458 425T478 372T499 253Q499 175 472 116T394 25T277 -7Q215 -7 167 21L133 -37L96 -16L132 46Q95 80 75 133T54 253Q54 331 81 389T160 480T277 512Q337 512 387 484L420 541L457 522L421
459Q458 425 478 372ZM100 138T153 82L366 448Q328 471 277 471Q194 471 147 413T100 253Q100 138 153 82ZM361 34T407 91T454 253Q454 308 440 351T399 422L187 56Q222 34 276 34Q361 34 407 91Z" />
<glyph unicode="&#xf9;" glyph-name="ugrave" horiz-adv-x="561" d="M473 500V0H433V95Q409 46 364 20T261 -7Q175 -7 130 41T85 184V500H126V188Q126 109 158 72T258 34Q337 34 384 83T432 215V500H473ZM262 566L135 768H198L299 566H262Z" />
<glyph unicode="&#xfa;" glyph-name="uacute" horiz-adv-x="561" d="M473 500V0H433V95Q409 46 364 20T261 -7Q175 -7 130 41T85 184V500H126V188Q126 109 158 72T258 34Q337 34 384 83T432 215V500H473ZM299 566H262L363 768H426L299 566Z" />
<glyph unicode="&#xfb;" glyph-name="ucircumflex" horiz-adv-x="561" d="M473 500V0H433V95Q409 46 364 20T261 -7Q175 -7 130 41T85 184V500H126V188Q126 109 158 72T258 34Q337 34 384 83T432 215V500H473ZM201 566H149L261 768H300L412 566H360L281 725L201 566Z" />
<glyph unicode="&#xfc;" glyph-name="udieresis" horiz-adv-x="561" d="M473 500V0H433V95Q409 46 364 20T261 -7Q175 -7 130 41T85 184V500H126V188Q126 109 158 72T258 34Q337 34 384 83T432 215V500H473ZM168 698H230V637H168V698ZM331 698H393V637H331V698Z" />
<glyph unicode="&#xfd;" glyph-name="yacute" horiz-adv-x="520" d="M497 500L261 -57Q227 -137 177 -174T52 -227L44 -193Q116 -176 154 -148T217 -59L238 -6L24 500H69L261 38L454 500H497ZM278 566H241L342 768H405L278 566Z" />
<glyph unicode="&#xfe;" glyph-name="thorn" horiz-adv-x="583" d="M370 512T420 481T500 390T529 251Q529 171 500 113T421 24T306 -7Q241 -7 196 21T129 105V-216H88V736H129V402Q151 455 196 483T306 512Q370 512 420 481ZM391 34T437 91T483 251Q483 353 437
412T307 471Q221 471 176 415T130 253Q130 148 175 91T306 34Q391 34 437 91Z" />
<glyph unicode="&#xff;" glyph-name="ydieresis" horiz-adv-x="520" d="M497 500L261 -57Q227 -137 177 -174T52 -227L44 -193Q116 -176 154 -148T217 -59L238 -6L24 500H69L261 38L454 500H497ZM147 698H209V637H147V698ZM310 698H372V637H310V698Z" />
<glyph unicode="&#x2013;" glyph-name="endash" horiz-adv-x="505" d="M0 251V285H505V251H0Z" />
<glyph unicode="&#x2014;" glyph-name="emdash" horiz-adv-x="1010" d="M0 251V285H1010V251H0Z" />
<glyph unicode="&#x2018;" glyph-name="quoteleft" horiz-adv-x="214" d="M124 676T117 658T109 618H141V547H73V602Q73 637 82 665T116 717L143 697Q124 676 117 658Z" />
<glyph unicode="&#x2019;" glyph-name="quoteright" horiz-adv-x="214" d="M141 712V656Q141 622 131 594T97 542L71 562Q90 583 96 601T104 641H73V712H141Z" />
<glyph unicode="&#x201a;" glyph-name="quotesinglbase" horiz-adv-x="214" d="M141 71V15Q141 -56 97 -99L71 -79Q90 -58 96 -40T104 0H73V71H141Z" />
<glyph unicode="&#x201c;" glyph-name="quotedblleft" horiz-adv-x="359" d="M124 676T117 658T109 618H141V547H73V602Q73 637 82 665T116 717L143 697Q124 676 117 658ZM269 676T262 658T254 618H286V547H218V602Q218 637 227 665T261 717L288 697Q269 676 262 658Z" />
<glyph unicode="&#x201d;" glyph-name="quotedblright" horiz-adv-x="359" d="M141 712V656Q141 622 131 594T97 542L71 562Q90 583 96 601T104 641H73V712H141ZM286 712V656Q286 622 276 594T242 542L216 562Q235 583 241 601T249 641H218V712H286Z" />
<glyph unicode="&#x201e;" glyph-name="quotedblbase" horiz-adv-x="359" d="M141 71V15Q141 -56 97 -99L71 -79Q90 -58 96 -40T104 0H73V71H141ZM286 71V15Q286 -56 242 -99L216 -79Q235 -58 241 -40T249 0H218V71H286Z" />
<glyph unicode="&#x2022;" glyph-name="bullet" horiz-adv-x="529" d="M216 89T174 112T107 177T82 268Q82 314 106 355T172 422T265 447Q313 447 355 424T422 359T447 268Q447 219 423 178T356 113T265 89Q216 89 174 112Z" />
<glyph unicode="&#x2039;" glyph-name="guilsinglleft" horiz-adv-x="238" d="M159 89L29 267L161 447H208L80 268L204 89H159Z" />
<glyph unicode="&#x203a;" glyph-name="guilsinglright" horiz-adv-x="238" d="M79 89H33L158 268L30 447H77L209 267L79 89Z" />
</font>
</defs>
</svg>
