<?xml version="1.0" standalone="no"?>
<!DOCTYPE svg PUBLIC "-//W3C//DTD SVG 1.1//EN" "http://www.w3.org/Graphics/SVG/1.1/DTD/svg11.dtd">
<svg xmlns="http://www.w3.org/2000/svg">
<defs >
<font id="Muli" horiz-adv-x="597" ><font-face
    font-family="Muli Black"
    units-per-em="1000"
    panose-1="0 0 10 0 0 0 0 0 0 0"
    ascent="1005"
    descent="-250"
    alphabetic="0" />
<glyph unicode=" " glyph-name="space" horiz-adv-x="290" />
<glyph unicode="!" glyph-name="exclam" horiz-adv-x="276" d="M83 247L26 713L249 712L193 247H83ZM43 186H232V0H43V186Z" />
<glyph unicode="&quot;" glyph-name="quotedbl" horiz-adv-x="494" d="M76 402L32 712H239L197 402H76ZM298 402L254 712H461L419 402H298Z" />
<glyph unicode="#" glyph-name="numbersign" horiz-adv-x="606" d="M551 452H482L446 269H527V160H424L392 0H276L308 160H221L189 0H72L104 160H56V269H126L162 452H79V560H184L214 712H330L300 560H387L417 712H534L504 560H551V452ZM329 269L366 452H279L242 269H329Z" />
<glyph unicode="$" glyph-name="dollar" horiz-adv-x="600" d="M588 131T533 74T382 -1V-116H238V-6Q105 6 21 66L80 198Q160 145 252 136V285Q185 302 139 323T60 387T28 497Q28 577 86 636T238 714V828H382V716Q439 708 488 690T569 646L510 513Q439 558 370
572V422Q436 405 481 385T557 323T588 213Q588 131 533 74ZM214 477T252 457V566Q234 558 224 543T214 509Q214 477 252 457ZM402 167T402 204Q402 232 370 248V149Q402 167 402 204Z" />
<glyph unicode="%" glyph-name="percent" horiz-adv-x="974" d="M130 289T79 345T28 508Q28 612 79 668T219 724Q308 724 359 668T410 507Q410 401 359 345T219 289Q130 289 79 345ZM356 0H204L618 712H769L356 0ZM243 400T253 423T263 507Q263 564 252 588T219
613Q197 613 187 589T176 507Q176 448 186 424T219 400Q243 400 253 423ZM665 -7T615 49T565 212Q565 316 615 372T754 428Q844 428 894 372T944 211Q944 105 894 49T754 -7Q665 -7 615 49ZM777 104T787 128T798 211Q798 268 787 292T754 317Q732 317 722 293T711
211Q711 152 721 128T754 104Q777 104 787 128Z" />
<glyph unicode="&amp;" glyph-name="ampersand" horiz-adv-x="709" d="M660 -10Q565 13 499 66Q403 -8 287 -8Q210 -8 150 17T57 89T23 196Q23 258 54 306T153 394Q91 459 91 536Q91 590 118 631T196 696T310 719Q401 719 455 673T509 551Q509 441 389 373L491
279Q527 357 533 442H681Q677 369 657 302T601 179Q666 129 745 114L660 -10ZM285 602T268 585T250 538Q250 520 259 504T296 461Q334 481 351 500T368 544Q368 571 353 586T313 602Q285 602 268 585ZM199 172T224 150T292 128Q345 128 396 163L248 304Q199 267
199 209Q199 172 224 150Z" />
<glyph unicode="&apos;" glyph-name="quotesingle" horiz-adv-x="272" d="M76 402L32 712H239L197 402H76Z" />
<glyph unicode="(" glyph-name="parenleft" horiz-adv-x="404" d="M160 -56T130 46T99 266Q99 384 130 489T238 712H381Q325 569 305 471T285 266Q285 162 304 64T378 -182H236Q160 -56 130 46Z" />
<glyph unicode=")" glyph-name="parenright" horiz-adv-x="404" d="M25 -182Q79 -36 98 62T118 266Q118 373 99 471T23 712H165Q240 594 272 488T305 266Q305 150 274 48T166 -182H25Z" />
<glyph unicode="*" glyph-name="asterisk" horiz-adv-x="460" d="M160 325L63 397L148 497L19 529L57 644L179 594L170 726H291L281 596L404 644L441 529L312 498L398 397L299 325L230 436L160 325Z" />
<glyph unicode="+" glyph-name="plus" horiz-adv-x="600" d="M546 351V230H361V44H239V230H54V351H239V537H361V351H546Z" />
<glyph unicode="," glyph-name="comma" horiz-adv-x="276" d="M232 186V69Q232 4 209 -49T128 -157L61 -103Q116 -48 128 0H43V186H232Z" />
<glyph unicode="-" glyph-name="hyphen" horiz-adv-x="450" d="M64 201V341H388V201H64Z" />
<glyph unicode="." glyph-name="period" horiz-adv-x="276" d="M43 186H232V0H43V186Z" />
<glyph unicode="/" glyph-name="slash" horiz-adv-x="353" d="M117 -64H-28L235 758H381L117 -64Z" />
<glyph unicode="0" glyph-name="zero" horiz-adv-x="600" d="M168 -9T98 85T27 357Q27 532 97 625T300 719Q432 719 502 626T573 357Q573 179 503 85T300 -9Q168 -9 98 85ZM348 132T369 184T390 357Q390 474 369 526T300 578Q252 578 231 526T210 357Q210 237
231 185T300 132Q348 132 369 184Z" />
<glyph unicode="1" glyph-name="one" horiz-adv-x="600" d="M432 149H586V0H92V149H245V508L102 426V587L322 712H432V149Z" />
<glyph unicode="2" glyph-name="two" horiz-adv-x="601" d="M559 149V0H57V138L289 380Q354 448 354 507Q354 576 272 576Q230 576 184 560T90 512L31 645Q74 680 142 700T282 721Q359 721 416 697T505 627T537 520Q537 458 513 408T429 294L287 149H559Z" />
<glyph unicode="3" glyph-name="three" horiz-adv-x="600" d="M489 349T522 304T556 194Q556 132 523 87T426 17T279 -8Q204 -8 134 12T21 68L80 201Q173 137 270 137Q330 137 355 154T380 214Q380 254 356 271T274 288H163V432H255Q311 432 335 447T360 498Q360
536 337 556T271 576Q228 576 181 560T90 512L31 645Q74 679 143 700T284 721Q360 721 417 697T505 629T537 525Q538 469 509 428T427 367Q489 349 522 304Z" />
<glyph unicode="4" glyph-name="four" horiz-adv-x="600" d="M588 263V120H496V0H312V120H27V258L346 712H496V263H588ZM195 263H312V431L195 263Z" />
<glyph unicode="5" glyph-name="five" horiz-adv-x="600" d="M414 467T466 438T547 357T576 237Q576 163 541 108T440 22T287 -8Q218 -8 150 13T41 68L99 201Q191 137 290 137Q346 137 373 159T400 229Q400 275 372 299T292 324Q264 324 232 315T171 290H68V712H538V570H250V448Q291
467 348 467Q414 467 466 438Z" />
<glyph unicode="6" glyph-name="six" horiz-adv-x="600" d="M422 469T470 439T546 357T574 237Q574 166 542 110T453 23T324 -9Q181 -9 104 84T26 349Q26 464 63 548T171 676T337 721Q405 721 468 701T575 645L516 512Q471 545 427 560T346 576Q226 576 214 399Q237
431 276 450T361 469Q422 469 470 439ZM353 135T376 161T399 229Q399 273 377 298T314 324Q276 324 253 298T229 229Q229 188 252 162T314 135Q353 135 376 161Z" />
<glyph unicode="7" glyph-name="seven" horiz-adv-x="600" d="M36 712H565V572L255 0H55L364 563H36V712Z" />
<glyph unicode="8" glyph-name="eight" horiz-adv-x="600" d="M505 349T543 305T581 196Q581 133 545 87T446 17T300 -8Q218 -8 155 16T55 87T19 196Q19 262 57 306T164 368Q105 388 71 429T37 527Q37 586 71 630T165 697T300 721Q375 721 434 698T528 630T563
527Q563 470 529 428T437 367Q505 349 543 305ZM261 580T237 562T212 505Q212 439 300 417Q388 439 388 505Q388 543 364 561T300 580Q261 580 237 562ZM348 133T378 153T408 211Q408 248 379 271T300 303Q250 294 221 271T192 211Q192 173 222 153T300 133Q348
133 378 153Z" />
<glyph unicode="9" glyph-name="nine" horiz-adv-x="600" d="M418 721T495 628T573 363Q573 248 536 164T429 36T263 -9Q195 -9 132 11T25 67L84 200Q173 136 254 136Q374 136 386 313Q363 280 324 262T238 243Q177 243 129 273T53 355T25 475Q25 546 57 602T146
689T275 721Q418 721 495 628ZM324 388T347 414T371 483Q371 524 347 550T286 577Q247 577 224 551T201 483Q201 439 223 414T286 388Q324 388 347 414Z" />
<glyph unicode=":" glyph-name="colon" horiz-adv-x="276" d="M43 497H232V312H43V497ZM43 186H232V0H43V186Z" />
<glyph unicode=";" glyph-name="semicolon" horiz-adv-x="276" d="M43 497H232V312H43V497ZM43 186H232V69Q232 4 209 -49T128 -157L61 -103Q116 -48 128 0H43V186Z" />
<glyph unicode="&lt;" glyph-name="less" horiz-adv-x="600" d="M546 550V418L214 291L546 163V31L54 223V358L546 550Z" />
<glyph unicode="=" glyph-name="equal" horiz-adv-x="600" d="M546 452V331H54V452H546ZM546 250V129H54V250H546Z" />
<glyph unicode="&gt;" glyph-name="greater" horiz-adv-x="600" d="M54 550L546 358V223L54 31V163L386 291L54 418V550Z" />
<glyph unicode="?" glyph-name="question" horiz-adv-x="484" d="M156 721T247 721Q315 721 368 699T450 636T480 545Q480 492 452 454T371 372Q336 342 319 323T297 282L290 241H184V303Q184 350 201 380T251 447Q274 471 285 488T296 527Q296 576 231 576Q198
576 161 566T89 532V679Q156 721 247 721ZM145 0V186H333V0H145Z" />
<glyph unicode="@" glyph-name="at" horiz-adv-x="953" d="M350 -164T249 -110T92 42T37 264Q37 407 95 509T256 665T490 719Q623 719 719 672T866 539T916 342Q916 258 891 196T817 99T704 64Q651 64 617 86T572 146H570Q541 106 509 85T426 64Q348 64 306 114T264
248Q264 321 291 379T366 471T475 505Q514 505 543 491T587 446H591L600 497H727L687 275Q681 244 681 220Q681 192 691 178T727 164Q742 164 758 182T786 240T798 342Q798 473 719 543T490 614Q395 614 322 574T207 454T165 264Q165 167 203 95T314 -18T487 -58Q557
-58 606 -43T678 0H841Q803 -73 711 -118T487 -164Q350 -164 249 -110ZM508 164T538 211T568 322Q568 363 550 384T499 405Q449 405 421 357T393 247Q393 211 408 188T454 164Q508 164 538 211Z" />
<glyph unicode="A" glyph-name="A" horiz-adv-x="769" d="M607 0L544 147H228L165 0H-23L310 712H458L792 0H607ZM289 288H483L386 513L289 288Z" />
<glyph unicode="B" glyph-name="B" horiz-adv-x="702" d="M606 351T640 306T674 195Q674 136 643 92T555 24T419 0H64V712H410Q522 712 588 662T654 527Q654 472 625 430T543 369Q606 351 640 306ZM247 433H378Q430 433 454 449T478 500Q478 536 454 553T378 570H247V433ZM451
142T474 159T498 216Q498 257 475 274T397 291H247V142H397Q451 142 474 159Z" />
<glyph unicode="C" glyph-name="C" horiz-adv-x="685" d="M299 -9T217 36T90 165T45 357Q45 465 89 547T216 675T410 721Q480 721 545 700T651 643L594 510Q507 573 414 573Q328 573 282 519T236 357Q236 249 282 194T414 139Q507 139 594 202L651 69Q611 33 546
12T410 -9Q299 -9 217 36Z" />
<glyph unicode="D" glyph-name="D" horiz-adv-x="781" d="M64 712H355Q473 712 558 670T689 547T735 357Q735 246 690 166T560 43T355 0H64V712ZM342 150Q446 150 497 201T549 357Q549 562 342 562H252V150H342Z" />
<glyph unicode="E" glyph-name="E" horiz-adv-x="604" d="M64 0V712H572V568H247V434H551V290H247V144H572V0H64Z" />
<glyph unicode="F" glyph-name="F" horiz-adv-x="584" d="M64 0V712H561V565H249V435H541V289H249V0H64Z" />
<glyph unicode="G" glyph-name="G" horiz-adv-x="751" d="M696 402V45Q639 19 569 5T424 -9Q308 -9 223 35T91 161T45 357Q45 467 91 549T221 676T417 721Q494 721 562 701T674 646L615 513Q566 545 521 559T423 574Q328 574 282 521T235 357Q235 243 283 188T433
133Q480 133 527 143V275H403V402H696Z" />
<glyph unicode="H" glyph-name="H" horiz-adv-x="784" d="M536 712H720V0H536V288H248V0H64V712H248V435H536V712Z" />
<glyph unicode="I" glyph-name="I" horiz-adv-x="316" d="M64 0V712H252V0H64Z" />
<glyph unicode="J" glyph-name="J" horiz-adv-x="403" d="M2 -29Q52 -34 75 -34Q120 -34 135 -16T150 53V712H338V56Q338 -70 287 -129T112 -188Q63 -188 2 -179V-29Z" />
<glyph unicode="K" glyph-name="K" horiz-adv-x="706" d="M760 0H537L252 323V0H64V712H252V406L529 712H749L434 374L760 0Z" />
<glyph unicode="L" glyph-name="L" horiz-adv-x="579" d="M64 0V712H252V152H553V0H64Z" />
<glyph unicode="M" glyph-name="M" horiz-adv-x="852" d="M639 712H785V0H621L620 326L485 0H366L230 322V0H67V712H214L427 226L639 712Z" />
<glyph unicode="N" glyph-name="N" horiz-adv-x="766" d="M524 712H701V0H562L239 404V0H64V712H201L524 310V712Z" />
<glyph unicode="O" glyph-name="O" horiz-adv-x="805" d="M294 -9T213 35T89 163T45 357Q45 468 89 550T213 676T403 721Q512 721 592 677T716 550T759 357Q759 246 716 163T593 36T403 -9Q294 -9 213 35ZM483 134T528 191T574 357Q574 465 529 521T403 578Q323
578 278 522T233 357Q233 247 278 191T403 134Q483 134 528 191Z" />
<glyph unicode="P" glyph-name="P" horiz-adv-x="685" d="M64 712H403Q525 712 592 654T659 495Q659 396 591 337T403 278H252V0H64V712ZM378 418Q484 418 484 493Q484 531 459 550T378 570H252V418H378Z" />
<glyph unicode="Q" glyph-name="Q" horiz-adv-x="805" d="M616 0T648 -32T723 -100L598 -191Q488 -119 423 -9H403Q294 -9 213 35T89 163T45 357Q45 468 89 550T213 676T403 721Q512 721 592 677T716 550T759 357Q759 246 716 164T594 37Q616 0 648 -32ZM233 247T278
191T403 134Q483 134 528 191T574 357Q574 465 529 521T403 578Q323 578 278 522T233 357Q233 247 278 191Z" />
<glyph unicode="R" glyph-name="R" horiz-adv-x="714" d="M683 0H484L392 237Q376 277 317 277H249V0H64V712H395Q524 712 589 657T654 498Q654 426 616 374T507 299Q537 293 561 271T599 212L683 0ZM425 417T452 435T479 493Q479 534 453 552T365 570H247V417H365Q425
417 452 435Z" />
<glyph unicode="S" glyph-name="S" horiz-adv-x="672" d="M242 -9T164 12T37 69L96 202Q148 169 206 152T324 134Q384 134 416 150T448 197Q448 224 419 241T310 276Q209 296 153 325T75 395T52 492Q52 557 89 609T193 691T346 721Q423 721 495 700T609 643L551
510Q504 543 452 560T348 578Q297 578 266 559T235 506Q235 488 246 476T287 453T377 428Q474 407 529 378T608 309T631 214Q631 110 550 51T322 -9Q242 -9 164 12Z" />
<glyph unicode="T" glyph-name="T" horiz-adv-x="638" d="M224 0V560H12V712H626V560H414V0H224Z" />
<glyph unicode="U" glyph-name="U" horiz-adv-x="752" d="M221 -9T141 69T61 300V712H244V293Q244 216 278 175T377 134Q440 134 474 175T508 293V712H693V300Q693 150 612 71T377 -9Q221 -9 141 69Z" />
<glyph unicode="V" glyph-name="V" horiz-adv-x="751" d="M585 712H774L450 0H301L-23 712H172L377 234L585 712Z" />
<glyph unicode="W" glyph-name="W" horiz-adv-x="1132" d="M942 712H1120L865 0H716L567 423L415 0H266L12 712H203L349 263L508 712H636L789 255L942 712Z" />
<glyph unicode="X" glyph-name="X" horiz-adv-x="694" d="M452 360L724 0H505L346 222L186 0H-32L239 360L-26 712H191L345 496L502 712H720L452 360Z" />
<glyph unicode="Y" glyph-name="Y" horiz-adv-x="657" d="M724 712L423 272V0H234V273L-65 712H147L327 428L510 712H724Z" />
<glyph unicode="Z" glyph-name="Z" horiz-adv-x="624" d="M260 147H589V0H53V137L367 565H53V712H578V577L260 147Z" />
<glyph unicode="[" glyph-name="bracketleft" horiz-adv-x="401" d="M103 -182V712H384V578H280V-48H384V-182H103Z" />
<glyph unicode="\" glyph-name="backslash" horiz-adv-x="352" d="M234 -64L-28 758H117L380 -64H234Z" />
<glyph unicode="]" glyph-name="bracketright" horiz-adv-x="401" d="M298 -182H17V-48H121V578H17V712H298V-182Z" />
<glyph unicode="^" glyph-name="asciicircum" horiz-adv-x="600" d="M560 145H427L300 478L173 145H39L232 638H368L560 145Z" />
<glyph unicode="_" glyph-name="underscore" horiz-adv-x="505" d="M17 -103V0H488V-103H17Z" />
<glyph unicode="`" glyph-name="grave" horiz-adv-x="300" d="M97 562L-64 770H108L206 562H97Z" />
<glyph unicode="a" glyph-name="a" horiz-adv-x="643" d="M589 508V0H411V69Q389 33 347 13T255 -8Q190 -8 139 24T60 115T31 253Q31 332 60 393T140 488T255 522Q305 522 346 501T411 443V508H589ZM359 127T385 160T411 255Q411 318 385 351T311 385Q264 385
237 351T210 253Q210 192 236 160T311 127Q359 127 385 160Z" />
<glyph unicode="b" glyph-name="b" horiz-adv-x="645" d="M455 522T506 490T585 397T614 259Q614 180 585 120T505 26T389 -8Q338 -8 296 12T233 69V0H54V736H235V447Q257 481 298 501T389 522Q455 522 506 490ZM382 127T407 161T433 259Q433 320 408 352T334
385Q285 385 259 352T233 257Q233 193 259 160T334 127Q382 127 407 161Z" />
<glyph unicode="c" glyph-name="c" horiz-adv-x="515" d="M177 -8T104 62T31 253Q31 333 66 394T166 488T314 522Q370 522 424 506T510 461L464 336Q437 358 401 371T332 384Q276 384 246 352T216 257Q216 193 246 161T333 128Q366 128 401 141T464 176L510 53Q477
24 423 8T306 -8Q177 -8 104 62Z" />
<glyph unicode="d" glyph-name="d" horiz-adv-x="643" d="M589 736V0H411V69Q389 33 347 13T255 -8Q190 -8 139 25T60 119T31 259Q31 337 59 397T139 489T255 522Q303 522 343 502T408 448V736H589ZM359 127T385 160T411 257Q411 318 385 351T311 385Q262 385
236 353T210 259Q210 196 236 162T311 127Q359 127 385 160Z" />
<glyph unicode="e" glyph-name="e" horiz-adv-x="553" d="M523 236H204Q209 177 238 151T323 125Q361 125 399 137T468 172L514 52Q476 24 422 8T314 -8Q227 -8 163 24T65 115T31 256Q31 333 63 393T153 488T285 522Q357 522 411 490T494 399T523 260V236ZM223
398T206 320H368Q358 398 290 398Q223 398 206 320Z" />
<glyph unicode="f" glyph-name="f" horiz-adv-x="405" d="M319 595T298 577T277 520V508H376V375H277V0H96V375H3V508H96V522Q96 625 149 683T305 741Q363 741 399 727V588Q370 595 351 595Q319 595 298 577Z" />
<glyph unicode="g" glyph-name="g" horiz-adv-x="647" d="M595 508V32Q595 -93 520 -158T300 -224Q176 -224 85 -180L112 -48Q157 -68 204 -79T294 -91Q356 -91 385 -65T415 18V93Q390 60 348 37T257 14Q192 14 141 45T60 134T31 268Q31 343 60 400T140 490T257
522Q308 522 350 501T415 444V508H595ZM361 149T388 180T415 268Q415 322 388 353T313 385Q265 385 238 354T210 268Q210 213 238 181T313 149Q361 149 388 180Z" />
<glyph unicode="h" glyph-name="h" horiz-adv-x="624" d="M484 522T528 468T573 303V0H392V295Q392 342 376 362T326 383Q285 383 260 356T235 283V0H54V736H235V446Q294 522 394 522Q484 522 528 468Z" />
<glyph unicode="i" glyph-name="i" horiz-adv-x="289" d="M54 0V508H235V0H54ZM49 757H238V594H49V757Z" />
<glyph unicode="j" glyph-name="j" horiz-adv-x="289" d="M-40 -79T-20 -79Q12 -79 33 -61T54 -4V508H235V-6Q235 -109 182 -167T25 -225Q-33 -225 -69 -211V-72Q-40 -79 -20 -79ZM48 757H237V594H48V757Z" />
<glyph unicode="k" glyph-name="k" horiz-adv-x="598" d="M627 0H408L235 219V0H54V736H235V296L405 507H619L419 264L627 0Z" />
<glyph unicode="l" glyph-name="l" horiz-adv-x="289" d="M54 0V736H235V0H54Z" />
<glyph unicode="m" glyph-name="m" horiz-adv-x="925" d="M789 522T831 468T874 303V0H693V298Q693 343 680 363T634 383Q596 383 575 355T554 276V0H373V298Q373 343 359 363T314 383Q276 383 256 355T235 276V0H54V362Q54 444 46 508H216L225 437Q248 478 289
500T385 522Q494 522 533 430Q560 472 604 497T701 522Q789 522 831 468Z" />
<glyph unicode="n" glyph-name="n" horiz-adv-x="624" d="M484 522T528 468T573 303V0H392V295Q392 342 376 362T326 383Q285 383 260 356T235 283V0H54V362Q54 444 46 508H216L225 433Q254 476 297 499T394 522Q484 522 528 468Z" />
<glyph unicode="o" glyph-name="o" horiz-adv-x="618" d="M225 -8T162 24T65 116T31 257Q31 338 65 398T162 490T310 522Q394 522 456 490T553 398T587 257Q587 176 553 117T457 25T310 -8Q225 -8 162 24ZM408 127T408 257Q408 323 384 354T310 386Q260 386 235
355T210 257Q210 190 235 159T310 127Q408 127 408 257Z" />
<glyph unicode="p" glyph-name="p" horiz-adv-x="645" d="M454 522T505 488T585 393T614 253Q614 175 586 116T506 24T389 -8Q339 -8 298 11T235 66V-216H54V362Q54 444 46 508H216L226 429Q245 471 289 496T389 522Q454 522 505 488ZM383 127T408 159T433 253Q433
316 408 350T334 385Q285 385 259 352T233 255Q233 193 259 160T334 127Q383 127 408 159Z" />
<glyph unicode="q" glyph-name="q" horiz-adv-x="643" d="M599 508Q589 448 589 362V-216H408V64Q385 30 345 11T255 -8Q190 -8 139 24T60 115T31 253Q31 332 60 393T140 488T255 522Q309 522 353 498T418 432L428 508H599ZM359 127T385 160T411 255Q411 318 385
351T311 385Q264 385 237 351T210 253Q210 192 236 160T311 127Q359 127 385 160Z" />
<glyph unicode="r" glyph-name="r" horiz-adv-x="430" d="M412 520T432 509V344Q389 364 349 364Q235 364 235 255V0H54V362Q54 444 46 508H216L227 423Q245 470 285 495T375 520Q412 520 432 509Z" />
<glyph unicode="s" glyph-name="s" horiz-adv-x="507" d="M107 -8T19 53L65 176Q106 148 158 133T260 117Q291 117 308 126T325 151Q325 165 313 173T265 189L183 208Q105 224 71 258T36 354Q36 403 65 441T145 500T264 522Q319 522 372 506T471 461L423 341Q383
367 341 381T262 395Q232 395 215 386T198 358Q198 347 208 341T246 327L331 308Q412 289 447 253T483 153Q483 78 424 35T259 -8Q107 -8 19 53Z" />
<glyph unicode="t" glyph-name="t" horiz-adv-x="416" d="M372 138T402 144V7Q365 -8 308 -8Q205 -8 152 50T98 211V375H3V508H98V623L279 681V508H401V375H279V211Q279 175 300 157T354 138Q372 138 402 144Z" />
<glyph unicode="u" glyph-name="u" horiz-adv-x="619" d="M565 508V0H388V68Q339 -8 243 -8Q146 -8 99 46T51 211V508H232V206Q232 131 297 131Q335 131 358 158T382 230V508H565Z" />
<glyph unicode="v" glyph-name="v" horiz-adv-x="559" d="M401 507H579L353 0H204L-19 507H169L283 215L401 507Z" />
<glyph unicode="w" glyph-name="w" horiz-adv-x="900" d="M736 508H910L698 0H549L447 252L351 0H201L-11 508H173L286 215L396 508H512L625 209L736 508Z" />
<glyph unicode="x" glyph-name="x" horiz-adv-x="567" d="M386 262L603 0H391L283 136L175 0H-36L181 262L-23 508H189L283 386L376 508H590L386 262Z" />
<glyph unicode="y" glyph-name="y" horiz-adv-x="559" d="M579 508L346 -18Q300 -121 231 -168T59 -228L17 -90Q87 -76 122 -54T175 7L188 35L-19 508H169L283 215L401 508H579Z" />
<glyph unicode="z" glyph-name="z" horiz-adv-x="535" d="M258 134H504V0H47V127L277 375H48V508H494V389L258 134Z" />
<glyph unicode="{" glyph-name="braceleft" horiz-adv-x="438" d="M317 342T291 308T230 265Q264 257 290 222T317 140V50Q317 4 339 -22T391 -48H421V-182H355Q251 -182 196 -134T140 8V93Q140 149 128 171T84 206L36 222V306L84 323Q116 335 128 357T140 435V522Q140
615 195 663T355 712H421V578H391Q361 578 339 553T317 480V388Q317 342 291 308Z" />
<glyph unicode="|" glyph-name="bar" horiz-adv-x="305" d="M69 -182V712H235V-182H69Z" />
<glyph unicode="}" glyph-name="braceright" horiz-adv-x="438" d="M402 306V222L354 206Q323 194 311 172T298 93V8Q298 -85 243 -133T83 -182H17V-48H48Q77 -48 99 -22T121 50V140Q121 187 147 222T208 265Q174 273 148 307T121 388V480Q121 528 99 553T48 578H17V712H83Q188
712 243 664T298 522V435Q298 380 310 358T354 323L402 306Z" />
<glyph unicode="~" glyph-name="asciitilde" horiz-adv-x="600" d="M546 315Q531 264 491 233T404 201Q376 201 350 210T283 240Q254 254 238 260T207 267Q162 267 142 207L54 267Q69 319 109 350T196 381Q225 381 252 372T317 343Q346 329 362 323T393 316Q438
316 458 374L546 315Z" />
<glyph unicode="&#xa0;" glyph-name="uni00A0" horiz-adv-x="290" />
<glyph unicode="&#xa1;" glyph-name="exclamdown" horiz-adv-x="276" d="M43 312V497H232V312H43ZM83 250H193L249 -181L26 -182L83 250Z" />
<glyph unicode="&#xa2;" glyph-name="cent" horiz-adv-x="600" d="M551 53Q511 19 443 3V-119H300V-5Q194 8 133 76T72 253Q72 358 134 430T300 518V631H443V511Q508 496 551 461L504 336Q478 357 443 370V141Q479 154 504 176L551 53ZM258 181T300 149V363Q258
332 258 257Q258 181 300 149Z" />
<glyph unicode="&#xa3;" glyph-name="sterling" horiz-adv-x="600" d="M285 222T277 195T248 149H576V0H36V126Q74 146 86 169T99 241V303H36V410H99V517Q99 577 130 623T216 695T343 721Q414 721 477 702T588 646L530 513Q481 544 438 560T360 576Q285 576 285
504V410H439V303H285V263Q285 222 277 195Z" />
<glyph unicode="&#xa4;" glyph-name="currency" horiz-adv-x="600" d="M542 167T498 104L553 46L493 -13L439 43Q376 -3 297 -3Q221 -3 158 41L104 -14L42 46L97 103Q52 169 52 247Q52 326 97 392L42 448L105 510L159 455Q221 498 297 498Q372 498 434 455L489
513L557 445L500 388Q542 326 542 247Q542 167 498 104ZM340 136T370 169T401 247Q401 293 370 326T296 359Q253 359 223 326T193 247Q193 201 223 169T298 136Q340 136 370 169Z" />
<glyph unicode="&#xa5;" glyph-name="yen" horiz-adv-x="600" d="M633 712L435 414H539V308H394V258H539V152H394V0H205V152H61V258H205V308H61V414H164L-33 712H167L300 493L433 712H633Z" />
<glyph unicode="&#xa6;" glyph-name="brokenbar" horiz-adv-x="305" d="M69 375V712H235V375H69ZM69 -182V156H235V-182H69Z" />
<glyph unicode="&#xa7;" glyph-name="section" horiz-adv-x="604" d="M577 151T506 94Q536 51 536 10Q536 -87 472 -138T286 -189Q214 -189 155 -174T55 -128L100 -5Q140 -30 186 -44T274 -59Q312 -59 336 -45T360 -7Q360 10 348 22T307 49L161 113Q93 142 60
185T27 290Q27 379 99 437Q68 479 68 520Q68 612 136 665T324 719Q448 719 531 662L486 543Q453 565 413 577T333 590Q291 590 268 577T244 538Q244 504 296 482L442 417Q577 360 577 241Q577 151 506 94ZM407 174L410 172Q418 188 418 199Q418 225 399 249T347
288L197 360L194 361Q185 341 185 331Q185 305 203 282T255 243L407 174Z" />
<glyph unicode="&#xa8;" glyph-name="dieresis" horiz-adv-x="300" d="M-29 740H131V588H-29V740ZM172 740H332V588H172V740Z" />
<glyph unicode="&#xa9;" glyph-name="copyright" horiz-adv-x="823" d="M311 -5T229 43T99 173T51 357Q51 458 98 540T228 669T412 717Q513 717 595 670T725 540T773 357Q773 256 726 174T595 43T412 -5Q311 -5 229 43ZM494 65T559 103T662 207T699 357Q699 439
662 505T560 609T412 647Q329 647 264 610T161 506T124 357Q124 274 161 208T263 103T412 65Q494 65 559 103ZM325 138T264 197T203 357Q203 456 264 515T429 574Q530 574 588 528L550 419Q535 429 508 439T456 450Q414 450 390 426T365 357Q365 312 389 287T456
262Q480 262 507 272T550 293L588 184Q525 138 429 138Q325 138 264 197Z" />
<glyph unicode="&#xaa;" glyph-name="ordfeminine" horiz-adv-x="346" d="M256 717T294 681T333 570V408H196V459Q186 431 164 417T113 403Q69 403 40 433T10 502Q10 545 46 566T168 588H193V596Q193 604 185 608T155 612Q109 612 61 592L36 693Q94 717 174 717Q256
717 294 681ZM193 495T193 522V525H185Q140 525 140 507Q140 502 146 499T163 495Q193 495 193 522Z" />
<glyph unicode="&#xab;" glyph-name="guillemotleft" horiz-adv-x="565" d="M157 84L19 267L156 452H304L172 268L303 84H157ZM398 84L260 267L397 452H545L413 268L544 84H398Z" />
<glyph unicode="&#xac;" glyph-name="logicalnot" horiz-adv-x="600" d="M546 451V130H421V329H54V451H546Z" />
<glyph unicode="&#xad;" glyph-name="uni00AD" horiz-adv-x="450" d="M64 201V341H388V201H64Z" />
<glyph unicode="&#xae;" glyph-name="registered" horiz-adv-x="823" d="M513 717T595 670T725 540T773 357Q773 256 726 174T595 43T412 -5Q311 -5 229 43T99 173T51 357Q51 458 98 540T228 669T412 717Q513 717 595 670ZM663 200T681 250T699 357Q699 439 662
505T560 609T412 647Q329 647 264 610T161 506T124 357Q124 274 161 208T263 103T412 65Q472 65 523 85T613 143H462L399 281Q399 284 398 286T395 289H384V143H226V571H440Q521 571 564 533T608 431Q608 384 583 349T509 300Q533 298 555 285T589 248L630 162Q663
200 681 250ZM440 396T449 402T459 423Q459 440 450 446T419 453H382V396H419Q440 396 449 402Z" />
<glyph unicode="&#xaf;" glyph-name="overscore" horiz-adv-x="300" d="M-9 610V718H312V610H-9Z" />
<glyph unicode="&#xb0;" glyph-name="degree" horiz-adv-x="373" d="M142 408T106 428T49 483T28 563Q28 606 49 641T106 697T186 717Q230 717 266 697T323 642T344 563Q344 519 324 484T267 428T186 408Q142 408 106 428ZM214 495T233 514T252 563Q252 592 233
611T186 630Q159 630 140 612T121 563Q121 533 140 514T186 495Q214 495 233 514Z" />
<glyph unicode="&#xb1;" glyph-name="plusminus" horiz-adv-x="600" d="M361 406H546V284H361V152H239V284H54V406H239V537H361V406ZM54 0V121H546V0H54Z" />
<glyph unicode="&#xb2;" glyph-name="uni00B2" horiz-adv-x="380" d="M357 404V285H39V397L168 530Q195 561 195 579Q195 602 157 602Q106 602 46 571L26 682Q55 697 100 706T187 716Q260 716 305 682T350 589Q350 553 332 522T265 447L213 404H357Z" />
<glyph unicode="&#xb3;" glyph-name="uni00B3" horiz-adv-x="380" d="M322 495T343 468T364 403Q364 371 344 343T284 297T183 280Q140 280 95 289T20 313L39 424Q97 394 168 394Q197 394 208 400T220 418Q220 442 177 442H99V558H165Q190 558 198 562T207 580Q207
590 197 596T165 602Q137 602 106 594T46 571L26 682Q55 697 99 706T178 716Q260 716 305 681T350 594Q350 563 334 540T285 506Q322 495 343 468Z" />
<glyph unicode="&#xb4;" glyph-name="acute" horiz-adv-x="300" d="M206 562H97L195 770H367L206 562Z" />
<glyph unicode="&#xb5;" glyph-name="uni00B5" horiz-adv-x="619" d="M565 508V0H388V68Q339 -8 243 -8H232V-216H51V508H232V206Q232 131 297 131Q335 131 358 158T382 230V508H565Z" />
<glyph unicode="&#xb6;" glyph-name="paragraph" horiz-adv-x="658" d="M593 -182H478V609H375V-182H259V250Q190 250 137 279T55 360T26 482Q26 551 55 603T138 683T263 712H593V-182Z" />
<glyph unicode="&#xb7;" glyph-name="middot" horiz-adv-x="276" d="M43 365H232V179H43V365Z" />
<glyph unicode="&#xb8;" glyph-name="cedilla" horiz-adv-x="300" d="M229 -40T252 -59T275 -110Q275 -151 238 -175T131 -200Q109 -200 83 -196T34 -183L45 -118Q99 -132 125 -132Q168 -132 168 -110Q168 -93 136 -93Q124 -93 104 -98L84 -76L97 20H189L180 -40H188Q229
-40 252 -59Z" />
<glyph unicode="&#xb9;" glyph-name="uni00B9" horiz-adv-x="380" d="M295 404H378V285H58V404H141V552L63 513V647L188 712H295V404Z" />
<glyph unicode="&#xba;" glyph-name="ordmasculine" horiz-adv-x="391" d="M105 403T59 448T13 561Q13 626 59 671T196 717Q287 717 332 672T378 561Q378 494 333 449T196 403Q105 403 59 448ZM213 516T224 528T235 561Q235 603 196 603Q157 603 157 561Q157 540
168 528T196 516Q213 516 224 528Z" />
<glyph unicode="&#xbb;" glyph-name="guillemotright" horiz-adv-x="565" d="M168 84H21L153 268L20 452H169L305 267L168 84ZM409 84H262L394 268L261 452H410L546 267L409 84Z" />
<glyph unicode="&#xbc;" glyph-name="onequarter" horiz-adv-x="973" d="M636 744L750 678L337 -32L223 34L369 285H58V404H141V552L63 513V647L188 712H295V404H378V300L636 744ZM974 165V56H915V0H782V56H596V161L796 427H915V165H974ZM716 165H782V249L716 165Z" />
<glyph unicode="&#xbd;" glyph-name="onehalf" horiz-adv-x="973" d="M636 744L750 678L337 -32L223 34L369 285H58V404H141V552L63 513V647L188 712H295V404H378V300L636 744ZM950 119V0H632V112L761 245Q788 276 788 294Q788 317 750 317Q699 317 639 286L619
397Q648 412 693 421T780 431Q853 431 898 397T943 304Q943 268 925 237T858 162L806 119H950Z" />
<glyph unicode="&#xbe;" glyph-name="threequarters" horiz-adv-x="973" d="M322 495T343 468T364 403Q364 371 344 343T284 297T183 280Q140 280 95 289T20 313L39 424Q97 394 168 394Q197 394 208 400T220 418Q220 442 177 442H99V558H165Q190 558 198 562T207
580Q207 590 197 596T165 602Q137 602 106 594T46 571L26 682Q55 697 99 706T178 716Q260 716 305 681T350 594Q350 563 334 540T285 506Q322 495 343 468ZM337 -32L223 34L636 744L750 678L337 -32ZM974 165V56H915V0H782V56H596V161L796 427H915V165H974ZM716
165H782V249L716 165Z" />
<glyph unicode="&#xbf;" glyph-name="questiondown" horiz-adv-x="484" d="M150 312V497H338V312H150ZM173 -190T120 -170T36 -109T4 -13Q4 21 19 47T55 92T111 136Q147 162 164 178T187 216L194 256H300V194Q300 147 282 120T230 65Q208 47 198 35T188 5Q188
-45 251 -45Q321 -45 394 0V-147Q326 -190 235 -190Q173 -190 120 -170Z" />
<glyph unicode="&#xc0;" glyph-name="Agrave" horiz-adv-x="769" d="M607 0L544 147H228L165 0H-23L310 712H458L792 0H607ZM289 288H483L386 513L289 288ZM329 773L172 931H334L438 773H329Z" />
<glyph unicode="&#xc1;" glyph-name="Aacute" horiz-adv-x="769" d="M607 0L544 147H228L165 0H-23L310 712H458L792 0H607ZM289 288H483L386 513L289 288ZM438 773H329L433 931H595L438 773Z" />
<glyph unicode="&#xc2;" glyph-name="Acircumflex" horiz-adv-x="769" d="M607 0L544 147H228L165 0H-23L310 712H458L792 0H607ZM289 288H483L386 513L289 288ZM326 773H195L334 931H433L572 773H441L384 851L326 773Z" />
<glyph unicode="&#xc3;" glyph-name="Atilde" horiz-adv-x="769" d="M607 0L544 147H228L165 0H-23L310 712H458L792 0H607ZM289 288H483L386 513L289 288ZM203 855T236 894T320 934Q337 934 353 928T393 907Q412 896 425 890T450 884Q467 884 478 896T492 931H564Q564
850 531 811T447 771Q430 771 414 777T374 798Q355 809 342 815T317 821Q300 821 289 809T275 774H203Q203 855 236 894Z" />
<glyph unicode="&#xc4;" glyph-name="Adieresis" horiz-adv-x="769" d="M607 0L544 147H228L165 0H-23L310 712H458L792 0H607ZM289 288H483L386 513L289 288ZM203 928H363V777H203V928ZM404 928H564V777H404V928Z" />
<glyph unicode="&#xc5;" glyph-name="Aring" horiz-adv-x="769" d="M544 147H228L165 0H-23L307 706Q290 721 281 742T271 788Q271 834 304 866T385 899Q432 899 465 867T499 788Q499 763 489 741T462 704L792 0H607L544 147ZM367 831T355 819T343 788Q343 770
355 757T385 743Q403 743 415 756T427 788Q427 806 415 818T385 831Q367 831 355 819ZM289 288H483L386 513L289 288Z" />
<glyph unicode="&#xc6;" glyph-name="AE" horiz-adv-x="1014" d="M982 568H679L687 434H961V290H697L706 144H982V0H545L536 147H247L160 0H-43L411 712H982V568ZM528 288L511 568H498L331 288H528Z" />
<glyph unicode="&#xc7;" glyph-name="Ccedilla" horiz-adv-x="685" d="M616 37T558 17T436 -8L431 -40H439Q480 -40 503 -59T526 -110Q526 -151 489 -175T382 -200Q360 -200 334 -196T285 -183L296 -118Q350 -132 376 -132Q419 -132 419 -110Q419 -93 387 -93Q375
-93 355 -98L335 -76L345 -5Q252 8 185 56T81 182T45 357Q45 465 89 547T216 675T410 721Q480 721 545 700T651 643L594 510Q507 573 414 573Q328 573 282 519T236 357Q236 249 282 194T414 139Q507 139 594 202L651 69Q616 37 558 17Z" />
<glyph unicode="&#xc8;" glyph-name="Egrave" horiz-adv-x="604" d="M64 0V712H572V568H247V434H551V290H247V144H572V0H64ZM281 773L124 931H286L390 773H281Z" />
<glyph unicode="&#xc9;" glyph-name="Eacute" horiz-adv-x="604" d="M64 0V712H572V568H247V434H551V290H247V144H572V0H64ZM390 773H281L385 931H547L390 773Z" />
<glyph unicode="&#xca;" glyph-name="Ecircumflex" horiz-adv-x="604" d="M64 0V712H572V568H247V434H551V290H247V144H572V0H64ZM278 773H147L286 931H385L524 773H393L336 851L278 773Z" />
<glyph unicode="&#xcb;" glyph-name="Edieresis" horiz-adv-x="604" d="M64 0V712H572V568H247V434H551V290H247V144H572V0H64ZM155 928H315V777H155V928ZM356 928H516V777H356V928Z" />
<glyph unicode="&#xcc;" glyph-name="Igrave" horiz-adv-x="316" d="M64 0V712H252V0H64ZM102 773L-55 931H107L211 773H102Z" />
<glyph unicode="&#xcd;" glyph-name="Iacute" horiz-adv-x="316" d="M64 0V712H252V0H64ZM211 773H102L206 931H368L211 773Z" />
<glyph unicode="&#xce;" glyph-name="Icircumflex" horiz-adv-x="316" d="M64 0V712H252V0H64ZM99 773H-32L107 931H206L345 773H214L157 851L99 773Z" />
<glyph unicode="&#xcf;" glyph-name="Idieresis" horiz-adv-x="316" d="M64 0V712H252V0H64ZM-24 928H136V777H-24V928ZM177 928H337V777H177V928Z" />
<glyph unicode="&#xd0;" glyph-name="Eth" horiz-adv-x="818" d="M511 712T596 670T726 547T772 357Q772 246 727 166T597 43T393 0H101V289H17V429H101V712H393Q511 712 596 670ZM483 150T534 201T585 357Q585 562 379 562H289V429H473V289H289V150H379Q483 150
534 201Z" />
<glyph unicode="&#xd1;" glyph-name="Ntilde" horiz-adv-x="766" d="M524 712H701V0H562L239 404V0H64V712H201L524 310V712ZM201 855T234 894T318 934Q335 934 351 928T391 907Q410 896 423 890T448 884Q465 884 476 896T490 931H562Q562 850 529 811T445 771Q428
771 412 777T372 798Q353 809 340 815T315 821Q298 821 287 809T273 774H201Q201 855 234 894Z" />
<glyph unicode="&#xd2;" glyph-name="Ograve" horiz-adv-x="805" d="M294 -9T213 35T89 163T45 357Q45 468 89 550T213 676T403 721Q512 721 592 677T716 550T759 357Q759 246 716 163T593 36T403 -9Q294 -9 213 35ZM483 134T528 191T574 357Q574 465 529 521T403
578Q323 578 278 522T233 357Q233 247 278 191T403 134Q483 134 528 191ZM347 773L190 931H352L456 773H347Z" />
<glyph unicode="&#xd3;" glyph-name="Oacute" horiz-adv-x="805" d="M294 -9T213 35T89 163T45 357Q45 468 89 550T213 676T403 721Q512 721 592 677T716 550T759 357Q759 246 716 163T593 36T403 -9Q294 -9 213 35ZM483 134T528 191T574 357Q574 465 529 521T403
578Q323 578 278 522T233 357Q233 247 278 191T403 134Q483 134 528 191ZM456 773H347L451 931H613L456 773Z" />
<glyph unicode="&#xd4;" glyph-name="Ocircumflex" horiz-adv-x="805" d="M294 -9T213 35T89 163T45 357Q45 468 89 550T213 676T403 721Q512 721 592 677T716 550T759 357Q759 246 716 163T593 36T403 -9Q294 -9 213 35ZM483 134T528 191T574 357Q574 465 529
521T403 578Q323 578 278 522T233 357Q233 247 278 191T403 134Q483 134 528 191ZM344 773H213L352 931H451L590 773H459L402 851L344 773Z" />
<glyph unicode="&#xd5;" glyph-name="Otilde" horiz-adv-x="805" d="M294 -9T213 35T89 163T45 357Q45 468 89 550T213 676T403 721Q512 721 592 677T716 550T759 357Q759 246 716 163T593 36T403 -9Q294 -9 213 35ZM483 134T528 191T574 357Q574 465 529 521T403
578Q323 578 278 522T233 357Q233 247 278 191T403 134Q483 134 528 191ZM221 855T254 894T338 934Q355 934 371 928T411 907Q430 896 443 890T468 884Q485 884 496 896T510 931H582Q582 850 549 811T465 771Q448 771 432 777T392 798Q373 809 360 815T335 821Q318
821 307 809T293 774H221Q221 855 254 894Z" />
<glyph unicode="&#xd6;" glyph-name="Odieresis" horiz-adv-x="805" d="M294 -9T213 35T89 163T45 357Q45 468 89 550T213 676T403 721Q512 721 592 677T716 550T759 357Q759 246 716 163T593 36T403 -9Q294 -9 213 35ZM483 134T528 191T574 357Q574 465 529 521T403
578Q323 578 278 522T233 357Q233 247 278 191T403 134Q483 134 528 191ZM221 928H381V777H221V928ZM422 928H582V777H422V928Z" />
<glyph unicode="&#xd7;" glyph-name="multiply" horiz-adv-x="600" d="M536 441L385 291L536 140L451 55L300 206L149 55L64 140L215 291L64 441L149 527L300 376L451 527L536 441Z" />
<glyph unicode="&#xd8;" glyph-name="Oslash" horiz-adv-x="805" d="M701 591T730 519T759 357Q759 246 716 163T593 36T403 -9Q337 -9 280 8L230 -77L112 -6L159 74Q104 122 75 194T45 357Q45 468 89 550T213 676T403 721Q467 721 526 704L575 789L693 718L647
639Q701 591 730 519ZM233 285T253 236L449 573Q426 578 403 578Q323 578 278 522T233 357Q233 285 253 236ZM483 134T528 191T574 357Q574 430 553 478L356 140Q379 134 403 134Q483 134 528 191Z" />
<glyph unicode="&#xd9;" glyph-name="Ugrave" horiz-adv-x="752" d="M221 -9T141 69T61 300V712H244V293Q244 216 278 175T377 134Q440 134 474 175T508 293V712H693V300Q693 150 612 71T377 -9Q221 -9 141 69ZM322 773L165 931H327L431 773H322Z" />
<glyph unicode="&#xda;" glyph-name="Uacute" horiz-adv-x="752" d="M221 -9T141 69T61 300V712H244V293Q244 216 278 175T377 134Q440 134 474 175T508 293V712H693V300Q693 150 612 71T377 -9Q221 -9 141 69ZM431 773H322L426 931H588L431 773Z" />
<glyph unicode="&#xdb;" glyph-name="Ucircumflex" horiz-adv-x="752" d="M221 -9T141 69T61 300V712H244V293Q244 216 278 175T377 134Q440 134 474 175T508 293V712H693V300Q693 150 612 71T377 -9Q221 -9 141 69ZM319 773H188L327 931H426L565 773H434L377
851L319 773Z" />
<glyph unicode="&#xdc;" glyph-name="Udieresis" horiz-adv-x="752" d="M221 -9T141 69T61 300V712H244V293Q244 216 278 175T377 134Q440 134 474 175T508 293V712H693V300Q693 150 612 71T377 -9Q221 -9 141 69ZM196 928H356V777H196V928ZM397 928H557V777H397V928Z" />
<glyph unicode="&#xdd;" glyph-name="Yacute" horiz-adv-x="657" d="M724 712L423 272V0H234V273L-65 712H147L327 428L510 712H724ZM382 773H273L377 931H539L382 773Z" />
<glyph unicode="&#xde;" glyph-name="Thorn" horiz-adv-x="686" d="M526 575T592 518T659 362Q659 263 592 206T408 149H248V0H64V712H248V575H408Q526 575 592 518ZM433 291T458 307T484 362Q484 399 458 415T376 432H248V291H376Q433 291 458 307Z" />
<glyph unicode="&#xdf;" glyph-name="germandbls" horiz-adv-x="723" d="M602 347T654 299T706 168Q706 116 678 76T599 14T481 -8Q417 -8 363 7T272 53L319 181Q353 152 396 137T483 122Q513 122 527 138T542 176Q542 213 491 243T323 300V431Q394 450 422 476T450
540Q450 618 358 618Q299 618 267 583T235 475V0H54V448Q54 595 132 670T359 746Q480 746 549 694T619 548Q619 494 591 452T489 377Q602 347 654 299Z" />
<glyph unicode="&#xe0;" glyph-name="agrave" horiz-adv-x="643" d="M589 508V0H411V69Q389 33 347 13T255 -8Q190 -8 139 24T60 115T31 253Q31 332 60 393T140 488T255 522Q305 522 346 501T411 443V508H589ZM359 127T385 160T411 255Q411 318 385 351T311 385Q264
385 237 351T210 253Q210 192 236 160T311 127Q359 127 385 160ZM266 573L105 781H277L375 573H266Z" />
<glyph unicode="&#xe1;" glyph-name="aacute" horiz-adv-x="643" d="M589 508V0H411V69Q389 33 347 13T255 -8Q190 -8 139 24T60 115T31 253Q31 332 60 393T140 488T255 522Q305 522 346 501T411 443V508H589ZM359 127T385 160T411 255Q411 318 385 351T311 385Q264
385 237 351T210 253Q210 192 236 160T311 127Q359 127 385 160ZM375 573H266L364 781H536L375 573Z" />
<glyph unicode="&#xe2;" glyph-name="acircumflex" horiz-adv-x="643" d="M589 508V0H411V69Q389 33 347 13T255 -8Q190 -8 139 24T60 115T31 253Q31 332 60 393T140 488T255 522Q305 522 346 501T411 443V508H589ZM359 127T385 160T411 255Q411 318 385 351T311
385Q264 385 237 351T210 253Q210 192 236 160T311 127Q359 127 385 160ZM268 573H132L268 781H373L509 573H373L321 679L268 573Z" />
<glyph unicode="&#xe3;" glyph-name="atilde" horiz-adv-x="643" d="M589 508V0H411V69Q389 33 347 13T255 -8Q190 -8 139 24T60 115T31 253Q31 332 60 393T140 488T255 522Q305 522 346 501T411 443V508H589ZM359 127T385 160T411 255Q411 318 385 351T311 385Q264
385 237 351T210 253Q210 192 236 160T311 127Q359 127 385 160ZM140 680T173 719T257 759Q274 759 290 753T330 732Q349 721 362 715T387 709Q404 709 415 721T429 756H501Q501 675 468 636T384 596Q367 596 351 602T311 623Q292 634 279 640T254 646Q237 646
226 634T212 599H140Q140 680 173 719Z" />
<glyph unicode="&#xe4;" glyph-name="adieresis" horiz-adv-x="643" d="M589 508V0H411V69Q389 33 347 13T255 -8Q190 -8 139 24T60 115T31 253Q31 332 60 393T140 488T255 522Q305 522 346 501T411 443V508H589ZM359 127T385 160T411 255Q411 318 385 351T311
385Q264 385 237 351T210 253Q210 192 236 160T311 127Q359 127 385 160ZM140 751H300V599H140V751ZM341 751H501V599H341V751Z" />
<glyph unicode="&#xe5;" glyph-name="aring" horiz-adv-x="643" d="M589 508V0H411V69Q389 33 347 13T255 -8Q190 -8 139 24T60 115T31 253Q31 332 60 393T140 488T255 522Q305 522 346 501T411 443V508H589ZM359 127T385 160T411 255Q411 318 385 351T311 385Q264
385 237 351T210 253Q210 192 236 160T311 127Q359 127 385 160ZM273 566T240 598T206 678Q206 725 239 757T321 790Q368 790 401 757T435 678Q435 630 402 598T321 566Q273 566 240 598ZM339 633T350 646T362 678Q362 696 351 708T321 721Q303 721 291 709T279
678Q279 659 291 646T321 633Q339 633 350 646Z" />
<glyph unicode="&#xe6;" glyph-name="ae" horiz-adv-x="860" d="M829 236H515Q522 125 634 125Q668 125 705 137T775 172L820 52Q784 24 730 8T621 -8Q550 -8 498 15T413 85Q388 40 344 16T241 -8Q181 -8 134 13T59 73T32 162Q32 245 96 282T308 320H344Q344 356
328 372T272 388Q233 388 187 374T98 337L53 458Q98 485 163 503T284 522Q396 522 448 463Q512 522 608 522Q673 522 723 489T801 397T829 260V236ZM570 398T550 380T521 320H676Q665 398 603 398Q570 398 550 380ZM305 114T324 140T344 208V238H319Q206 238 206
168Q206 143 222 129T266 114Q305 114 324 140Z" />
<glyph unicode="&#xe7;" glyph-name="ccedilla" horiz-adv-x="515" d="M481 27T434 12T332 -7L327 -40H335Q376 -40 399 -59T422 -110Q422 -151 385 -175T278 -200Q256 -200 230 -196T181 -183L192 -118Q246 -132 272 -132Q315 -132 315 -110Q315 -93 283 -93Q271
-93 251 -98L231 -76L241 -3Q141 14 86 81T31 253Q31 333 66 394T166 488T314 522Q370 522 424 506T510 461L464 336Q437 358 401 371T332 384Q276 384 246 352T216 257Q216 193 246 161T333 128Q366 128 401 141T464 176L510 53Q481 27 434 12Z" />
<glyph unicode="&#xe8;" glyph-name="egrave" horiz-adv-x="553" d="M523 236H204Q209 177 238 151T323 125Q361 125 399 137T468 172L514 52Q476 24 422 8T314 -8Q227 -8 163 24T65 115T31 256Q31 333 63 393T153 488T285 522Q357 522 411 490T494 399T523 260V236ZM223
398T206 320H368Q358 398 290 398Q223 398 206 320ZM230 573L69 781H241L339 573H230Z" />
<glyph unicode="&#xe9;" glyph-name="eacute" horiz-adv-x="553" d="M523 236H204Q209 177 238 151T323 125Q361 125 399 137T468 172L514 52Q476 24 422 8T314 -8Q227 -8 163 24T65 115T31 256Q31 333 63 393T153 488T285 522Q357 522 411 490T494 399T523 260V236ZM223
398T206 320H368Q358 398 290 398Q223 398 206 320ZM339 573H230L328 781H500L339 573Z" />
<glyph unicode="&#xea;" glyph-name="ecircumflex" horiz-adv-x="553" d="M523 236H204Q209 177 238 151T323 125Q361 125 399 137T468 172L514 52Q476 24 422 8T314 -8Q227 -8 163 24T65 115T31 256Q31 333 63 393T153 488T285 522Q357 522 411 490T494 399T523
260V236ZM223 398T206 320H368Q358 398 290 398Q223 398 206 320ZM232 573H96L232 781H337L473 573H337L285 679L232 573Z" />
<glyph unicode="&#xeb;" glyph-name="edieresis" horiz-adv-x="553" d="M523 236H204Q209 177 238 151T323 125Q361 125 399 137T468 172L514 52Q476 24 422 8T314 -8Q227 -8 163 24T65 115T31 256Q31 333 63 393T153 488T285 522Q357 522 411 490T494 399T523
260V236ZM223 398T206 320H368Q358 398 290 398Q223 398 206 320ZM104 751H264V599H104V751ZM305 751H465V599H305V751Z" />
<glyph unicode="&#xec;" glyph-name="igrave" horiz-adv-x="289" d="M54 0V508H235V0H54ZM89 573L-72 781H100L198 573H89Z" />
<glyph unicode="&#xed;" glyph-name="iacute" horiz-adv-x="289" d="M54 0V508H235V0H54ZM198 573H89L187 781H359L198 573Z" />
<glyph unicode="&#xee;" glyph-name="icircumflex" horiz-adv-x="289" d="M54 0V508H235V0H54ZM91 573H-45L91 781H196L332 573H196L144 679L91 573Z" />
<glyph unicode="&#xef;" glyph-name="idieresis" horiz-adv-x="289" d="M54 0V508H235V0H54ZM-37 751H123V599H-37V751ZM164 751H324V599H164V751Z" />
<glyph unicode="&#xf0;" glyph-name="eth" horiz-adv-x="627" d="M553 509T574 443T596 310Q596 159 519 76T302 -8Q223 -8 162 22T66 106T31 232Q31 301 63 355T153 439T284 470Q364 470 413 432Q395 485 357 528L171 481L147 570L258 598Q204 622 149 626L188
749Q334 733 441 643L568 675L589 586L511 567Q553 509 574 443ZM358 127T383 154T408 232Q408 339 310 339Q210 339 210 232Q210 127 310 127Q358 127 383 154Z" />
<glyph unicode="&#xf1;" glyph-name="ntilde" horiz-adv-x="624" d="M484 522T528 468T573 303V0H392V295Q392 342 376 362T326 383Q285 383 260 356T235 283V0H54V362Q54 444 46 508H216L225 433Q254 476 297 499T394 522Q484 522 528 468ZM133 680T166 719T250
759Q267 759 283 753T323 732Q342 721 355 715T380 709Q397 709 408 721T422 756H494Q494 675 461 636T377 596Q360 596 344 602T304 623Q285 634 272 640T247 646Q230 646 219 634T205 599H133Q133 680 166 719Z" />
<glyph unicode="&#xf2;" glyph-name="ograve" horiz-adv-x="618" d="M225 -8T162 24T65 116T31 257Q31 338 65 398T162 490T310 522Q394 522 456 490T553 398T587 257Q587 176 553 117T457 25T310 -8Q225 -8 162 24ZM408 127T408 257Q408 323 384 354T310 386Q260
386 235 355T210 257Q210 190 235 159T310 127Q408 127 408 257ZM255 573L94 781H266L364 573H255Z" />
<glyph unicode="&#xf3;" glyph-name="oacute" horiz-adv-x="618" d="M225 -8T162 24T65 116T31 257Q31 338 65 398T162 490T310 522Q394 522 456 490T553 398T587 257Q587 176 553 117T457 25T310 -8Q225 -8 162 24ZM408 127T408 257Q408 323 384 354T310 386Q260
386 235 355T210 257Q210 190 235 159T310 127Q408 127 408 257ZM364 573H255L353 781H525L364 573Z" />
<glyph unicode="&#xf4;" glyph-name="ocircumflex" horiz-adv-x="618" d="M225 -8T162 24T65 116T31 257Q31 338 65 398T162 490T310 522Q394 522 456 490T553 398T587 257Q587 176 553 117T457 25T310 -8Q225 -8 162 24ZM408 127T408 257Q408 323 384 354T310
386Q260 386 235 355T210 257Q210 190 235 159T310 127Q408 127 408 257ZM257 573H121L257 781H362L498 573H362L310 679L257 573Z" />
<glyph unicode="&#xf5;" glyph-name="otilde" horiz-adv-x="618" d="M225 -8T162 24T65 116T31 257Q31 338 65 398T162 490T310 522Q394 522 456 490T553 398T587 257Q587 176 553 117T457 25T310 -8Q225 -8 162 24ZM408 127T408 257Q408 323 384 354T310 386Q260
386 235 355T210 257Q210 190 235 159T310 127Q408 127 408 257ZM129 680T162 719T246 759Q263 759 279 753T319 732Q338 721 351 715T376 709Q393 709 404 721T418 756H490Q490 675 457 636T373 596Q356 596 340 602T300 623Q281 634 268 640T243 646Q226 646
215 634T201 599H129Q129 680 162 719Z" />
<glyph unicode="&#xf6;" glyph-name="odieresis" horiz-adv-x="618" d="M225 -8T162 24T65 116T31 257Q31 338 65 398T162 490T310 522Q394 522 456 490T553 398T587 257Q587 176 553 117T457 25T310 -8Q225 -8 162 24ZM408 127T408 257Q408 323 384 354T310 386Q260
386 235 355T210 257Q210 190 235 159T310 127Q408 127 408 257ZM129 751H289V599H129V751ZM330 751H490V599H330V751Z" />
<glyph unicode="&#xf7;" glyph-name="divide" horiz-adv-x="600" d="M229 414V544H359V414H229ZM546 351V230H54V351H546ZM229 29V160H359V29H229Z" />
<glyph unicode="&#xf8;" glyph-name="oslash" horiz-adv-x="618" d="M536 435T561 381T587 257Q587 176 553 117T457 25T310 -8Q259 -8 217 4L173 -71L92 -23L131 43Q83 78 57 132T31 257Q31 338 65 398T162 490T310 522Q360 522 403 510L445 583L527 535L489
470Q536 435 561 381ZM206 216T215 189L331 387Q324 388 310 388Q258 388 232 356T206 257Q206 216 215 189ZM361 126T386 157T412 257Q412 296 403 323L289 127Q296 126 310 126Q361 126 386 157Z" />
<glyph unicode="&#xf9;" glyph-name="ugrave" horiz-adv-x="619" d="M565 508V0H388V68Q339 -8 243 -8Q146 -8 99 46T51 211V508H232V206Q232 131 297 131Q335 131 358 158T382 230V508H565ZM254 573L93 781H265L363 573H254Z" />
<glyph unicode="&#xfa;" glyph-name="uacute" horiz-adv-x="619" d="M565 508V0H388V68Q339 -8 243 -8Q146 -8 99 46T51 211V508H232V206Q232 131 297 131Q335 131 358 158T382 230V508H565ZM363 573H254L352 781H524L363 573Z" />
<glyph unicode="&#xfb;" glyph-name="ucircumflex" horiz-adv-x="619" d="M565 508V0H388V68Q339 -8 243 -8Q146 -8 99 46T51 211V508H232V206Q232 131 297 131Q335 131 358 158T382 230V508H565ZM256 573H120L256 781H361L497 573H361L309 679L256 573Z" />
<glyph unicode="&#xfc;" glyph-name="udieresis" horiz-adv-x="619" d="M565 508V0H388V68Q339 -8 243 -8Q146 -8 99 46T51 211V508H232V206Q232 131 297 131Q335 131 358 158T382 230V508H565ZM128 751H288V599H128V751ZM329 751H489V599H329V751Z" />
<glyph unicode="&#xfd;" glyph-name="yacute" horiz-adv-x="559" d="M579 508L346 -18Q300 -121 231 -168T59 -228L17 -90Q87 -76 122 -54T175 7L188 35L-19 508H169L283 215L401 508H579ZM333 573H224L322 781H494L333 573Z" />
<glyph unicode="&#xfe;" glyph-name="thorn" horiz-adv-x="645" d="M454 522T505 488T585 392T614 253Q614 176 586 117T506 25T389 -8Q339 -8 298 11T235 66V-216H54V736H235V446Q257 481 298 501T389 522Q454 522 505 488ZM382 127T407 159T433 253Q433 317
407 351T334 385Q285 385 259 352T233 255Q233 193 259 160T334 127Q382 127 407 159Z" />
<glyph unicode="&#xff;" glyph-name="ydieresis" horiz-adv-x="559" d="M579 508L346 -18Q300 -121 231 -168T59 -228L17 -90Q87 -76 122 -54T175 7L188 35L-19 508H169L283 215L401 508H579ZM98 751H258V599H98V751ZM299 751H459V599H299V751Z" />
<glyph unicode="&#x2013;" glyph-name="endash" horiz-adv-x="505" d="M0 220V323H505V220H0Z" />
<glyph unicode="&#x2014;" glyph-name="emdash" horiz-adv-x="1010" d="M0 220V323H1010V220H0Z" />
<glyph unicode="&#x2018;" glyph-name="quoteleft" horiz-adv-x="276" d="M232 564V378H43V494Q43 559 66 611T146 721L214 667Q159 609 146 564H232Z" />
<glyph unicode="&#x2019;" glyph-name="quoteright" horiz-adv-x="276" d="M232 712V596Q232 530 209 478T128 369L61 423Q89 452 105 476T128 526H43V712H232Z" />
<glyph unicode="&#x201a;" glyph-name="quotesinglbase" horiz-adv-x="276" d="M232 186V69Q232 4 209 -49T128 -157L61 -103Q116 -48 128 0H43V186H232Z" />
<glyph unicode="&#x201c;" glyph-name="quotedblleft" horiz-adv-x="502" d="M232 564V378H43V494Q43 559 66 611T146 721L214 667Q159 609 146 564H232ZM458 564V378H269V494Q269 559 292 611T372 721L440 667Q385 609 372 564H458Z" />
<glyph unicode="&#x201d;" glyph-name="quotedblright" horiz-adv-x="502" d="M232 712V596Q232 530 209 478T128 369L61 423Q89 452 105 476T128 526H43V712H232ZM458 712V596Q458 530 435 478T354 369L287 423Q315 452 331 476T354 526H269V712H458Z" />
<glyph unicode="&#x201e;" glyph-name="quotedblbase" horiz-adv-x="502" d="M232 186V69Q232 4 209 -49T128 -157L61 -103Q116 -48 128 0H43V186H232ZM458 186V69Q458 4 435 -49T354 -157L287 -103Q342 -48 354 0H269V186H458Z" />
<glyph unicode="&#x2022;" glyph-name="bullet" horiz-adv-x="529" d="M216 89T174 112T107 177T82 268Q82 314 106 355T172 422T265 447Q313 447 355 424T422 359T447 268Q447 219 423 178T356 113T265 89Q216 89 174 112Z" />
<glyph unicode="&#x2039;" glyph-name="guilsinglleft" horiz-adv-x="324" d="M157 84L19 267L156 452H304L172 268L303 84H157Z" />
<glyph unicode="&#x203a;" glyph-name="guilsinglright" horiz-adv-x="324" d="M168 84H21L153 268L20 452H169L305 267L168 84Z" />
</font>
</defs>
</svg>
