<svg xmlns="http://www.w3.org/2000/svg" fill="none" height="100%" width="100%" viewBox="0 0 238 79">
  <defs>
    <linearGradient id="a" x1="63.6351" x2="39.318" y1="54.0451" y2="1.59593" gradientUnits="userSpaceOnUse">
      <stop offset=".24" stop-color="#00D886"/>
      <stop offset=".51" stop-color="#007DFE"/>
    </linearGradient>
    <linearGradient id="b" x1="59.3792" x2=".674325" y1="4.38051" y2="63.0854" gradientUnits="userSpaceOnUse">
      <stop offset=".27" stop-color="#007DFE"/>
      <stop offset=".7" stop-color="#D249FC"/>
    </linearGradient>
  </defs>
  <path fill="#000" fill-rule="evenodd" d="M107.38 35.54h-7.19v-4.29h12.41v2.31c0 2.63-.62 5-1.88 7.11-1.26 2.12-2.99 3.78-5.19 4.99-2.2 1.21-4.51 1.82-7.37 1.82-2.86 0-5.44-.67-7.74-2.02-2.31-1.34-4.12-3.2-5.44-5.56-1.32-2.36-1.98-5-1.98-7.91s.66-5.55 1.98-7.91c1.32-2.36 3.14-4.21 5.44-5.56 2.31-1.35 4.89-2.02 7.74-2.02 2.27 0 4.36.4 6.29 1.21 1.93.8 3.56 1.93 4.9 3.39 1.35 1.45 2.29 3.14 2.85 5.07h-5.71c-.49-1-1.14-1.86-1.95-2.59-.82-.73-1.76-1.28-2.84-1.67-1.08-.39-2.25-.58-3.5-.58-1.84 0-3.51.46-5 1.38-1.49.92-2.66 2.19-3.5 3.81-.84 1.62-1.26 3.44-1.26 5.47s.42 3.85 1.26 5.47c.84 1.62 2.01 2.89 3.5 3.81 1.49.92 3.16 1.38 5 1.38 1.71 0 3.25-.32 4.63-.96 1.38-.65 2.48-1.54 3.29-2.69.73-1.04 1.14-2.19 1.26-3.46Zm19.54-11c2.15 0 4.11.5 5.86 1.5s3.13 2.37 4.14 4.12c1.01 1.74 1.51 3.7 1.51 5.85 0 2.15-.5 4.1-1.51 5.85s-2.38 3.12-4.14 4.12c-1.76 1-3.74 1.5-5.89 1.5-2.15 0-4.11-.5-5.86-1.5s-3.13-2.37-4.14-4.12c-1.01-1.74-1.51-3.7-1.51-5.85 0-2.15.5-4.1 1.5-5.85s2.38-3.12 4.14-4.12c1.77-1 3.75-1.5 5.9-1.5Zm3.25 17.55c.95-.58 1.69-1.4 2.21-2.46s.78-2.25.78-3.62-.26-2.58-.79-3.63c-.52-1.05-1.26-1.87-2.21-2.46-.95-.59-2.04-.89-3.26-.89-1.22 0-2.31.3-3.26.88-.95.58-1.68 1.4-2.2 2.46-.52 1.06-.78 2.28-.78 3.64 0 1.36.26 2.56.78 3.62.52 1.05 1.25 1.88 2.2 2.46.94.59 2.04.88 3.26.88 1.22 0 2.32-.3 3.27-.88Zm17.73-25.08h.01l-.01-.01v.01Zm0 0h-5.3v29.96h19.75v-4.82H147.9V17.01Zm30.87 8.73c1.11.66 2.02 1.54 2.73 2.63v-3.31h4.96v21.92h-4.96v-3.31c-.71 1.09-1.62 1.98-2.73 2.63-1.36.8-2.95 1.2-4.76 1.2-1.94 0-3.68-.49-5.22-1.47-1.54-.98-2.75-2.34-3.62-4.09-.87-1.75-1.3-3.72-1.3-5.92 0-2.2.43-4.17 1.3-5.92.87-1.75 2.08-3.11 3.61-4.09 1.53-.98 3.28-1.47 5.23-1.47 1.81 0 3.4.4 4.76 1.2Zm-.29 16.36c.94-.59 1.67-1.41 2.2-2.46.53-1.05.79-2.26.79-3.63s-.26-2.58-.79-3.63c-.52-1.05-1.26-1.87-2.2-2.46-.94-.59-2.05-.89-3.25-.89-1.2 0-2.27.3-3.21.89-.94.59-1.67 1.41-2.19 2.46s-.78 2.26-.78 3.63.26 2.58.78 3.64 1.25 1.88 2.19 2.46c.94.59 1.99.88 3.21.88s2.31-.3 3.25-.89Zm24.72-17.56c1.57 0 2.95.34 4.13 1.03l.01.03c1.18.68 2.11 1.68 2.76 2.97.65 1.29.98 2.84.98 4.64v13.78h-5.03V33.98c0-1.06-.18-1.96-.54-2.7-.36-.74-.87-1.31-1.54-1.7-.67-.39-1.47-.59-2.4-.59-.99 0-1.88.22-2.65.67-.77.45-1.37 1.07-1.79 1.88-.42.81-.63 1.72-.63 2.75v12.69h-5.05V25.06h4.9v3.21c.63-1.06 1.44-1.92 2.45-2.55 1.25-.79 2.72-1.18 4.4-1.18Zm29.04 3.79v-11.3h5.05v29.96h-5.05v-3.28c-.71 1.07-1.61 1.94-2.71 2.59-1.36.8-2.95 1.2-4.76 1.2-1.94 0-3.68-.49-5.22-1.47-1.54-.98-2.75-2.34-3.62-4.09-.87-1.75-1.31-3.72-1.31-5.92 0-2.2.44-4.17 1.31-5.92.87-1.75 2.08-3.11 3.61-4.09 1.53-.98 3.27-1.47 5.23-1.47 1.81 0 3.4.4 4.76 1.2 1.1.64 2 1.52 2.71 2.59Zm-3.01 13.77c.95-.59 1.68-1.41 2.21-2.46s.79-2.26.79-3.63-.26-2.58-.79-3.63c-.53-1.05-1.27-1.87-2.21-2.46-.94-.59-2.05-.89-3.25-.89-1.2 0-2.27.3-3.21.89-.94.59-1.67 1.41-2.19 2.46s-.78 2.26-.78 3.63.26 2.58.78 3.64 1.25 1.88 2.19 2.46c.94.59 1.99.88 3.21.88s2.31-.3 3.25-.89ZM87.7037 74.19c.17-.31.25-.66.25-1.05h.01v-9.15h3.1v9.37c0 .88-.2 1.67-.61 2.38s-.97 1.26-1.68 1.66c-.71.4-1.52.6-2.41.6h-2.37v-2.85h1.95c.4 0 .75-.08 1.05-.25.31-.17.54-.4.71-.71Zm15.2603-1.9h-6.5003v3.02h7.3803v2.7H93.4437V63.99h10.2003v2.71h-7.1803v2.97h6.5003v2.62Zm6.16-5.52h-4.16v-2.78h11.39v2.78h-4.13V78h-3.1V66.77Zm17.2 3.9c.29.08.56.18.81.31h.01c.57.31 1.02.73 1.34 1.28.32.55.48 1.17.48 1.86 0 .75-.2 1.42-.61 2.01-.41.59-.98 1.05-1.72 1.38-.74.33-1.58.5-2.52.5h-6.35V63.99h6.23c.89 0 1.69.16 2.39.47.7.31 1.24.75 1.63 1.31.39.56.58 1.2.58 1.91 0 .62-.15 1.17-.44 1.65-.29.48-.7.86-1.21 1.12-.18.0945-.386.1532-.585.21l-.035.01Zm-2.8-4.33h-2.75v3.45h2.75c.38 0 .72-.08 1.01-.22.3-.14.52-.34.69-.61.17-.27.25-.59.25-.93 0-.34-.09-.64-.25-.89-.17-.26-.4-.45-.69-.59-.29-.14-.63-.21-1.01-.21Zm1.24 9.1c.32-.15.57-.35.75-.62v.02c.18-.27.27-.57.27-.93 0-.36-.09-.68-.27-.96-.18-.28-.44-.5-.76-.65-.33-.15-.7-.23-1.11-.23h-2.87v3.59h2.87c.42 0 .8-.07 1.12-.22Zm16.56-4.67c-.43.67-1.03 1.2-1.81 1.57h-.01c-.14.07-.3.13-.46.19l3.2 5.48h-3.54l-2.84-5.11h-2.02v5.11h-3.1V63.99h6.14c1.01 0 1.9.18 2.67.55.77.37 1.36.89 1.78 1.56.42.67.63 1.43.63 2.32 0 .89-.21 1.68-.64 2.35Zm-3.56-.61c.32-.16.57-.39.74-.68v.01c.17-.29.26-.63.26-1.03s-.09-.74-.26-1.03c-.17-.29-.42-.51-.74-.67-.32-.15-.7-.23-1.13-.23h-2.79v3.87h2.79c.43 0 .81-.08 1.13-.24Zm5.51 7.85 5.01-14.02h3.36l5.12 14.02h-3.09l-1.06-3.09h-5.2l-.99 3.09h-3.15Zm6.46-10.39-1.61 4.95h3.71l-1.72-4.95-.19-.9-.19.9Zm11.43 10.39h-3.2V63.99h3.2v14.02Zm5.44-14.02 6.02 9.48h.01v-9.48h2.83v14.02h-3.05l-6-9.48v9.48h-2.83V63.99h3.02Zm17.78 5.66c.71.13 1.33.4 1.88.79v-.02c.55.4.97.88 1.28 1.47.31.59.46 1.23.46 1.92 0 .85-.23 1.61-.68 2.28-.45.67-1.08 1.2-1.88 1.58-.81.38-1.74.57-2.77.57s-1.95-.19-2.75-.56c-.8-.37-1.43-.9-1.89-1.56-.46-.66-.7-1.44-.71-2.31h3.1c0 .36.1.68.29.96.19.28.46.49.81.64.35.15.75.23 1.18.23.43 0 .8-.07 1.12-.2.32-.13.56-.32.74-.57.18-.25.27-.53.27-.84 0-.39-.12-.71-.36-.97s-.57-.44-.98-.54l-2.52-.52c-.66-.14-1.24-.39-1.74-.75s-.89-.82-1.16-1.36c-.27-.55-.41-1.16-.41-1.83 0-.84.22-1.58.64-2.23.43-.65 1.02-1.16 1.78-1.53.76-.37 1.62-.55 2.6-.55s1.86.18 2.62.53c.76.35 1.36.84 1.79 1.47.43.62.66 1.35.68 2.16h-3.1c0-.3-.09-.57-.25-.81-.17-.24-.4-.42-.69-.55-.29-.14-.64-.2-1.02-.2s-.72.07-1.01.19c-.29.12-.52.3-.68.52-.16.23-.24.49-.24.79 0 .34.11.61.33.84.22.23.52.38.89.47l2.38.49Zm14.38 8.36h-3.2V63.99h3.2v14.02Zm7.88-14.02c1.33 0 2.53.31 3.59.91 1.06.61 1.9 1.44 2.5 2.51.61 1.06.91 2.27.91 3.59 0 1.32-.31 2.52-.91 3.59-.6 1.07-1.43 1.9-2.5 2.51-1.07.61-2.26.91-3.59.91h-5.47V63.99h5.47Zm2.01 10.86c.58-.35 1.03-.85 1.34-1.5v-.01c.31-.65.47-1.44.47-2.35 0-.91-.16-1.7-.47-2.35-.31-.65-.76-1.15-1.34-1.5-.58-.35-1.26-.52-2.05-.52h-2.32v8.75h2.32c.79 0 1.47-.17 2.05-.52Zm9.8-2.56v3.02h7.38v2.7h-10.4V63.99h10.2v2.71h-7.18v2.97h6.5v2.62h-6.5Z" clip-rule="evenodd"/>
  <path fill="#00D886" d="m48.0521 58.1839 11.8755-.0017c2.2493 0 4.0722-1.8234 4.0722-4.0727V42.6029c0-1.1887-.5196-2.3186-1.422-3.0924L24.4164 6.80068c-.7384-.63244-1.6786-.98037-2.6508-.98037H9.89011c-2.24931 0-4.07273 1.82342-4.07273 4.07273V21.4014c0 1.1887.51957 2.3185 1.42197 3.0924L45.4002 57.203c.7383.633 1.6786.9804 2.6514.9804l.0005.0005Z"/>
  <path fill="url(#a)" d="M49.4806 58.1818h10.4465c2.2493 0 4.0728-1.8234 4.0728-4.0727V41.0164c0-.1925-.014-.3851-.0408-.576L58.6815 3.49673C58.3952 1.49062 56.6765 0 54.65 0H38.977c-2.2499 0-4.0733 1.824-4.0727 4.07389l.0047 18.53851c0 .4375.0704.8721.2088 1.2869l10.4995 31.4979c.5545 1.6629 2.1109 2.7846 3.8639 2.7846h-.0006Z"/>
  <path fill="url(#b)" d="M4.07273 64H38.041c1.6291 0 3.1017-.9711 3.7434-2.4681l16.0681-37.4906c.217-.5068.3293-1.0531.3293-1.6046V4.07273C58.1818 1.82342 56.3584 0 54.1091 0h-17.966c-.8046 0-1.5912.238545-2.2609.685382L1.81353 22.0881C.681309 22.8439.001745 24.1146.001745 25.4755L0 59.9273C0 62.1766 1.82342 64 4.07273 64Z"/>
  <path fill="#000" d="M52 12H12v40h40V12Z"/>
  <path fill="#fff" d="M19.764 31.6245c1.174.6765 2.4847 1.0155 3.9318 1.0155 1.3899 0 2.6427-.3095 3.7589-.9293 1.1231-.6197 2.005-1.4651 2.6461-2.5384.6481-1.0798.9721-2.2857.9721-3.6183v-1.1879h-6.405v2.3221h3.516c-.0722.5605-.2761 1.0718-.6106 1.5339-.3958.5468-.9322.9762-1.6092 1.2852-.6701.3096-1.4188.4646-2.2469.4646-.8928 0-1.6988-.2227-2.4193-.6695-.7204-.4467-1.2857-1.0583-1.6959-1.836-.4034-.784-.6047-1.667-.6047-2.6461 0-.979.2013-1.858.6047-2.6357.4108-.7846.9761-1.4003 1.6959-1.847.7199-.4467 1.5265-.6695 2.4193-.6695.6053 0 1.1706.0972 1.696.2916.526.1875.9831.4577 1.372.8101.3958.3455.7094.7563.9397 1.2314h3.1542c-.2737-.9866-.7529-1.8575-1.4368-2.6137-.677-.7563-1.5126-1.3436-2.5061-1.7608-.9866-.4172-2.0669-.6267-3.2404-.6267-1.4477 0-2.7583.3414-3.9318 1.0259-1.1741.6765-2.0959 1.6133-2.7653 2.8082-.6695 1.1879-1.0046 2.5165-1.0046 3.9856 0 1.4692.3351 2.8018 1.0046 3.9967.67 1.1879 1.5918 2.1236 2.7653 2.8081Z"/>
  <path fill="#fff" fill-rule="evenodd" d="M36.1829 31.6245c1.181.6765 2.4951 1.0155 3.9422 1.0155 1.4541 0 2.7688-.339 3.9423-1.0155 1.181-.6845 2.1062-1.6202 2.7757-2.8081.6695-1.1949 1.0045-2.5275 1.0045-3.9967 0-1.4691-.335-2.7977-1.0045-3.9856-.6695-1.1949-1.5947-2.1317-2.7757-2.8082C42.8939 17.3414 41.5723 17 40.1251 17c-1.4471 0-2.7612.3414-3.9422 1.0259-1.1735.6765-2.0988 1.6133-2.7758 2.8082-.6695 1.1879-1.0045 2.5165-1.0045 3.9856 0 1.4692.335 2.8018 1.0045 3.9967.6765 1.1879 1.6023 2.1236 2.7758 2.8081Zm6.3621-2.2463c-.7129.4468-1.516.6695-2.4089.6695-.8928 0-1.6994-.2227-2.4193-.6695-.7128-.4536-1.2747-1.0756-1.685-1.8684-.4033-.7991-.6046-1.696-.6046-2.6895 0-.9935.2013-1.8858.6046-2.6785.4103-.7991.9722-1.4217 1.685-1.8684.7199-.4537 1.5265-.6805 2.4193-.6805.8929 0 1.696.2268 2.4089.6805.7129.4467 1.2707 1.0693 1.674 1.8684.4033.7921.6047 1.685.6047 2.6785s-.2014 1.8904-.6047 2.6895c-.4033.7922-.9611 1.4148-1.674 1.8684Z" clip-rule="evenodd"/>
  <path fill="#fff" d="M16.9941 44h16v3h-16v-3Z"/>
</svg>
