<?xml version="1.0" encoding="UTF-8"?>
<svg fill="#777" width="100pt" height="100pt" version="1.1" viewBox="0 0 100 100" xmlns="http://www.w3.org/2000/svg">
 <g>
  <path d="m77.609 96.633h-55.238c-6.5195 0-11.824-5.3125-11.824-11.84v-69.602c0-6.5195 5.3047-11.824 11.824-11.824h55.238c6.5312 0 11.84 5.3047 11.84 11.824v69.602c0.003906 6.5273-5.3086 11.84-11.84 11.84zm-55.238-89.594c-4.4961 0-8.1523 3.6562-8.1523 8.1523v69.602c0 4.5039 3.6562 8.1719 8.1523 8.1719h55.238c4.5039 0 8.1719-3.6641 8.1719-8.1719v-69.602c0-4.4961-3.6641-8.1523-8.1719-8.1523z"/>
  <path d="m28.172 21.121h43.652v1.4688h-43.652z"/>
  <path d="m28.172 33.066h43.652v1.4688h-43.652z"/>
  <path d="m28.172 45.086h43.652v1.4688h-43.652z"/>
  <path d="m72.105 75.855c-1.6172-0.32422-3.0391-2.8906-3.0859-4.7578-0.015625-0.54297 0.085938-1.0117 0.29297-1.3359 1-1.6445 2.0273-4.125-0.64844-6.6953-1.1172-1.0703-2.3945-2.2773-4.2305-2.2773-1.0586 0-2.0703 0.39844-3.1133 1.2344-0.10156 0.085937-0.35156 0.17578-0.86719 0.30859l-0.21875 0.058594-0.03125-0.015625c-2.0273-0.16016-4.6836-2.0547-4.875-2.7891-0.32422-1.293-1.0859-4.2734-4.832-4.2734h-0.96875c-3.832 0-4.6094 3.2148-4.8594 4.2734-0.23438 0.82031-2.9531 2.6289-4.875 2.7891l-0.03125 0.015625-0.41016-0.10156c-0.30859-0.085937-0.57031-0.16016-0.69141-0.25-1.0273-0.85156-2.0391-1.25-3.0859-1.25-1.793 0-3.0391 1.1602-4.125 2.1875l-0.15234 0.14844c-2.6133 2.5391-1.5859 5.0234-0.57031 6.668 0.35156 0.55859 0.44141 1.8516-0.21875 3.3633-0.58594 1.4102-1.6289 2.4961-2.6133 2.7031-3.7148 0.79297-3.9062 3.5078-3.9805 4.5391l0.015626 2.1602c0.17578 2.3945 1.5117 3.8633 3.9648 4.332 0.96875 0.20703 1.9844 1.25 2.6133 2.6719 0.042969 0.085938 0.074219 0.16016 0.10156 0.23438h3.8203c-0.11719-0.52734-0.32422-1.0859-0.57422-1.6875-1.1172-2.5547-3.0859-4.3477-5.2422-4.8008-0.88281-0.17578-1-0.28125-1.043-0.88281v-1.8945c0.042969-0.77734 0.16016-0.88281 1.0703-1.0859 2.1719-0.45312 4.125-2.2617 5.2266-4.8438 1.0586-2.4805 1.043-4.9922-0.042969-6.7109-0.75-1.2344-0.69141-1.4531 0.085937-2.2031l0.13281-0.11719c0.82031-0.76562 1.2617-1.1328 1.543-1.1328 0.058593 0 0.29297 0.03125 0.71875 0.38281 0.73437 0.64844 1.6172 0.86719 2.2617 1.0273l0.058594 0.015625c0.058594 0.03125 0.11719 0.042969 0.17578 0.042969l0.074219 0.03125 0.33594 0.13281h0.32422c3.2031-0.042968 8.0039-2.7461 8.6953-5.5938 0.32422-1.3516 0.55859-1.5117 1.3047-1.5117h1.0273c0.69141 0 0.88281 0.14844 1.2344 1.5273 0.73438 2.8359 5.5078 5.5352 8.6641 5.5781h0.33594l0.29297-0.11719c0.042968-0.015625 0.10156-0.03125 0.17578-0.042969 0.058594-0.015625 0.11719-0.03125 0.17578-0.058594 0.66016-0.16016 1.5-0.38281 2.2188-0.98437 0.46875-0.39844 0.70312-0.42578 0.77734-0.42578 0.20703 0 0.55859 0.14844 1.7188 1.3203 0.70312 0.64844 0.77734 0.88281 0.042969 2.1016-0.57422 0.91016-0.86719 2.0703-0.83594 3.3477 0.085938 3.3789 2.4062 7.4883 6.0078 8.2383 0.89453 0.19141 1.0117 0.29297 1.0703 0.91016v1.9219c-0.015625 0.074219-0.015625 0.11719-0.015625 0.16016 0 0.042969-0.015625 0.10156-0.015625 0.16016-0.085937 0.39844-0.25 0.55859-1.0586 0.70313-2.1602 0.45312-4.1133 2.2617-5.1992 4.8438-0.25 0.55859-0.44141 1.1172-0.55859 1.6445h3.8203c0.03125-0.074219 0.058594-0.14844 0.085938-0.21875 0.61719-1.4258 1.6172-2.4805 2.5547-2.6875 2.8203-0.52734 3.6875-2.2461 3.9219-3.5977 0.058594-0.29297 0.085938-0.54297 0.10156-0.89453v-2.1445c-0.050781-0.89844-0.25781-3.6016-3.9727-4.3945z"/>
  <path d="m62.367 80.469c-0.11719-1.3945-0.46875-2.7617-1.043-4.0234-2.0117-4.4492-6.4453-7.3594-11.32-7.4023-6.4766 0.042969-11.82 5.0078-12.395 11.543v1.7188c0.26562 2.8477 1.5 5.5352 3.4531 7.5625h2.2773c-2.4062-1.8672-3.9492-4.625-4.2148-7.6211v-1.5859c0.51562-5.7109 5.1836-10.047 10.883-10.102 4.2734 0.03125 8.1641 2.5859 9.9414 6.5039 0.48438 1.1016 0.80859 2.3047 0.91016 3.4648l0.015625 1.5859c-0.28125 3.0977-1.8203 5.9023-4.2305 7.7539h2.2617c1.9844-2.0547 3.2148-4.7734 3.4961-7.6641z"/>
 </g>
</svg>
