<svg xmlns="http://www.w3.org/2000/svg" viewBox="0 0 402 58"><g fill="#fff"><path d="M24.6 23c.4 0 .7-.1 1-.2l10-5.4c1-.5 1.3-1.8.8-2.8-.5-1-1.8-1.3-2.8-.8l-9.9 5.4c-1 .3-1.5 1.3-1.3 2.3.3 1 1.3 1.7 2.3 1.5h-.1zM39.8 30.9c.3 0 .7-.1 1-.3L56.7 22c.6-.3 1-1 1-1.7 0-.8-.3-1.5-.9-1.8-.7-.4-1.4-.4-2.1-.1L38.8 27c-.9.4-1.5 1.4-1.2 2.4.2 1 1.2 1.6 2.2 1.5z"/><path d="M81 19.6c-.4-1.2-1.3-2.2-2.4-2.7L61.4 7.7c-2.8-1.4-6.1-1.4-9 0l-1.4.7L39.1 2C36.3.6 33 .6 30.1 2L2.5 16.9c-1.4.6-2.3 1.9-2.5 3.4v15.2c0 .8.4 1.5 1.1 1.8l35 19c2.8 1.4 6.2 1.4 9 0L80 37.1c.7-.3 1.1-1 1.1-1.8v-15c0-.2-.1-.5-.1-.7zm-76.5.9L32 5.6c1.6-.7 3.5-.7 5.2 0L51 13l3.3-1.8c1.7-.7 3.6-.7 5.2 0l17.1 9.2.2.1-.2.1-33.4 18c-1.7.8-3.6.8-5.2 0l-33.5-18-.2-.1h.2zm38.6 32.2c-1.6.7-3.5.7-5.1 0L4.1 34.3v-9.2L36 42.3c2.8 1.4 6.2 1.4 9 0l32-17.2v9L43.1 52.7zM115.7 10.2h18.2c8.7 0 13.1 3.1 13.1 9.1 0 1.9-.5 3.7-1.6 5.2s-2.6 2.6-4.3 3.2c2.2.4 4.2 1.5 5.7 3.1s2.2 3.6 2.2 5.7c0 3.8-1.4 6.7-4.1 8.7-2.7 2-6.6 3-11.8 3h-17.5v-5.4l1.8-.2c.4 0 .8-.2 1.1-.5.2-.4.3-.9.3-1.3V16.1l-3.1-.3v-5.6zm13.1 6.4v9h2.7c3.5 0 5.3-1.6 5.3-4.8 0-2.8-1.7-4.2-5.1-4.2h-2.9zm0 15.1v9.9h3.7c3.8 0 5.8-1.8 5.8-5.2 0-3.1-1.9-4.7-5.7-4.7h-3.8zM180.7 19v22c0 .5 0 .9.3 1.3.2.3.6.4 1 .5l1.5.1v5.2h-11.7v-3.6h-.2c-1.7 3-4.5 4.4-8.5 4.4-3.1 0-5.3-.8-6.8-2.3-1.4-1.6-2.1-4-2.1-7.3V26.2c0-.4-.1-.8-.4-1.1-.2-.3-.6-.5-1-.5l-1.6-.2V19H164v18.4c-.1 1.1.1 2.2.6 3.1.6.8 1.6 1.1 2.5 1 1.1.1 2.2-.4 2.9-1.2.7-1 1.1-2.2 1-3.4V26.3c0-.5-.1-.9-.3-1.3-.3-.3-.7-.4-1.1-.4l-1.3-.2V19h12.4zM198.9 12.3V19h8.1c2.5-1.1 4.3-3.4 5.5-6.7h5.3V19h6.9l-.5 6.3h-6.4v12.3c-.1 1.1.2 2.2.7 3.2.4.5 1.3.8 2.7.8 1.2 0 2.5-.3 3.6-.8l1.4 6.3c-2.5 1.3-5.2 1.9-7.9 1.8-1.3 0-2.5-.1-3.8-.3-.9-.2-1.8-.4-2.7-.8-.7-.3-1.3-.8-1.8-1.4-.4-.5-.8-1-1.1-1.6-.3-.6-.5-1.3-.6-2-.1-.6-.2-1.3-.3-2V25.3h-9v12.3c-.1 1 .1 2.1.6 3.1.5.7 1.4 1.1 2.3 1 1.1 0 2.2-.3 3.2-.8l1.7 6.2c-2.3 1.2-4.9 1.9-7.5 1.8-3.7 0-6.4-.9-7.9-2.6-1.5-1.7-2.3-4.2-2.3-7.6V25.3h-3.9l.8-5.5c3.6-.8 6.2-3.3 7.6-7.4l5.3-.1zM242.7 18.2c2.7-.1 5.3.6 7.5 2.2 2 1.6 3 4.1 2.8 6.6 0 6.9-5.3 10.2-16 10 .1 1.3.7 2.6 1.7 3.5 1.2 1 2.7 1.4 4.2 1.4 2.6-.1 5.2-.9 7.4-2.3l2.6 6.3c-.5.4-1 .7-1.6.9-1.3.6-2.6 1-4 1.4-1.9.5-3.8.7-5.7.7-4.9 0-8.5-1.3-10.8-4-2.3-2.6-3.5-6.2-3.5-10.7-.1-4.1 1.3-8.2 4-11.4 2.7-3 6.5-4.6 11.4-4.6zm2 9.3c0-.7-.2-1.4-.7-1.9-.5-.5-1.2-.7-1.9-.6-1.4 0-2.8.6-3.6 1.8-1 1.3-1.6 2.9-1.6 4.6 5.2.2 7.7-1.2 7.7-3.9h.1zM272.5 25.5c-1.1 0-2.1.5-2.7 1.3-.7.9-1.1 2.1-1 3.3v12.5l5.1.3v5.3h-18.1V43l1.9-.2c.4.1.8-.1 1.1-.4.2-.4.3-.9.3-1.4V26.2c0-.4-.1-.8-.3-1.2-.3-.3-.6-.4-1-.4l-2-.2V19H268v4.4h.1c.7-1.4 1.7-2.7 3-3.6 1.6-1.1 3.5-1.7 5.4-1.6 1.9-.1 3.7.2 5.4.9v11.3l-7.6.4v-3.9c0-.7-.2-1.1-.5-1.2-.4-.1-.9-.2-1.3-.2zM308.7 17.5c-1.2-.3-2.3-.4-3.4-.4-6.1 0-9.2 3.9-9.2 11.8 0 3.8.8 6.8 2.3 9 1.5 2.2 3.9 3.3 7.1 3.4 1.1 0 2.1-.1 3.2-.4.6-.2 1-.8 1-1.5v-3.7l7.3.4v10.5c-3.8 1.7-7.9 2.5-12.1 2.3-6.1 0-10.8-1.6-14.1-4.9-3.3-3.3-5-8.1-5-14.5 0-3.2.5-6.4 1.6-9.4.9-2.5 2.4-4.6 4.4-6.3 1.8-1.4 3.8-2.5 6-3.3 2.2-.7 4.6-1 6.9-1 4.2-.1 8.3.7 12.2 2.4v10l-7.4.4V19c0-.9-.3-1.4-.8-1.5zM323.6 10.2h14.6l7.5 24.8h.2l7.7-24.7h14.6v5.4l-1.8.2c-.5 0-.9.2-1.2.5-.3.4-.4.9-.3 1.3l1.9 24.8 2.9.1v5.6h-15.3v-5.5l1.8-.2c.4.1.8-.1 1-.4.2-.4.3-.9.2-1.3l-.9-16.1h-.1l-7.2 23.5h-7.1l-7-23.1h-.2l-1 17.3 2.8.2v5.6h-15.3v-5.5l1.8-.2c.5 0 .9-.2 1.2-.5.2-.4.4-.9.4-1.4l2-24.6-3.2-.2v-5.6zM385.5 41.6c3.5 0 5.3-1.4 5.3-4.2 0-1.1-.5-2.2-1.4-2.8-1.4-.8-2.9-1.4-4.5-1.8-1.3-.3-2.7-.8-4-1.3-1.2-.5-2.3-1.2-3.4-1.9-1.2-.9-2.2-2-2.8-3.3-.6-1.5-1-3.2-1-4.8-.1-3.4 1.4-6.7 4-8.8 2.7-2.1 6.2-3.1 10.6-3.1 4-.2 8 .6 11.7 2.2v9.3l-7.4.5v-2.9c0-.8-.3-1.3-.8-1.4-1.1-.3-2.2-.4-3.3-.4-1.1 0-2.2.3-3.1.8-.8.6-1.3 1.6-1.2 2.6-.1 1.1.5 2.2 1.4 2.8 1.5.9 3.1 1.6 4.8 2 1.4.4 2.5.8 3.3 1.1.9.4 1.9.8 2.8 1.3 1 .5 1.9 1.2 2.6 2 .7.9 1.2 1.8 1.6 2.9.5 1.3.7 2.6.7 4 .2 3.6-1.3 7-4.1 9.3-2.7 2.2-6.4 3.3-11.2 3.3-4.3.1-8.6-.7-12.6-2.3v-9.8l7.5-.5v3.2c0 .9.3 1.4.9 1.6 1.1.2 2.3.4 3.6.4z"/></g></svg>