<?xml version="1.0" encoding="UTF-8"?>
<svg fill="#777" stroke="#fff" width="100pt" height="100pt" version="1.1" viewBox="0 0 100 100" xmlns="http://www.w3.org/2000/svg">
 <g>
  <path d="m96.875 53.125h-93.75c-1.7266 0-3.125-1.3984-3.125-3.125s1.3984-3.125 3.125-3.125h93.75c1.7266 0 3.125 1.3984 3.125 3.125s-1.3984 3.125-3.125 3.125z"/>
  <path d="m50 100c-1.7266 0-3.125-1.3984-3.125-3.125v-93.75c0-1.7266 1.3984-3.125 3.125-3.125s3.125 1.3984 3.125 3.125v93.75c0 1.7266-1.3984 3.125-3.125 3.125z"/>
  <path d="m50.367 37.543c-12.438 0-24.945-5.418-37.441-16.262-1.3047-1.1328-1.4453-3.1055-0.3125-4.4102 1.1289-1.3047 3.1016-1.4453 4.4102-0.3125 22.5 19.527 44.105 19.586 66.055 0.1875 1.293-1.1406 3.2695-1.0195 4.4102 0.27344 1.1445 1.293 1.0234 3.2695-0.27344 4.4141-12.148 10.738-24.465 16.109-36.848 16.109z"/>
  <path d="m50 100c-27.57 0-50-22.43-50-50s22.43-50 50-50 50 22.43 50 50-22.43 50-50 50zm0-93.75c-24.125 0-43.75 19.625-43.75 43.75s19.625 43.75 43.75 43.75 43.75-19.625 43.75-43.75-19.625-43.75-43.75-43.75z"/>
  <path d="m85.023 84.203c-0.72656 0-1.457-0.25-2.0469-0.76562-22.492-19.523-44.098-19.586-66.055-0.19141-1.293 1.1406-3.2695 1.0234-4.4141-0.27344-1.1445-1.293-1.0234-3.2695 0.27344-4.4102 24.367-21.539 49.367-21.488 74.285 0.15234 1.3047 1.1289 1.4453 3.1016 0.3125 4.4062-0.61328 0.71875-1.4844 1.082-2.3555 1.082z"/>
  <path d="m50 100c-0.77344 0-1.5508-0.28906-2.1523-0.85938-17.102-16.281-25.84-32.805-25.973-49.117-0.13672-16.59 8.6133-33.141 26.008-49.195 1.2734-1.168 3.2461-1.0859 4.4141 0.17969 1.1719 1.2695 1.0898 3.2461-0.17969 4.4141-16.043 14.809-24.117 29.797-23.992 44.551 0.12109 14.551 8.2031 29.57 24.027 44.637 1.25 1.1914 1.3008 3.1719 0.10938 4.418-0.61328 0.64844-1.4375 0.97266-2.2617 0.97266z"/>
  <path d="m50 100c-0.84375 0-1.6797-0.33594-2.2969-1.0078-1.1719-1.2656-1.0898-3.2422 0.17969-4.4141 16.043-14.809 24.117-29.797 23.992-44.555-0.11719-14.555-8.207-29.57-24.027-44.641-1.25-1.1914-1.3008-3.168-0.10938-4.418 1.1914-1.2539 3.168-1.3008 4.418-0.10938 17.098 16.285 25.836 32.809 25.969 49.121 0.13672 16.59-8.6133 33.141-26.008 49.195-0.59766 0.55469-1.3594 0.82812-2.1172 0.82812z"/>
 </g>
</svg>
