<?xml version="1.0" encoding="UTF-8"?>
<svg fill="#777" width="100pt" height="100pt" version="1.1" viewBox="0 0 100 100" xmlns="http://www.w3.org/2000/svg">
 <path d="m88.34 31.191l-2.7812 2.8086c5.832 7.7695 8.6602 17.387 7.9648 27.078-0.69141 9.6914-4.8633 18.805-11.746 25.664-6.8789 6.8594-16.004 11.004-25.699 11.668-0.92188 0.058594-1.832 0.089844-2.7383 0.089844-11.41 0.023438-22.297-4.8086-29.93-13.289-0.88672-1.0312-0.78906-2.5781 0.21875-3.4883 1.0078-0.91016 2.5586-0.84766 3.4922 0.13672 8.3633 9.2617 20.996 13.418 33.227 10.941 12.23-2.4805 22.242-11.23 26.344-23.016 4.0977-11.789 1.6719-24.863-6.3828-34.395-0.84375-0.99609-0.78125-2.4688 0.14062-3.3906l4.3594-4.3594c0.63281-0.69922 0.60547-1.7734-0.058594-2.4375-0.66797-0.66797-1.7422-0.69531-2.4414-0.0625l-4.5312 4.5312h0.003906c-0.88281 0.87891-2.2773 0.97656-3.2695 0.22656-5.0195-3.7617-10.949-6.1172-17.184-6.8203-1.2656-0.13672-2.2266-1.2031-2.2266-2.4766v-8.0625c-0.011718-0.66797 0.24609-1.3164 0.71484-1.793 0.47266-0.47656 1.1133-0.74609 1.7852-0.74609h2.2891c0.97656 0 1.7695-0.79297 1.7695-1.7695 0-0.97656-0.79297-1.7695-1.7695-1.7695h-13.121c-0.97656 0-1.7695 0.79297-1.7695 1.7695 0 0.97656 0.79297 1.7695 1.7695 1.7695h2.2891c0.66406 0 1.3008 0.26172 1.7695 0.73047s0.73047 1.1055 0.73047 1.7695v8.1016c0 1.2695-0.95703 2.3359-2.2188 2.4766-8.082 0.92578-15.598 4.6094-21.281 10.434-0.96875 0.98828-2.5547 1.0039-3.543 0.035156-0.98828-0.97266-1.0039-2.5586-0.035156-3.5469 5.957-6.0859 13.684-10.137 22.078-11.57v-3.4297c-3.5273-0.32031-6.207-3.3047-6.1523-6.8477 0.054688-3.5391 2.8281-6.4414 6.3633-6.6523h13.121c3.5352 0.21094 6.3086 3.1133 6.3633 6.6523 0.054688 3.543-2.6289 6.5273-6.1523 6.8477v3.3906c5.5859 0.94531 10.914 3.0625 15.629 6.2109l3-3c2.6406-2.6484 6.9297-2.6484 9.5742-0.007812 2.6445 2.6445 2.6484 6.9297 0.003906 9.5781zm-82 14.18c0 0.66016 0.26172 1.2969 0.73047 1.7656 0.47266 0.46875 1.1055 0.73438 1.7695 0.73438h17.359c1.3828 0 2.5-1.1211 2.5-2.5 0-1.3828-1.1172-2.5-2.5-2.5h-17.348c-1.3789 0-2.4961 1.1133-2.5 2.4883zm28.422 12.117c0-0.66016-0.26562-1.2969-0.73438-1.7656s-1.1055-0.73438-1.7656-0.73438h-17.352c-1.3828 0-2.5 1.1211-2.5 2.5 0 1.3828 1.1172 2.5 2.5 2.5h17.352c0.66016 0 1.2969-0.26172 1.7656-0.73047s0.73438-1.1055 0.73438-1.7695zm-25.91 14.633h17.348c1.3828 0 2.5-1.1211 2.5-2.5 0-1.3828-1.1172-2.5-2.5-2.5h-17.348c-1.3828 0-2.5 1.1172-2.5 2.5 0 1.3789 1.1172 2.5 2.5 2.5zm58.348-24.281l-6.4102 6.4102c1.9492 3.6953 0.89844 8.2617-2.4648 10.738-3.3633 2.4805-8.0312 2.1289-10.984-0.82812-2.957-2.9531-3.3086-7.6211-0.82812-10.984 2.4766-3.3633 7.043-4.4141 10.738-2.4648l6.4102-6.4102c0.97656-0.97656 2.5625-0.97656 3.5391 0 0.97656 0.97656 0.97656 2.5625 0 3.5391zm-10.438 10.34c0-1.3867-0.83594-2.6367-2.1172-3.168-1.2852-0.53125-2.7578-0.23828-3.7383 0.74219-0.98438 0.98047-1.2773 2.457-0.74609 3.7383s1.7812 2.1172 3.168 2.1172c1.8945-0.003906 3.4258-1.5391 3.4336-3.4297zm-3.4336 29.75c9.9453 0.015624 19.242-4.9375 24.773-13.199 5.5352-8.2617 6.5781-18.738 2.7773-27.93-3.7969-9.1914-11.938-15.875-21.688-17.816-9.7539-1.9453-19.832 1.1133-26.863 8.1445-0.97656 0.98047-0.97656 2.5625 0 3.543 0.98047 0.97656 2.5625 0.97656 3.543 0 4.6406-4.6523 10.941-7.2695 17.516-7.2734 6.5703-0.003907 12.875 2.6055 17.523 7.25 4.6484 4.6484 7.2617 10.949 7.2617 17.523 0 6.5703-2.6133 12.871-7.2617 17.52-4.6484 4.6445-10.953 7.2539-17.523 7.25-6.5742-0.003906-12.875-2.6211-17.516-7.2695-0.98047-0.98047-2.5625-0.98047-3.543 0-0.97656 0.97656-0.97656 2.5625 0 3.5391 5.5664 5.5781 13.121 8.7148 21 8.7188z"/>
</svg>
