<?xml version="1.0" standalone="no"?>
<!DOCTYPE svg PUBLIC "-//W3C//DTD SVG 20010904//EN"
 "http://www.w3.org/TR/2001/REC-SVG-20010904/DTD/svg10.dtd">
<svg version="1.0" xmlns="http://www.w3.org/2000/svg"
 width="1153.000000pt" height="1153.000000pt" viewBox="0 0 1153.000000 1153.000000"
 preserveAspectRatio="xMidYMid meet">
<metadata>
Created by potrace 1.11, written by Peter Selinger 2001-2013
</metadata>
<g transform="translate(0.000000,1153.000000) scale(0.100000,-0.100000)"
fill="#000000" stroke="none">
<path d="M5605 11514 c-100 -19 -181 -57 -400 -186 -16 -10 -49 -28 -72 -40
-24 -12 -43 -26 -43 -30 0 -4 -5 -8 -10 -8 -10 0 -65 -31 -460 -260 -102 -59
-202 -117 -223 -129 -21 -12 -108 -62 -192 -111 -84 -49 -171 -99 -192 -111
-31 -18 -129 -74 -215 -124 -35 -20 -313 -181 -357 -206 -25 -15 -149 -86
-276 -159 -403 -234 -1028 -595 -1090 -631 -74 -42 -42 -23 -371 -214 -152
-88 -293 -170 -313 -182 -20 -12 -52 -30 -71 -41 -189 -102 -349 -204 -403
-257 -96 -93 -167 -210 -221 -360 l-21 -60 -2 -2620 c-2 -2772 -4 -2646 41
-2777 48 -138 182 -319 277 -375 16 -10 29 -21 29 -25 0 -4 4 -8 9 -8 6 0 60
-29 121 -65 61 -36 130 -76 153 -88 23 -13 125 -72 226 -130 101 -59 186 -107
188 -107 3 0 17 -8 31 -19 15 -10 47 -29 72 -43 25 -14 123 -71 219 -127 96
-55 175 -101 176 -101 2 0 49 -27 104 -60 56 -33 106 -60 111 -60 6 0 10 -4
10 -10 0 -5 4 -10 9 -10 5 0 149 -81 320 -180 172 -100 326 -189 344 -199 18
-10 145 -83 282 -163 138 -80 266 -153 285 -163 19 -10 37 -21 40 -24 3 -3 19
-13 35 -22 17 -9 128 -73 249 -143 120 -69 220 -126 223 -126 2 0 24 -14 48
-30 24 -17 46 -30 48 -30 3 0 66 -36 142 -80 76 -44 139 -80 141 -80 3 0 23
-12 47 -27 67 -42 745 -432 796 -457 97 -48 164 -59 347 -53 142 4 179 8 233
27 36 13 277 146 535 295 259 150 486 280 505 291 18 10 41 24 50 29 9 6 43
25 76 44 33 19 139 80 235 136 96 56 240 139 320 185 80 46 224 129 320 185
283 164 711 411 765 440 28 15 57 34 66 41 8 8 19 14 22 14 4 0 44 22 89 49
84 50 444 258 508 294 48 26 422 242 490 283 30 18 124 72 209 121 311 178
342 198 392 245 89 84 152 179 210 313 l34 80 3 2671 c2 2366 0 2676 -13 2708
-8 20 -16 39 -16 43 -5 34 -55 133 -105 208 -38 58 -114 139 -164 176 -29 21
-325 195 -475 279 -22 12 -52 31 -67 41 -14 11 -29 19 -31 19 -3 0 -114 63
-247 140 -133 77 -260 151 -283 164 -23 13 -114 65 -202 116 -333 193 -732
424 -775 448 -25 13 -49 28 -55 32 -5 4 -32 20 -60 36 -27 15 -63 35 -80 45
-16 10 -55 32 -85 49 -30 17 -68 39 -85 49 -33 20 -465 269 -533 308 -23 13
-91 52 -151 87 -59 34 -114 66 -122 69 -8 4 -27 16 -44 26 -35 22 -192 113
-250 145 -22 13 -96 56 -165 96 -69 40 -141 82 -160 92 -19 11 -75 44 -125 73
-49 29 -110 63 -135 77 -25 14 -101 58 -170 98 -168 99 -234 127 -332 144 -96
17 -238 17 -323 0z"/>
</g>
</svg>
