<svg width="158" height="160" viewBox="0 0 158 160" fill="none" xmlns="http://www.w3.org/2000/svg">
<path d="M4.32 103V27.64H17.664V54.616C18.752 54.04 20 53.56 21.408 53.176C22.816 52.728 24.192 52.376 25.536 52.12C26.88 51.864 28.192 51.672 29.472 51.544C30.816 51.352 32.032 51.256 33.12 51.256C35.872 51.256 38.24 51.704 40.224 52.6C42.272 53.432 43.904 54.584 45.12 56.056C46.336 57.464 47.296 59.32 48 61.624C48.704 63.928 49.152 66.328 49.344 68.824C49.6 71.32 49.728 74.296 49.728 77.752C49.728 86.008 48.448 92.376 45.888 96.856C43.328 101.336 39.072 103.576 33.12 103.576C30.368 103.576 27.584 103 24.768 101.848C21.952 100.696 19.616 99.352 17.76 97.816L15.36 103H4.32ZM17.76 88.984C21.024 91.032 24.992 92.056 29.664 92.056C31.136 92.056 32.352 91.64 33.312 90.808C34.272 89.912 35.008 88.376 35.52 86.2C36.032 83.96 36.288 80.984 36.288 77.272C36.288 73.048 36 69.784 35.424 67.48C34.912 65.176 34.208 63.672 33.312 62.968C32.416 62.2 31.2 61.816 29.664 61.816C27.296 61.816 25.152 61.976 23.232 62.296C21.312 62.552 19.488 63.032 17.76 63.736V88.984ZM56.8958 77.272C56.8958 72.856 57.1518 69.176 57.6638 66.232C58.2398 63.224 59.0398 60.76 60.0638 58.84C61.0878 56.856 62.5278 55.352 64.3838 54.328C66.2398 53.304 68.2878 52.6 70.5278 52.216C72.8318 51.832 75.7118 51.64 79.1678 51.64C81.4718 51.64 83.4238 51.704 85.0238 51.832C86.6238 51.896 88.2238 52.088 89.8238 52.408C91.4878 52.664 92.8318 53.08 93.8558 53.656C94.8798 54.168 95.8718 54.904 96.8318 55.864C97.7918 56.76 98.5278 57.88 99.0398 59.224C99.6158 60.504 100.032 62.072 100.288 63.928C100.608 65.72 100.768 67.8 100.768 70.168C100.768 74.648 99.5838 77.912 97.2158 79.96C94.8478 82.008 91.2958 83.032 86.5598 83.032H70.3358C70.3358 85.976 70.7518 88.184 71.5838 89.656C72.4798 91.064 73.5678 91.928 74.8478 92.248C76.1918 92.568 78.2718 92.728 81.0878 92.728C88.9598 92.728 95.1998 92.376 99.8078 91.672V100.792C95.0078 102.584 86.3038 103.48 73.6958 103.48C70.4318 103.48 67.7118 103 65.5358 102.04C63.4238 101.08 61.7278 99.512 60.4478 97.336C59.1678 95.16 58.2398 92.472 57.6638 89.272C57.1518 86.072 56.8958 82.072 56.8958 77.272ZM70.3358 73.336H83.1038C85.9198 73.336 87.3278 72.056 87.3278 69.496C87.3278 66.296 86.8798 64.248 85.9838 63.352C85.1518 62.392 83.1358 61.912 79.9358 61.912C77.8878 61.912 76.3518 62.008 75.3278 62.2C74.3678 62.328 73.4078 62.776 72.4478 63.544C71.5518 64.248 70.9438 65.368 70.6238 66.904C70.3678 68.44 70.2718 70.584 70.3358 73.336ZM108.101 128.92V52.024H119.141L121.445 57.112C123.301 55.64 125.637 54.328 128.453 53.176C131.333 52.024 134.149 51.448 136.901 51.448C139.397 51.448 141.573 51.864 143.429 52.696C145.349 53.528 146.917 54.68 148.133 56.152C149.413 57.624 150.469 59.448 151.301 61.624C152.133 63.8 152.709 66.168 153.029 68.728C153.349 71.288 153.509 74.136 153.509 77.272C153.509 79.896 153.413 82.264 153.221 84.376C153.093 86.488 152.805 88.6 152.357 90.712C151.909 92.76 151.269 94.552 150.437 96.088C149.669 97.624 148.677 99 147.461 100.216C146.309 101.368 144.837 102.264 143.045 102.904C141.253 103.48 139.205 103.768 136.901 103.768C134.597 103.768 132.005 103.48 129.125 102.904C126.245 102.264 123.685 101.464 121.445 100.504V128.92H108.101ZM121.445 91.288C124.773 92.568 128.773 93.208 133.445 93.208C134.981 93.208 136.197 92.856 137.093 92.152C137.989 91.384 138.693 89.848 139.205 87.544C139.781 85.24 140.069 82.008 140.069 77.848C140.069 72.344 139.525 68.504 138.437 66.328C137.349 64.088 135.685 62.968 133.445 62.968C128.709 62.968 124.709 63.992 121.445 66.04V91.288Z" fill="white"/>
</svg>
