<svg viewBox="0 0 1280 492" overflow="visible" xmlns="http://www.w3.org/2000/svg"><path d="m106.3 334.1c1.9 5.2 3.8 10.7 5.3 16.1-10.5 27.1-42.9 29.2-57.7 14.2-2.5-4.6-4.6-9.4-6.5-14.4 13.8 2.5 46.3-5 58.9-15.9zm80.4-207.2c1.8-6.5 1.8-13.4.2-20-2-7.6-6.1-14.4-12-19.7 0 0-12.8-23.7-36.2-23.7-14 .2-27.4 5.2-38 14.3-9 17.1-12.1 35.8-7.5 53.9 4.4 17.1 15 31.3 29.7 41.9 0 0 30.1 2.1 47.1-10.5 16.4-12.2 16.7-36.2 16.7-36.2zm33.2 125.1-50.1 42c-2.9-3.4-25.7-29.4-36-60l57.1-33.2c12.1 27.1 21.7 40.1 29 51.2zm-50.8 40.6c.5.6.5.6 0 0zm170.7 35.1c-8.5 9.9-34.8 26.2-48.7 26.2 1.7 4.8 3 9.8 3.8 14.8 9.6 15.9 50.3.4 46.2-25.7-.1-5.1-.5-10.2-1.3-15.3zm-141 88.1c-.1 4.6-.4 9.4-.6 14.4 6.4 20.7 47.2 23 58.7-.5 2.7-3.6 6.7-10.3 9.4-20.8-19.6 14.2-54.3 13.7-67.5 6.9zm101.3-282.8c1.2-4.2 2.3-8.5 3.2-12.8-17.3-2.7-34.7-4.4-52.1-4.9-1.3 4.2-3 8.2-5.1 12 8.1 20.1 40.9 21.9 54 5.7zm979.9 15v128c0 4.4-3.6 8-8 8h-296c-4.4 0-8-3.6-8-8v-128c0-4.4 3.6-8 8-8h296c4.4 0 8 3.6 8 8zm-162.4 107.2-53.8-46.6 52.2-39.6v-5h-22.7l-60.6 46v-46h-20.4v96h20.4v-41h14.1l47.2 41h23.7zm32.6-67h-19.9v71.8h19.9zm.4-27.5h-20.7l.9 17.3h18.9zm90.1 98.5-2.3-14.6c-5.7 1.1-11.4 1.6-17.2 1.6-16.1 0-22.4-6.4-22.4-18v-25.6h41.4v-14.5h-41.5v-19.1h-10.4l-9.6 19.2h-17.3v14.5h17.6v25.8c0 20.3 10.7 33.1 40.3 33.1 7.1 0 14.3-.8 21.4-2.4z" fill="#d99b21"/><path d="m339.8 327.7c-7.1-43.3-43.6-72.7-80.8-72.7-6.2 0-12.4.7-18.5 2-7.2-8-13.7-16.8-19.2-26 33.1-13.7 65.8-53.9 78.8-98-2.6 2.1-8.2 5-19.1 5-22.9 0-32.2-7.6-35-10.7-9.7 17.3-28.1 31.7-47 31.7-4.7 0-9.4-.5-14.1-1.4 7.7-14.4 9-26.8 4.3-32.2-.7-.8-2-.9-2.8-.2-.3.3-.5.6-.6 1-7.2 28.9-40.8 46.7-71 46.7-30.4.1-55.8-17.2-55.8-43.7 0-29.5 34.1-56.2 72.2-56.2 17.2 0 32.6 5.5 42.9 15.1.8.7 2 .7 2.8-.1.3-.3.5-.7.5-1.1 2.5-17-29.9-39.7-69.1-39.7-4.5 0-9.1.3-13.6.9l-2.4-9c-.7-2.5-.3-3.8 1.4-5.7 7.4-8.2 6.8-20.8-1.4-28.3-8.2-7.4-20.8-6.8-28.3 1.4-7.4 8.2-6.8 20.8 1.4 28.3 2.1 1.9 4.7 3.4 7.4 4.2 2.4.8 3.3 1.8 4 4.2l2.2 8.2c-37.5 11.6-65 44.3-65 80.2 0 46.9 40.2 68.2 64.3 73.3-8.9 5-16.6 11.8-22.7 20l-4.1-7.1c-.7-1-.8-2.4-.2-3.5 1.9-4.6-.3-9.9-5-11.7-4.6-1.9-9.9.3-11.7 5-1.9 4.6.3 9.9 5 11.7.7.3 1.4.5 2.2.6 1.3.1 2.4.8 2.9 1.9l6.1 10.5c-3 5-5.5 10.3-7.4 15.8l-20.5-35.1c-.8-1.1-.9-2.6-.1-3.7 2.9-6 .4-13.1-5.6-16-1.8-.9-3.7-1.3-5.7-1.2-6.6.2-11.8 5.8-11.6 12.4.2 6.1 5.1 11.1 11.2 11.5 1.3 0 2.6.8 3.1 2l25.2 43.6c-1.7 8-2.5 16.2-2.5 24.4 0 28.1 4.8 49.1 10.4 64 1.9 1.8 6.4 4 16.6 4 22.4 0 41.1-9.5 42.2-20 19.6 29.9 40.3 38.2 74.7 47 10.9 2.8 17.8 10.9 17.8 31 0 1.2 0 2.5-.1 3.8 2.9 3.3 10.4 8.2 29.2 8.2 23.9 0 34.4-10.1 38.2-15.1 1.9-7.8 2.8-15.8 2.8-23.9 0-24.7-18.1-47.9-42.8-61.2 5.5-1.2 11.2-1.8 16.8-1.8 21.4 0 39.5 8.6 48 31.9 1.6 1 4.4 2.1 9 2.1 15.2 0 35-15.6 40.1-28.3zm-126.6-74.9c-25.6 25.1-54.5 41.9-62.2 46.1-1.2.6-2.6.4-3.6-.5-16.9-17.3-26.7-40.7-29.6-48.1-.5-1.3.1-2.8 1.3-3.4 23.5-12 46.2-25.5 67.8-40.5.9-.6 2.1-.4 2.8.5.1.1.1.2.2.3 6.7 14.5 14.6 28.5 23.6 41.8.9 1.2.8 2.8-.3 3.8zm164.8 111.2c0 22.1-24 41-50 41-17.4 0-29.6-12-33-35-.1-.4-.1-.9-.2-1.3 1.3 1.2 3.5 2.3 7.2 2.3 16.2 0 39-17.3 39-28 0 0 2.2-1 8-1 15 0 29 7.7 29 22zm-121.1 65.7c9.1 12.4 14.1 25.4 14.1 33.3 0 15-9.3 29-26 29-24.4 0-47-24.5-47-54 0-2.6.1-5.2.2-7.8 2.2 3.6 8.7 8.8 27.8 8.8 16.3 0 25.8-5.1 30.9-9.3zm-145.3-79.5c2.6 9.2 4.4 18.3 4.4 25.9 0 12.7-3.4 20.4-11.2 23-2.3 14-8.1 22-19.8 22-16.5 0-32-17.2-32-48 0-2.9.3-5.8.9-8.7 3.1 2 8 3.7 16.1 3.7 25.6-.1 37.7-12.8 41.6-17.9zm122.4-259.2c0-5.1 4.3-8 10-8 2.7 0 5.4.5 7.9 1.5-.6-3.5-.9-7-.9-10.5 0-17.9 6.3-32 22-32 17.7 0 33 21.9 33 52 0 8.8-.9 17.6-2.7 26.2-2.6 1.5-8.6 3.8-20.3 3.8-25.3 0-31.9-8.7-31.9-8.7-7.5-6.3-17.1-15.9-17.1-24.3zm168.1 116.6h51.6v48.8c-14.8 3.5-30 5.3-45.2 5.3-42.2 0-64.6-19.6-64.6-49.8 0-30.7 24.2-49.5 66.8-49.5 13.7 0 27.3 1.4 40.7 4.2l-3.4 15.4c-12.1-2.3-24.3-3.4-36.6-3.4-32.4 0-46.9 13.1-46.9 33.7 0 20.7 13.9 33.3 44.6 33.3 8.6.1 17.3-.5 25.8-1.8v-21.1l-32.9-5.4zm449 37 2.3 14.6c-7.1 1.6-14.3 2.4-21.5 2.4-29.6 0-40.3-12.8-40.3-33.1v-25.8h-17.6v-14.5h17.3l9.7-19.2h10.4v19.2h41.5v14.5h-41.4v25.6c0 11.6 6.4 18 22.4 18 5.8-.1 11.6-.6 17.2-1.7zm-108.4-83.9h20.7l-.8 17.3h-18.9zm208.8 27.5v4.9l-49.5 90.9h-25.1v-4.8l28.8-22.6v-.8h-11.5l-34.3-62.7v-4.9h19.3l27 54.2 26.4-54.2zm-430.5 0h10v18.9l-38.1 9.5v43.4h-19.9v-71.8h13.4l5.3 16.1zm222.1 0h19.9v71.8h-19.9zm-32 0h19.2v4.9l-38.3 66.9h-16.6l-38.5-66.9v-4.9h19.5l27.4 50.2zm-132-1.5c-11 .1-22.1 1.3-32.9 3.6l2.3 13.8c9.4-2 19-3 28.7-3.1 19.2 0 26 6.1 26.9 16.4l-34.9.9c-19.3.5-28.5 8.7-28.5 21.4 0 12.6 10.3 21.9 30 21.9 13.2 0 25.1-4.6 34.6-10.3l4.7 8.7h14.1v-38.3c0-21.3-10.2-35-45-35zm25.2 55.3c-8.4 3.9-17.6 6.6-27.3 6.6-12.2 0-17.3-4.2-17.4-10.3 0-5.9 4.3-9.2 12.3-9.5l32.4-1.1z" fill="#001a4d"/></svg>


