<?xml version="1.0" encoding="UTF-8" standalone="no"?>
<!DOCTYPE svg PUBLIC "-//W3C//DTD SVG 1.1//EN" "http://www.w3.org/Graphics/SVG/1.1/DTD/svg11.dtd">
<svg width="100%" height="100%" viewBox="0 0 512 512" version="1.1" xmlns="http://www.w3.org/2000/svg" xmlns:xlink="http://www.w3.org/1999/xlink" xml:space="preserve" style="fill-rule:evenodd;clip-rule:evenodd;stroke-linejoin:round;stroke-miterlimit:1.41421;">
    <circle cx="256" cy="256" r="256" style="fill:rgb(115,115,115);"/>
    <g transform="matrix(1.46332,0,0,1.46332,-118.606,-118.61)">
        <circle cx="256" cy="256" r="153.078" style="fill:rgb(0,131,192);"/>
    </g>
    <g>
        <g transform="matrix(1.09423,0,0,1.09423,49.0285,-23.754)">
            <path d="M163.148,383.941L163.148,209.344L215.148,209.344L215.148,383.941L163.148,383.941ZM161.426,127.384L216.87,127.384L216.87,176.285L161.426,176.285L161.426,127.384Z" style="fill:rgb(252,216,4);fill-rule:nonzero;"/>
        </g>
        <g transform="matrix(0.547116,0,0,1.09423,167.681,-23.754)">
            <path d="M163.148,383.941L163.148,209.344L215.148,209.344L215.148,383.941L163.148,383.941ZM161.426,127.384L216.87,127.384L216.87,176.285L161.426,176.285L161.426,127.384Z" style="fill:rgb(235,185,81);fill-rule:nonzero;"/>
        </g>
    </g>
</svg>
