<?xml version="1.0" encoding="UTF-8" standalone="no"?>
<!DOCTYPE svg PUBLIC "-//W3C//DTD SVG 1.1//EN" "http://www.w3.org/Graphics/SVG/1.1/DTD/svg11.dtd">
<svg width="100%" height="100%" viewBox="0 0 496 496" version="1.1" xmlns="http://www.w3.org/2000/svg" xmlns:xlink="http://www.w3.org/1999/xlink" xml:space="preserve" style="fill-rule:evenodd;clip-rule:evenodd;stroke-linejoin:round;stroke-miterlimit:1.41421;">
    <g transform="matrix(1.46332,0,0,1.46332,-118.606,-118.61)">
        <circle cx="256" cy="256" r="153.078" style="fill:rgb(115,115,115);"/>
    </g>
    <g id="SVGCleanerId_0" transform="matrix(0.841324,0,0,0.83094,47.3555,41.9272)">
        <path d="M247.992,5.163C111.048,5.163 0,116.627 0,254.163C0,364.155 71.048,457.483 169.632,490.403C182.024,492.699 186.544,485.011 186.544,478.403C186.544,472.499 186.328,456.843 186.208,436.059C117.208,451.123 102.656,402.683 102.656,402.683C91.392,373.915 75.136,366.275 75.136,366.275C52.608,350.819 76.832,351.115 76.832,351.115C101.712,352.867 114.808,376.787 114.808,376.787C136.952,414.835 172.872,403.835 187,397.459C189.232,381.379 195.656,370.395 202.736,364.179C147.68,357.883 89.792,336.539 89.792,241.139C89.792,213.963 99.448,191.731 115.312,174.307C112.744,168.011 104.24,142.707 117.728,108.435C117.728,108.435 138.56,101.747 185.928,133.955C205.712,128.435 226.928,125.675 248.024,125.563C269.072,125.675 290.304,128.427 310.12,133.955C357.448,101.747 378.248,108.435 378.248,108.435C391.768,142.707 383.264,168.011 380.704,174.307C396.608,191.731 406.208,213.955 406.208,241.139C406.208,336.779 348.224,357.819 292.976,363.995C301.88,371.683 309.808,386.867 309.808,410.107C309.808,443.403 309.512,470.235 309.512,478.403C309.512,485.075 313.984,492.827 326.56,490.371C425.016,457.387 496,364.123 496,254.163C496,116.627 384.952,5.163 247.992,5.163Z" style="fill:rgb(0,131,192);fill-rule:nonzero;"/>
    </g>
    <path d="M126.368,391.387C124.776,388.987 121.792,384.915 117.464,380.843C120.272,385.011 123.256,388.507 126.368,391.387Z" style="fill:rgb(108,169,234);fill-rule:nonzero;"/>
</svg>
