<?xml version="1.0" encoding="UTF-8" standalone="no"?>
<!DOCTYPE svg PUBLIC "-//W3C//DTD SVG 1.1//EN" "http://www.w3.org/Graphics/SVG/1.1/DTD/svg11.dtd">
<svg width="100%" height="100%" viewBox="0 0 512 512" version="1.1" xmlns="http://www.w3.org/2000/svg" xmlns:xlink="http://www.w3.org/1999/xlink" xml:space="preserve" style="fill-rule:evenodd;clip-rule:evenodd;stroke-linejoin:round;stroke-miterlimit:1.41421;">
    <circle cx="256" cy="256" r="256" style="fill:rgb(115,115,115);"/>
    <path d="M268.364,110.759L112.849,110.759L112.849,401.241L335.412,401.241L335.412,177.807L268.364,110.759Z" style="fill:rgb(250,227,194);fill-rule:nonzero;"/>
    <path d="M335.412,177.806L268.364,110.759L211.069,110.759L211.069,401.241L335.412,401.241L335.412,177.806Z" style="fill:rgb(255,216,177);fill-rule:nonzero;"/>
    <path d="M268.364,177.806L335.412,177.806L268.364,110.759L268.364,177.806Z" style="fill:rgb(248,190,148);fill-rule:nonzero;"/>
    <path d="M408.555,368.849L386.612,399.151L364.669,368.849L364.669,123.123C364.669,117.448 369.27,112.849 374.943,112.849L398.279,112.849C403.954,112.849 408.554,117.45 408.554,123.123L408.554,368.849L408.555,368.849Z" style="fill:rgb(255,132,104);fill-rule:nonzero;"/>
    <path d="M364.669,146.286L364.669,368.849L386.612,399.151L408.555,368.849L408.555,146.286L364.669,146.286Z" style="fill:rgb(255,209,83);fill-rule:nonzero;"/>
    <path d="M395.692,386.612L377.532,386.612L386.612,399.151L395.692,386.612Z" style="fill:rgb(177,201,218);fill-rule:nonzero;"/>
    <path d="M386.612,386.612L386.612,399.151L395.692,386.612L386.612,386.612Z" style="fill:rgb(155,182,198);fill-rule:nonzero;"/>
    <rect x="378.253" y="142.629" width="16.718" height="229.878" style="fill:rgb(255,181,65);"/>
    <rect x="386.612" y="142.629" width="8.359" height="229.878" style="fill:rgb(255,162,0);"/>
    <path d="M408.555,123.123C408.555,117.448 403.954,112.849 398.281,112.849L374.945,112.849C369.27,112.849 364.67,117.449 364.67,123.123L364.67,146.285L408.556,146.285L408.556,123.123L408.555,123.123L408.555,123.123Z" style="fill:rgb(223,46,24);fill-rule:nonzero;"/>
    <path d="M408.555,123.123C408.555,117.448 403.954,112.849 398.281,112.849L386.613,112.849L386.613,146.286L408.556,146.286L408.556,123.123L408.555,123.123Z" style="fill:rgb(195,27,14);fill-rule:nonzero;"/>
    <path d="M408.555,368.849L364.669,368.849L377.532,386.612L395.692,386.612L408.555,368.849Z" style="fill:rgb(250,227,194);fill-rule:nonzero;"/>
    <path d="M408.555,368.849L386.612,368.849L386.612,386.612L395.692,386.612L408.555,368.849Z" style="fill:rgb(255,216,177);fill-rule:nonzero;"/>
</svg>
