<?xml version="1.0" encoding="UTF-8" standalone="no"?>
<!DOCTYPE svg PUBLIC "-//W3C//DTD SVG 1.1//EN" "http://www.w3.org/Graphics/SVG/1.1/DTD/svg11.dtd">
<svg width="100%" height="100%" viewBox="0 0 512 512" version="1.1" xmlns="http://www.w3.org/2000/svg" xmlns:xlink="http://www.w3.org/1999/xlink" xml:space="preserve" style="fill-rule:evenodd;clip-rule:evenodd;stroke-linejoin:round;stroke-miterlimit:1.41421;">
    <circle cx="256" cy="256" r="256" style="fill:rgb(115,115,115);"/>
    <g transform="matrix(1.46332,0,0,1.46332,-118.606,-118.61)">
        <circle cx="256" cy="256" r="153.078" style="fill:rgb(0,131,192);"/>
    </g>
    <g transform="matrix(1.5377,0.00187348,-0.00187348,1.5377,256.004,280.399)">
        <g>
            <g transform="matrix(1,0,0,1,-128,-129.65)">
                <g>
                    <path d="M200.9,199.8C200.9,213.7 168.7,224.9 129,224.9C89.3,224.9 57.1,213.6 57.1,199.8C57.1,185.9 89.3,174.7 129,174.7C168.7,174.7 200.9,185.9 200.9,199.8Z" style="fill:rgb(158,220,242);fill-rule:nonzero;"/>
                    <clipPath id="_clip1">
                        <path d="M98.1,244.8C99.7,252.3 103.6,256.7 107.5,259.3L148.6,259.3C153.6,255.9 158.7,249.5 158.7,237.5L158.7,206.5C158.7,206.5 159.3,198.8 166.4,196.3C166.4,196.3 170.5,193.4 166.1,191.8C166.1,191.8 146.6,190.2 146.6,206.2L146.6,229.8C146.6,229.8 147.4,238.5 142.8,242.1L142.8,212.9C142.8,212.9 143.1,203.6 147.9,200.1C147.9,200.1 151.1,194.4 144.1,195.9C144.1,195.9 130.7,197.8 130.1,213.5L129.8,243.5L126.6,243.5L126.3,213.5C125.7,197.9 112.3,195.9 112.3,195.9C105.3,194.3 108.5,200.1 108.5,200.1C113.3,203.6 113.6,212.9 113.6,212.9L113.6,242.4C109,239.1 109.8,229.8 109.8,229.8L109.8,206.2C109.8,190.2 90.3,191.8 90.3,191.8C85.8,193.4 90,196.3 90,196.3C97,198.9 97.7,206.5 97.7,206.5L97.7,228.2L98.1,244.8Z"/>
                    </clipPath>
                    <g clip-path="url(#_clip1)">
                        <path d="M200.9,199.8C200.9,213.7 168.7,224.9 129,224.9C89.3,224.9 57.1,213.6 57.1,199.8C57.1,185.9 89.3,174.7 129,174.7C168.7,174.7 200.9,185.9 200.9,199.8Z" style="fill:rgb(125,188,231);fill-rule:nonzero;"/>
                    </g>
                    <path d="M46.9,125.9L44.8,133.1C44.8,133.1 44.3,135.7 46.7,136.2C49.3,136.1 49.1,133.7 48.9,133L46.9,125.9Z" style="fill:rgb(158,220,242);fill-rule:nonzero;"/>
                    <path d="M255.8,95.6L256,94.7C234.9,90.5 213.3,90.4 200.2,91C202.3,83.3 203,74.3 203,64.4C203,50.1 197.6,38.7 189,30.1C190.5,25.2 192.5,14.3 187,0.4C187,0.4 177.2,-2.7 154.9,12.2C146.2,10 136.9,8.9 127.6,8.9C117.4,8.9 107.1,10.2 97.4,12.8C74.4,-2.9 64.3,0.3 64.3,0.3C57.7,16.8 61.8,29.1 63,32.1C55.2,40.5 50.5,51.2 50.5,64.3C50.5,74.2 51.6,83.1 54.4,90.8C41.2,90.3 20.4,90.5 0,94.6L0.2,95.5C20.6,91.4 41.6,91.3 54.7,91.8C55.3,93.4 56,95 56.7,96.5C43.7,96.9 21.6,98.6 0.4,104.6L0.7,105.5C22.1,99.5 44.4,97.9 57.3,97.5C65.1,111.9 80.3,121.3 107.5,124.2C103.6,126.8 99.7,131.2 98.1,138.7C92.8,141.2 76.2,147.4 66.2,130.2C66.2,130.2 60.6,120 49.9,119.2C49.9,119.2 39.5,119 49.2,125.7C49.2,125.7 56.1,129 60.9,141.3C60.9,141.3 67.2,162.3 97.3,155.5L97.3,177C97.3,177 96.7,184.7 89.6,187.2C89.6,187.2 85.4,190.1 89.9,191.7C89.9,191.7 109.4,193.3 109.4,177.3L109.4,153.7C109.4,153.7 108.6,144.3 113.2,141.1L113.2,179.9C113.2,179.9 112.9,189.2 108.1,192.7C108.1,192.7 104.9,198.4 111.9,196.9C111.9,196.9 125.3,195 125.9,179.3L126.2,140L129.4,140L129.7,179.3C130.3,194.9 143.7,196.9 143.7,196.9C150.7,198.5 147.5,192.7 147.5,192.7C142.7,189.2 142.4,179.9 142.4,179.9L142.4,141.4C147,145 146.2,153.7 146.2,153.7L146.2,177.3C146.2,193.3 165.7,191.7 165.7,191.7C170.2,190.1 166,187.2 166,187.2C159,184.6 158.3,177 158.3,177L158.3,146C158.3,133.9 153.2,127.5 148.2,124.2C177.2,121.3 191.1,112 197.5,97.4C210.2,97.7 233.1,99.3 254.9,105.5L255.2,104.6C233.5,98.5 210.8,96.9 197.9,96.5C198.5,95 199,93.5 199.5,91.9C212.9,91.4 234.6,91.4 255.8,95.6Z" style="fill:rgb(1,1,1);fill-rule:nonzero;"/>
                    <path d="M174.6,63.7C180.8,69.4 184.5,76.2 184.5,83.5C184.5,117.9 158.9,118.8 127.3,118.8C95.7,118.8 70.1,114 70.1,83.5C70.1,76.2 73.7,69.4 79.9,63.8C90.2,54.4 107.6,59.4 127.3,59.4C147,59.4 164.3,54.3 174.6,63.7Z" style="fill:rgb(245,204,179);fill-rule:nonzero;"/>
                    <path d="M108.3,85.3C108.3,94.8 103,102.4 96.4,102.4C89.8,102.4 84.5,94.7 84.5,85.3C84.5,75.8 89.8,68.2 96.4,68.2C103,68.1 108.3,75.8 108.3,85.3Z" style="fill:white;fill-rule:nonzero;"/>
                    <path d="M104.5,85.5C104.5,91.8 100.9,96.9 96.6,96.9C92.2,96.9 88.7,91.8 88.7,85.5C88.7,79.2 92.3,74.1 96.6,74.1C100.9,74.1 104.5,79.2 104.5,85.5Z" style="fill:rgb(175,92,81);fill-rule:nonzero;"/>
                    <path d="M172.2,85.3C172.2,94.8 166.9,102.4 160.3,102.4C153.7,102.4 148.4,94.7 148.4,85.3C148.4,75.8 153.7,68.2 160.3,68.2C166.8,68.1 172.2,75.8 172.2,85.3Z" style="fill:white;fill-rule:nonzero;"/>
                    <path d="M168.3,85.5C168.3,91.8 164.7,96.9 160.4,96.9C156,96.9 152.5,91.8 152.5,85.5C152.5,79.2 156.1,74.1 160.4,74.1C164.8,74.1 168.3,79.2 168.3,85.5Z" style="fill:rgb(175,92,81);fill-rule:nonzero;"/>
                    <path d="M130.5,100.5C130.5,102.1 129.2,103.5 127.5,103.5C125.9,103.5 124.5,102.2 124.5,100.5C124.5,98.8 125.8,97.5 127.5,97.5C129.1,97.5 130.5,98.8 130.5,100.5Z" style="fill:rgb(175,92,81);fill-rule:nonzero;"/>
                    <path d="M120.6,108C120.4,107.5 120.7,107 121.2,106.8C121.7,106.6 122.2,106.9 122.4,107.4C123.2,109.6 125.2,111 127.5,111C129.8,111 131.8,109.5 132.6,107.4C132.8,106.9 133.3,106.6 133.8,106.8C134.3,107 134.6,107.5 134.4,108C133.4,110.9 130.6,112.9 127.5,112.9C124.4,112.9 121.6,110.9 120.6,108Z" style="fill:rgb(175,92,81);fill-rule:nonzero;"/>
                    <path d="M54.5,121.6C54.5,122.4 53.6,123 52.4,123C51.3,123 50.3,122.4 50.3,121.6C50.3,120.8 51.2,120.2 52.4,120.2C53.6,120.2 54.5,120.8 54.5,121.6Z" style="fill:rgb(196,229,217);fill-rule:nonzero;"/>
                    <path d="M60.3,124.8C60.3,125.6 59.4,126.2 58.2,126.2C57.1,126.2 56.1,125.6 56.1,124.8C56.1,124 57,123.4 58.2,123.4C59.4,123.4 60.3,124 60.3,124.8Z" style="fill:rgb(196,229,217);fill-rule:nonzero;"/>
                    <path d="M63.8,129C63.8,129.8 62.9,130.4 61.7,130.4C60.6,130.4 59.6,129.8 59.6,129C59.6,128.2 60.5,127.6 61.7,127.6C62.9,127.5 63.8,128.2 63.8,129Z" style="fill:rgb(196,229,217);fill-rule:nonzero;"/>
                    <path d="M67,133.8C67,134.6 66.1,135.2 64.9,135.2C63.8,135.2 62.8,134.6 62.8,133.8C62.8,133 63.7,132.4 64.9,132.4C66.1,132.3 67,133 67,133.8Z" style="fill:rgb(196,229,217);fill-rule:nonzero;"/>
                    <path d="M70.5,138.2C70.5,139 69.6,139.6 68.4,139.6C67.3,139.6 66.3,139 66.3,138.2C66.3,137.4 67.2,136.8 68.4,136.8C69.6,136.8 70.5,137.4 70.5,138.2Z" style="fill:rgb(196,229,217);fill-rule:nonzero;"/>
                    <path d="M75.3,142.1C75.3,142.9 74.4,143.5 73.2,143.5C72.1,143.5 71.1,142.9 71.1,142.1C71.1,141.3 72,140.7 73.2,140.7C74.4,140.6 75.3,141.3 75.3,142.1Z" style="fill:rgb(196,229,217);fill-rule:nonzero;"/>
                    <path d="M82,144.6C82,145.4 81.1,146 79.9,146C78.8,146 77.8,145.4 77.8,144.6C77.8,143.8 78.7,143.2 79.9,143.2C81.1,143.2 82,143.8 82,144.6Z" style="fill:rgb(196,229,217);fill-rule:nonzero;"/>
                    <path d="M88.7,144.6C88.7,145.4 87.8,146 86.6,146C85.5,146 84.5,145.4 84.5,144.6C84.5,143.8 85.4,143.2 86.6,143.2C87.8,143.2 88.7,143.8 88.7,144.6Z" style="fill:rgb(196,229,217);fill-rule:nonzero;"/>
                    <path d="M95.5,143.5C95.5,144.3 94.6,144.9 93.4,144.9C92.3,144.9 91.3,144.3 91.3,143.5C91.3,142.7 92.2,142.1 93.4,142.1C94.5,142.1 95.5,142.7 95.5,143.5Z" style="fill:rgb(196,229,217);fill-rule:nonzero;"/>
                </g>
            </g>
        </g>
    </g>
</svg>
