<?xml version="1.0" encoding="UTF-8" standalone="no"?>
<!DOCTYPE svg PUBLIC "-//W3C//DTD SVG 1.1//EN" "http://www.w3.org/Graphics/SVG/1.1/DTD/svg11.dtd">
<svg width="100%" height="100%" viewBox="0 0 512 512" version="1.1" xmlns="http://www.w3.org/2000/svg" xmlns:xlink="http://www.w3.org/1999/xlink" xml:space="preserve" style="fill-rule:evenodd;clip-rule:evenodd;stroke-linejoin:round;stroke-miterlimit:1.41421;">
    <circle cx="256" cy="256" r="256" style="fill:rgb(0,131,192);"/>
    <path d="M388.57,367.672L118.205,367.672L133.747,347.819L388.57,347.819L388.57,367.672Z" style="fill:rgb(0,168,138);fill-rule:nonzero;"/>
    <path d="M164.695,360.234L118.206,367.673L125.645,321.184L344.297,102.53C349.346,97.481 357.533,97.481 362.583,102.53L383.348,123.295C388.397,128.344 388.397,136.531 383.348,141.581L164.695,360.234Z" style="fill:rgb(255,132,104);fill-rule:nonzero;"/>
    <path d="M323.686,123.14L125.644,321.183L118.205,367.672L164.695,360.234L362.737,162.191L323.686,123.14Z" style="fill:rgb(252,216,4);fill-rule:nonzero;"/>
    <path d="M137.443,364.594L121.283,348.435L118.205,367.672L137.443,364.594Z" style="fill:rgb(30,73,95);fill-rule:nonzero;"/>
    <path d="M118.405,366.428L118.205,367.672L137.443,364.594L128.84,355.993L118.405,366.428Z" style="fill:rgb(29,56,78);fill-rule:nonzero;"/>
    <g transform="matrix(-0.7071,-0.7071,0.7071,-0.7071,245.951,585.256)">
        <rect x="233.664" y="97.052" width="21.044" height="289.277" style="fill:rgb(235,185,81);"/>
    </g>
    <g transform="matrix(0.7071,0.7071,-0.7071,0.7071,245.882,-103.312)">
        <rect x="242.021" y="100.511" width="11.258" height="289.277" style="fill:rgb(255,162,0);"/>
    </g>
    <path d="M383.347,141.581C388.397,136.531 388.397,128.344 383.347,123.295L362.582,102.53C357.533,97.481 349.346,97.48 344.296,102.53L323.686,123.14L362.737,162.191L383.347,141.581Z" style="fill:rgb(230,17,0);fill-rule:nonzero;"/>
    <path d="M164.695,360.234L125.644,321.183L121.283,348.435L137.443,364.594L164.695,360.234Z" style="fill:rgb(250,227,194);fill-rule:nonzero;"/>
    <path d="M128.84,355.993L137.443,364.594L164.695,360.234L144.646,340.186L128.84,355.993Z" style="fill:rgb(255,216,177);fill-rule:nonzero;"/>
</svg>
