<?xml version="1.0" encoding="UTF-8" standalone="no"?>
<!DOCTYPE svg PUBLIC "-//W3C//DTD SVG 1.1//EN" "http://www.w3.org/Graphics/SVG/1.1/DTD/svg11.dtd">
<svg width="100%" height="100%" viewBox="0 0 512 512" version="1.1" xmlns="http://www.w3.org/2000/svg" xmlns:xlink="http://www.w3.org/1999/xlink" xml:space="preserve" style="fill-rule:evenodd;clip-rule:evenodd;stroke-linejoin:round;stroke-miterlimit:1.41421;">
    <path d="M255.939,511.938C114.811,511.938 0,397.127 0,255.999C0,114.871 114.811,0.061 255.939,0.061C397.067,0.061 511.878,114.872 511.878,256C511.878,397.128 397.066,511.938 255.939,511.938Z" style="fill:rgb(115,115,115);fill-rule:nonzero;"/>
    <g>
        <g transform="matrix(1,0,0,1,24.4693,12.7741)">
            <path d="M224.649,163.215C219.385,167.894 216.285,175.146 215.349,184.972L214.297,195.851L259.566,195.851L256.408,235.505L211.138,235.505L199.909,373.769L146.919,373.769L158.149,235.505L124.46,235.505L127.619,195.851L161.307,195.851L162.36,183.568C164.232,161.109 171.367,143.68 183.766,131.281C196.166,118.881 213.244,112.682 235.001,112.682C246.933,112.682 256.876,114.202 264.83,117.244L261.671,158.653C255.121,157.015 249.389,156.196 244.476,156.196C236.522,156.196 229.913,158.536 224.649,163.215Z" style="fill:white;fill-rule:nonzero;"/>
            <path d="M338.479,300.761L306.799,336.329L334.447,373.769L309.103,373.769L293.263,351.161L273.967,373.769L248.047,373.769L281.743,336.041L255.535,300.761L280.735,300.761L295.135,321.065L312.415,300.761L338.479,300.761Z" style="fill:white;fill-rule:nonzero;"/>
        </g>
        <g transform="matrix(1.46332,0,0,1.46332,-118.606,-118.61)">
            <circle cx="256" cy="256" r="153.078" style="fill:rgb(0,131,192);"/>
        </g>
        <g transform="matrix(1.00935,0,0,1.07184,-21.5454,225.02)">
            <path d="M255.087,-50.896C249.837,-46.23 246.745,-38.996 245.812,-29.196L244.762,-18.346L289.912,-18.346L286.762,21.204L241.612,21.204L230.412,159.104L177.562,159.104L188.762,21.204L155.162,21.204L158.312,-18.346L191.912,-18.346L192.962,-30.596C194.828,-52.996 201.945,-70.38 214.312,-82.746C226.678,-95.113 243.712,-101.296 265.412,-101.296C277.312,-101.296 287.228,-99.78 295.162,-96.746L292.012,-55.446C285.478,-57.08 279.762,-57.896 274.862,-57.896C266.928,-57.896 260.337,-55.563 255.087,-50.896Z" style="fill:white;fill-rule:nonzero;"/>
            <path d="M394.668,63.788L353.308,110.224L389.404,159.104L356.316,159.104L335.636,129.588L310.444,159.104L276.604,159.104L320.596,109.848L286.38,63.788L319.28,63.788L338.08,90.296L360.64,63.788L394.668,63.788Z" style="fill:rgb(252,216,4);fill-rule:nonzero;"/>
        </g>
    </g>
</svg>
