<?xml version="1.0" encoding="UTF-8" standalone="no"?>
<!DOCTYPE svg PUBLIC "-//W3C//DTD SVG 1.1//EN" "http://www.w3.org/Graphics/SVG/1.1/DTD/svg11.dtd">
<svg width="100%" height="100%" viewBox="0 0 512 512" version="1.1" xmlns="http://www.w3.org/2000/svg" xmlns:xlink="http://www.w3.org/1999/xlink" xml:space="preserve" style="fill-rule:evenodd;clip-rule:evenodd;stroke-linejoin:round;stroke-miterlimit:1.41421;">
    <circle cx="256" cy="256" r="256" style="fill:rgb(255,64,136);"/>
    <circle cx="256" cy="256" r="142.222"/>
    <g>
        <rect x="241.347" y="170.667" width="29.306" height="85.333" style="fill:rgb(5,148,203);"/>
        <path d="M256,355.987C229.293,355.987 204.183,345.587 185.297,326.703C146.313,287.719 146.313,224.284 185.297,185.3L206.02,206.023C192.67,219.371 185.318,237.122 185.318,256.001C185.318,274.88 192.67,292.631 206.02,305.979C219.368,319.329 237.119,326.681 255.998,326.681C274.877,326.681 292.628,319.329 305.976,305.979C319.326,292.631 326.678,274.88 326.678,256.001C326.678,237.122 319.326,219.371 305.976,206.023L326.699,185.3C365.683,224.284 365.683,287.719 326.699,326.703C307.817,345.586 282.707,355.987 256,355.987Z" style="fill:rgb(5,148,203);fill-rule:nonzero;"/>
    </g>
</svg>
