<?xml version="1.0" encoding="UTF-8" standalone="no"?>
<!DOCTYPE svg PUBLIC "-//W3C//DTD SVG 1.1//EN" "http://www.w3.org/Graphics/SVG/1.1/DTD/svg11.dtd">
<svg width="100%" height="100%" viewBox="0 0 400 400" version="1.1" xmlns="http://www.w3.org/2000/svg" xmlns:xlink="http://www.w3.org/1999/xlink" xml:space="preserve" style="fill-rule:evenodd;clip-rule:evenodd;stroke-linejoin:round;stroke-miterlimit:1.41421;">
    <g transform="matrix(1.90897,0,0,1.90897,-27.8648,-56.0002)">
        <path d="M119.631,36.154L203.822,85.066L203.822,181.395L119.631,229.184L35.578,181.395L35.578,85.066L119.631,36.154Z" style="fill:rgb(255,64,136);"/>
        <path d="M207.664,81.239L209.061,83.666L209.061,182.809L207.638,185.253L121.013,234.423L118.245,234.422L31.761,185.251L30.34,182.808L30.34,83.667L31.735,81.242L118.217,30.916L121.041,30.915L207.664,81.239ZM40.817,88.078L40.817,178.348L119.633,223.159L198.584,178.345L198.584,88.081L119.633,42.214L40.817,88.078Z" style="fill:rgb(201,23,126);"/>
    </g>
    <g transform="matrix(1.78981,0,0,2.02809,-42.2616,88.7603)">
        <path d="M179.238,106.552L154.758,106.552L154.758,62.2L112.134,62.2L112.134,106.552L87.654,106.552L87.654,1.648L112.134,1.648L112.134,45.496L154.758,45.496L154.758,1.648L179.238,1.648L179.238,106.552Z" style="fill:white;fill-rule:nonzero;"/>
    </g>
</svg>
