<?xml version="1.0" encoding="UTF-8" standalone="no"?>
<!DOCTYPE svg PUBLIC "-//W3C//DTD SVG 1.1//EN" "http://www.w3.org/Graphics/SVG/1.1/DTD/svg11.dtd">
<svg width="100%" height="100%" viewBox="0 0 512 512" version="1.1" xmlns="http://www.w3.org/2000/svg" xmlns:xlink="http://www.w3.org/1999/xlink" xml:space="preserve" style="fill-rule:evenodd;clip-rule:evenodd;stroke-linejoin:round;stroke-miterlimit:1.41421;">
    <g>
        <g transform="matrix(1.13625,0,0,1.13625,-34.8793,-34.8782)">
            <path d="M256,30.696C131.776,30.696 30.704,131.768 30.704,256C30.704,380.224 131.776,481.296 256,481.296C380.232,481.296 481.304,380.224 481.304,256C481.304,131.768 380.232,30.696 256,30.696ZM203.656,274.208L166.944,274.208L166.944,177.368L127.584,217.496L101.384,191.936L185.304,106.376L269.216,191.936L243.016,217.496L203.656,177.368L203.656,274.208ZM326.696,405.704L242.784,320.144L268.984,294.584L308.344,334.712L308.344,237.872L345.056,237.872L345.056,334.712L384.416,294.584L410.616,320.144L326.696,405.704Z" style="fill:rgb(115,115,115);fill-rule:nonzero;"/>
        </g>
        <g transform="matrix(1.46332,0,0,1.46332,-118.606,-118.61)">
            <circle cx="256" cy="256" r="153.078" style="fill:rgb(0,131,192);"/>
        </g>
    </g>
    <g transform="matrix(-0.000929607,1.12368,-0.992233,-0.00082086,335.393,47.939)">
        <path d="M269.216,191.936L185.304,106.376L101.384,191.936L127.584,217.496L166.944,177.368L166.944,274.208L203.656,274.208L203.656,177.368L243.016,217.496L269.216,191.936Z" style="fill:rgb(252,216,4);fill-rule:nonzero;"/>
    </g>
    <g transform="matrix(1.06581,0,0,1.06581,218.089,114.599)">
        <path d="M210.704,78.212L213.205,82.558L213.205,183.928L210.656,188.305L122.107,238.567L117.149,238.566L28.741,188.301L26.196,183.926L26.196,82.56L28.694,78.216L117.098,26.773L122.157,26.771L210.704,78.212ZM44.961,90.461L44.961,175.937L119.635,218.393L194.44,175.932L194.44,90.466L119.635,47.008L44.961,90.461Z" style="fill:rgb(201,23,126);"/>
    </g>
    <g transform="matrix(0.999284,0,0,1.13232,210.051,194.742)">
        <path d="M179.238,106.552L154.758,106.552L154.758,62.2L112.134,62.2L112.134,106.552L87.654,106.552L87.654,1.648L112.134,1.648L112.134,45.496L154.758,45.496L154.758,1.648L179.238,1.648L179.238,106.552Z" style="fill:rgb(201,23,126);fill-rule:nonzero;"/>
    </g>
</svg>
