<?xml version="1.0" encoding="UTF-8" standalone="no"?>
<!DOCTYPE svg PUBLIC "-//W3C//DTD SVG 1.1//EN" "http://www.w3.org/Graphics/SVG/1.1/DTD/svg11.dtd">
<svg width="100%" height="100%" viewBox="0 0 512 512" version="1.1" xmlns="http://www.w3.org/2000/svg" xmlns:xlink="http://www.w3.org/1999/xlink" xml:space="preserve" style="fill-rule:evenodd;clip-rule:evenodd;stroke-linejoin:round;stroke-miterlimit:1.41421;">
    <g transform="matrix(1.67235,0,0,1.67235,-172.122,-172.122)">
        <circle cx="256" cy="256" r="153.078" style="fill:rgb(115,115,115);"/>
    </g>
    <g transform="matrix(1.46332,0,0,1.46332,-118.606,-118.61)">
        <circle cx="256" cy="256" r="153.078" style="fill:rgb(0,131,192);"/>
    </g>
    <g transform="matrix(0.617463,0,0,0.582964,169.547,174.377)">
        <g transform="matrix(1.47332,0,0,1.47332,-66.271,-66.271)">
            <path d="M35.012,157.515L87.517,157.515L87.517,262.534C87.517,272.195 79.676,280.027 70.015,280.027L52.505,280.027C42.844,280.027 35.003,272.195 35.003,262.534L35.003,157.515L35.012,157.515Z" style="fill:rgb(228,231,231);fill-rule:nonzero;"/>
        </g>
        <g transform="matrix(1.47332,0,0,1.47332,-66.271,-66.271)">
            <path d="M35.003,157.515L35.003,210.029L87.517,157.515L35.003,157.515Z" style="fill:rgb(205,207,207);fill-rule:nonzero;"/>
        </g>
        <g transform="matrix(1.47332,0,0,1.47332,-66.271,-66.271)">
            <path d="M87.509,157.515L122.512,157.515L122.512,175.017C122.512,184.687 114.671,192.519 105.01,192.519L87.509,192.519L87.509,157.515Z" style="fill:rgb(115,115,115);fill-rule:nonzero;"/>
        </g>
        <g transform="matrix(1.47332,0,0,1.47332,-66.271,-66.271)">
            <path d="M17.502,52.505L122.512,52.505L122.512,157.515L17.502,157.515C7.841,157.515 0,149.683 0,140.014L0,70.007C0,60.346 7.841,52.505 17.502,52.505Z" style="fill:rgb(255,64,136);fill-rule:nonzero;"/>
        </g>
        <g transform="matrix(1.47332,0,0,1.47332,-66.271,-66.271)">
            <path d="M269.789,0C218.203,51.586 175.017,52.505 175.017,52.505L122.512,52.505L122.512,157.515L175.017,157.515C175.017,157.515 218.106,158.338 269.789,210.02L280.027,210.02L280.027,0L269.789,0Z" style="fill:rgb(228,231,231);fill-rule:nonzero;"/>
        </g>
        <g transform="matrix(1.47332,0,0,1.47332,-66.271,-66.271)">
            <path d="M269.789,0C267.348,2.441 264.932,4.673 262.526,6.896L262.526,203.125C264.932,205.348 267.339,207.579 269.789,210.021L280.027,210.021L280.027,0L269.789,0Z" style="fill:rgb(209,214,215);fill-rule:nonzero;"/>
        </g>
        <g transform="matrix(1.47332,0,0,1.47332,-66.271,-66.271)">
            <path d="M262.526,194.374C214.143,149.613 175.017,148.765 175.017,148.765L122.512,148.765L122.512,157.516L175.017,157.516C175.017,157.516 218.106,158.339 269.789,210.021C267.339,207.58 264.932,205.348 262.526,203.125L262.526,194.374Z" style="fill:rgb(205,207,207);fill-rule:nonzero;"/>
        </g>
        <g transform="matrix(1.47332,0,0,1.47332,-66.271,-66.271)">
            <path d="M262.526,194.374L262.526,203.125C264.932,205.348 267.339,207.579 269.789,210.021L280.027,210.021L280.027,201.27L269.789,201.27C267.339,198.828 264.932,196.597 262.526,194.374Z" style="fill:rgb(188,192,193);fill-rule:nonzero;"/>
        </g>
        <g transform="matrix(1.47332,0,0,1.47332,-66.271,-66.271)">
            <path d="M26.253,148.765C16.592,148.765 8.751,140.933 8.751,131.263L8.751,61.256C8.751,58.692 9.329,56.277 10.326,54.08C4.253,56.828 0,62.91 0,70.007L0,140.014C0,149.684 7.841,157.516 17.502,157.516L122.512,157.516L122.512,148.765L26.253,148.765L26.253,148.765Z" style="fill:rgb(201,23,126);fill-rule:nonzero;"/>
        </g>
    </g>
</svg>
