<?xml version="1.0" encoding="UTF-8" standalone="no"?>
<!DOCTYPE svg PUBLIC "-//W3C//DTD SVG 1.1//EN" "http://www.w3.org/Graphics/SVG/1.1/DTD/svg11.dtd">
<svg width="100%" height="100%" viewBox="0 0 512 512" version="1.1" xmlns="http://www.w3.org/2000/svg" xmlns:xlink="http://www.w3.org/1999/xlink" xml:space="preserve" style="fill-rule:evenodd;clip-rule:evenodd;stroke-linejoin:round;stroke-miterlimit:1.41421;">
    <circle cx="256" cy="256" r="256" style="fill:rgb(115,115,115);"/>
    <g transform="matrix(1.46332,0,0,1.46332,-118.606,-118.61)">
        <circle cx="256" cy="256" r="153.078" style="fill:rgb(0,131,192);"/>
    </g>
    <g>
        <path d="M265.309,300.218C265.309,293.79 270.517,288.582 276.945,288.582L307.037,288.582C310.118,288.582 313.083,289.811 315.266,291.989L331.72,308.443C333.898,310.626 336.863,311.855 339.945,311.855L393.309,311.855C399.737,311.855 404.945,317.063 404.945,323.491L404.945,393.309C404.945,399.737 399.737,404.945 393.309,404.945L276.945,404.945C270.517,404.945 265.309,399.737 265.309,393.309L265.309,300.218L265.309,300.218Z" style="fill:rgb(244,208,161);fill-rule:nonzero;"/>
        <path d="M265.309,160.582C265.309,154.154 270.517,148.946 276.945,148.946L307.037,148.946C310.118,148.946 313.083,150.175 315.266,152.353L331.72,168.807C333.898,170.99 336.863,172.219 339.945,172.219L393.309,172.219C399.737,172.219 404.945,177.427 404.945,183.855L404.945,253.673C404.945,260.101 399.737,265.309 393.309,265.309L276.945,265.309C270.517,265.309 265.309,260.101 265.309,253.673L265.309,160.582L265.309,160.582Z" style="fill:rgb(244,208,161);fill-rule:nonzero;"/>
    </g>
    <g>
        <circle cx="237.382" cy="200.145" r="9.309" style="fill:white;"/>
        <circle cx="200.145" cy="200.145" r="9.309" style="fill:white;"/>
        <circle cx="162.909" cy="200.145" r="9.309" style="fill:white;"/>
        <circle cx="125.673" cy="200.145" r="9.309" style="fill:white;"/>
        <circle cx="237.382" cy="349.091" r="9.309" style="fill:white;"/>
        <circle cx="200.145" cy="349.091" r="9.309" style="fill:white;"/>
        <circle cx="162.909" cy="349.091" r="9.309" style="fill:white;"/>
        <circle cx="125.673" cy="349.091" r="9.309" style="fill:white;"/>
        <circle cx="125.673" cy="311.855" r="9.309" style="fill:white;"/>
        <circle cx="125.673" cy="274.618" r="9.309" style="fill:white;"/>
        <circle cx="125.673" cy="237.382" r="9.309" style="fill:white;"/>
        <circle cx="125.673" cy="162.909" r="9.309" style="fill:white;"/>
        <circle cx="125.673" cy="125.673" r="9.309" style="fill:white;"/>
    </g>
    <g>
        <path d="M339.945,172.218C336.864,172.218 333.899,170.989 331.716,168.811L315.262,152.357C313.084,150.174 310.119,148.945 307.037,148.945L276.945,148.945C270.517,148.945 265.309,154.153 265.309,160.581L265.309,253.672C265.309,257.084 266.803,260.128 269.144,262.255L359.182,172.217L339.945,172.217L339.945,172.218Z" style="fill:rgb(248,225,194);fill-rule:nonzero;"/>
        <path d="M339.945,311.855C336.864,311.855 333.899,310.626 331.716,308.448L315.262,291.994C313.084,289.811 310.119,288.582 307.037,288.582L276.945,288.582C270.517,288.582 265.309,293.79 265.309,300.218L265.309,393.309C265.309,396.721 266.803,399.765 269.144,401.892L359.182,311.854L339.945,311.854L339.945,311.855Z" style="fill:rgb(248,225,194);fill-rule:nonzero;"/>
    </g>
</svg>
