<?xml version="1.0" encoding="UTF-8" standalone="no"?>
<!DOCTYPE svg PUBLIC "-//W3C//DTD SVG 1.1//EN" "http://www.w3.org/Graphics/SVG/1.1/DTD/svg11.dtd">
<svg width="100%" height="100%" viewBox="0 0 512 512" version="1.1" xmlns="http://www.w3.org/2000/svg" xmlns:xlink="http://www.w3.org/1999/xlink" xml:space="preserve" style="fill-rule:evenodd;clip-rule:evenodd;stroke-linejoin:round;stroke-miterlimit:1.41421;">
    <circle cx="256" cy="256" r="256" style="fill:rgb(115,115,115);"/>
    <g transform="matrix(1.46332,0,0,1.46332,-118.606,-118.61)">
        <circle cx="256" cy="256" r="153.078" style="fill:rgb(0,131,192);"/>
    </g>
    <g transform="matrix(0.615815,0,0,0.615815,98.3513,98.3513)">
        <path d="M485.517,61.793L26.483,61.793C11.857,61.793 0,73.65 0,88.276L0,423.724C0,438.35 11.857,450.207 26.483,450.207L485.517,450.207C500.143,450.207 512,438.35 512,423.724L512,88.276C512,73.65 500.143,61.793 485.517,61.793ZM441.379,79.448L450.207,79.448C455.082,79.448 459.035,83.401 459.035,88.276C459.035,93.151 455.082,97.104 450.207,97.104L441.379,97.104C436.504,97.104 432.551,93.151 432.551,88.276C432.552,83.401 436.504,79.448 441.379,79.448ZM194.207,79.448L406.069,79.448C410.944,79.448 414.897,83.401 414.897,88.276C414.897,93.151 410.944,97.104 406.069,97.104L194.207,97.104C189.332,97.104 185.379,93.151 185.379,88.276C185.379,83.401 189.332,79.448 194.207,79.448ZM150.069,79.448L158.897,79.448C163.772,79.448 167.725,83.401 167.725,88.276C167.725,93.151 163.772,97.104 158.897,97.104L150.069,97.104C145.194,97.104 141.241,93.151 141.241,88.276C141.241,83.401 145.194,79.448 150.069,79.448ZM114.759,79.448L123.587,79.448C128.462,79.448 132.415,83.401 132.415,88.276C132.415,93.151 128.462,97.104 123.587,97.104L114.759,97.104C109.884,97.104 105.931,93.151 105.931,88.276C105.931,83.401 109.884,79.448 114.759,79.448ZM79.448,79.448C84.323,79.448 88.276,83.401 88.276,88.276C88.276,93.151 84.323,97.104 79.448,97.104C74.573,97.104 70.62,93.151 70.62,88.276C70.621,83.401 74.573,79.448 79.448,79.448ZM52.966,79.448C57.841,79.448 61.794,83.401 61.794,88.276C61.794,93.151 57.841,97.104 52.966,97.104C48.091,97.104 44.138,93.151 44.138,88.276C44.138,83.401 48.09,79.448 52.966,79.448ZM26.483,79.448C31.358,79.448 35.311,83.401 35.311,88.276C35.311,93.151 31.358,97.104 26.483,97.104C21.608,97.104 17.655,93.151 17.655,88.276C17.655,83.401 21.608,79.448 26.483,79.448ZM494.345,167.724L494.345,423.724C494.345,428.599 490.392,432.552 485.517,432.552L26.483,432.552C21.608,432.552 17.655,428.599 17.655,423.724L17.655,167.724L17.655,123.586C17.655,118.711 21.608,114.758 26.483,114.758L485.517,114.758C490.392,114.758 494.345,118.711 494.345,123.586L494.345,167.724ZM485.517,97.103L476.689,97.103C471.814,97.103 467.861,93.15 467.861,88.275C467.861,83.4 471.814,79.447 476.689,79.447L485.517,79.447C490.392,79.447 494.345,83.4 494.345,88.275C494.345,93.151 490.392,97.103 485.517,97.103Z" style="fill:rgb(210,220,240);fill-rule:nonzero;"/>
    </g>
    <g transform="matrix(0.615815,0,0,0.615815,98.3513,98.3513)">
        <path d="M17.655,423.724C17.655,428.599 21.608,432.552 26.483,432.552L485.517,432.552C490.392,432.552 494.345,428.599 494.345,423.724L494.345,167.724L17.655,167.724L17.655,423.724ZM397.241,211.862L397.241,203.034C397.241,198.159 401.194,194.206 406.069,194.206L459.035,194.206C463.91,194.206 467.863,198.159 467.863,203.034L467.863,282.483C467.863,287.358 463.91,291.311 459.035,291.311L406.069,291.311C401.194,291.311 397.241,287.358 397.241,282.483L397.241,211.862ZM300.138,211.862L300.138,203.034C300.138,198.159 304.091,194.206 308.966,194.206L361.932,194.206C366.807,194.206 370.76,198.159 370.76,203.034L370.76,282.483C370.76,287.358 366.807,291.311 361.932,291.311L308.966,291.311C304.091,291.311 300.138,287.358 300.138,282.483L300.138,211.862ZM300.138,326.621C300.138,321.746 304.091,317.793 308.966,317.793L459.035,317.793C463.91,317.793 467.863,321.746 467.863,326.621L467.863,397.242C467.863,402.117 463.91,406.07 459.035,406.07L317.793,406.07L308.965,406.07C304.09,406.07 300.137,402.117 300.137,397.242L300.137,326.621L300.138,326.621ZM203.034,211.862L203.034,203.034C203.034,198.159 206.987,194.206 211.862,194.206L264.828,194.206C269.703,194.206 273.656,198.159 273.656,203.034L273.656,282.483C273.656,287.358 269.703,291.311 264.828,291.311L211.862,291.311C206.987,291.311 203.034,287.358 203.034,282.483L203.034,211.862L203.034,211.862ZM44.138,211.862L44.138,203.034C44.138,198.159 48.091,194.206 52.966,194.206L167.725,194.206C172.6,194.206 176.553,198.159 176.553,203.034L176.553,282.483C176.553,287.358 172.6,291.311 167.725,291.311L52.966,291.311C48.091,291.311 44.138,287.358 44.138,282.483L44.138,211.862L44.138,211.862ZM44.138,326.621C44.138,321.746 48.091,317.793 52.966,317.793L264.828,317.793C269.703,317.793 273.656,321.746 273.656,326.621L273.656,397.242C273.656,402.117 269.703,406.07 264.828,406.07L61.793,406.07L52.965,406.07C48.09,406.07 44.137,402.117 44.137,397.242L44.137,326.621L44.138,326.621Z" style="fill:white;fill-rule:nonzero;"/>
    </g>
    <g transform="matrix(0.615815,0,0,0.615815,98.3513,98.3513)">
        <circle cx="26.483" cy="88.276" r="8.828" style="fill:rgb(255,100,105);"/>
    </g>
    <g transform="matrix(0.615815,0,0,0.615815,98.3513,98.3513)">
        <circle cx="52.966" cy="88.276" r="8.828" style="fill:rgb(255,225,105);"/>
    </g>
    <g transform="matrix(0.615815,0,0,0.615815,98.3513,98.3513)">
        <circle cx="79.448" cy="88.276" r="8.828" style="fill:rgb(135,225,170);"/>
    </g>
    <g>
        <g transform="matrix(0.615815,0,0,0.615815,98.3513,98.3513)">
            <path d="M114.759,97.103L123.587,97.103C128.462,97.103 132.415,93.15 132.415,88.275C132.415,83.4 128.462,79.447 123.587,79.447L114.759,79.447C109.884,79.447 105.931,83.4 105.931,88.275C105.931,93.151 109.884,97.103 114.759,97.103Z" style="fill:rgb(228,234,246);fill-rule:nonzero;"/>
        </g>
        <g transform="matrix(0.615815,0,0,0.615815,98.3513,98.3513)">
            <path d="M150.069,97.103L158.897,97.103C163.772,97.103 167.725,93.15 167.725,88.275C167.725,83.4 163.772,79.447 158.897,79.447L150.069,79.447C145.194,79.447 141.241,83.4 141.241,88.275C141.241,93.151 145.194,97.103 150.069,97.103Z" style="fill:rgb(228,234,246);fill-rule:nonzero;"/>
        </g>
        <g transform="matrix(0.615815,0,0,0.615815,98.3513,98.3513)">
            <path d="M441.379,97.103L450.207,97.103C455.082,97.103 459.035,93.15 459.035,88.275C459.035,83.4 455.082,79.447 450.207,79.447L441.379,79.447C436.504,79.447 432.551,83.4 432.551,88.275C432.552,93.151 436.504,97.103 441.379,97.103Z" style="fill:rgb(228,234,246);fill-rule:nonzero;"/>
        </g>
        <g transform="matrix(0.615815,0,0,0.615815,98.3513,98.3513)">
            <path d="M485.517,79.448L476.689,79.448C471.814,79.448 467.861,83.401 467.861,88.276C467.861,93.151 471.814,97.104 476.689,97.104L485.517,97.104C490.392,97.104 494.345,93.151 494.345,88.276C494.345,83.401 490.392,79.448 485.517,79.448Z" style="fill:rgb(228,234,246);fill-rule:nonzero;"/>
        </g>
        <g transform="matrix(0.615815,0,0,0.615815,98.3513,98.3513)">
            <path d="M194.207,97.103L406.069,97.103C410.944,97.103 414.897,93.15 414.897,88.275C414.897,83.4 410.944,79.447 406.069,79.447L194.207,79.447C189.332,79.447 185.379,83.4 185.379,88.275C185.379,93.151 189.332,97.103 194.207,97.103Z" style="fill:rgb(228,234,246);fill-rule:nonzero;"/>
        </g>
    </g>
    <g transform="matrix(0.615815,0,0,0.615815,98.3513,98.3513)">
        <path d="M485.517,114.759L26.483,114.759C21.608,114.759 17.655,118.712 17.655,123.587L17.655,167.725L494.345,167.725L494.345,123.587C494.345,118.711 490.392,114.759 485.517,114.759ZM114.759,150.069L44.138,150.069C39.263,150.069 35.31,146.116 35.31,141.241C35.31,136.366 39.263,132.413 44.138,132.413L114.759,132.413C119.634,132.413 123.587,136.366 123.587,141.241C123.587,146.116 119.634,150.069 114.759,150.069ZM185.379,150.069L150.069,150.069C145.194,150.069 141.241,146.116 141.241,141.241C141.241,136.366 145.194,132.413 150.069,132.413L185.379,132.413C190.254,132.413 194.207,136.366 194.207,141.241C194.207,146.116 190.254,150.069 185.379,150.069ZM256,150.069L220.69,150.069C215.815,150.069 211.862,146.116 211.862,141.241C211.862,136.366 215.815,132.413 220.69,132.413L256,132.413C260.875,132.413 264.828,136.366 264.828,141.241C264.828,146.116 260.875,150.069 256,150.069ZM326.621,150.069L291.311,150.069C286.436,150.069 282.483,146.116 282.483,141.241C282.483,136.366 286.436,132.413 291.311,132.413L326.621,132.413C331.496,132.413 335.449,136.366 335.449,141.241C335.449,146.116 331.496,150.069 326.621,150.069ZM397.241,150.069L361.931,150.069C357.056,150.069 353.103,146.116 353.103,141.241C353.103,136.366 357.056,132.413 361.931,132.413L397.241,132.413C402.116,132.413 406.069,136.366 406.069,141.241C406.069,146.116 402.116,150.069 397.241,150.069ZM467.862,150.069L432.552,150.069C427.677,150.069 423.724,146.116 423.724,141.241C423.724,136.366 427.677,132.413 432.552,132.413L467.862,132.413C472.737,132.413 476.69,136.366 476.69,141.241C476.69,146.116 472.737,150.069 467.862,150.069Z" style="fill:rgb(201,23,126);fill-rule:nonzero;"/>
    </g>
    <g transform="matrix(0.615815,0,0,0.615815,98.3513,98.3513)">
        <path d="M114.759,132.414L44.138,132.414C39.263,132.414 35.31,136.367 35.31,141.242C35.31,146.117 39.263,150.07 44.138,150.07L114.759,150.07C119.634,150.07 123.587,146.117 123.587,141.242C123.587,136.367 119.634,132.414 114.759,132.414Z" style="fill:rgb(252,216,4);fill-rule:nonzero;"/>
    </g>
    <g>
        <g transform="matrix(0.615815,0,0,0.615815,98.3513,98.3513)">
            <path d="M185.379,132.414L150.069,132.414C145.194,132.414 141.241,136.367 141.241,141.242C141.241,146.117 145.194,150.07 150.069,150.07L185.379,150.07C190.254,150.07 194.207,146.117 194.207,141.242C194.207,136.367 190.254,132.414 185.379,132.414Z" style="fill:rgb(255,64,136);fill-rule:nonzero;"/>
        </g>
        <g transform="matrix(0.615815,0,0,0.615815,98.3513,98.3513)">
            <path d="M256,132.414L220.69,132.414C215.815,132.414 211.862,136.367 211.862,141.242C211.862,146.117 215.815,150.07 220.69,150.07L256,150.07C260.875,150.07 264.828,146.117 264.828,141.242C264.828,136.367 260.875,132.414 256,132.414Z" style="fill:rgb(255,64,136);fill-rule:nonzero;"/>
        </g>
        <g transform="matrix(0.615815,0,0,0.615815,98.3513,98.3513)">
            <path d="M326.621,132.414L291.311,132.414C286.436,132.414 282.483,136.367 282.483,141.242C282.483,146.117 286.436,150.07 291.311,150.07L326.621,150.07C331.496,150.07 335.449,146.117 335.449,141.242C335.449,136.367 331.496,132.414 326.621,132.414Z" style="fill:rgb(255,64,136);fill-rule:nonzero;"/>
        </g>
        <g transform="matrix(0.615815,0,0,0.615815,98.3513,98.3513)">
            <path d="M397.241,132.414L361.931,132.414C357.056,132.414 353.103,136.367 353.103,141.242C353.103,146.117 357.056,150.07 361.931,150.07L397.241,150.07C402.116,150.07 406.069,146.117 406.069,141.242C406.069,136.367 402.116,132.414 397.241,132.414Z" style="fill:rgb(255,64,136);fill-rule:nonzero;"/>
        </g>
        <g transform="matrix(0.615815,0,0,0.615815,98.3513,98.3513)">
            <path d="M467.862,132.414L432.552,132.414C427.677,132.414 423.724,136.367 423.724,141.242C423.724,146.117 427.677,150.07 432.552,150.07L467.862,150.07C472.737,150.07 476.69,146.117 476.69,141.242C476.69,136.367 472.737,132.414 467.862,132.414Z" style="fill:rgb(255,64,136);fill-rule:nonzero;"/>
        </g>
    </g>
    <g>
        <g transform="matrix(0.615815,0,0,0.615815,98.3513,98.3513)">
            <path d="M52.966,291.31L167.725,291.31C172.6,291.31 176.553,287.357 176.553,282.482L176.553,211.861C176.553,216.736 172.6,220.689 167.725,220.689L52.966,220.689C48.091,220.689 44.138,216.736 44.138,211.861L44.138,282.482C44.138,287.358 48.09,291.31 52.966,291.31Z" style="fill:rgb(222,227,237);fill-rule:nonzero;"/>
        </g>
        <g transform="matrix(0.615815,0,0,0.615815,98.3513,98.3513)">
            <path d="M211.862,291.31L264.828,291.31C269.703,291.31 273.656,287.357 273.656,282.482L273.656,211.861C273.656,216.736 269.703,220.689 264.828,220.689L211.862,220.689C206.987,220.689 203.034,216.736 203.034,211.861L203.034,282.482C203.034,287.358 206.987,291.31 211.862,291.31Z" style="fill:rgb(222,227,237);fill-rule:nonzero;"/>
        </g>
        <g transform="matrix(0.615815,0,0,0.615815,98.3513,98.3513)">
            <path d="M308.966,291.31L361.932,291.31C366.807,291.31 370.76,287.357 370.76,282.482L370.76,211.861C370.76,216.736 366.807,220.689 361.932,220.689L308.966,220.689C304.091,220.689 300.138,216.736 300.138,211.861L300.138,282.482C300.138,287.358 304.09,291.31 308.966,291.31Z" style="fill:rgb(222,227,237);fill-rule:nonzero;"/>
        </g>
        <g transform="matrix(0.615815,0,0,0.615815,98.3513,98.3513)">
            <path d="M406.069,291.31L459.035,291.31C463.91,291.31 467.863,287.357 467.863,282.482L467.863,211.861C467.863,216.736 463.91,220.689 459.035,220.689L406.069,220.689C401.194,220.689 397.241,216.736 397.241,211.861L397.241,282.482C397.241,287.358 401.194,291.31 406.069,291.31Z" style="fill:rgb(222,227,237);fill-rule:nonzero;"/>
        </g>
    </g>
    <g transform="matrix(0.615815,0,0,0.615815,98.3513,98.3513)">
        <path d="M52.966,220.69L167.725,220.69C172.6,220.69 176.553,216.737 176.553,211.862L176.553,203.034C176.553,198.159 172.6,194.206 167.725,194.206L52.966,194.206C48.091,194.206 44.138,198.159 44.138,203.034L44.138,211.862C44.138,216.737 48.09,220.69 52.966,220.69Z" style="fill:rgb(252,216,4);fill-rule:nonzero;"/>
    </g>
    <g transform="matrix(0.615815,0,0,0.615815,98.3513,98.3513)">
        <path d="M211.862,220.69L264.828,220.69C269.703,220.69 273.656,216.737 273.656,211.862L273.656,203.034C273.656,198.159 269.703,194.206 264.828,194.206L211.862,194.206C206.987,194.206 203.034,198.159 203.034,203.034L203.034,211.862C203.034,216.737 206.987,220.69 211.862,220.69Z" style="fill:rgb(0,168,138);fill-rule:nonzero;"/>
    </g>
    <g transform="matrix(0.615815,0,0,0.615815,98.3513,98.3513)">
        <path d="M308.966,220.69L361.932,220.69C366.807,220.69 370.76,216.737 370.76,211.862L370.76,203.034C370.76,198.159 366.807,194.206 361.932,194.206L308.966,194.206C304.091,194.206 300.138,198.159 300.138,203.034L300.138,211.862C300.138,216.737 304.09,220.69 308.966,220.69Z" style="fill:rgb(255,64,136);fill-rule:nonzero;"/>
    </g>
    <g transform="matrix(0.615815,0,0,0.615815,98.3513,98.3513)">
        <path d="M406.069,220.69L459.035,220.69C463.91,220.69 467.863,216.737 467.863,211.862L467.863,203.034C467.863,198.159 463.91,194.206 459.035,194.206L406.069,194.206C401.194,194.206 397.241,198.159 397.241,203.034L397.241,211.862C397.241,216.737 401.194,220.69 406.069,220.69Z" style="fill:rgb(5,148,203);fill-rule:nonzero;"/>
    </g>
    <g>
        <g transform="matrix(0.615815,0,0,0.615815,98.3513,98.3513)">
            <path d="M70.621,326.621L70.621,397.242C70.621,402.117 66.668,406.07 61.793,406.07L264.827,406.07C269.702,406.07 273.655,402.117 273.655,397.242L273.655,326.621C273.655,321.746 269.702,317.793 264.827,317.793L61.793,317.793C66.668,317.793 70.621,321.746 70.621,326.621Z" style="fill:rgb(222,227,237);fill-rule:nonzero;"/>
        </g>
        <g transform="matrix(0.615815,0,0,0.615815,98.3513,98.3513)">
            <path d="M326.621,326.621L326.621,397.242C326.621,402.117 322.668,406.07 317.793,406.07L459.034,406.07C463.909,406.07 467.862,402.117 467.862,397.242L467.862,326.621C467.862,321.746 463.909,317.793 459.034,317.793L317.793,317.793C322.668,317.793 326.621,321.746 326.621,326.621Z" style="fill:rgb(222,227,237);fill-rule:nonzero;"/>
        </g>
    </g>
    <g transform="matrix(0.615815,0,0,0.615815,98.3513,98.3513)">
        <path d="M52.966,406.069L61.794,406.069C66.669,406.069 70.622,402.116 70.622,397.241L70.622,326.62C70.622,321.745 66.669,317.792 61.794,317.792L52.966,317.792C48.091,317.792 44.138,321.745 44.138,326.62L44.138,397.241C44.138,402.116 48.09,406.069 52.966,406.069Z" style="fill:rgb(5,148,203);fill-rule:nonzero;"/>
    </g>
    <g transform="matrix(0.615815,0,0,0.615815,98.3513,98.3513)">
        <path d="M308.966,406.069L317.794,406.069C322.669,406.069 326.622,402.116 326.622,397.241L326.622,326.62C326.622,321.745 322.669,317.792 317.794,317.792L308.966,317.792C304.091,317.792 300.138,321.745 300.138,326.62L300.138,397.241C300.138,402.116 304.09,406.069 308.966,406.069Z" style="fill:rgb(0,168,138);fill-rule:nonzero;"/>
    </g>
</svg>
