<?xml version="1.0" encoding="UTF-8" standalone="no"?>
<!DOCTYPE svg PUBLIC "-//W3C//DTD SVG 1.1//EN" "http://www.w3.org/Graphics/SVG/1.1/DTD/svg11.dtd">
<svg width="100%" height="100%" viewBox="0 0 512 512" version="1.1" xmlns="http://www.w3.org/2000/svg" xmlns:xlink="http://www.w3.org/1999/xlink" xml:space="preserve" style="fill-rule:evenodd;clip-rule:evenodd;stroke-linejoin:round;stroke-miterlimit:1.41421;">
    <circle cx="256" cy="256" r="256" style="fill:rgb(115,115,115);"/>
    <g transform="matrix(1.46332,0,0,1.46332,-118.606,-118.61)">
        <circle cx="256" cy="256" r="153.078" style="fill:rgb(0,131,192);"/>
    </g>
    <g transform="matrix(0.934356,0,0,0.974734,-24.6281,-31.6392)">
        <g transform="matrix(0.615051,0,0,0.615051,142.891,137.642)">
            <path d="M426.667,512L85.333,512C75.411,512 67.368,503.957 67.368,494.035L67.368,26.947C67.368,17.025 75.411,8.982 85.333,8.982L426.666,8.982C436.588,8.982 444.631,17.025 444.631,26.947L444.631,494.035C444.632,503.957 436.589,512 426.667,512Z" style="fill:rgb(51,186,145);fill-rule:nonzero;"/>
        </g>
        <g transform="matrix(0.615051,0,0,0.615051,142.891,137.642)">
            <path d="M186.14,103.134L166.175,89.824L146.21,103.134C143.226,105.124 139.227,102.985 139.227,99.397L139.227,8.982C139.227,4.021 143.249,0 148.209,0L184.139,0C189.1,0 193.121,4.022 193.121,8.982L193.121,99.397C193.123,102.985 189.124,105.124 186.14,103.134Z" style="fill:rgb(228,234,248);fill-rule:nonzero;"/>
        </g>
        <g transform="matrix(0.615051,0,0,0.615051,142.891,137.642)">
            <path d="M247.018,152.702L247.018,242.527L157.193,242.527C152.232,242.527 148.211,246.549 148.211,251.509L148.211,377.263C148.211,382.224 152.233,386.245 157.193,386.245L381.754,386.245C386.715,386.245 390.736,382.223 390.736,377.263L390.736,152.702C390.736,147.741 386.714,143.72 381.754,143.72L256,143.72C251.039,143.719 247.018,147.741 247.018,152.702Z" style="fill:rgb(199,207,226);fill-rule:nonzero;"/>
        </g>
        <g transform="matrix(0.615051,0,0,0.615051,142.891,137.642)">
            <path d="M247.018,134.737L247.018,224.562L157.193,224.562C152.232,224.562 148.211,228.584 148.211,233.544L148.211,359.298C148.211,364.259 152.233,368.28 157.193,368.28L381.754,368.28C386.715,368.28 390.736,364.258 390.736,359.298L390.736,134.737C390.736,129.776 386.714,125.755 381.754,125.755L256,125.755C251.039,125.754 247.018,129.776 247.018,134.737Z" style="fill:rgb(228,234,248);fill-rule:nonzero;"/>
        </g>
        <g transform="matrix(0.615051,0,0,0.615051,142.891,137.642)">
            <path d="M318.877,204.351C312.676,204.351 307.649,209.378 307.649,215.579L307.649,285.193L255.84,285.193C258.667,281.487 259.088,276.323 256.359,272.228C252.912,267.065 245.947,265.689 240.789,269.114L213.842,287.079C210.719,289.162 208.842,292.667 208.842,296.421C208.842,300.175 210.719,303.68 213.842,305.763L240.789,323.728C242.701,325.005 244.868,325.614 247.008,325.614C250.631,325.614 254.192,323.859 256.359,320.614C259.089,316.52 258.667,311.355 255.841,307.649L318.877,307.649C325.078,307.649 330.105,302.622 330.105,296.421L330.105,215.579C330.105,209.378 325.078,204.351 318.877,204.351Z" style="fill:rgb(201,23,126);fill-rule:nonzero;"/>
        </g>
        <g transform="matrix(0.615051,0,0,0.615051,142.891,137.642)">
            <path d="M148.211,0C143.25,0 139.229,4.022 139.229,8.982L139.229,99.397C139.229,102.984 143.227,105.123 146.212,103.134L166.177,89.824L166.177,0L148.211,0Z" style="fill:rgb(213,220,237);fill-rule:nonzero;"/>
        </g>
    </g>
    <g transform="matrix(0.574677,0,0,0.598034,108.883,103.281)">
        <g>
            <path d="M103.298,512L103.298,8.982L85.333,8.982C75.411,8.982 67.368,17.025 67.368,26.947L67.368,494.035C67.368,503.957 75.411,512 85.333,512L103.298,512Z" style="fill:rgb(0,168,138);fill-rule:nonzero;"/>
        </g>
    </g>
</svg>
