<?xml version="1.0" encoding="UTF-8" standalone="no"?>
<!DOCTYPE svg PUBLIC "-//W3C//DTD SVG 1.1//EN" "http://www.w3.org/Graphics/SVG/1.1/DTD/svg11.dtd">
<svg width="100%" height="100%" viewBox="0 0 512 512" version="1.1" xmlns="http://www.w3.org/2000/svg" xmlns:xlink="http://www.w3.org/1999/xlink" xml:space="preserve" style="fill-rule:evenodd;clip-rule:evenodd;stroke-linejoin:round;stroke-miterlimit:1.41421;">
    <circle cx="256" cy="256" r="256" style="fill:rgb(115,115,115);"/>
    <g transform="matrix(1.46332,0,0,1.46332,-118.606,-118.61)">
        <circle cx="256" cy="256" r="153.078" style="fill:rgb(0,131,192);"/>
    </g>
    <g transform="matrix(0.702176,0,0,0.827501,-60.8996,43.6345)">
        <path d="M409.814,341.055C398.813,352.154 383.982,359.275 365.32,362.418L365.32,395.715L329.371,395.715L329.371,363.597C302.262,361.043 280.555,353.382 264.251,340.613L279.278,307.611C295.387,319.398 313.164,326.175 332.612,327.943L332.612,274.904C319.254,271.368 308.057,267.537 299.021,263.412C289.984,259.287 282.372,253.246 276.184,245.29C269.996,237.334 266.902,226.776 266.902,213.614C266.902,197.702 272.648,184.001 284.14,172.509C295.632,161.017 310.709,153.699 329.371,150.556L329.371,117.554L365.32,117.554L365.32,150.262C376.517,151.833 387.125,154.534 397.143,158.365C407.162,162.196 415.314,166.959 421.6,172.656L406.572,205.658C392.429,195.443 377.695,188.961 362.373,186.211L362.373,241.018C375.338,244.161 386.241,247.746 395.081,251.773C403.92,255.8 411.336,261.742 417.328,269.6C423.319,277.458 426.315,287.771 426.315,300.539C426.315,316.451 420.814,329.957 409.814,341.055ZM318.026,223.78C321.464,227.218 326.326,230.115 332.612,232.472L332.612,187.095C326.326,188.863 321.464,191.76 318.026,195.787C314.589,199.814 312.87,204.774 312.87,210.668C312.87,215.971 314.589,220.342 318.026,223.78ZM380.347,302.602C380.347,298.084 378.825,294.302 375.78,291.258C372.735,288.213 368.266,285.512 362.373,283.154L362.373,325.586C374.356,322.05 380.347,314.389 380.347,302.602Z" style="fill:rgb(0,168,138);fill-rule:nonzero;"/>
        <g transform="matrix(1,0,0,1,4.07509,-31.8235)">
            <path d="M447.236,215.382L495.266,215.382L495.266,262.823L447.236,262.823L447.236,215.382ZM447.236,314.094L495.266,314.094L495.266,361.535L447.236,361.535L447.236,314.094Z" style="fill:rgb(252,216,4);fill-rule:nonzero;"/>
        </g>
        <g transform="matrix(1,0,0,1,-1.12036,-19.595)">
            <path d="M670.884,231.294L670.884,261.644L525.91,261.644L525.91,231.294L670.884,231.294ZM670.884,290.816L670.884,321.166L525.91,321.166L525.91,290.816L670.884,290.816Z" style="fill:rgb(201,23,126);fill-rule:nonzero;"/>
        </g>
    </g>
</svg>
