<svg width="521" height="594" viewBox="0 0 521 594" fill="none" xmlns="http://www.w3.org/2000/svg">
<mask id="mask0_4_3" style="mask-type:luminance" maskUnits="userSpaceOnUse" x="0" y="0" width="521" height="594">
<path d="M0 0H520.787V593.521H0V0Z" fill="white"/>
</mask>
<g mask="url(#mask0_4_3)">
<path d="M509.245 139.75C515.594 143.416 520.792 152.416 520.792 159.75V433.776C520.792 441.109 515.594 450.109 509.245 453.776L271.932 590.771C265.583 594.437 255.188 594.437 248.839 590.771L11.5469 453.776C5.19792 450.109 0 441.109 0 433.776V159.75C0 152.416 5.19792 143.416 11.5469 139.75L248.839 2.75488C255.188 -0.911784 265.583 -0.911784 271.932 2.75488" fill="#CB007C"/>
</g>
<path d="M460.031 168.161C466.385 171.828 471.583 180.828 471.583 188.161V405.365C471.583 412.698 466.385 421.698 460.031 425.365L271.932 533.948C265.583 537.615 255.193 537.615 248.839 533.948L60.7604 425.365C54.4062 421.698 49.2083 412.698 49.2083 405.365V188.161C49.2083 180.828 54.4062 171.828 60.7604 168.161L248.839 59.5781C255.193 55.9115 265.583 55.9115 271.932 59.5781" fill="#FF41B4"/>
<path d="M195.112 264.739H322.591V149.114H367.195V444.656H322.591V306.656H195.112V444.656H150.529V149.114H195.112V264.739Z" fill="white"/>
<path d="M195.052 149.365H150.495V444.656H195.052V306.766H322.427V444.656H366.99V149.365H322.427V264.88H195.052V149.365Z" stroke="white" stroke-width="14.6667" stroke-miterlimit="10"/>
</svg>
