<svg width="324" height="367" viewBox="0 0 324 367" fill="none" xmlns="http://www.w3.org/2000/svg">
<g clip-path="url(#clip0_4_115)">
<mask id="mask0_4_115" style="mask-type:luminance" maskUnits="userSpaceOnUse" x="0" y="0" width="324" height="367">
<path d="M0 0H323.854V366.12H0V0Z" fill="white"/>
</mask>
<g mask="url(#mask0_4_115)">
<path d="M312.307 82.9059C318.656 86.5726 323.854 95.5726 323.854 102.906V263.224C323.854 270.557 318.656 279.557 312.307 283.224L173.469 363.369C167.12 367.036 156.724 367.036 150.375 363.369L11.5469 283.224C5.19792 279.557 0 270.557 0 263.224V102.906C0 95.5726 5.19792 86.5726 11.5469 82.9059L150.375 2.75488C156.724 -0.911784 167.12 -0.911784 173.469 2.75488" fill="#CB007C"/>
</g>
<path d="M290.307 97.3805C296.656 101.047 301.854 110.047 301.854 117.381V252.297C301.854 259.631 296.656 268.631 290.307 272.297L173.469 339.745C167.12 343.412 156.724 343.412 150.375 339.745L33.5469 272.297C27.1979 268.631 22 259.631 22 252.297V117.381C22 110.047 27.1979 101.047 33.5469 97.3805L150.375 29.9326C156.724 26.266 167.12 26.266 173.469 29.9326" fill="#FF41B4"/>
<path d="M49.9396 177.745H75.9605V154.162H85.0438V214.475H75.9605V186.308H49.9396V214.475H40.8354V154.162H49.9396V177.745Z" fill="white"/>
<path d="M108.58 154.162V190.495C108.58 195.678 109.423 199.464 111.121 201.85C113.647 205.324 117.205 207.058 121.788 207.058C126.382 207.058 129.944 205.324 132.475 201.85C134.168 199.532 135.017 195.745 135.017 190.495V154.162H144.121V192.995C144.121 199.344 142.137 204.574 138.184 208.683C133.725 213.282 128.257 215.579 121.788 215.579C115.298 215.579 109.84 213.282 105.413 208.683C101.455 204.574 99.4755 199.344 99.4755 192.995V154.162H108.58Z" fill="white"/>
<path d="M49.9323 154.161H40.8333V214.474H49.9323V186.312H75.9479V214.474H85.0521V154.161H75.9479V177.755H49.9323V154.161Z" stroke="white" stroke-width="4" stroke-miterlimit="10"/>
<path d="M99.5052 154.161V192.989C99.5052 199.343 101.484 204.578 105.443 208.692C109.87 213.276 115.323 215.567 121.807 215.567C128.292 215.567 133.76 213.276 138.214 208.692C142.172 204.578 144.151 199.343 144.151 192.989V154.161H135.052V190.463C135.052 195.718 134.203 199.505 132.51 201.823C129.984 205.286 126.422 207.015 121.807 207.015C117.224 207.015 113.672 205.286 111.146 201.823C109.453 199.427 108.604 195.64 108.604 190.463V154.161H99.5052Z" stroke="white" stroke-width="4" stroke-miterlimit="10"/>
<path d="M189.629 183.058H214.545V185.058C214.545 189.589 214.009 193.604 212.941 197.099C211.9 200.323 210.139 203.344 207.67 206.162C202.071 212.453 194.946 215.599 186.295 215.599C177.863 215.599 170.639 212.558 164.629 206.474C158.613 200.354 155.608 193.006 155.608 184.433C155.608 175.688 158.66 168.261 164.775 162.162C170.894 156.052 178.347 152.995 187.129 152.995C191.832 152.995 196.233 153.959 200.316 155.87C204.228 157.802 208.077 160.927 211.858 165.245L205.358 171.474C200.41 164.881 194.384 161.578 187.275 161.578C180.9 161.578 175.551 163.782 171.233 168.183C166.9 172.506 164.733 177.922 164.733 184.433C164.733 191.157 167.139 196.693 171.962 201.037C176.472 205.078 181.358 207.099 186.608 207.099C191.092 207.099 195.118 205.589 198.691 202.558C202.259 199.521 204.254 195.87 204.67 191.62H189.629V183.058Z" fill="white"/>
<path d="M189.62 191.625H204.661C204.245 195.859 202.25 199.495 198.682 202.536C195.115 205.547 191.094 207.052 186.615 207.052C181.354 207.052 176.469 205.036 171.964 201C167.146 196.651 164.74 191.115 164.74 184.396C164.74 177.885 166.901 172.469 171.224 168.146C175.547 163.745 180.896 161.547 187.276 161.547C194.385 161.547 200.417 164.844 205.365 171.427L211.849 165.219C208.073 160.906 204.229 157.786 200.323 155.87C196.234 153.953 191.833 152.99 187.12 152.99C178.344 152.99 170.896 156.052 164.776 162.172C158.656 168.266 155.599 175.687 155.599 184.437C155.599 193.005 158.604 200.349 164.62 206.469C170.635 212.562 177.865 215.609 186.302 215.609C194.948 215.609 202.068 212.458 207.667 206.156C210.141 203.344 211.901 200.323 212.943 197.094C214.01 193.604 214.542 189.594 214.542 185.062V183.068H189.62V191.625Z" stroke="white" stroke-width="4" stroke-miterlimit="10"/>
<path d="M224.592 184.037C224.592 175.553 227.701 168.261 233.925 162.162C240.118 156.084 247.561 153.037 256.259 153.037C264.852 153.037 272.222 156.11 278.363 162.245C284.54 168.402 287.634 175.782 287.634 184.391C287.634 193.074 284.535 200.438 278.342 206.475C272.102 212.548 264.587 215.579 255.8 215.579C248.009 215.579 241.014 212.881 234.821 207.475C227.998 201.521 224.592 193.704 224.592 184.037ZM233.759 184.162C233.759 190.829 235.998 196.313 240.488 200.6C244.93 204.907 250.071 207.058 255.904 207.058C262.232 207.058 267.576 204.87 271.925 200.495C276.269 196.068 278.446 190.673 278.446 184.308C278.446 177.881 276.295 172.49 272.009 168.141C267.727 163.771 262.441 161.579 256.154 161.579C249.873 161.579 244.566 163.771 240.238 168.141C235.915 172.464 233.759 177.803 233.759 184.162Z" fill="white"/>
<mask id="mask1_4_115" style="mask-type:luminance" maskUnits="userSpaceOnUse" x="168" y="96" width="156" height="178">
<path d="M168 96H323.854V273.333H168V96Z" fill="white"/>
</mask>
<g mask="url(#mask1_4_115)">
<path d="M234.818 207.484C241.016 212.875 248.005 215.567 255.792 215.567C264.594 215.567 272.104 212.536 278.333 206.468C284.531 200.427 287.63 193.067 287.63 184.401C287.63 175.776 284.542 168.396 278.37 162.25C272.224 156.104 264.854 153.031 256.26 153.031C247.562 153.031 240.115 156.078 233.917 162.172C227.693 168.265 224.583 175.557 224.583 184.047C224.583 193.708 227.995 201.521 234.818 207.484ZM240.245 168.14C244.568 163.771 249.87 161.583 256.146 161.583C262.448 161.583 267.734 163.771 272.005 168.14C276.302 172.484 278.448 177.869 278.448 184.297C278.448 190.646 276.271 196.036 271.927 200.458C267.578 204.828 262.24 207.015 255.911 207.015C250.078 207.015 244.932 204.869 240.479 200.573C236 196.281 233.76 190.802 233.76 184.146C233.76 177.797 235.922 172.458 240.245 168.14Z" stroke="white" stroke-width="4" stroke-miterlimit="10"/>
</g>
<path d="M279.141 237.88C279.141 237.88 275.479 237.953 269.068 238.073C262.656 238.172 253.5 238.422 242.51 238.521C231.526 238.615 218.703 238.828 204.969 238.865C191.229 238.911 176.578 238.964 161.927 239.016C147.276 238.964 132.625 238.911 118.885 238.865C105.151 238.823 92.3281 238.615 81.3385 238.521C70.3541 238.417 61.1927 238.172 54.7864 238.073C48.375 237.953 44.7083 237.88 44.7083 237.88V237.75H279.141" fill="white"/>
<path d="M44.7136 130.375C44.7136 130.375 48.375 130.302 54.7865 130.182C61.1979 130.088 70.3542 129.833 81.3438 129.734C92.3334 129.64 105.151 129.427 118.885 129.39C132.625 129.343 147.276 129.291 161.927 129.239C176.578 129.291 191.229 129.343 204.964 129.39C218.703 129.432 231.521 129.646 242.51 129.739C253.5 129.838 262.656 130.088 269.068 130.182C275.479 130.302 279.141 130.375 279.141 130.375V130.505H44.7136" fill="white"/>
<path d="M68.9115 263.889H64.9323L63.724 266.868H63.1406L66.9323 257.514L70.7031 266.868H70.1198L68.9115 263.889ZM68.7031 263.347L66.9323 258.993L65.1615 263.347H68.7031Z" fill="white"/>
<path d="M79.1151 258.368H76.0318V261.639H79.0318V262.18H76.0318V266.868H75.4693V257.826H79.1151V258.368Z" fill="white"/>
<path d="M82.8806 261.701C82.266 261.701 81.7504 261.941 81.3389 262.41C80.9327 262.883 80.7348 263.436 80.7348 264.055C80.7348 264.722 80.9327 265.3 81.3389 265.785C81.7504 266.258 82.2817 266.493 82.9223 266.493C83.5994 266.493 84.1358 266.258 84.5264 265.785C84.9119 265.3 85.1098 264.701 85.1098 263.993C85.1098 263.342 84.8962 262.8 84.4848 262.368C84.0785 261.925 83.5421 261.701 82.8806 261.701ZM85.6098 261.326V266.868H85.0681V265.868H85.0473C84.8494 266.217 84.5525 266.498 84.1514 266.701C83.7608 266.894 83.3546 266.993 82.9431 266.993C82.1098 266.993 81.4379 266.717 80.9431 266.16C80.4431 265.592 80.1931 264.889 80.1931 264.055C80.1931 263.238 80.4431 262.555 80.9431 262.014C81.4379 261.477 82.0994 261.201 82.9223 261.201C83.3494 261.201 83.7556 261.3 84.1306 261.493C84.5004 261.675 84.8077 261.941 85.0473 262.285H85.0681V261.326H85.6098Z" fill="white"/>
<path d="M90.2673 262.097L89.7881 262.326C89.5902 261.915 89.2621 261.701 88.809 261.701C88.5694 261.701 88.3558 261.795 88.1631 261.972C87.9652 262.139 87.8715 262.342 87.8715 262.576C87.8715 262.816 87.96 263.008 88.1423 263.16C88.3194 263.316 88.5433 263.441 88.809 263.535C89.0694 263.618 89.335 263.717 89.6006 263.826C89.8767 263.941 90.1058 264.113 90.2881 264.347C90.4808 264.587 90.5798 264.894 90.5798 265.264C90.5798 265.764 90.4027 266.186 90.059 266.514C89.71 266.837 89.2829 266.993 88.7881 266.993C88.3142 266.993 87.9027 266.863 87.559 266.597C87.21 266.337 86.9808 265.972 86.8715 265.514L87.3923 265.347C87.6267 266.113 88.0902 266.493 88.7881 266.493C89.1163 266.493 89.4131 266.378 89.6631 266.139C89.9079 265.894 90.0381 265.592 90.0381 265.243C90.0381 264.941 89.9392 264.712 89.7465 264.555C89.5642 264.404 89.2985 264.264 88.9548 264.139C88.6892 264.045 88.486 263.967 88.3506 263.91C88.2256 263.857 88.0642 263.764 87.8715 263.639C87.6892 263.519 87.5485 263.368 87.4548 263.201C87.3715 263.04 87.3298 262.842 87.3298 262.618C87.3298 262.206 87.4756 261.863 87.7673 261.597C88.0694 261.337 88.434 261.201 88.8506 261.201C89.1267 261.201 89.3975 261.29 89.6631 261.451C89.9392 261.618 90.1423 261.837 90.2673 262.097Z" fill="white"/>
<path d="M92.559 261.826V266.868H92.0173V261.826H91.4131V261.326H92.0173V259.347H92.559V261.326H93.5381V261.826H92.559Z" fill="white"/>
<path d="M101.058 258.201C100.735 258.201 100.464 258.331 100.245 258.576C100.021 258.826 99.912 259.123 99.912 259.451C99.912 259.607 99.938 259.769 99.9953 259.93C100.047 260.086 100.11 260.216 100.183 260.326C100.251 260.425 100.339 260.565 100.454 260.743C100.563 260.909 100.646 261.039 100.704 261.118C100.782 261.05 100.917 260.951 101.099 260.826C101.277 260.706 101.412 260.607 101.495 260.534C101.589 260.456 101.704 260.347 101.829 260.222C101.948 260.086 102.037 259.946 102.079 259.805C102.131 259.654 102.162 259.493 102.162 259.326C102.162 259.008 102.047 258.743 101.829 258.534C101.62 258.315 101.36 258.201 101.058 258.201ZM104.37 266.868L103.224 265.368C102.61 265.883 102.032 266.295 101.495 266.597C100.964 266.899 100.428 267.055 99.8912 267.055C99.2245 267.055 98.6568 266.821 98.2037 266.347C97.7557 265.878 97.537 265.315 97.537 264.659C97.537 264.357 97.5995 264.065 97.7245 263.784C97.8443 263.498 97.9797 263.253 98.1203 263.055C98.2714 262.862 98.5005 262.649 98.8078 262.409C99.1099 262.164 99.3391 261.982 99.4953 261.868C99.6568 261.758 99.9224 261.591 100.287 261.368C100.256 261.341 100.178 261.253 100.058 261.097C99.9432 260.935 99.8651 260.821 99.8287 260.763C99.7974 260.711 99.7349 260.612 99.6412 260.472C99.5578 260.321 99.5005 260.201 99.4745 260.118C99.4432 260.024 99.4068 259.909 99.3703 259.784C99.3391 259.649 99.3287 259.513 99.3287 259.388C99.3287 258.92 99.5005 258.513 99.8495 258.18C100.193 257.836 100.61 257.659 101.099 257.659C101.553 257.659 101.943 257.831 102.266 258.159C102.584 258.482 102.745 258.873 102.745 259.326C102.745 259.576 102.698 259.815 102.62 260.034C102.537 260.243 102.396 260.446 102.204 260.638C102.021 260.821 101.844 260.977 101.683 261.097C101.527 261.222 101.313 261.378 101.037 261.555L103.287 264.618L104.433 263.347L104.87 263.597L103.62 265.034L104.995 266.868H104.37ZM100.62 261.826L100.037 262.222C99.7453 262.404 99.5109 262.56 99.3495 262.68C99.1828 262.805 98.9849 262.977 98.7662 263.18C98.5422 263.388 98.3755 263.612 98.2662 263.847C98.1516 264.086 98.0995 264.336 98.0995 264.597C98.0995 265.128 98.2662 265.581 98.5995 265.951C98.9432 266.326 99.3755 266.513 99.8912 266.513C100.219 266.513 100.584 266.42 100.974 266.222C101.376 266.029 101.693 265.841 101.933 265.659C102.178 265.482 102.501 265.232 102.891 264.909L100.62 261.826Z" fill="white"/>
<path d="M118.794 266.868L117.253 259.389H117.232L114.065 267.16L110.919 259.389H110.898L109.357 266.868H108.794L110.732 257.514L114.065 265.743L117.398 257.514L119.336 266.868H118.794Z" fill="white"/>
<path d="M122.725 261.201C123.527 261.201 124.215 261.482 124.787 262.035C125.355 262.592 125.642 263.279 125.642 264.097C125.642 264.92 125.355 265.607 124.787 266.16C124.215 266.717 123.527 266.993 122.725 266.993C121.933 266.993 121.251 266.717 120.683 266.16C120.11 265.592 119.829 264.91 119.829 264.118C119.829 263.316 120.105 262.628 120.662 262.055C121.23 261.488 121.918 261.201 122.725 261.201ZM122.683 261.701C122.027 261.701 121.48 261.941 121.037 262.41C120.59 262.883 120.371 263.456 120.371 264.118C120.371 264.758 120.59 265.316 121.037 265.785C121.48 266.258 122.027 266.493 122.683 266.493C123.36 266.493 123.933 266.264 124.392 265.805C124.86 265.352 125.1 264.785 125.1 264.118C125.1 263.441 124.86 262.868 124.392 262.41C123.933 261.941 123.36 261.701 122.683 261.701Z" fill="white"/>
<path d="M129.122 266.493C129.799 266.493 130.336 266.258 130.726 265.784C131.112 265.3 131.31 264.701 131.31 263.993C131.31 263.341 131.096 262.8 130.685 262.368C130.279 261.925 129.742 261.701 129.081 261.701C128.466 261.701 127.95 261.94 127.539 262.409C127.133 262.883 126.935 263.435 126.935 264.055C126.935 264.722 127.133 265.3 127.539 265.784C127.95 266.258 128.482 266.493 129.122 266.493ZM131.268 266.868V265.868H131.247C131.049 266.216 130.753 266.498 130.351 266.701C129.961 266.894 129.555 266.993 129.143 266.993C128.31 266.993 127.638 266.716 127.143 266.159C126.643 265.591 126.393 264.888 126.393 264.055C126.393 263.237 126.643 262.555 127.143 262.013C127.638 261.477 128.299 261.201 129.122 261.201C129.549 261.201 129.956 261.3 130.331 261.493C130.7 261.675 131.008 261.94 131.247 262.284H131.268V256.972H131.81V266.868H131.268Z" fill="white"/>
<path d="M138.467 264.139H133.655C133.639 264.837 133.842 265.404 134.259 265.847C134.686 266.279 135.228 266.493 135.884 266.493C136.295 266.493 136.676 266.383 137.009 266.16C137.353 265.925 137.634 265.613 137.842 265.222L138.301 265.493C137.769 266.493 136.936 266.993 135.801 266.993C135.009 266.993 134.358 266.717 133.863 266.16C133.363 265.592 133.113 264.899 133.113 264.076C133.113 263.29 133.363 262.613 133.863 262.055C134.358 261.488 135.009 261.201 135.801 261.201C136.618 261.201 137.269 261.488 137.759 262.055C138.243 262.628 138.478 263.321 138.467 264.139ZM133.655 263.639H137.926C137.853 263.113 137.624 262.66 137.238 262.285C136.847 261.899 136.374 261.701 135.821 261.701C135.264 261.701 134.775 261.899 134.363 262.285C133.946 262.66 133.707 263.113 133.655 263.639Z" fill="white"/>
<path d="M140.316 261.326V262.035H140.337C140.582 261.482 140.988 261.201 141.546 261.201C141.738 261.201 141.931 261.248 142.129 261.326L141.837 261.826C141.712 261.748 141.582 261.701 141.462 261.701C141.296 261.701 141.145 261.732 141.025 261.785C140.91 261.842 140.811 261.915 140.733 261.993C140.65 262.066 140.577 262.17 140.525 262.305C140.467 262.446 140.426 262.571 140.4 262.68C140.384 262.779 140.363 262.925 140.337 263.118C140.322 263.3 140.316 263.436 140.316 263.514C140.316 263.597 140.316 263.732 140.316 263.91C140.316 263.967 140.316 264.008 140.316 264.035V266.868H139.775V261.326H140.316Z" fill="white"/>
<path d="M143.748 261.326V262.18H143.769C143.931 261.878 144.155 261.639 144.436 261.472C144.722 261.295 145.051 261.201 145.415 261.201C146.092 261.201 146.566 261.399 146.832 261.785C147.108 262.175 147.248 262.753 147.248 263.514V266.868H146.707V263.514C146.707 263.238 146.691 263.003 146.665 262.805C146.634 262.613 146.577 262.425 146.498 262.243C146.415 262.066 146.274 261.93 146.082 261.847C145.899 261.753 145.66 261.701 145.373 261.701C144.29 261.701 143.748 262.519 143.748 264.139V266.868H143.207V261.326H143.748Z" fill="white"/>
<path d="M157.453 258.972L157.057 259.305C156.598 258.602 155.984 258.243 155.223 258.243C154.734 258.243 154.322 258.415 153.994 258.743C153.671 259.076 153.515 259.488 153.515 259.972C153.515 260.196 153.557 260.399 153.64 260.576C153.718 260.743 153.859 260.904 154.057 261.055C154.26 261.212 154.432 261.321 154.557 261.389C154.677 261.446 154.874 261.54 155.14 261.66L156.869 262.555C157.562 262.988 157.911 263.592 157.911 264.368C157.911 265.107 157.624 265.732 157.057 266.243C156.484 266.743 155.822 266.993 155.078 266.993C154.453 266.993 153.901 266.821 153.432 266.472C152.958 266.113 152.614 265.633 152.411 265.035L152.911 264.826C153.338 265.91 154.067 266.451 155.098 266.451C155.692 266.451 156.213 266.243 156.661 265.826C157.104 265.415 157.328 264.904 157.328 264.305C157.328 264.128 157.281 263.951 157.203 263.785C157.13 263.623 157.052 263.488 156.973 263.389C156.89 263.295 156.749 263.18 156.557 263.055C156.359 262.936 156.218 262.847 156.14 262.805C156.057 262.753 155.895 262.67 155.661 262.555C155.588 262.519 155.531 262.488 155.494 262.472L153.869 261.618C153.244 261.232 152.932 260.691 152.932 259.993C152.932 259.331 153.145 258.779 153.578 258.347C154.005 257.92 154.562 257.701 155.244 257.701C155.697 257.701 156.13 257.821 156.536 258.055C156.937 258.279 157.244 258.587 157.453 258.972Z" fill="white"/>
<path d="M159.939 261.827V266.868H159.397V261.827H158.793V261.327H159.397V259.348H159.939V261.327H160.918V261.827H159.939Z" fill="white"/>
<path d="M163.989 261.701C163.374 261.701 162.858 261.941 162.447 262.41C162.041 262.883 161.843 263.436 161.843 264.055C161.843 264.722 162.041 265.3 162.447 265.785C162.858 266.258 163.39 266.493 164.03 266.493C164.707 266.493 165.244 266.258 165.634 265.785C166.02 265.3 166.218 264.701 166.218 263.993C166.218 263.342 166.004 262.8 165.593 262.368C165.187 261.925 164.65 261.701 163.989 261.701ZM166.718 261.326V266.868H166.176V265.868H166.155C165.957 266.217 165.661 266.498 165.259 266.701C164.869 266.894 164.463 266.993 164.051 266.993C163.218 266.993 162.546 266.717 162.051 266.16C161.551 265.592 161.301 264.889 161.301 264.055C161.301 263.238 161.551 262.555 162.051 262.014C162.546 261.477 163.207 261.201 164.03 261.201C164.457 261.201 164.864 261.3 165.239 261.493C165.608 261.675 165.916 261.941 166.155 262.285H166.176V261.326H166.718Z" fill="white"/>
<path d="M169.167 261.827V266.868H168.625V261.827H168.021V261.327H168.625V259.348H169.167V261.327H170.146V261.827H169.167Z" fill="white"/>
<path d="M171.821 261.326V266.868H171.279V261.326H171.821ZM171.217 259.139C171.31 259.045 171.425 258.993 171.55 258.993C171.685 258.993 171.805 259.045 171.904 259.139C171.998 259.222 172.05 259.337 172.05 259.472C172.05 259.613 171.998 259.733 171.904 259.826C171.805 259.925 171.685 259.972 171.55 259.972C171.425 259.972 171.31 259.925 171.217 259.826C171.118 259.733 171.071 259.613 171.071 259.472C171.071 259.337 171.118 259.222 171.217 259.139Z" fill="white"/>
<path d="M178.129 261.889V262.618C177.587 262.008 176.931 261.701 176.17 261.701C175.53 261.701 174.988 261.941 174.545 262.41C174.098 262.883 173.879 263.441 173.879 264.076C173.879 264.717 174.098 265.279 174.545 265.764C174.988 266.253 175.53 266.493 176.17 266.493C176.988 266.493 177.67 266.16 178.212 265.493V266.222C177.629 266.738 176.952 266.993 176.191 266.993C175.368 266.993 174.686 266.717 174.15 266.16C173.608 265.592 173.337 264.899 173.337 264.076C173.337 263.274 173.608 262.592 174.15 262.035C174.702 261.482 175.389 261.201 176.212 261.201C176.957 261.201 177.598 261.436 178.129 261.889Z" fill="white"/>
<path d="M183.135 257.826L185.677 265.597L189.052 257.368L192.448 265.597L194.948 257.826H195.531L192.469 267.16L189.01 258.806L185.573 267.16L182.552 257.826H183.135Z" fill="white"/>
<path d="M200.676 264.139H195.863C195.847 264.837 196.051 265.404 196.467 265.847C196.894 266.279 197.436 266.493 198.092 266.493C198.504 266.493 198.884 266.383 199.217 266.16C199.561 265.925 199.842 265.613 200.051 265.222L200.509 265.493C199.978 266.493 199.144 266.993 198.009 266.993C197.217 266.993 196.566 266.717 196.071 266.16C195.571 265.592 195.321 264.899 195.321 264.076C195.321 263.29 195.571 262.613 196.071 262.055C196.566 261.488 197.217 261.201 198.009 261.201C198.827 261.201 199.478 261.488 199.967 262.055C200.452 262.628 200.686 263.321 200.676 264.139ZM195.863 263.639H200.134C200.061 263.113 199.832 262.66 199.446 262.285C199.056 261.899 198.582 261.701 198.03 261.701C197.472 261.701 196.983 261.899 196.571 262.285C196.155 262.66 195.915 263.113 195.863 263.639Z" fill="white"/>
<path d="M204.671 266.493C205.332 266.493 205.863 266.258 206.254 265.784C206.655 265.3 206.858 264.722 206.858 264.055C206.858 263.435 206.644 262.883 206.233 262.409C205.827 261.94 205.322 261.701 204.712 261.701C204.03 261.701 203.488 261.935 203.087 262.388C202.697 262.836 202.504 263.399 202.504 264.076C202.504 264.743 202.697 265.315 203.087 265.784C203.488 266.258 204.014 266.493 204.671 266.493ZM201.983 266.868V256.972H202.525V262.284H202.546C202.78 261.94 203.087 261.675 203.462 261.493C203.848 261.3 204.259 261.201 204.691 261.201C205.509 261.201 206.16 261.477 206.65 262.013C207.144 262.555 207.4 263.237 207.4 264.055C207.4 264.888 207.144 265.591 206.65 266.159C206.15 266.716 205.488 266.993 204.671 266.993C204.238 266.993 203.827 266.894 203.441 266.701C203.051 266.498 202.749 266.216 202.546 265.868H202.525V266.868H201.983Z" fill="white"/>
<path d="M211.515 262.097L211.036 262.326C210.838 261.915 210.51 261.701 210.057 261.701C209.818 261.701 209.604 261.795 209.411 261.972C209.213 262.139 209.12 262.342 209.12 262.576C209.12 262.816 209.208 263.008 209.39 263.16C209.568 263.316 209.792 263.441 210.057 263.535C210.318 263.618 210.583 263.717 210.849 263.826C211.125 263.941 211.354 264.113 211.536 264.347C211.729 264.587 211.828 264.894 211.828 265.264C211.828 265.764 211.651 266.186 211.307 266.514C210.958 266.837 210.531 266.993 210.036 266.993C209.562 266.993 209.151 266.863 208.807 266.597C208.458 266.337 208.229 265.972 208.12 265.514L208.64 265.347C208.875 266.113 209.338 266.493 210.036 266.493C210.364 266.493 210.661 266.378 210.911 266.139C211.156 265.894 211.286 265.592 211.286 265.243C211.286 264.941 211.187 264.712 210.995 264.555C210.812 264.404 210.547 264.264 210.203 264.139C209.937 264.045 209.734 263.967 209.599 263.91C209.474 263.857 209.312 263.764 209.12 263.639C208.937 263.519 208.797 263.368 208.703 263.201C208.62 263.04 208.578 262.842 208.578 262.618C208.578 262.206 208.724 261.863 209.015 261.597C209.318 261.337 209.682 261.201 210.099 261.201C210.375 261.201 210.646 261.29 210.911 261.451C211.187 261.618 211.39 261.837 211.515 262.097Z" fill="white"/>
<path d="M213.953 261.326V266.867H213.411V261.326H213.953ZM213.349 259.138C213.443 259.044 213.557 258.992 213.682 258.992C213.818 258.992 213.937 259.044 214.036 259.138C214.13 259.221 214.182 259.336 214.182 259.471C214.182 259.612 214.13 259.732 214.036 259.826C213.937 259.924 213.818 259.971 213.682 259.971C213.557 259.971 213.443 259.924 213.349 259.826C213.25 259.732 213.203 259.612 213.203 259.471C213.203 259.336 213.25 259.221 213.349 259.138Z" fill="white"/>
<path d="M216.615 261.826V266.868H216.074V261.826H215.469V261.326H216.074V259.347H216.615V261.326H217.594V261.826H216.615Z" fill="white"/>
<path d="M223.331 264.139H218.519C218.503 264.837 218.706 265.404 219.123 265.847C219.55 266.279 220.092 266.493 220.748 266.493C221.16 266.493 221.54 266.383 221.873 266.16C222.217 265.925 222.498 265.613 222.706 265.222L223.165 265.493C222.634 266.493 221.8 266.993 220.665 266.993C219.873 266.993 219.222 266.717 218.727 266.16C218.227 265.592 217.977 264.899 217.977 264.076C217.977 263.29 218.227 262.613 218.727 262.055C219.222 261.488 219.873 261.201 220.665 261.201C221.483 261.201 222.134 261.488 222.623 262.055C223.108 262.628 223.342 263.321 223.331 264.139ZM218.519 263.639H222.79C222.717 263.113 222.488 262.66 222.102 262.285C221.712 261.899 221.238 261.701 220.686 261.701C220.128 261.701 219.639 261.899 219.227 262.285C218.811 262.66 218.571 263.113 218.519 263.639Z" fill="white"/>
<path d="M232.493 258.368H228.743V261.639H232.389V262.18H228.743V266.326H232.493V266.868H228.181V257.826H232.493V258.368Z" fill="white"/>
<path d="M234.744 261.326V262.18H234.765C234.926 261.878 235.15 261.639 235.432 261.472C235.718 261.295 236.046 261.201 236.411 261.201C237.088 261.201 237.562 261.399 237.827 261.785C238.103 262.175 238.244 262.753 238.244 263.514V266.868H237.702V263.514C237.702 263.238 237.687 263.003 237.661 262.805C237.629 262.613 237.572 262.425 237.494 262.243C237.411 262.066 237.27 261.93 237.077 261.847C236.895 261.753 236.656 261.701 236.369 261.701C235.286 261.701 234.744 262.519 234.744 264.139V266.868H234.202V261.326H234.744Z" fill="white"/>
<path d="M242.312 261.701C241.697 261.701 241.181 261.941 240.77 262.41C240.364 262.883 240.166 263.436 240.166 264.055C240.166 264.722 240.364 265.3 240.77 265.785C241.181 266.258 241.713 266.493 242.353 266.493C243.03 266.493 243.567 266.258 243.957 265.785C244.343 265.3 244.541 264.701 244.541 263.993C244.541 263.342 244.327 262.8 243.916 262.368C243.509 261.925 242.973 261.701 242.312 261.701ZM245.041 261.326V266.597C245.041 266.956 245.03 267.243 245.02 267.451C245.004 267.654 244.952 267.899 244.874 268.18C244.791 268.467 244.661 268.727 244.499 268.951C243.968 269.654 243.233 270.014 242.291 270.014C241.541 270.014 240.9 269.795 240.374 269.368C239.858 268.951 239.577 268.373 239.541 267.639H240.082C240.119 268.206 240.343 268.66 240.749 268.993C241.161 269.337 241.655 269.514 242.228 269.514C243.03 269.514 243.629 269.238 244.02 268.701C244.338 268.212 244.499 267.508 244.499 266.597V265.91H244.478C244.228 266.243 243.905 266.508 243.52 266.701C243.129 266.894 242.723 266.993 242.312 266.993C241.53 266.993 240.884 266.712 240.374 266.139C239.874 265.571 239.624 264.883 239.624 264.076C239.624 263.274 239.879 262.592 240.395 262.035C240.921 261.482 241.588 261.201 242.395 261.201C243.254 261.201 243.947 261.566 244.478 262.285H244.499V261.326H245.041Z" fill="white"/>
<path d="M247.636 261.326V266.868H247.095V261.326H247.636ZM247.032 259.139C247.126 259.045 247.241 258.993 247.366 258.993C247.501 258.993 247.621 259.045 247.72 259.139C247.813 259.222 247.866 259.337 247.866 259.472C247.866 259.613 247.813 259.733 247.72 259.826C247.621 259.925 247.501 259.972 247.366 259.972C247.241 259.972 247.126 259.925 247.032 259.826C246.933 259.733 246.886 259.613 246.886 259.472C246.886 259.337 246.933 259.222 247.032 259.139Z" fill="white"/>
<path d="M250.236 261.326V262.18H250.257C250.418 261.878 250.642 261.639 250.924 261.472C251.21 261.295 251.538 261.201 251.903 261.201C252.58 261.201 253.054 261.399 253.319 261.785C253.595 262.175 253.736 262.753 253.736 263.514V266.868H253.194V263.514C253.194 263.238 253.179 263.003 253.153 262.805C253.121 262.613 253.064 262.425 252.986 262.243C252.903 262.066 252.762 261.93 252.569 261.847C252.387 261.753 252.147 261.701 251.861 261.701C250.778 261.701 250.236 262.519 250.236 264.139V266.868H249.694V261.326H250.236Z" fill="white"/>
<path d="M260.387 264.139H255.574C255.559 264.837 255.762 265.404 256.179 265.847C256.606 266.279 257.147 266.493 257.804 266.493C258.215 266.493 258.595 266.383 258.929 266.16C259.272 265.925 259.554 265.613 259.762 265.222L260.22 265.493C259.689 266.493 258.856 266.993 257.72 266.993C256.929 266.993 256.278 266.717 255.783 266.16C255.283 265.592 255.033 264.899 255.033 264.076C255.033 263.29 255.283 262.613 255.783 262.055C256.278 261.488 256.929 261.201 257.72 261.201C258.538 261.201 259.189 261.488 259.679 262.055C260.163 262.628 260.397 263.321 260.387 264.139ZM255.574 263.639H259.845C259.772 263.113 259.543 262.66 259.158 262.285C258.767 261.899 258.293 261.701 257.741 261.701C257.184 261.701 256.694 261.899 256.283 262.285C255.866 262.66 255.626 263.113 255.574 263.639Z" fill="white"/>
</g>
<defs>
<clipPath id="clip0_4_115">
<rect width="323.853" height="366.12" fill="white"/>
</clipPath>
</defs>
</svg>
