<?xml version="1.0" standalone="no"?>
<!DOCTYPE svg PUBLIC "-//W3C//DTD SVG 20010904//EN"
 "http://www.w3.org/TR/2001/REC-SVG-20010904/DTD/svg10.dtd">
<svg version="1.0" xmlns="http://www.w3.org/2000/svg"
 width="16.000000pt" height="16.000000pt" viewBox="0 0 16.000000 16.000000"
 preserveAspectRatio="xMidYMid meet">
<metadata>
Created by potrace 1.11, written by Peter Selinger 2001-2013
</metadata>
<g transform="translate(0.000000,16.000000) scale(0.006250,-0.006250)"
fill="#000000" stroke="none">
<path d="M1118 2481 c-76 -45 -139 -81 -141 -81 -3 0 -53 -29 -112 -65 -59
-36 -108 -65 -110 -65 -2 0 -32 -17 -67 -37 -35 -21 -79 -47 -99 -58 -239
-133 -399 -233 -414 -258 -16 -26 -17 -84 -17 -637 0 -493 3 -613 14 -636 13
-28 166 -131 196 -133 6 -1 12 -5 12 -11 0 -5 4 -10 9 -10 5 0 91 -48 192
-106 101 -59 200 -116 219 -127 19 -10 124 -71 232 -134 245 -142 248 -143
360 -78 45 26 97 56 116 66 44 25 334 195 375 219 18 11 41 24 52 29 74 34
433 254 449 274 17 23 18 57 18 640 0 569 -1 618 -17 645 -13 21 -65 57 -173
118 -254 146 -349 201 -689 398 -111 64 -216 119 -235 122 -28 4 -54 -7 -170
-75z"/>
</g>
</svg>
