<?xml version="1.0" encoding="UTF-8" standalone="no"?>
<!DOCTYPE svg PUBLIC "-//W3C//DTD SVG 1.1//EN" "http://www.w3.org/Graphics/SVG/1.1/DTD/svg11.dtd">
<svg width="100%" height="100%" viewBox="0 0 512 512" version="1.1" xmlns="http://www.w3.org/2000/svg" xmlns:xlink="http://www.w3.org/1999/xlink" xml:space="preserve" style="fill-rule:evenodd;clip-rule:evenodd;stroke-linejoin:round;stroke-miterlimit:1.41421;">
    <circle cx="256" cy="256" r="256" style="fill:rgb(115,115,115);"/>
    <g transform="matrix(1.46332,0,0,1.46332,-118.606,-118.61)">
        <circle cx="256" cy="256" r="153.078" style="fill:rgb(0,131,192);"/>
    </g>
    <g>
        <g id="c43_terminal" transform="matrix(9.49911,0,0,9.5136,109.475,109.253)">
            <g transform="matrix(1.16956,0,0,1.02633,-2.61549,-0.406172)">
                <path d="M28.645,2.203L2.204,2.203C0.987,2.203 0,3.188 0,4.405L0,26.443C0,27.659 0.987,28.647 2.204,28.647L28.645,28.647C29.86,28.647 30.851,27.659 30.851,26.443L30.851,4.405C30.851,3.188 29.859,2.203 28.645,2.203ZM7.162,3.857C7.769,3.857 8.264,4.348 8.264,4.96C8.264,5.567 7.77,6.058 7.162,6.058C6.551,6.058 6.058,5.568 6.058,4.96C6.059,4.349 6.551,3.857 7.162,3.857ZM3.855,3.857C4.463,3.857 4.957,4.348 4.957,4.96C4.957,5.567 4.464,6.058 3.855,6.058C3.246,6.058 2.752,5.568 2.752,4.96C2.753,4.349 3.246,3.857 3.855,3.857Z" style="fill-rule:nonzero;stroke:white;stroke-width:0.1px;"/>
            </g>
            <g transform="matrix(0.105273,0,0,0.105113,-11.5248,-11.4838)">
                <ellipse cx="131.477" cy="156.317" rx="12.534" ry="13.17" style="fill:rgb(0,0,11);stroke:rgb(0,0,11);stroke-width:18px;stroke-linecap:round;stroke-miterlimit:1.5;"/>
            </g>
            <g transform="matrix(0.105273,0,0,0.105113,-7.99529,-11.4838)">
                <ellipse cx="131.477" cy="156.317" rx="12.534" ry="13.17" style="fill:rgb(0,0,11);stroke:rgb(0,0,11);stroke-width:18px;stroke-linecap:round;stroke-miterlimit:1.5;"/>
            </g>
        </g>
        <g transform="matrix(10.4676,0,0,8.99737,94.5364,117.216)">
            <g id="c43_terminal1">
                <path d="M28.645,2.203L2.204,2.203C0.987,2.203 0,3.188 0,4.405L0,26.443C0,27.659 0.987,28.647 2.204,28.647L28.645,28.647C29.86,28.647 30.851,27.659 30.851,26.443L30.851,4.405C30.851,3.188 29.859,2.203 28.645,2.203ZM7.162,3.857C7.769,3.857 8.264,4.348 8.264,4.96C8.264,5.567 7.77,6.058 7.162,6.058C6.551,6.058 6.058,5.568 6.058,4.96C6.059,4.349 6.551,3.857 7.162,3.857ZM3.855,3.857C4.463,3.857 4.957,4.348 4.957,4.96C4.957,5.567 4.464,6.058 3.855,6.058C3.246,6.058 2.752,5.568 2.752,4.96C2.753,4.349 3.246,3.857 3.855,3.857Z" style="fill:rgb(38,38,38);fill-rule:nonzero;"/>
            </g>
        </g>
        <rect x="121.712" y="146.339" width="63.787" height="33.685" style="fill:rgb(38,38,38);"/>
        <g transform="matrix(0.897049,0,0,0.787196,207.154,151.563)">
            <path d="M210.9,76.344L213.855,81.842L213.855,184.648L210.851,190.179L121.99,240.618L117.265,240.616L28.547,190.175L25.545,184.646L25.545,81.844L28.498,76.349L117.216,24.722L122.039,24.72L210.9,76.344ZM45.611,92.065L45.611,174.323L119.635,216.409L193.79,174.317L193.79,92.07L119.635,48.99L45.611,92.065Z" style="fill:white;"/>
        </g>
        <g transform="matrix(0.759984,0,0,0.755703,213.114,215.116)">
            <path d="M179.238,106.552L154.758,106.552L154.758,62.2L112.134,62.2L112.134,106.552L87.654,106.552L87.654,1.648L112.134,1.648L112.134,45.496L154.758,45.496L154.758,1.648L179.238,1.648L179.238,106.552Z" style="fill:white;fill-rule:nonzero;"/>
        </g>
    </g>
    <g transform="matrix(12.2363,0,0,11.9218,57.1656,101.72)">
        <path d="M12.351,12.264L5.275,9.028L5.275,10.589L10.746,12.929L10.746,12.958L5.275,15.294L5.275,16.854L12.351,13.618L12.351,12.264Z" style="fill:white;fill-rule:nonzero;"/>
    </g>
</svg>
