<?xml version="1.0" encoding="UTF-8" standalone="no"?>
<!DOCTYPE svg PUBLIC "-//W3C//DTD SVG 1.1//EN" "http://www.w3.org/Graphics/SVG/1.1/DTD/svg11.dtd">
<svg width="100%" height="100%" viewBox="0 0 255 348" version="1.1" xmlns="http://www.w3.org/2000/svg" xmlns:xlink="http://www.w3.org/1999/xlink" xml:space="preserve" style="fill-rule:evenodd;clip-rule:evenodd;stroke-linejoin:round;stroke-miterlimit:1.41421;">
    <path d="M33.26,342.85C32.458,342.849 31.868,342.558 30.77,341.46L30.57,341.26C28.148,337.721 28.03,333.067 30.27,329.41C31.97,326.42 34.86,323.73 39.04,320.54C40.24,319.65 44.02,316.86 44.92,316.26C40.4,312.181 36.478,307.485 33.27,302.31C23.11,285.88 19.72,265.16 20.62,236.67C20.82,229 21.31,222.13 22.31,209.58C23.2,198.42 23.6,193.54 23.8,188.86C23.567,189.052 23.293,189.189 23,189.26C22.8,189.36 22.2,189.56 22.2,189.56C21.9,189.66 21.7,189.76 21.4,189.86C20.662,190.184 19.962,190.586 19.31,191.06C16.471,193.187 13.154,194.587 9.65,195.14C5.57,195.57 2.88,193.35 2.48,188.57C-0.11,187.08 -0.6,184.59 0.69,181.8C1.727,179.498 3.335,177.498 5.36,175.99C10.821,172.243 17.378,170.419 23.99,170.81C23.78,162.24 23.28,155.17 21.99,139.73C20.2,119.01 19.7,109.85 19.9,98.39C19.997,87.45 21.339,76.556 23.9,65.92C16.03,63.03 10.75,58.37 8.46,52.37C6.17,46.37 6.96,39.45 10.35,33.37C13.732,27.272 19.336,22.704 25.99,20.62C33.1,18.43 40.73,19.53 48.1,24.11C53.072,19.801 58.602,16.182 64.54,13.35C79.88,5.88 98.41,2 123.41,0L123.51,1L123.51,0C146.91,0 164.15,2.09 178.99,7.57C187.102,10.563 194.644,14.919 201.29,20.45C208.56,15.57 216.1,14.18 223.1,16.07C229.671,17.982 235.247,22.377 238.64,28.32C242.03,34.37 243.03,41.24 241.03,47.32C238.94,53.89 233.66,58.97 225.59,62.06C228.068,71.737 229.806,81.589 230.79,91.53C232.18,104.98 232.48,115.74 232.58,140.24L232.58,148.01C232.58,156.58 232.78,163.35 232.98,169.53C238.891,169.633 244.643,171.469 249.52,174.81C251.496,176.359 253.096,178.335 254.2,180.59L254.16,180.58C255.47,183.37 254.96,185.86 252.47,187.45C252.07,192.23 249.38,194.42 245.3,194.02C242.31,193.73 238.73,192.03 235.64,189.94C235.19,189.569 234.688,189.266 234.15,189.04L234.15,189.54C235.24,206.54 235.64,215.38 235.74,225.54C235.99,254.23 232.3,276.54 222.74,295.67C219.363,302.344 214.921,308.424 209.59,313.67C214.314,316.885 218.344,321.017 221.44,325.82C225.23,332.2 224.83,337.77 219.05,341.36C215.76,344.35 212.58,345.04 209.29,343.65C206.77,342.56 204.58,340.66 201.29,336.78C201.09,336.48 200.79,336.28 200.59,335.98C200.49,335.88 200.49,335.78 200.29,335.58C200.225,335.423 200.122,335.286 199.99,335.18C195.77,330.27 193.58,328.18 190.99,327.18C186.712,329.438 182.285,331.403 177.74,333.06C160.21,339.44 139.49,342.13 117.97,341.33C101.33,340.74 84.89,337.65 70.75,331.97C70.06,331.67 69.46,331.47 68.86,331.17L67.27,331.47C62.78,332.17 59.8,334.06 53.72,339.24L53.52,339.44C49.73,342.65 47.94,344.15 45.45,345.44C40.79,348.23 37.28,347.53 34.79,344.64C34.467,344.227 34.167,343.796 33.89,343.35C33.791,343.151 33.691,343.051 33.59,342.85L33.26,342.85Z" style="fill:white;"/>
</svg>
