<?xml version="1.0" encoding="UTF-8" standalone="no"?>
<!DOCTYPE svg PUBLIC "-//W3C//DTD SVG 1.1//EN" "http://www.w3.org/Graphics/SVG/1.1/DTD/svg11.dtd">
<svg width="100%" height="100%" viewBox="0 0 340 340" version="1.1" xmlns="http://www.w3.org/2000/svg" xmlns:xlink="http://www.w3.org/1999/xlink" xml:space="preserve" style="fill-rule:evenodd;clip-rule:evenodd;stroke-linejoin:round;stroke-miterlimit:1.41421;">
    <g transform="matrix(1,0,0,1,42,-1)">
        <path d="M0,74.733L0,176.067L23.705,176.067L23.705,88.6L127.995,26.733L232.3,88.6L232.3,199.533C232.3,216.6 226.133,230.467 215.467,245.4C189.679,280.6 142.933,306.2 128,313.667C113.304,306.2 70.4,282.733 42.667,249.667L180.139,249.667C190.099,240.067 193.067,236.867 201.6,225.133L3.295,225.133C22.565,293.4 128,341.4 128,341.4C127.973,341.4 233.6,294.467 252.8,225.133C254.81,217.667 256,208.067 256,199.533L256,74.733L127.994,0.067L0,74.733Z" style="fill-rule:nonzero;"/>
    </g>
    <g transform="matrix(1,0,0,1,42,-1)">
        <path d="M66.084,108.867L188.03,108.867L188.03,129.133L66.084,129.133L66.084,108.867L66.084,108.867ZM55.892,145.133L198.16,145.133L198.16,165.4L55.892,165.4L55.892,145.133ZM53.333,180.333L195.601,180.333L195.601,200.6L53.333,200.6L53.333,180.333ZM99.08,73.667L154.973,73.667L154.973,93.933L99.08,93.933L99.08,73.667Z" style="fill-rule:nonzero;"/>
    </g>
</svg>
