<?xml version="1.0" encoding="UTF-8" standalone="no"?>
<!DOCTYPE svg PUBLIC "-//W3C//DTD SVG 1.1//EN" "http://www.w3.org/Graphics/SVG/1.1/DTD/svg11.dtd">
<svg width="100%" height="100%" viewBox="0 0 512 512" version="1.1" xmlns="http://www.w3.org/2000/svg" xmlns:xlink="http://www.w3.org/1999/xlink" xml:space="preserve" style="fill-rule:evenodd;clip-rule:evenodd;stroke-linejoin:round;stroke-miterlimit:1.41421;">
    <circle cx="256" cy="256" r="256" style="fill:rgb(115,115,115);"/>
    <g transform="matrix(1.46332,0,0,1.46332,-118.606,-118.61)">
        <circle cx="256" cy="256" r="153.078" style="fill:rgb(0,131,192);"/>
    </g>
    <g transform="matrix(0.602251,0.602081,-0.602081,0.602251,272.753,-42.2621)">
        <rect x="225.491" y="42.504" width="58.592" height="425.683" style="fill:rgb(255,64,136);"/>
    </g>
    <g transform="matrix(0.602421,0.60191,-0.60191,0.602421,284.465,-47.2049)">
        <rect x="258.859" y="56.351" width="19.525" height="425.683" style="fill:rgb(201,23,126);"/>
    </g>
    <g>
        <g transform="matrix(0.602421,-0.60191,0.60191,0.602421,-151.189,198.865)">
            <rect x="92.249" y="375.991" width="5.057" height="9.771" style="fill:white;"/>
        </g>
        <g transform="matrix(0.601059,-0.603273,0.603273,0.601059,-143.436,202.849)">
            <rect x="101.749" y="366.44" width="5.051" height="9.768" style="fill:white;"/>
        </g>
        <g transform="matrix(0.602421,-0.60191,0.60191,0.602421,-134.977,205.555)">
            <rect x="111.264" y="356.925" width="5.044" height="9.771" style="fill:white;"/>
        </g>
        <g transform="matrix(0.603018,-0.601399,0.601399,0.603018,-126.765,208.655)">
            <rect x="120.757" y="347.436" width="5.091" height="9.765" style="fill:white;"/>
        </g>
        <g transform="matrix(0.602166,-0.602166,0.602166,0.602166,-118.829,212.413)">
            <rect x="130.321" y="337.907" width="5.06" height="9.761" style="fill:white;"/>
        </g>
        <g transform="matrix(0.601059,-0.603273,0.603273,0.601059,-110.948,216.312)">
            <rect x="139.857" y="328.412" width="5.051" height="9.771" style="fill:white;"/>
        </g>
        <g transform="matrix(0.603273,-0.601059,0.601059,0.603273,-102.407,218.6)">
            <rect x="149.36" y="318.836" width="5.074" height="9.771" style="fill:white;"/>
        </g>
        <g transform="matrix(0.602421,-0.60191,0.60191,0.602421,-94.4883,222.359)">
            <rect x="158.866" y="309.374" width="5.047" height="9.754" style="fill:white;"/>
        </g>
        <g transform="matrix(0.601059,-0.603273,0.603273,0.601059,-86.5672,226.37)">
            <rect x="168.398" y="299.848" width="5.041" height="9.771" style="fill:white;"/>
        </g>
        <g transform="matrix(0.602677,-0.601655,0.601655,0.602677,-78.2571,228.971)">
            <rect x="177.928" y="290.344" width="5.051" height="9.764" style="fill:white;"/>
        </g>
        <g transform="matrix(0.602166,-0.602166,0.602166,0.602166,-70.1974,232.551)">
            <rect x="187.428" y="280.795" width="5.044" height="9.764" style="fill:white;"/>
        </g>
        <g transform="matrix(0.601059,-0.603273,0.603273,0.601059,-62.202,236.445)">
            <rect x="196.925" y="271.316" width="5.084" height="9.771" style="fill:white;"/>
        </g>
        <g transform="matrix(0.603273,-0.601059,0.601059,0.603273,-53.9159,238.736)">
            <rect x="206.462" y="261.75" width="5.044" height="9.761" style="fill:white;"/>
        </g>
        <g transform="matrix(0.602166,-0.602166,0.602166,0.602166,-45.8848,242.624)">
            <rect x="215.972" y="252.244" width="5.06" height="9.771" style="fill:white;"/>
        </g>
        <g transform="matrix(0.601655,-0.602677,0.602677,0.601655,-37.7618,246.216)">
            <rect x="225.504" y="242.687" width="5.041" height="9.761" style="fill:white;"/>
        </g>
        <g transform="matrix(0.602677,-0.601655,0.601655,0.602677,-29.6944,249.087)">
            <rect x="234.994" y="233.234" width="5.041" height="9.768" style="fill:white;"/>
        </g>
        <g transform="matrix(0.60191,-0.602421,0.602421,0.60191,-21.568,252.823)">
            <rect x="244.534" y="223.701" width="5.054" height="9.768" style="fill:white;"/>
        </g>
        <g transform="matrix(0.601314,-0.603018,0.603018,0.601314,-13.4336,256.468)">
            <rect x="254.058" y="214.183" width="5.054" height="9.768" style="fill:white;"/>
        </g>
        <g transform="matrix(0.601655,-0.602677,0.602677,0.601655,-5.32275,259.653)">
            <rect x="263.569" y="204.646" width="5.051" height="9.771" style="fill:white;"/>
        </g>
        <g transform="matrix(0.603273,-0.601059,0.601059,0.603273,2.66781,262.239)">
            <rect x="273.066" y="195.13" width="5.084" height="9.771" style="fill:white;"/>
        </g>
        <g transform="matrix(0.601655,-0.602677,0.602677,0.601655,10.9115,266.373)">
            <rect x="282.619" y="185.612" width="5.041" height="9.761" style="fill:white;"/>
        </g>
        <g transform="matrix(0.601059,-0.603273,0.603273,0.601059,19.0787,270.022)">
            <rect x="292.133" y="176.117" width="5.054" height="9.771" style="fill:white;"/>
        </g>
        <g transform="matrix(0.602677,-0.601655,0.601655,0.602677,26.9972,272.596)">
            <rect x="301.641" y="166.586" width="5.041" height="9.761" style="fill:white;"/>
        </g>
        <g transform="matrix(0.602166,-0.602166,0.602166,0.602166,35.1694,276.204)">
            <rect x="311.168" y="157.074" width="5.044" height="9.761" style="fill:white;"/>
        </g>
        <g transform="matrix(0.601655,-0.602677,0.602677,0.601655,43.3636,279.777)">
            <rect x="320.636" y="147.538" width="5.067" height="9.761" style="fill:white;"/>
        </g>
        <g transform="matrix(0.602677,-0.601655,0.601655,0.602677,51.2952,282.688)">
            <rect x="330.229" y="138.028" width="5.041" height="9.761" style="fill:white;"/>
        </g>
        <g transform="matrix(0.60191,-0.602421,0.602421,0.60191,59.5424,286.385)">
            <rect x="339.705" y="128.507" width="5.047" height="9.764" style="fill:white;"/>
        </g>
        <g transform="matrix(0.600803,-0.603528,0.603528,0.600803,67.9098,290.272)">
            <rect x="349.22" y="118.982" width="5.067" height="9.771" style="fill:white;"/>
        </g>
        <g transform="matrix(0.603528,-0.600803,0.600803,0.603528,75.3591,292.328)">
            <rect x="358.736" y="109.481" width="5.044" height="9.754" style="fill:white;"/>
        </g>
        <g transform="matrix(0.60191,-0.602421,0.602421,0.60191,83.8724,296.468)">
            <rect x="368.267" y="99.957" width="5.057" height="9.771" style="fill:white;"/>
        </g>
        <g transform="matrix(0.601655,-0.602677,0.602677,0.601655,92.0748,299.924)">
            <rect x="377.768" y="90.403" width="5.051" height="9.761" style="fill:white;"/>
        </g>
    </g>
    <g transform="matrix(0.602251,-0.602166,0.602166,0.602251,-35.7654,264.001)">
        <rect x="225.493" y="42.493" width="58.566" height="425.713" style="fill:rgb(235,185,81);"/>
    </g>
    <g transform="matrix(0.602336,-0.601996,0.601996,0.602336,-23.9811,268.81)">
        <rect x="258.85" y="28.66" width="19.512" height="425.683" style="fill:rgb(235,185,81);"/>
    </g>
    <g transform="matrix(0.851599,0,0,0.851599,54.4507,46.9129)">
        <path d="M198.388,72.364C185.162,85.58 163.727,85.577 150.498,72.347L46.146,176.703L94.046,224.6L230.886,87.76L206.938,63.812L198.388,72.364Z" style="fill:rgb(53,63,73);fill-rule:nonzero;"/>
    </g>
    <g transform="matrix(0.851599,-4.72733e-17,4.72733e-17,0.851599,54.4507,46.9129)">
        <g>
            <path d="M80.371,224.593L94.046,224.6L46.146,176.703L46.146,190.381L80.371,224.593Z" style="fill:rgb(71,79,89);fill-rule:nonzero;"/>
        </g>
    </g>
    <g transform="matrix(0.851599,0,0,0.851599,54.4507,46.9129)">
        <path d="M255.997,177.902C212.916,177.902 177.892,212.844 177.892,255.997C177.892,299.131 212.916,334.092 255.997,334.092C299.15,334.092 334.125,299.131 334.125,255.997C334.121,212.847 299.15,177.902 255.997,177.902ZM255.997,277.587C244.082,277.587 234.397,267.981 234.397,255.997C234.397,244.033 244.082,234.401 255.997,234.401C267.932,234.401 277.597,244.033 277.597,255.997C277.593,267.981 267.928,277.587 255.997,277.587Z" style="fill:rgb(53,63,73);fill-rule:nonzero;"/>
    </g>
    <g transform="matrix(0.851599,0,0,0.851599,54.4507,46.9129)">
        <path d="M255.997,218.472C235.282,218.472 218.476,235.279 218.476,255.997C218.476,276.735 235.283,293.532 255.997,293.532C276.788,293.532 293.538,276.735 293.538,255.997C293.535,235.279 276.787,218.472 255.997,218.472ZM255.997,274.759C245.668,274.759 237.301,266.332 237.301,255.997C237.301,245.665 245.668,237.238 255.997,237.238C266.28,237.238 274.769,245.665 274.769,255.997C274.769,266.332 266.276,274.759 255.997,274.759Z" style="fill:white;fill-rule:nonzero;"/>
    </g>
    <g transform="matrix(0.851599,-4.72733e-17,4.72733e-17,0.851599,54.4507,46.9129)">
        <path d="M263.535,156.897L248.465,156.897L244.098,178.794L267.908,178.794L263.535,156.897Z" style="fill:rgb(71,79,89);fill-rule:nonzero;"/>
    </g>
    <g transform="matrix(0.851599,-4.72733e-17,4.72733e-17,0.851599,54.4507,46.9129)">
        <path d="M312.033,173.862L299.051,166.407L284.279,183.194L304.884,195.046L312.033,173.862Z" style="fill:rgb(71,79,89);fill-rule:nonzero;"/>
    </g>
    <g transform="matrix(0.851599,-4.72733e-17,4.72733e-17,0.851599,54.4507,46.9129)">
        <path d="M355.097,263.541L355.097,248.465L333.2,244.079L333.2,267.908L355.097,263.541Z" style="fill:rgb(71,79,89);fill-rule:nonzero;"/>
    </g>
    <g transform="matrix(0.851599,-4.72733e-17,4.72733e-17,0.851599,54.4507,46.9129)">
        <path d="M345.58,212.916L338.079,199.977L316.948,207.116L328.78,227.721L345.58,212.916Z" style="fill:rgb(71,79,89);fill-rule:nonzero;"/>
    </g>
    <g transform="matrix(0.851599,-4.72733e-17,4.72733e-17,0.851599,54.4507,46.9129)">
        <path d="M199.971,338.072L212.956,345.58L227.731,328.78L207.125,316.948L199.971,338.072Z" style="fill:rgb(71,79,89);fill-rule:nonzero;"/>
    </g>
    <g transform="matrix(0.851599,-4.72733e-17,4.72733e-17,0.851599,54.4507,46.9129)">
        <path d="M156.903,248.465L156.91,263.541L178.784,267.908L178.784,244.079L156.903,248.465Z" style="fill:rgb(71,79,89);fill-rule:nonzero;"/>
    </g>
    <g transform="matrix(0.851599,-4.72733e-17,4.72733e-17,0.851599,54.4507,46.9129)">
        <path d="M212.956,166.407L199.971,173.862L207.125,195.046L227.731,183.194L212.956,166.407Z" style="fill:rgb(71,79,89);fill-rule:nonzero;"/>
    </g>
    <g transform="matrix(0.851599,-4.72733e-17,4.72733e-17,0.851599,54.4507,46.9129)">
        <path d="M173.938,199.977L166.407,212.916L183.204,227.721L195.046,207.116L173.938,199.977Z" style="fill:rgb(71,79,89);fill-rule:nonzero;"/>
    </g>
    <g transform="matrix(0.851599,-4.72733e-17,4.72733e-17,0.851599,54.4507,46.9129)">
        <path d="M338.079,312.019L345.58,299.064L328.78,284.272L316.948,304.875L338.079,312.019Z" style="fill:rgb(71,79,89);fill-rule:nonzero;"/>
    </g>
    <g transform="matrix(0.851599,-4.72733e-17,4.72733e-17,0.851599,54.4507,46.9129)">
        <path d="M166.407,299.064L173.938,312.019L195.046,304.875L183.204,284.272L166.407,299.064Z" style="fill:rgb(71,79,89);fill-rule:nonzero;"/>
    </g>
    <g transform="matrix(0.851599,-4.72733e-17,4.72733e-17,0.851599,54.4507,46.9129)">
        <path d="M248.465,355.103L263.535,355.103L267.908,333.206L244.098,333.206L248.465,355.103Z" style="fill:rgb(71,79,89);fill-rule:nonzero;"/>
    </g>
    <g transform="matrix(0.851599,-4.72733e-17,4.72733e-17,0.851599,54.4507,46.9129)">
        <path d="M299.064,345.58L312.033,338.072L304.884,316.948L284.279,328.78L299.064,345.58Z" style="fill:rgb(71,79,89);fill-rule:nonzero;"/>
    </g>
</svg>
