<?xml version="1.0" encoding="UTF-8" standalone="no"?>
<!DOCTYPE svg PUBLIC "-//W3C//DTD SVG 1.1//EN" "http://www.w3.org/Graphics/SVG/1.1/DTD/svg11.dtd">
<svg width="100%" height="100%" viewBox="0 0 1000 1000" version="1.1" xmlns="http://www.w3.org/2000/svg" xmlns:xlink="http://www.w3.org/1999/xlink" xml:space="preserve" style="fill-rule:evenodd;clip-rule:evenodd;stroke-linejoin:round;stroke-miterlimit:1.41421;">
    <path d="M81.5,647.7C11,409.2 148.6,158.9 388.6,88.9C495.1,57.8 604.1,67.5 698.4,108.7C693.5,115.6 688.9,122.7 684.7,129.7C638.6,119 603.3,133.5 594.5,173C580.6,235.1 637.4,335.8 721.1,397.7C804.8,459.6 884,459.4 897.9,397.3C901.4,381.4 900.4,362.9 895.4,343.2C905.1,337.4 914.6,330.9 924,323.9C934.9,346.1 944,369.5 951.3,394C1021.8,632.4 884.2,882.8 644.2,952.8C404.2,1022.8 151.9,886.1 81.5,647.7ZM667.1,204.7C667.5,204.3 667.8,204 668.1,203.6C776.9,92.3 912.3,26.4 970.4,56.4C1028.5,86.5 944.9,233.1 878.7,312.7C858.6,333.3 837.5,352.4 816.2,369.5C742.2,343.2 686.1,282.8 667.1,204.7ZM11,108.5C0.7,28.8 68.9,4.9 163.2,55.2C185.6,67.1 207.5,82.2 227.9,99.3C171.7,137.9 123.4,189.7 88.4,253.3C46.4,206.7 16.9,153.5 11,108.5Z" style="fill:white;fill-rule:nonzero;"/>
</svg>
