<?xml version="1.0" encoding="UTF-8" standalone="no"?>
<!DOCTYPE svg PUBLIC "-//W3C//DTD SVG 1.1//EN" "http://www.w3.org/Graphics/SVG/1.1/DTD/svg11.dtd">
<svg width="100%" height="100%" viewBox="0 0 256 256" version="1.1" xmlns="http://www.w3.org/2000/svg" xmlns:xlink="http://www.w3.org/1999/xlink" xml:space="preserve" style="fill-rule:evenodd;clip-rule:evenodd;stroke-linejoin:round;stroke-miterlimit:1.41421;">
    <path d="M153.094,165.679L90.309,152.559C90.046,153.067 89.754,153.56 89.433,154.034L146.59,237.412L150.038,233.968L159.762,173.498C156.432,172.091 153.957,169.188 153.094,165.678L153.094,165.679ZM130.19,83.605C127.838,87.213 123.778,89.601 119.154,89.601C118.442,89.601 117.75,89.529 117.07,89.421L88.437,134.222L164.935,101.302C164.911,100.994 164.843,100.706 164.843,100.39C164.843,99.746 164.931,99.122 165.035,98.506L130.19,83.606L130.19,83.605ZM132.27,75.441L169.335,91.289C170.516,90.366 171.867,89.684 173.311,89.281L179.403,51.401L156.194,28.192L130.07,69.07C131.35,70.964 132.109,73.162 132.27,75.442L132.27,75.441ZM209.935,81.933L186.675,58.669L181.619,90.077C182.901,90.721 184.052,91.598 185.015,92.661L209.935,81.933L209.935,81.933ZM154.206,157.406C156.053,154.052 159.477,151.851 163.295,151.562L169.975,110.014C169.451,109.666 168.983,109.25 168.523,108.822L91.585,141.934C91.781,142.738 91.917,143.558 91.981,144.41L154.206,157.406ZM216.271,88.273L189.359,99.853L255.76,128.242L256,128.002L216.271,88.273ZM168.179,173.623L160.091,223.907L207.055,176.943L173.227,169.879C171.93,171.576 170.18,172.874 168.179,173.623L168.179,173.623ZM76.893,160.695C75.193,160.695 73.565,160.403 72.041,159.886L56.441,184.299L50.413,178.275L65.189,155.155C64.824,154.702 64.483,154.228 64.169,153.738L37.401,165.263L31.056,158.918L60.356,146.306L7.385,135.25L0.14,128.002L2.432,125.71L63.517,138.462C64.219,137.129 65.119,135.91 66.185,134.846L36.537,91.601L42.525,85.613L73.5,130.798C74.612,130.54 75.75,130.407 76.892,130.402C78.2,130.402 79.468,130.586 80.68,130.898L109.665,85.545C107.306,83.098 105.987,79.828 105.989,76.429C105.989,75.389 106.121,74.381 106.349,73.413L70.189,57.953L76.532,51.609L110.792,66.261C114.321,63.352 119.125,62.491 123.445,63.993L150.169,22.168L128.002,0L0,128.002L128.002,256.004L140.598,243.408L83.013,159.398C81.086,160.252 79.001,160.694 76.893,160.695L76.893,160.695ZM178.123,111.805L171.327,154.042C173.726,155.969 175.241,158.791 175.523,161.855L214.095,169.907L249.415,134.587L185.663,107.33C183.84,109.758 181.127,111.368 178.123,111.806L178.123,111.805Z" style="fill-rule:nonzero;"/>
</svg>
