<?xml version="1.0" encoding="UTF-8" standalone="no"?>
<!DOCTYPE svg PUBLIC "-//W3C//DTD SVG 1.1//EN" "http://www.w3.org/Graphics/SVG/1.1/DTD/svg11.dtd">
<svg width="100%" height="100%" viewBox="0 0 40 40" version="1.1" xmlns="http://www.w3.org/2000/svg" xmlns:xlink="http://www.w3.org/1999/xlink" xml:space="preserve" style="fill-rule:evenodd;clip-rule:evenodd;stroke-linejoin:round;stroke-miterlimit:1.41421;">
    <g transform="matrix(1.25131,0,0,1.25131,3,0)">
        <path d="M0.25,0C0.112,0 0,0.113 0,0.25L0,16L26,16L26,8L18.25,8C18.112,8 18,7.887 18,7.75L18,0L0.25,0ZM19,0L19,7L26,7L19,0ZM9.5,19.063C8.737,19.063 8.112,19.251 7.625,19.594C7.141,19.935 6.906,20.365 6.906,20.907C6.906,21.311 7.005,21.665 7.219,21.938C7.435,22.209 7.792,22.404 8.282,22.563C8.496,22.633 8.727,22.704 8.97,22.751C9.215,22.795 9.439,22.855 9.658,22.907C9.866,22.956 10.02,23.032 10.127,23.126C10.236,23.217 10.283,23.311 10.283,23.439C10.283,23.577 10.265,23.681 10.189,23.752C10.116,23.822 10.022,23.893 9.908,23.94C9.814,23.976 9.681,23.987 9.533,24.003C9.385,24.019 9.28,24.034 9.189,24.034C8.835,24.034 8.449,23.979 8.064,23.846C7.681,23.713 7.343,23.5 7.033,23.252L6.877,23.252L6.877,24.658C7.189,24.788 7.52,24.885 7.877,24.971C8.236,25.054 8.645,25.096 9.127,25.096C9.96,25.096 10.611,24.922 11.096,24.565C11.583,24.206 11.846,23.763 11.846,23.19C11.846,22.789 11.716,22.44 11.502,22.19C11.291,21.937 10.979,21.742 10.533,21.596C10.306,21.523 10.106,21.481 9.908,21.44C9.713,21.398 9.497,21.359 9.283,21.315C8.957,21.247 8.744,21.146 8.627,21.065C8.51,20.982 8.439,20.875 8.439,20.721C8.439,20.619 8.491,20.518 8.564,20.44C8.637,20.359 8.712,20.323 8.814,20.284C8.929,20.237 9.035,20.206 9.158,20.19C9.283,20.172 9.408,20.159 9.533,20.159C9.887,20.159 10.257,20.219 10.596,20.347C10.937,20.472 11.205,20.628 11.44,20.816L11.596,20.816L11.596,19.472C11.323,19.36 11.002,19.264 10.627,19.191C10.255,19.115 9.885,19.066 9.502,19.066L9.5,19.063ZM15.531,19.063C14.596,19.063 13.843,19.331 13.312,19.876C12.781,20.418 12.531,21.16 12.531,22.095C12.531,23.022 12.781,23.767 13.312,24.314C13.843,24.858 14.596,25.127 15.531,25.127C16.468,25.127 17.187,24.859 17.719,24.314C18.25,23.767 18.531,23.022 18.532,22.095C18.532,21.16 18.253,20.418 17.719,19.876C17.185,19.332 16.464,19.064 15.531,19.063L15.531,19.063ZM2.937,19.188L2.937,20.251L4.281,20.251L4.281,22.564C4.281,22.801 4.258,23.004 4.25,23.158C4.242,23.309 4.216,23.437 4.156,23.564C4.093,23.694 3.992,23.804 3.843,23.877C3.697,23.95 3.491,24.002 3.218,24.002C3.007,24.002 2.822,23.979 2.687,23.939C2.552,23.897 2.437,23.861 2.312,23.814L2.156,23.814L2.156,24.97C2.336,25.006 2.544,25.046 2.781,25.064C3.018,25.085 3.294,25.095 3.562,25.095C3.958,25.095 4.263,25.059 4.531,24.97C4.799,24.879 5.028,24.728 5.219,24.564C5.399,24.41 5.534,24.223 5.625,24.001C5.716,23.777 5.781,23.537 5.781,23.282L5.781,19.188L2.937,19.188L2.937,19.188ZM19.656,19.188L19.656,25.001L21.031,25.001L21.031,21.001L23.5,25.001L24.938,25.001L24.938,19.188L23.563,19.188L23.563,22.501L21.469,19.188L19.656,19.188ZM15.531,20.157C15.718,20.157 15.89,20.18 16.062,20.251C16.236,20.321 16.398,20.439 16.531,20.595C16.661,20.746 16.763,20.944 16.844,21.189C16.925,21.434 16.969,21.746 16.969,22.095C16.969,22.421 16.946,22.697 16.875,22.939C16.805,23.179 16.677,23.387 16.531,23.564C16.401,23.72 16.237,23.832 16.062,23.908C15.888,23.981 15.723,24.033 15.531,24.033C15.338,24.033 15.143,23.981 14.968,23.908C14.794,23.835 14.661,23.718 14.53,23.564C14.4,23.41 14.267,23.212 14.186,22.97C14.108,22.725 14.092,22.441 14.092,22.095C14.092,21.756 14.136,21.444 14.217,21.189C14.3,20.931 14.399,20.741 14.53,20.595C14.671,20.439 14.832,20.319 14.999,20.251C15.168,20.183 15.34,20.157 15.53,20.157L15.531,20.157ZM0,28.001L0,31.752C0,31.89 0.112,32.002 0.25,32.002L25.75,32.002C25.888,32.002 26,31.89 26,31.752L26,28.001L0,28.001L0,28.001Z" style="fill-rule:nonzero;"/>
    </g>
</svg>
