<svg{{ with .size }} height="{{ . }}" {{ end }}id="Layer_1" style="enable-background:new 0 0 67 67;" version="1.1" viewBox="0 0 67 67" width="{{ .size }}" xml:space="preserve" xmlns="http://www.w3.org/2000/svg" xmlns:xlink="http://www.w3.org/1999/xlink"><path d="M37.167,22.283c-2.619,0.953-4.274,3.411-4.086,6.101  l0.063,1.038l-1.048-0.127c-3.813-0.487-7.145-2.139-9.974-4.915l-1.383-1.377l-0.356,1.017c-0.754,2.267-0.272,4.661,1.299,6.271  c0.838,0.89,0.649,1.017-0.796,0.487c-0.503-0.169-0.943-0.296-0.985-0.233c-0.146,0.149,0.356,2.076,0.754,2.839  c0.545,1.06,1.655,2.097,2.871,2.712l1.027,0.487l-1.215,0.021c-1.173,0-1.215,0.021-1.089,0.467  c0.419,1.377,2.074,2.839,3.918,3.475l1.299,0.444l-1.131,0.678c-1.676,0.976-3.646,1.526-5.616,1.568  C19.775,43.256,19,43.341,19,43.405c0,0.211,2.557,1.397,4.044,1.864c4.463,1.377,9.765,0.783,13.746-1.568  c2.829-1.673,5.657-5,6.978-8.221c0.713-1.716,1.425-4.851,1.425-6.354c0-0.975,0.063-1.102,1.236-2.267  c0.692-0.678,1.341-1.419,1.467-1.631c0.21-0.403,0.188-0.403-0.88-0.043c-1.781,0.636-2.033,0.551-1.152-0.402  c0.649-0.678,1.425-1.907,1.425-2.267c0-0.063-0.314,0.042-0.671,0.233c-0.377,0.212-1.215,0.53-1.844,0.72l-1.131,0.361l-1.027-0.7  c-0.566-0.381-1.361-0.805-1.781-0.932C39.766,21.902,38.131,21.944,37.167,22.283z M33,64C16.432,64,3,50.569,3,34S16.432,4,33,4  s30,13.431,30,30S49.568,64,33,64z" style="fill-rule:evenodd;clip-rule:evenodd;fill:{{ .fill }};"/></svg>
