<svg xmlns:dc="http://purl.org/dc/elements/1.1/" xmlns:cc="http://creativecommons.org/ns#" xmlns:rdf="http://www.w3.org/1999/02/22-rdf-syntax-ns#" xmlns:svg="http://www.w3.org/2000/svg" xmlns="http://www.w3.org/2000/svg" xmlns:sodipodi="http://sodipodi.sourceforge.net/DTD/sodipodi-0.dtd" xmlns:inkscape="http://www.inkscape.org/namespaces/inkscape" version="1.1" x="0px" y="0px" viewBox="0 0 100 100">
  <g transform="translate(0,-952.36218)">
    <path style="font-size:medium;font-style:normal;font-variant:normal;font-weight:normal;font-stretch:normal;text-indent:0;text-align:start;text-decoration:none;line-height:normal;letter-spacing:normal;word-spacing:normal;text-transform:none;direction:ltr;block-progression:tb;writing-mode:lr-tb;text-anchor:start;baseline-shift:baseline;opacity:1;color:#000000;fill:#000000;fill-opacity:1;stroke:none;stroke-width:4.59459686000000020;marker:none;visibility:visible;display:inline;overflow:visible;enable-background:accumulate;font-family:Sans;-inkscape-font-specification:Sans" d="M 45,6 C 23.484595,6 6,23.48459 6,45 c 0,21.51545 17.484595,39 39,39 7.216183,0 13.976999,-1.978303 19.78125,-5.40625 l 2.3125,7.9375 c 0.399602,1.306461 2.336587,1.799844 3.3125,0.84375 L 74,83.78125 l 9.59375,9.625 C 83.9572,93.773596 84.484682,94 85,94 c 0.535945,0 1.059354,-0.21155 1.4375,-0.59375 L 93.40625,86.375 C 93.759787,86.017399 94,85.504187 94,85 94,84.464803 93.783667,83.944255 93.40625,83.5625 L 83.84375,73.96875 87.4375,70.375 c 0.985383,-0.981808 0.464991,-2.970451 -0.875,-3.34375 L 78.65625,64.75 C 82.062754,58.954972 84,52.195019 84,45 84,23.48459 66.515405,6 45,6 z m -2,4.28125 0,14.28125 c -4.089365,0.109273 -8.019747,0.512478 -11.6875,1.21875 0.70119,-2.206406 1.501166,-4.252332 2.40625,-6.0625 2.638218,-5.276433 5.930878,-8.506898 9.28125,-9.4375 z m 4,0 c 3.350371,0.930602 6.643032,4.161067 9.28125,9.4375 0.905084,1.810168 1.70506,3.856094 2.40625,6.0625 C 55.019749,25.074978 51.089372,24.671773 47,24.5625 z M 34.1875,11.6875 c -1.522642,1.770515 -2.881834,3.888669 -4.0625,6.25 -1.31585,2.631698 -2.46085,5.606387 -3.34375,8.84375 -3.237369,0.8829 -6.212048,2.027901 -8.84375,3.34375 -2.361195,1.180596 -4.479839,2.542334 -6.25,4.0625 3.446423,-10.637548 11.862453,-19.053578 22.5,-22.5 z m 21.625,0 c 10.656278,3.452491 19.064971,11.898315 22.5,22.5625 -1.771337,-1.539118 -3.871735,-2.935868 -6.25,-4.125 -2.631699,-1.315849 -5.606385,-2.46085 -8.84375,-3.34375 -0.8829,-3.237363 -2.0279,-6.212052 -3.34375,-8.84375 -1.184113,-2.368224 -2.532828,-4.482318 -4.0625,-6.25 z M 43,28.53125 43,43 28.53125,43 c 0.1362,-4.569497 0.72815,-8.906858 1.625,-12.84375 3.936898,-0.89685 8.274268,-1.4888 12.84375,-1.625 z m 4,0 c 4.569491,0.1362 8.906855,0.72815 12.84375,1.625 0.89685,3.936892 1.4888,8.274253 1.625,12.84375 L 47,43 z M 25.78125,31.3125 C 25.074979,34.980249 24.671773,38.910624 24.5625,43 l -14.28125,0 c 0.9306,-3.350367 4.161058,-6.643033 9.4375,-9.28125 1.810171,-0.905084 3.856089,-1.70506 6.0625,-2.40625 z m 38.4375,0 c 2.206408,0.70119 4.252331,1.501166 6.0625,2.40625 5.276436,2.638217 8.506898,5.930883 9.4375,9.28125 L 65.4375,43 C 65.328227,38.910624 64.925021,34.980249 64.21875,31.3125 z M 10.28125,47 24.5625,47 c 0.109273,4.089378 0.512478,8.019754 1.21875,11.6875 -2.206411,-0.701197 -4.252329,-1.501155 -6.0625,-2.40625 C 14.442307,53.643083 11.21185,50.350373 10.28125,47 z m 18.25,0 L 43,47 43,61.46875 C 38.430518,61.332551 34.093148,60.740608 30.15625,59.84375 29.2594,55.906856 28.66745,51.569484 28.53125,47 z M 47,47 61.46875,47 c -0.1362,4.569484 -0.72815,8.906856 -1.625,12.84375 -3.936895,0.896858 -8.274259,1.488801 -12.84375,1.625 z m 18.4375,0 14.28125,0 c -0.930602,3.350373 -4.161064,6.643083 -9.4375,9.28125 -1.810169,0.905095 -3.856092,1.705053 -6.0625,2.40625 C 64.925022,55.019754 65.328227,51.089378 65.4375,47 z m 12.875,8.78125 c -0.894994,2.761884 -2.143595,5.368426 -3.65625,7.78125 l -6.625,-1.90625 c 1.418597,-0.544564 2.76298,-1.147119 4.03125,-1.78125 2.37111,-1.185548 4.481887,-2.56023 6.25,-4.09375 z m -66.625,0.03125 c 1.770483,1.520913 3.890879,2.882948 6.25,4.0625 2.631701,1.315842 5.606381,2.46085 8.84375,3.34375 0.8829,3.237364 2.0279,6.212029 3.34375,8.84375 1.184625,2.369235 2.533064,4.4826 4.0625,6.25 -10.637547,-3.446422 -19.053577,-11.862452 -22.5,-22.5 z m 19.625,8.40625 C 34.980253,64.925024 38.910634,65.328227 43,65.4375 l 0,14.28125 c -3.35037,-0.930586 -6.643032,-4.161 -9.28125,-9.4375 -0.905084,-1.810162 -1.70506,-3.856093 -2.40625,-6.0625 z m 27.375,0 c -0.70119,2.206407 -1.501165,4.252338 -2.40625,6.0625 -2.638219,5.2765 -5.930881,8.506914 -9.28125,9.4375 L 47,65.4375 c 4.089372,-0.109273 8.019749,-0.512476 11.6875,-1.21875 z m 6.25,0.6875 17.28125,5.03125 -2.625,2.625 c -0.749546,0.741596 -0.749546,2.102154 0,2.84375 L 89.1875,84.96875 85,89.15625 75.40625,79.5625 c -0.739355,-0.730954 -2.073145,-0.730954 -2.8125,0 L 70,82.15625 z M 61.65625,68 l 1.9375,6.625 c -2.416393,1.520807 -5.014712,2.756002 -7.78125,3.65625 1.523396,-1.763884 2.881744,-3.857253 4.0625,-6.21875 0.638229,-1.276468 1.23382,-2.63383 1.78125,-4.0625 z" transform="translate(0,952.36218)" />
  </g>
</svg>
