<svg width="531" height="600" viewBox="0 0 531 600" fill="none" xmlns="http://www.w3.org/2000/svg">
<g clip-path="url(#clip0_4_14)">
<mask id="mask0_4_14" style="mask-type:luminance" maskUnits="userSpaceOnUse" x="0" y="0" width="532" height="600">
<path d="M0 0H531.001V600H0V0Z" fill="white"/>
</mask>
<g mask="url(#mask0_4_14)">
<path d="M512.069 135.868C522.479 141.877 531.001 156.626 531.001 168.644V431.374C531.001 443.391 522.479 458.141 512.069 464.15L284.425 595.493C274.015 601.502 256.969 601.502 246.56 595.493L18.9326 464.15C8.52267 458.141 0 443.391 0 431.374V168.644C0 156.626 8.52267 141.877 18.9326 135.868L246.56 4.51551C256.969 -1.49345 274.015 -1.49345 284.425 4.51551" fill="#FF41B4"/>
</g>
<path d="M475.997 159.588C486.407 165.597 494.93 180.346 494.93 192.364V413.466C494.93 425.484 486.407 440.233 475.997 446.242L284.425 556.776C274.015 562.785 256.969 562.785 246.56 556.776L55.0045 446.242C44.5945 440.233 36.0719 425.484 36.0719 413.466V192.364C36.0719 180.346 44.5945 165.597 55.0045 159.588L246.56 49.0536C256.969 43.0446 274.015 43.0446 284.425 49.0536" fill="#CB007C"/>
<path d="M81.8834 291.29H124.548V252.642H139.441V351.482H124.548V305.322H81.8834V351.482H66.9559V252.642H81.8834V291.29Z" fill="white"/>
<path d="M178.031 252.642V312.185C178.031 320.678 179.415 326.883 182.199 330.792C186.341 336.485 192.173 339.328 199.688 339.328C207.22 339.328 213.061 336.485 217.212 330.792C219.987 326.994 221.379 320.789 221.379 312.185V252.642H236.307V316.282C236.307 326.687 233.053 335.256 226.571 341.991C219.261 349.528 210.295 353.292 199.688 353.292C189.048 353.292 180.098 349.528 172.839 341.991C166.349 335.256 163.104 326.687 163.104 316.282V252.642H178.031Z" fill="white"/>
<path d="M81.8791 252.641H66.9516V351.481H81.8791V305.33H124.535V351.481H139.454V252.641H124.535V291.307H81.8791V252.641Z" stroke="white" stroke-width="4" stroke-miterlimit="10"/>
<path d="M163.152 252.64V316.272C163.152 326.686 166.397 335.264 172.887 342.007C180.146 349.518 189.087 353.273 199.728 353.273C210.351 353.273 219.318 349.518 226.619 342.007C233.118 335.264 236.355 326.686 236.355 316.272V252.64H221.436V312.133C221.436 320.745 220.044 326.95 217.277 330.748C213.126 336.424 207.285 339.258 199.728 339.258C192.204 339.258 186.38 336.424 182.238 330.748C179.463 326.822 178.071 320.617 178.071 312.133V252.64H163.152Z" stroke="white" stroke-width="4" stroke-miterlimit="10"/>
<path d="M310.923 299.997H351.777V303.275C351.777 310.701 350.898 317.281 349.147 323.009C347.439 328.292 344.553 333.243 340.505 337.86C331.325 348.171 319.642 353.327 305.458 353.327C291.632 353.327 279.787 348.342 269.932 338.373C260.069 328.343 255.142 316.3 255.142 302.25C255.142 287.919 260.146 275.748 270.172 265.753C280.206 255.741 292.426 250.73 306.824 250.73C314.536 250.73 321.752 252.31 328.447 255.442C334.86 258.609 341.171 263.73 347.371 270.806L336.713 281.014C328.601 270.208 318.72 264.797 307.063 264.797C296.611 264.797 287.84 268.407 280.761 275.62C273.656 282.704 270.103 291.581 270.103 302.25C270.103 313.27 274.049 322.343 281.956 329.461C289.352 336.085 297.362 339.397 305.97 339.397C313.323 339.397 319.924 336.921 325.782 331.954C331.632 326.978 334.903 320.994 335.586 314.029H310.923V299.997Z" fill="white"/>
<path d="M310.915 314.036H335.569C334.886 320.975 331.624 326.933 325.774 331.918C319.924 336.851 313.323 339.318 305.979 339.318C297.354 339.318 289.352 336.015 281.965 329.4C274.058 322.273 270.112 313.2 270.112 302.189C270.112 291.52 273.656 282.643 280.744 275.558C287.832 268.346 296.611 264.744 307.072 264.744C318.72 264.744 328.609 270.147 336.722 280.936L347.354 270.761C341.163 263.694 334.869 258.581 328.456 255.44C321.761 252.299 314.544 250.72 306.816 250.72C292.427 250.72 280.215 255.739 270.18 265.768C260.138 275.755 255.125 287.918 255.125 302.257C255.125 316.298 260.052 328.333 269.924 338.362C279.788 348.349 291.632 353.342 305.467 353.342C319.643 353.342 331.317 348.178 340.505 337.85C344.562 333.241 347.44 328.29 349.147 322.998C350.898 317.28 351.769 310.707 351.769 303.281V300.012H310.915V314.036Z" stroke="white" stroke-width="4" stroke-miterlimit="10"/>
<path d="M368.248 301.602C368.248 287.698 373.346 275.748 383.551 265.753C393.705 255.792 405.908 250.799 420.169 250.799C434.26 250.799 446.344 255.835 456.412 265.89C466.54 275.978 471.613 288.073 471.613 302.182C471.613 316.411 466.532 328.48 456.378 338.373C446.147 348.325 433.824 353.293 419.418 353.293C406.642 353.293 395.174 348.871 385.02 340.011C373.833 330.255 368.248 317.444 368.248 301.602ZM383.278 301.807C383.278 312.732 386.95 321.72 394.311 328.745C401.595 335.803 410.024 339.329 419.589 339.329C429.965 339.329 438.726 335.744 445.857 328.574C452.979 321.319 456.549 312.476 456.549 302.046C456.549 291.513 453.022 282.679 445.994 275.552C438.974 268.39 430.306 264.797 419.999 264.797C409.7 264.797 400.998 268.39 393.901 275.552C386.813 282.636 383.278 291.385 383.278 301.807Z" fill="white"/>
<mask id="mask1_4_14" style="mask-type:luminance" maskUnits="userSpaceOnUse" x="275" y="157" width="257" height="291">
<path d="M275.458 157.325H531.001V447.94H275.458V157.325Z" fill="white"/>
</mask>
<g mask="url(#mask1_4_14)">
<path d="M385.014 340.026C395.177 348.861 406.637 353.273 419.404 353.273C433.836 353.273 446.15 348.306 456.364 338.362C466.526 328.461 471.607 316.4 471.607 302.197C471.607 288.063 466.543 275.968 456.424 265.896C446.347 255.824 434.263 250.788 420.173 250.788C405.911 250.788 393.699 255.781 383.537 265.768C373.332 275.754 368.234 287.704 368.234 301.617C368.234 317.45 373.827 330.253 385.014 340.026ZM393.913 275.55C401.001 268.388 409.694 264.803 419.985 264.803C430.318 264.803 438.986 268.388 445.988 275.55C453.033 282.668 456.552 291.494 456.552 302.027C456.552 312.431 452.982 321.265 445.86 328.512C438.729 335.673 429.976 339.258 419.6 339.258C410.036 339.258 401.599 335.742 394.297 328.7C386.953 321.667 383.281 312.687 383.281 301.779C383.281 291.374 386.825 282.625 393.913 275.55Z" stroke="white" stroke-width="4" stroke-miterlimit="10"/>
</g>
<path d="M457.688 389.839C457.688 389.839 451.684 389.959 441.172 390.155C430.659 390.317 415.646 390.727 397.628 390.889C379.617 391.043 358.592 391.393 336.073 391.453C313.545 391.529 289.523 391.615 265.501 391.7C241.478 391.615 217.456 391.529 194.928 391.453C172.409 391.384 151.384 391.043 133.365 390.889C115.355 390.719 100.333 390.317 89.8296 390.155C79.3171 389.959 73.3052 389.839 73.3052 389.839V389.626H457.688" fill="white"/>
<path d="M73.3137 213.66C73.3137 213.66 79.3172 213.54 89.8296 213.344C100.342 213.19 115.355 212.772 133.374 212.61C151.393 212.456 172.409 212.106 194.928 212.046C217.456 211.97 241.478 211.884 265.501 211.799C289.523 211.884 313.545 211.97 336.065 212.046C358.592 212.115 379.609 212.465 397.628 212.618C415.646 212.78 430.659 213.19 441.172 213.344C451.684 213.54 457.688 213.66 457.688 213.66V213.873H73.3137" fill="white"/>
<path d="M112.991 432.463H106.467L104.486 437.345H103.529L109.746 422.016L115.929 437.345H114.972L112.991 432.463ZM112.65 431.575L109.746 424.44L106.843 431.575H112.65Z" fill="white"/>
<path d="M129.721 423.415H124.666V428.775H129.585V429.663H124.666V437.345H123.744V422.527H129.721V423.415Z" fill="white"/>
<path d="M135.895 428.878C134.888 428.878 134.042 429.271 133.368 430.039C132.702 430.816 132.377 431.72 132.377 432.736C132.377 433.829 132.702 434.776 133.368 435.57C134.042 436.347 134.913 436.731 135.964 436.731C137.074 436.731 137.953 436.347 138.594 435.57C139.226 434.776 139.55 433.794 139.55 432.634C139.55 431.567 139.2 430.679 138.526 429.971C137.86 429.245 136.98 428.878 135.895 428.878ZM140.37 428.263V437.345H139.482V435.706H139.448C139.123 436.278 138.637 436.739 137.979 437.072C137.339 437.388 136.673 437.55 135.998 437.55C134.632 437.55 133.53 437.098 132.719 436.184C131.899 435.254 131.489 434.102 131.489 432.736C131.489 431.396 131.899 430.278 132.719 429.39C133.53 428.511 134.614 428.059 135.964 428.059C136.664 428.059 137.33 428.221 137.945 428.537C138.551 428.835 139.055 429.271 139.448 429.834H139.482V428.263H140.37Z" fill="white"/>
<path d="M148.007 429.527L147.221 429.902C146.897 429.228 146.359 428.878 145.616 428.878C145.223 428.878 144.873 429.032 144.557 429.322C144.232 429.595 144.079 429.928 144.079 430.312C144.079 430.705 144.224 431.02 144.523 431.268C144.813 431.524 145.18 431.729 145.616 431.882C146.043 432.019 146.478 432.181 146.914 432.36C147.366 432.548 147.742 432.83 148.041 433.214C148.357 433.607 148.519 434.11 148.519 434.716C148.519 435.536 148.229 436.227 147.665 436.765C147.093 437.294 146.393 437.55 145.582 437.55C144.804 437.55 144.13 437.337 143.566 436.901C142.994 436.475 142.618 435.877 142.439 435.126L143.293 434.853C143.677 436.108 144.437 436.731 145.582 436.731C146.12 436.731 146.606 436.543 147.016 436.15C147.418 435.749 147.631 435.254 147.631 434.682C147.631 434.187 147.469 433.811 147.153 433.555C146.854 433.308 146.418 433.077 145.855 432.873C145.419 432.719 145.086 432.591 144.864 432.497C144.659 432.412 144.395 432.258 144.079 432.053C143.78 431.857 143.549 431.609 143.395 431.336C143.259 431.072 143.19 430.747 143.19 430.38C143.19 429.706 143.43 429.143 143.908 428.707C144.403 428.281 145.001 428.059 145.684 428.059C146.137 428.059 146.581 428.204 147.016 428.468C147.469 428.741 147.802 429.1 148.007 429.527Z" fill="white"/>
<path d="M151.764 429.083V437.346H150.876V429.083H149.886V428.264H150.876V425.021H151.764V428.264H153.37V429.083H151.764Z" fill="white"/>
<path d="M165.699 423.143C165.17 423.143 164.726 423.356 164.367 423.757C164 424.167 163.821 424.653 163.821 425.191C163.821 425.447 163.863 425.712 163.957 425.976C164.043 426.232 164.145 426.446 164.265 426.625C164.376 426.787 164.521 427.018 164.709 427.308C164.888 427.581 165.025 427.794 165.119 427.922C165.247 427.811 165.469 427.649 165.768 427.444C166.058 427.248 166.28 427.086 166.417 426.966C166.57 426.838 166.758 426.659 166.963 426.454C167.16 426.232 167.305 426.002 167.373 425.771C167.458 425.524 167.51 425.259 167.51 424.986C167.51 424.466 167.322 424.03 166.963 423.689C166.622 423.33 166.195 423.143 165.699 423.143ZM171.131 437.346L169.252 434.887C168.244 435.732 167.296 436.407 166.417 436.902C165.546 437.397 164.666 437.653 163.786 437.653C162.693 437.653 161.762 437.269 161.019 436.492C160.285 435.724 159.926 434.802 159.926 433.727C159.926 433.231 160.029 432.753 160.234 432.293C160.43 431.823 160.652 431.422 160.883 431.098C161.13 430.782 161.506 430.432 162.01 430.039C162.505 429.638 162.881 429.339 163.137 429.152C163.402 428.972 163.838 428.699 164.435 428.332C164.384 428.289 164.256 428.144 164.06 427.888C163.872 427.624 163.744 427.436 163.684 427.342C163.633 427.257 163.53 427.094 163.376 426.864C163.24 426.617 163.146 426.42 163.103 426.284C163.052 426.13 162.992 425.942 162.932 425.737C162.881 425.515 162.864 425.294 162.864 425.089C162.864 424.32 163.146 423.655 163.718 423.108C164.282 422.545 164.965 422.255 165.768 422.255C166.511 422.255 167.151 422.537 167.68 423.074C168.201 423.603 168.466 424.244 168.466 424.986C168.466 425.396 168.389 425.789 168.261 426.147C168.125 426.488 167.894 426.821 167.578 427.137C167.279 427.436 166.989 427.692 166.724 427.888C166.468 428.093 166.118 428.349 165.665 428.639L169.354 433.658L171.233 431.576L171.95 431.985L169.901 434.341L172.155 437.346H171.131ZM164.982 429.083L164.025 429.732C163.547 430.031 163.163 430.287 162.898 430.483C162.625 430.688 162.3 430.97 161.942 431.302C161.575 431.644 161.301 432.011 161.122 432.395C160.934 432.788 160.849 433.197 160.849 433.624C160.849 434.495 161.122 435.237 161.668 435.843C162.232 436.458 162.941 436.765 163.786 436.765C164.324 436.765 164.922 436.612 165.563 436.287C166.22 435.971 166.741 435.664 167.134 435.365C167.535 435.075 168.065 434.665 168.705 434.136L164.982 429.083Z" fill="white"/>
<path d="M194.781 437.345L192.253 425.088H192.219L187.026 437.823L181.868 425.088H181.834L179.307 437.345H178.384L181.561 422.016L187.026 435.502L192.492 422.016L195.669 437.345H194.781Z" fill="white"/>
<path d="M201.225 428.059C202.541 428.059 203.668 428.52 204.607 429.424C205.538 430.338 206.008 431.464 206.008 432.804C206.008 434.153 205.538 435.28 204.607 436.184C203.668 437.098 202.541 437.55 201.225 437.55C199.927 437.55 198.809 437.098 197.878 436.184C196.938 435.254 196.477 434.136 196.477 432.838C196.477 431.524 196.93 430.397 197.844 429.458C198.775 428.528 199.902 428.059 201.225 428.059ZM201.157 428.878C200.081 428.878 199.184 429.271 198.459 430.039C197.724 430.816 197.365 431.754 197.365 432.838C197.365 433.888 197.724 434.802 198.459 435.57C199.184 436.347 200.081 436.731 201.157 436.731C202.267 436.731 203.207 436.355 203.958 435.604C204.727 434.861 205.12 433.931 205.12 432.838C205.12 431.729 204.727 430.79 203.958 430.039C203.207 429.271 202.267 428.878 201.157 428.878Z" fill="white"/>
<path d="M211.715 436.731C212.825 436.731 213.704 436.347 214.345 435.57C214.977 434.776 215.301 433.795 215.301 432.634C215.301 431.567 214.951 430.679 214.277 429.971C213.611 429.245 212.731 428.878 211.646 428.878C210.639 428.878 209.793 429.271 209.119 430.039C208.452 430.816 208.128 431.72 208.128 432.736C208.128 433.829 208.452 434.776 209.119 435.57C209.793 436.347 210.664 436.731 211.715 436.731ZM215.233 437.345V435.706H215.199C214.874 436.278 214.388 436.739 213.73 437.072C213.09 437.388 212.423 437.55 211.749 437.55C210.382 437.55 209.281 437.098 208.47 436.184C207.65 435.254 207.24 434.102 207.24 432.736C207.24 431.396 207.65 430.278 208.47 429.39C209.281 428.511 210.365 428.059 211.715 428.059C212.415 428.059 213.081 428.221 213.696 428.537C214.302 428.835 214.806 429.271 215.199 429.834H215.233V421.128H216.121V437.345H215.233Z" fill="white"/>
<path d="M227.037 432.873H219.146C219.121 434.016 219.454 434.947 220.137 435.672C220.837 436.381 221.725 436.731 222.801 436.731C223.476 436.731 224.099 436.551 224.646 436.184C225.21 435.8 225.671 435.288 226.012 434.648L226.764 435.092C225.893 436.731 224.526 437.55 222.665 437.55C221.367 437.55 220.299 437.098 219.488 436.184C218.668 435.254 218.258 434.119 218.258 432.77C218.258 431.481 218.668 430.372 219.488 429.458C220.299 428.528 221.367 428.059 222.665 428.059C224.005 428.059 225.073 428.528 225.876 429.458C226.67 430.397 227.054 431.533 227.037 432.873ZM219.146 432.053H226.149C226.029 431.191 225.654 430.449 225.022 429.834C224.381 429.202 223.604 428.878 222.699 428.878C221.785 428.878 220.982 429.202 220.308 429.834C219.625 430.449 219.232 431.191 219.146 432.053Z" fill="white"/>
<path d="M230.069 428.263V429.424H230.103C230.505 428.52 231.171 428.059 232.084 428.059C232.4 428.059 232.716 428.135 233.041 428.263L232.563 429.083C232.358 428.955 232.144 428.878 231.948 428.878C231.674 428.878 231.427 428.929 231.23 429.015C231.043 429.108 230.88 429.228 230.752 429.356C230.616 429.475 230.496 429.646 230.411 429.868C230.317 430.099 230.248 430.303 230.206 430.483C230.18 430.645 230.146 430.884 230.103 431.2C230.078 431.498 230.069 431.72 230.069 431.848C230.069 431.985 230.069 432.207 230.069 432.497C230.069 432.591 230.069 432.659 230.069 432.702V437.345H229.181V428.263H230.069Z" fill="white"/>
<path d="M235.696 428.263V429.663H235.73C235.995 429.168 236.362 428.776 236.823 428.502C237.293 428.212 237.831 428.059 238.429 428.059C239.539 428.059 240.316 428.383 240.752 429.015C241.204 429.655 241.435 430.602 241.435 431.848V437.345H240.547V431.848C240.547 431.396 240.521 431.012 240.478 430.688C240.427 430.372 240.333 430.064 240.205 429.766C240.069 429.475 239.838 429.254 239.522 429.117C239.223 428.963 238.83 428.878 238.361 428.878C236.584 428.878 235.696 430.218 235.696 432.873V437.345H234.808V428.263H235.696Z" fill="white"/>
<path d="M258.166 424.405L257.517 424.951C256.765 423.799 255.758 423.21 254.511 423.21C253.708 423.21 253.034 423.492 252.496 424.029C251.966 424.576 251.71 425.25 251.71 426.044C251.71 426.411 251.778 426.744 251.915 427.034C252.043 427.307 252.274 427.572 252.598 427.819C252.931 428.075 253.213 428.254 253.418 428.365C253.614 428.459 253.939 428.613 254.374 428.809L257.209 430.277C258.345 430.986 258.917 431.976 258.917 433.248C258.917 434.46 258.448 435.484 257.517 436.32C256.578 437.14 255.493 437.55 254.272 437.55C253.247 437.55 252.342 437.268 251.573 436.696C250.796 436.107 250.233 435.322 249.899 434.34L250.719 433.999C251.42 435.774 252.615 436.662 254.306 436.662C255.28 436.662 256.133 436.32 256.868 435.638C257.594 434.963 257.961 434.127 257.961 433.145C257.961 432.855 257.884 432.565 257.756 432.292C257.636 432.027 257.508 431.805 257.38 431.643C257.244 431.489 257.013 431.302 256.697 431.097C256.373 430.9 256.142 430.755 256.014 430.687C255.877 430.602 255.613 430.465 255.228 430.277C255.109 430.218 255.015 430.166 254.955 430.141L252.291 428.741C251.266 428.109 250.753 427.222 250.753 426.078C250.753 424.994 251.104 424.089 251.812 423.381C252.513 422.681 253.426 422.322 254.545 422.322C255.288 422.322 255.997 422.519 256.663 422.903C257.32 423.27 257.824 423.773 258.166 424.405Z" fill="white"/>
<path d="M262.243 429.082V437.345H261.354V429.082H260.364V428.263H261.354V425.02H262.243V428.263H263.848V429.082H262.243Z" fill="white"/>
<path d="M268.883 428.878C267.875 428.878 267.029 429.271 266.355 430.039C265.689 430.816 265.364 431.72 265.364 432.736C265.364 433.829 265.689 434.776 266.355 435.57C267.029 436.347 267.9 436.731 268.951 436.731C270.061 436.731 270.941 436.347 271.581 435.57C272.213 434.776 272.538 433.794 272.538 432.634C272.538 431.567 272.187 430.679 271.513 429.971C270.847 429.245 269.967 428.878 268.883 428.878ZM273.357 428.263V437.345H272.469V435.706H272.435C272.111 436.278 271.624 436.739 270.966 437.072C270.326 437.388 269.66 437.55 268.985 437.55C267.619 437.55 266.517 437.098 265.706 436.184C264.886 435.254 264.476 434.102 264.476 432.736C264.476 431.396 264.886 430.278 265.706 429.39C266.517 428.511 267.602 428.059 268.951 428.059C269.651 428.059 270.317 428.221 270.932 428.537C271.538 428.835 272.042 429.271 272.435 429.834H272.469V428.263H273.357Z" fill="white"/>
<path d="M277.373 429.082V437.345H276.485V429.082H275.494V428.263H276.485V425.02H277.373V428.263H278.979V429.082H277.373Z" fill="white"/>
<path d="M281.724 428.263V437.345H280.836V428.263H281.724ZM280.734 424.678C280.888 424.525 281.075 424.439 281.28 424.439C281.502 424.439 281.699 424.525 281.861 424.678C282.015 424.815 282.1 425.003 282.1 425.225C282.1 425.455 282.015 425.651 281.861 425.805C281.699 425.967 281.502 426.044 281.28 426.044C281.075 426.044 280.888 425.967 280.734 425.805C280.572 425.651 280.495 425.455 280.495 425.225C280.495 425.003 280.572 424.815 280.734 424.678Z" fill="white"/>
<path d="M292.067 429.185V430.38C291.179 429.382 290.103 428.878 288.856 428.878C287.806 428.878 286.918 429.271 286.192 430.039C285.457 430.816 285.099 431.729 285.099 432.77C285.099 433.82 285.457 434.742 286.192 435.536C286.918 436.338 287.806 436.731 288.856 436.731C290.197 436.731 291.316 436.184 292.204 435.092V436.287C291.247 437.132 290.137 437.55 288.89 437.55C287.541 437.55 286.422 437.098 285.543 436.184C284.655 435.254 284.211 434.119 284.211 432.77C284.211 431.456 284.655 430.338 285.543 429.424C286.448 428.52 287.575 428.059 288.925 428.059C290.146 428.059 291.196 428.443 292.067 429.185Z" fill="white"/>
<path d="M300.276 422.527L304.443 435.262L309.977 421.776L315.545 435.262L319.644 422.527H320.601L315.579 437.823L309.909 424.132L304.273 437.823L299.32 422.527H300.276Z" fill="white"/>
<path d="M329.036 432.873H321.145C321.119 434.016 321.452 434.947 322.135 435.672C322.836 436.381 323.724 436.731 324.8 436.731C325.474 436.731 326.098 436.551 326.644 436.184C327.208 435.8 327.669 435.288 328.011 434.648L328.762 435.092C327.891 436.731 326.525 437.55 324.663 437.55C323.365 437.55 322.298 437.098 321.486 436.184C320.667 435.254 320.257 434.119 320.257 432.77C320.257 431.481 320.667 430.372 321.486 429.458C322.298 428.528 323.365 428.059 324.663 428.059C326.004 428.059 327.071 428.528 327.874 429.458C328.668 430.397 329.053 431.533 329.036 432.873ZM321.145 432.053H328.147C328.028 431.191 327.652 430.449 327.02 429.834C326.38 429.202 325.603 428.878 324.697 428.878C323.784 428.878 322.981 429.202 322.306 429.834C321.623 430.449 321.23 431.191 321.145 432.053Z" fill="white"/>
<path d="M335.586 436.731C336.67 436.731 337.541 436.347 338.182 435.57C338.839 434.776 339.173 433.829 339.173 432.736C339.173 431.72 338.822 430.816 338.148 430.039C337.482 429.271 336.653 428.878 335.654 428.878C334.535 428.878 333.647 429.262 332.99 430.005C332.349 430.739 332.033 431.661 332.033 432.77C332.033 433.863 332.349 434.802 332.99 435.57C333.647 436.347 334.51 436.731 335.586 436.731ZM331.179 437.345V421.128H332.067V429.834H332.102C332.486 429.271 332.99 428.835 333.605 428.537C334.237 428.221 334.911 428.059 335.62 428.059C336.961 428.059 338.028 428.511 338.831 429.39C339.642 430.278 340.061 431.396 340.061 432.736C340.061 434.102 339.642 435.254 338.831 436.184C338.011 437.098 336.927 437.55 335.586 437.55C334.877 437.55 334.202 437.388 333.57 437.072C332.93 436.739 332.435 436.278 332.102 435.706H332.067V437.345H331.179Z" fill="white"/>
<path d="M346.809 429.527L346.023 429.902C345.699 429.228 345.161 428.878 344.418 428.878C344.025 428.878 343.675 429.032 343.359 429.322C343.035 429.595 342.881 429.928 342.881 430.312C342.881 430.705 343.026 431.02 343.325 431.268C343.615 431.524 343.982 431.729 344.418 431.882C344.845 432.019 345.281 432.181 345.716 432.36C346.169 432.548 346.544 432.83 346.843 433.214C347.159 433.607 347.322 434.11 347.322 434.716C347.322 435.536 347.031 436.227 346.468 436.765C345.895 437.294 345.195 437.55 344.384 437.55C343.607 437.55 342.932 437.337 342.368 436.901C341.796 436.475 341.421 435.877 341.241 435.126L342.095 434.853C342.479 436.108 343.24 436.731 344.384 436.731C344.922 436.731 345.409 436.543 345.819 436.15C346.22 435.749 346.433 435.254 346.433 434.682C346.433 434.187 346.271 433.811 345.955 433.555C345.656 433.308 345.221 433.077 344.657 432.873C344.222 432.719 343.889 432.591 343.667 432.497C343.462 432.412 343.197 432.258 342.881 432.053C342.582 431.857 342.351 431.609 342.198 431.336C342.061 431.072 341.993 430.747 341.993 430.38C341.993 429.706 342.232 429.143 342.71 428.707C343.205 428.281 343.803 428.059 344.486 428.059C344.939 428.059 345.383 428.204 345.819 428.468C346.271 428.741 346.604 429.1 346.809 429.527Z" fill="white"/>
<path d="M350.806 428.263V437.345H349.918V428.263H350.806ZM349.815 424.678C349.969 424.525 350.157 424.439 350.362 424.439C350.584 424.439 350.78 424.525 350.942 424.678C351.096 424.815 351.181 425.003 351.181 425.225C351.181 425.455 351.096 425.651 350.942 425.805C350.78 425.967 350.584 426.044 350.362 426.044C350.157 426.044 349.969 425.967 349.815 425.805C349.653 425.651 349.576 425.455 349.576 425.225C349.576 425.003 349.653 424.815 349.815 424.678Z" fill="white"/>
<path d="M355.171 429.083V437.346H354.283V429.083H353.292V428.264H354.283V425.021H355.171V428.264H356.776V429.083H355.171Z" fill="white"/>
<path d="M366.183 432.873H358.292C358.267 434.016 358.6 434.947 359.283 435.672C359.983 436.381 360.871 436.731 361.947 436.731C362.622 436.731 363.245 436.551 363.792 436.184C364.356 435.8 364.817 435.288 365.158 434.648L365.91 435.092C365.039 436.731 363.672 437.55 361.811 437.55C360.513 437.55 359.445 437.098 358.634 436.184C357.814 435.254 357.404 434.119 357.404 432.77C357.404 431.481 357.814 430.372 358.634 429.458C359.445 428.528 360.513 428.059 361.811 428.059C363.151 428.059 364.219 428.528 365.022 429.458C365.816 430.397 366.2 431.533 366.183 432.873ZM358.292 432.053H365.295C365.175 431.191 364.8 430.449 364.168 429.834C363.527 429.202 362.75 428.878 361.845 428.878C360.931 428.878 360.128 429.202 359.454 429.834C358.771 430.449 358.378 431.191 358.292 432.053Z" fill="white"/>
<path d="M381.206 423.415H375.057V428.775H381.035V429.663H375.057V436.457H381.206V437.345H374.135V422.527H381.206V423.415Z" fill="white"/>
<path d="M384.896 428.263V429.663H384.93C385.195 429.168 385.562 428.776 386.023 428.502C386.493 428.212 387.031 428.059 387.629 428.059C388.739 428.059 389.516 428.383 389.952 429.015C390.404 429.655 390.635 430.602 390.635 431.848V437.345H389.747V431.848C389.747 431.396 389.721 431.012 389.678 430.688C389.627 430.372 389.533 430.064 389.405 429.766C389.269 429.475 389.038 429.254 388.722 429.117C388.423 428.963 388.03 428.878 387.561 428.878C385.784 428.878 384.896 430.218 384.896 432.873V437.345H384.008V428.263H384.896Z" fill="white"/>
<path d="M397.304 428.878C396.296 428.878 395.451 429.271 394.776 430.039C394.11 430.816 393.786 431.72 393.786 432.736C393.786 433.829 394.11 434.776 394.776 435.57C395.451 436.347 396.322 436.731 397.372 436.731C398.483 436.731 399.362 436.347 400.003 435.57C400.635 434.776 400.959 433.794 400.959 432.634C400.959 431.567 400.609 430.679 399.934 429.971C399.268 429.245 398.389 428.878 397.304 428.878ZM401.779 428.263V436.901C401.779 437.49 401.762 437.96 401.745 438.301C401.719 438.634 401.634 439.035 401.506 439.496C401.369 439.966 401.156 440.392 400.891 440.759C400.02 441.912 398.816 442.501 397.27 442.501C396.04 442.501 394.99 442.142 394.127 441.442C393.282 440.759 392.821 439.812 392.761 438.608H393.649C393.709 439.539 394.076 440.281 394.742 440.828C395.417 441.391 396.228 441.681 397.168 441.681C398.483 441.681 399.465 441.229 400.105 440.35C400.626 439.547 400.891 438.395 400.891 436.901V435.775H400.857C400.447 436.321 399.917 436.756 399.285 437.072C398.645 437.388 397.979 437.55 397.304 437.55C396.023 437.55 394.964 437.089 394.127 436.15C393.308 435.22 392.898 434.093 392.898 432.77C392.898 431.456 393.316 430.338 394.162 429.424C395.024 428.52 396.117 428.059 397.441 428.059C398.85 428.059 399.986 428.656 400.857 429.834H400.891V428.263H401.779Z" fill="white"/>
<path d="M406.035 428.263V437.345H405.147V428.263H406.035ZM405.044 424.678C405.198 424.525 405.386 424.439 405.591 424.439C405.813 424.439 406.009 424.525 406.172 424.678C406.325 424.815 406.411 425.003 406.411 425.225C406.411 425.455 406.325 425.651 406.172 425.805C406.009 425.967 405.813 426.044 405.591 426.044C405.386 426.044 405.198 425.967 405.044 425.805C404.882 425.651 404.805 425.455 404.805 425.225C404.805 425.003 404.882 424.815 405.044 424.678Z" fill="white"/>
<path d="M410.297 428.263V429.663H410.332C410.596 429.168 410.964 428.776 411.425 428.502C411.894 428.212 412.432 428.059 413.03 428.059C414.14 428.059 414.917 428.383 415.353 429.015C415.806 429.655 416.036 430.602 416.036 431.848V437.345H415.148V431.848C415.148 431.396 415.122 431.012 415.08 430.688C415.028 430.372 414.934 430.064 414.806 429.766C414.67 429.475 414.439 429.254 414.123 429.117C413.824 428.963 413.431 428.878 412.962 428.878C411.186 428.878 410.297 430.218 410.297 432.873V437.345H409.409V428.263H410.297Z" fill="white"/>
<path d="M426.941 432.873H419.05C419.025 434.016 419.358 434.947 420.041 435.672C420.741 436.381 421.629 436.731 422.705 436.731C423.38 436.731 424.003 436.551 424.55 436.184C425.114 435.8 425.575 435.288 425.916 434.648L426.668 435.092C425.797 436.731 424.43 437.55 422.569 437.55C421.271 437.55 420.203 437.098 419.392 436.184C418.572 435.254 418.162 434.119 418.162 432.77C418.162 431.481 418.572 430.372 419.392 429.458C420.203 428.528 421.271 428.059 422.569 428.059C423.909 428.059 424.977 428.528 425.78 429.458C426.574 430.397 426.958 431.533 426.941 432.873ZM419.05 432.053H426.053C425.933 431.191 425.558 430.449 424.926 429.834C424.285 429.202 423.508 428.878 422.603 428.878C421.689 428.878 420.886 429.202 420.212 429.834C419.529 430.449 419.136 431.191 419.05 432.053Z" fill="white"/>
</g>
<defs>
<clipPath id="clip0_4_14">
<rect width="531" height="600" fill="white"/>
</clipPath>
</defs>
</svg>
