<svg width="325" height="364" viewBox="0 0 325 364" fill="none" xmlns="http://www.w3.org/2000/svg">
<g clip-path="url(#clip0_4_216)">
<mask id="mask0_4_216" style="mask-type:luminance" maskUnits="userSpaceOnUse" x="0" y="0" width="326" height="364">
<path d="M0 0H325.001V363.999H0V0Z" fill="white"/>
</mask>
<g mask="url(#mask0_4_216)">
<path d="M309.224 79.2331C317.899 84.2353 325.001 96.5065 325.001 106.511V257.488C325.001 267.492 317.899 279.771 309.224 284.773L178.271 360.247C169.596 365.249 155.391 365.249 146.716 360.247L15.7775 284.773C7.10237 279.771 0 267.492 0 257.488V106.511C0 96.5065 7.10237 84.2353 15.7775 79.2331L146.716 3.75169C155.391 -1.25056 169.596 -1.25056 178.271 3.75169" fill="#FF41B4"/>
</g>
<path d="M287.148 93.7353C295.823 98.7376 302.925 111.016 302.925 121.02V246.538C302.925 256.543 295.823 268.821 287.148 273.823L178.271 336.572C169.596 341.574 155.391 341.574 146.716 336.572L37.8532 273.823C29.1781 268.821 22.0757 256.543 22.0757 246.538V121.02C22.0757 111.016 29.1781 98.7376 37.8532 93.7353L146.716 30.987C155.391 25.9847 169.596 25.9847 178.271 30.9798" fill="#CB007C"/>
<path d="M50.093 176.726H76.1683V153.136H85.2775V213.475H76.1683V185.309H50.093V213.475H40.9553V153.136H50.093V176.726Z" fill="white"/>
<path d="M108.941 153.136V189.487C108.941 194.66 109.78 198.454 111.474 200.856C114.015 204.324 117.58 206.057 122.178 206.057C126.782 206.057 130.355 204.324 132.881 200.856C134.582 198.533 135.443 194.738 135.443 189.487V153.136H144.552V191.988C144.552 198.341 142.567 203.57 138.603 207.677C134.141 212.282 128.661 214.584 122.178 214.584C115.666 214.584 110.186 212.282 105.752 207.677C101.781 203.57 99.803 198.341 99.803 191.988V153.136H108.941Z" fill="white"/>
<path d="M50.108 153.045H40.9774V213.477H50.108V185.254H76.2188V213.477H85.3495V153.045H76.2188V176.684H50.108V153.045Z" stroke="white" stroke-width="4" stroke-miterlimit="10"/>
<path d="M99.8531 153.045V191.947C99.8531 198.314 101.839 203.558 105.817 207.686C110.258 212.276 115.73 214.571 122.242 214.571C128.747 214.571 134.233 212.276 138.703 207.686C142.674 203.558 144.659 198.314 144.659 191.947V153.045H135.529V189.418C135.529 194.683 134.675 198.477 132.981 200.801C130.447 204.268 126.868 206.002 122.242 206.002C117.637 206.002 114.072 204.268 111.539 200.801C109.838 198.399 108.991 194.605 108.991 189.418V153.045H99.8531Z" stroke="white" stroke-width="4" stroke-miterlimit="10"/>
<path d="M190.231 182.041H215.196V184.059C215.196 188.592 214.663 192.6 213.602 196.081C212.556 199.322 210.791 202.348 208.307 205.148C202.707 211.458 195.569 214.613 186.901 214.613C178.453 214.613 171.209 211.564 165.181 205.461C159.16 199.343 156.157 192.003 156.157 183.434C156.157 174.687 159.217 167.255 165.352 161.151C171.479 155.033 178.937 151.971 187.726 151.971C192.444 151.971 196.864 152.93 200.963 154.841C204.87 156.774 208.72 159.908 212.52 164.221L206.002 170.445C201.048 163.858 195.006 160.554 187.897 160.554C181.499 160.554 176.133 162.764 171.813 167.176C167.465 171.497 165.295 176.918 165.295 183.434C165.295 190.141 167.714 195.676 172.554 200.032C177.065 204.068 181.955 206.086 187.214 206.086C191.704 206.086 195.739 204.58 199.312 201.567C202.892 198.519 204.899 194.874 205.318 190.624H190.231V182.041Z" fill="white"/>
<path d="M190.291 190.575H205.385C204.965 194.825 202.966 198.463 199.386 201.511C195.806 204.531 191.771 206.037 187.273 206.037C181.993 206.037 177.097 204.019 172.571 199.969C167.738 195.613 165.319 190.071 165.319 183.335C165.319 176.812 167.489 171.391 171.83 167.056C176.164 162.644 181.537 160.441 187.942 160.441C195.073 160.441 201.122 163.745 206.09 170.346L212.601 164.122C208.808 159.802 204.951 156.675 201.037 154.75C196.931 152.831 192.518 151.872 187.786 151.872C178.976 151.872 171.503 154.934 165.361 161.066C159.22 167.17 156.153 174.609 156.153 183.378C156.153 191.961 159.17 199.322 165.205 205.454C171.24 211.558 178.492 214.613 186.96 214.613C195.643 214.613 202.788 211.451 208.403 205.142C210.886 202.321 212.651 199.294 213.697 196.061C214.772 192.565 215.306 188.543 215.306 184.003V182.006H190.291V190.575Z" stroke="white" stroke-width="4" stroke-miterlimit="10"/>
<path d="M225.383 183.036C225.383 174.552 228.493 167.254 234.72 161.151C240.919 155.054 248.391 151.999 257.123 151.999C265.713 151.999 273.1 155.083 279.27 161.236C285.455 167.375 288.55 174.758 288.55 183.377C288.55 192.06 285.44 199.421 279.242 205.461C272.993 211.543 265.457 214.584 256.639 214.584C248.84 214.584 241.83 211.884 235.631 206.484C228.799 200.522 225.383 192.699 225.383 183.036ZM234.578 183.149C234.578 189.821 236.813 195.307 241.296 199.606C245.751 203.912 250.903 206.057 256.753 206.057C263.087 206.057 268.439 203.869 272.808 199.492C277.171 195.065 279.356 189.658 279.356 183.292C279.356 176.875 277.199 171.482 272.894 167.119C268.602 162.75 263.308 160.554 257.009 160.554C250.704 160.554 245.388 162.75 241.068 167.119C236.741 171.44 234.578 176.79 234.578 183.149Z" fill="white"/>
<mask id="mask1_4_216" style="mask-type:luminance" maskUnits="userSpaceOnUse" x="147" y="74" width="179" height="219">
<path d="M147.57 74.5791H325.001V292.859H147.57V74.5791Z" fill="white"/>
</mask>
<g mask="url(#mask1_4_216)">
<path d="M235.645 206.471C241.865 211.871 248.882 214.571 256.696 214.571C265.528 214.571 273.071 211.53 279.32 205.448C285.532 199.401 288.65 192.026 288.65 183.336C288.65 174.703 285.547 167.306 279.355 161.145C273.185 154.985 265.791 151.908 257.166 151.908C248.434 151.908 240.961 154.964 234.748 161.067C228.5 167.171 225.376 174.482 225.376 182.987C225.376 192.665 228.799 200.495 235.645 206.471ZM241.096 167.05C245.43 162.673 250.754 160.484 257.052 160.484C263.371 160.484 268.68 162.673 272.965 167.05C277.277 171.406 279.434 176.799 279.434 183.236C279.434 189.603 277.249 194.996 272.886 199.43C268.524 203.814 263.165 206.002 256.817 206.002C250.96 206.002 245.8 203.849 241.331 199.543C236.833 195.244 234.585 189.759 234.585 183.087C234.585 176.72 236.755 171.377 241.096 167.05Z" stroke="white" stroke-width="4" stroke-miterlimit="10"/>
</g>
<path d="M280.131 236.953C280.131 236.953 276.452 237.046 270.025 237.216C263.592 237.344 254.397 237.692 243.374 237.82C232.343 237.948 219.476 238.239 205.691 238.296C191.906 238.36 177.203 238.431 162.501 238.495C147.798 238.431 133.095 238.36 119.31 238.289C105.525 238.232 92.6582 237.948 81.6274 237.82C70.6038 237.685 61.4092 237.344 54.9758 237.209C48.5423 237.046 44.8702 236.953 44.8702 236.953V236.769H280.131" fill="white"/>
<path d="M44.8702 129.184C44.8702 129.184 48.5495 129.092 54.9829 128.922C61.4163 128.794 70.6038 128.445 81.6274 128.31C92.6582 128.19 105.525 127.891 119.31 127.842C133.095 127.778 147.798 127.707 162.501 127.643C177.203 127.707 191.906 127.778 205.691 127.842C219.476 127.905 232.343 128.19 243.374 128.318C254.397 128.453 263.585 128.794 270.018 128.929C276.452 129.092 280.131 129.184 280.131 129.184V129.362H44.8702" fill="white"/>
<path d="M109.798 261.907H104.361L102.71 265.971H101.913L107.094 253.21L112.246 265.971H111.449L109.798 261.907ZM109.513 261.168L107.094 255.228L104.674 261.168H109.513Z" fill="white"/>
<path d="M123.74 254.375H119.527V258.837H123.626V259.576H119.527V265.971H118.758V253.636H123.74V254.375Z" fill="white"/>
<path d="M128.885 258.922C128.045 258.922 127.341 259.249 126.779 259.889C126.224 260.535 125.953 261.288 125.953 262.134C125.953 263.044 126.224 263.832 126.779 264.493C127.341 265.14 128.067 265.459 128.942 265.459C129.867 265.459 130.6 265.14 131.134 264.493C131.661 263.832 131.931 263.015 131.931 262.049C131.931 261.161 131.639 260.422 131.077 259.832C130.522 259.228 129.789 258.922 128.885 258.922ZM132.614 258.411V265.971H131.874V264.607H131.846C131.575 265.083 131.17 265.466 130.622 265.744C130.088 266.007 129.533 266.142 128.971 266.142C127.832 266.142 126.914 265.765 126.238 265.005C125.555 264.23 125.213 263.271 125.213 262.134C125.213 261.018 125.555 260.088 126.238 259.349C126.914 258.617 127.818 258.24 128.942 258.24C129.526 258.24 130.081 258.375 130.593 258.638C131.098 258.887 131.518 259.249 131.846 259.718H131.874V258.411H132.614Z" fill="white"/>
<path d="M138.978 259.462L138.323 259.775C138.053 259.214 137.605 258.922 136.986 258.922C136.658 258.922 136.366 259.05 136.103 259.292C135.833 259.519 135.705 259.796 135.705 260.116C135.705 260.443 135.826 260.706 136.075 260.912C136.317 261.125 136.623 261.296 136.986 261.423C137.341 261.537 137.704 261.672 138.067 261.821C138.444 261.978 138.758 262.212 139.007 262.532C139.27 262.859 139.405 263.278 139.405 263.782C139.405 264.465 139.163 265.04 138.694 265.488C138.217 265.928 137.633 266.142 136.957 266.142C136.309 266.142 135.747 265.964 135.278 265.601C134.801 265.246 134.488 264.749 134.338 264.124L135.05 263.896C135.37 264.941 136.003 265.459 136.957 265.459C137.405 265.459 137.811 265.303 138.153 264.976C138.487 264.642 138.665 264.23 138.665 263.754C138.665 263.342 138.53 263.029 138.267 262.816C138.017 262.61 137.655 262.418 137.185 262.248C136.822 262.12 136.544 262.013 136.359 261.935C136.188 261.864 135.968 261.736 135.705 261.566C135.455 261.402 135.263 261.196 135.135 260.969C135.021 260.748 134.964 260.478 134.964 260.173C134.964 259.612 135.164 259.143 135.562 258.78C135.975 258.425 136.473 258.24 137.042 258.24C137.42 258.24 137.79 258.361 138.153 258.581C138.53 258.809 138.807 259.107 138.978 259.462Z" fill="white"/>
<path d="M142.11 259.093V265.971H141.369V259.093H140.544V258.411H141.369V255.711H142.11V258.411H143.447V259.093H142.11Z" fill="white"/>
<path d="M153.722 254.147C153.281 254.147 152.911 254.325 152.612 254.659C152.306 255 152.157 255.405 152.157 255.852C152.157 256.066 152.192 256.286 152.27 256.506C152.342 256.719 152.427 256.897 152.527 257.046C152.619 257.181 152.74 257.373 152.897 257.615C153.046 257.842 153.16 258.02 153.238 258.126C153.345 258.034 153.53 257.899 153.779 257.728C154.021 257.565 154.206 257.43 154.32 257.33C154.448 257.224 154.605 257.075 154.775 256.904C154.939 256.719 155.06 256.528 155.117 256.336C155.188 256.13 155.231 255.909 155.231 255.682C155.231 255.249 155.074 254.886 154.775 254.602C154.491 254.303 154.135 254.147 153.722 254.147ZM158.248 265.971L156.683 263.924C155.843 264.628 155.053 265.189 154.32 265.601C153.594 266.013 152.861 266.226 152.128 266.226C151.217 266.226 150.441 265.907 149.822 265.26C149.21 264.621 148.911 263.853 148.911 262.958C148.911 262.546 148.997 262.148 149.168 261.764C149.331 261.373 149.516 261.039 149.708 260.769C149.915 260.507 150.228 260.215 150.648 259.888C151.061 259.554 151.374 259.306 151.587 259.149C151.808 259 152.171 258.773 152.669 258.467C152.626 258.432 152.52 258.311 152.356 258.098C152.199 257.878 152.093 257.721 152.043 257.643C152 257.572 151.915 257.437 151.787 257.245C151.673 257.039 151.594 256.876 151.559 256.762C151.516 256.634 151.466 256.478 151.416 256.307C151.374 256.122 151.36 255.938 151.36 255.767C151.36 255.128 151.594 254.573 152.071 254.119C152.541 253.65 153.11 253.408 153.779 253.408C154.398 253.408 154.932 253.643 155.373 254.09C155.807 254.531 156.028 255.064 156.028 255.682C156.028 256.023 155.964 256.35 155.857 256.648C155.743 256.933 155.551 257.21 155.288 257.473C155.039 257.721 154.797 257.934 154.576 258.098C154.363 258.268 154.071 258.482 153.694 258.723L156.768 262.901L158.334 261.167L158.932 261.508L157.224 263.47L159.102 265.971H158.248ZM153.124 259.093L152.327 259.633C151.929 259.881 151.609 260.094 151.388 260.258C151.16 260.428 150.89 260.663 150.591 260.94C150.285 261.224 150.057 261.53 149.908 261.849C149.751 262.176 149.68 262.517 149.68 262.873C149.68 263.597 149.908 264.216 150.363 264.72C150.833 265.232 151.424 265.487 152.128 265.487C152.576 265.487 153.075 265.36 153.608 265.09C154.156 264.827 154.59 264.571 154.918 264.322C155.252 264.081 155.694 263.74 156.227 263.299L153.124 259.093Z" fill="white"/>
<path d="M177.957 265.971L175.851 255.768H175.822L171.495 266.369L167.197 255.768H167.168L165.062 265.971H164.293L166.941 253.21L171.495 264.437L176.05 253.21L178.697 265.971H177.957Z" fill="white"/>
<path d="M183.328 258.24C184.424 258.24 185.363 258.624 186.146 259.377C186.922 260.137 187.313 261.075 187.313 262.191C187.313 263.314 186.922 264.251 186.146 265.005C185.363 265.765 184.424 266.142 183.328 266.142C182.246 266.142 181.314 265.765 180.538 265.005C179.755 264.23 179.371 263.299 179.371 262.219C179.371 261.125 179.748 260.187 180.51 259.406C181.286 258.631 182.225 258.24 183.328 258.24ZM183.271 258.922C182.374 258.922 181.627 259.249 181.022 259.889C180.41 260.535 180.111 261.317 180.111 262.219C180.111 263.093 180.41 263.854 181.022 264.493C181.627 265.14 182.374 265.459 183.271 265.459C184.196 265.459 184.979 265.147 185.605 264.521C186.246 263.903 186.573 263.129 186.573 262.219C186.573 261.296 186.246 260.514 185.605 259.889C184.979 259.249 184.196 258.922 183.271 258.922Z" fill="white"/>
<path d="M192.069 265.459C192.994 265.459 193.727 265.14 194.261 264.493C194.788 263.832 195.058 263.015 195.058 262.049C195.058 261.161 194.766 260.422 194.204 259.832C193.649 259.228 192.916 258.922 192.012 258.922C191.173 258.922 190.468 259.249 189.906 259.889C189.351 260.535 189.08 261.289 189.08 262.134C189.08 263.044 189.351 263.832 189.906 264.493C190.468 265.14 191.194 265.459 192.069 265.459ZM195.001 265.971V264.607H194.973C194.702 265.083 194.297 265.467 193.749 265.744C193.215 266.007 192.66 266.142 192.098 266.142C190.959 266.142 190.041 265.765 189.365 265.005C188.682 264.23 188.34 263.271 188.34 262.134C188.34 261.019 188.682 260.088 189.365 259.349C190.041 258.617 190.945 258.24 192.069 258.24C192.653 258.24 193.208 258.375 193.72 258.638C194.226 258.887 194.645 259.249 194.973 259.718H195.001V252.471H195.741V265.971H195.001Z" fill="white"/>
<path d="M204.838 262.248H198.262C198.241 263.2 198.519 263.974 199.088 264.578C199.671 265.168 200.412 265.459 201.308 265.459C201.871 265.459 202.39 265.31 202.845 265.005C203.315 264.685 203.699 264.259 203.984 263.726L204.61 264.095C203.885 265.459 202.746 266.142 201.194 266.142C200.113 266.142 199.223 265.765 198.547 265.005C197.864 264.23 197.522 263.285 197.522 262.162C197.522 261.09 197.864 260.166 198.547 259.406C199.223 258.631 200.113 258.24 201.194 258.24C202.312 258.24 203.201 258.631 203.87 259.406C204.532 260.187 204.852 261.132 204.838 262.248ZM198.262 261.566H204.098C203.998 260.848 203.685 260.23 203.159 259.718C202.625 259.192 201.977 258.922 201.223 258.922C200.461 258.922 199.792 259.192 199.23 259.718C198.661 260.23 198.334 260.848 198.262 261.566Z" fill="white"/>
<path d="M207.365 258.411V259.377H207.393C207.728 258.624 208.283 258.24 209.044 258.24C209.308 258.24 209.571 258.304 209.841 258.411L209.443 259.093C209.272 258.986 209.094 258.922 208.93 258.922C208.703 258.922 208.496 258.965 208.333 259.036C208.176 259.114 208.041 259.214 207.934 259.32C207.82 259.42 207.721 259.562 207.649 259.747C207.571 259.938 207.514 260.109 207.479 260.258C207.457 260.393 207.429 260.592 207.393 260.855C207.372 261.104 207.365 261.288 207.365 261.395C207.365 261.509 207.365 261.693 207.365 261.935C207.365 262.013 207.365 262.07 207.365 262.106V265.971H206.625V258.411H207.365Z" fill="white"/>
<path d="M212.054 258.411V259.576H212.083C212.303 259.164 212.609 258.837 212.994 258.61C213.385 258.368 213.833 258.24 214.332 258.24C215.257 258.24 215.904 258.51 216.267 259.036C216.644 259.569 216.837 260.358 216.837 261.395V265.971H216.096V261.395C216.096 261.018 216.075 260.699 216.039 260.429C215.997 260.166 215.919 259.91 215.812 259.661C215.698 259.42 215.506 259.235 215.242 259.121C214.993 258.993 214.666 258.922 214.275 258.922C212.794 258.922 212.054 260.038 212.054 262.248V265.971H211.314V258.411H212.054Z" fill="white"/>
<path d="M95.7198 274.844L95.1789 275.299C94.5527 274.34 93.7129 273.849 92.6739 273.849C92.0049 273.849 91.4427 274.084 90.9944 274.531C90.5532 274.986 90.3397 275.548 90.3397 276.208C90.3397 276.514 90.3966 276.791 90.5105 277.033C90.6172 277.26 90.8093 277.48 91.0798 277.686C91.3573 277.899 91.5922 278.049 91.763 278.141C91.9267 278.219 92.1971 278.347 92.56 278.511L94.9227 279.733C95.8693 280.322 96.3461 281.147 96.3461 282.205C96.3461 283.214 95.9547 284.067 95.1789 284.763C94.3961 285.445 93.4923 285.787 92.4746 285.787C91.6206 285.787 90.8663 285.552 90.2258 285.076C89.5782 284.586 89.1085 283.932 88.8309 283.115L89.5141 282.831C90.0977 284.309 91.094 285.048 92.5031 285.048C93.3144 285.048 94.0261 284.763 94.6381 284.195C95.243 283.634 95.549 282.937 95.549 282.12C95.549 281.878 95.485 281.637 95.3782 281.41C95.2786 281.189 95.1718 281.005 95.0651 280.87C94.9512 280.742 94.7591 280.585 94.4958 280.415C94.2253 280.251 94.0332 280.131 93.9264 280.074C93.8126 280.003 93.5919 279.889 93.2717 279.733C93.1721 279.683 93.0938 279.64 93.044 279.619L90.8236 278.454C89.9696 277.928 89.5426 277.189 89.5426 276.237C89.5426 275.334 89.8344 274.581 90.4251 273.991C91.0086 273.409 91.7701 273.11 92.7024 273.11C93.3215 273.11 93.9122 273.274 94.4673 273.594C95.0153 273.899 95.4351 274.318 95.7198 274.844Z" fill="white"/>
<path d="M99.1171 278.738V285.616H98.377V278.738H97.5515V278.056H98.377V275.355H99.1171V278.056H100.455V278.738H99.1171Z" fill="white"/>
<path d="M104.651 278.567C103.811 278.567 103.106 278.894 102.544 279.533C101.989 280.18 101.718 280.933 101.718 281.779C101.718 282.688 101.989 283.477 102.544 284.138C103.106 284.784 103.832 285.104 104.707 285.104C105.633 285.104 106.366 284.784 106.899 284.138C107.426 283.477 107.696 282.66 107.696 281.693C107.696 280.805 107.405 280.066 106.842 279.476C106.287 278.872 105.554 278.567 104.651 278.567ZM108.38 278.055V285.616H107.64V284.251H107.611C107.341 284.727 106.935 285.111 106.387 285.388C105.853 285.651 105.298 285.786 104.736 285.786C103.597 285.786 102.679 285.409 102.003 284.649C101.32 283.875 100.978 282.915 100.978 281.779C100.978 280.663 101.32 279.732 102.003 278.993C102.679 278.261 103.583 277.885 104.707 277.885C105.291 277.885 105.846 278.02 106.359 278.283C106.864 278.531 107.284 278.894 107.611 279.363H107.64V278.055H108.38Z" fill="white"/>
<path d="M111.726 278.738V285.616H110.986V278.738H110.16V278.056H110.986V275.355H111.726V278.056H113.064V278.738H111.726Z" fill="white"/>
<path d="M115.352 278.055V285.616H114.612V278.055H115.352ZM114.527 275.071C114.655 274.943 114.811 274.872 114.982 274.872C115.167 274.872 115.331 274.943 115.466 275.071C115.594 275.185 115.665 275.341 115.665 275.526C115.665 275.718 115.594 275.881 115.466 276.009C115.331 276.144 115.167 276.208 114.982 276.208C114.811 276.208 114.655 276.144 114.527 276.009C114.392 275.881 114.328 275.718 114.328 275.526C114.328 275.341 114.392 275.185 114.527 275.071Z" fill="white"/>
<path d="M123.971 278.823V279.817C123.231 278.986 122.335 278.567 121.296 278.567C120.42 278.567 119.68 278.894 119.075 279.533C118.463 280.18 118.164 280.94 118.164 281.807C118.164 282.681 118.463 283.448 119.075 284.109C119.68 284.777 120.42 285.104 121.296 285.104C122.413 285.104 123.345 284.649 124.085 283.74V284.734C123.288 285.438 122.363 285.786 121.324 285.786C120.2 285.786 119.267 285.409 118.534 284.649C117.794 283.875 117.424 282.93 117.424 281.807C117.424 280.713 117.794 279.782 118.534 279.022C119.289 278.268 120.228 277.885 121.353 277.885C122.37 277.885 123.246 278.205 123.971 278.823Z" fill="white"/>
<path d="M130.812 273.281L134.285 283.882L138.897 272.655L143.537 283.882L146.953 273.281H147.75L143.565 286.014L138.84 274.616L134.143 286.014L130.015 273.281H130.812Z" fill="white"/>
<path d="M154.779 281.892H148.203C148.182 282.844 148.46 283.619 149.029 284.223C149.612 284.813 150.353 285.104 151.249 285.104C151.811 285.104 152.331 284.955 152.786 284.649C153.256 284.329 153.64 283.903 153.925 283.37L154.551 283.74C153.825 285.104 152.687 285.786 151.135 285.786C150.054 285.786 149.164 285.409 148.488 284.649C147.805 283.875 147.463 282.93 147.463 281.807C147.463 280.734 147.805 279.81 148.488 279.05C149.164 278.276 150.054 277.885 151.135 277.885C152.253 277.885 153.142 278.276 153.811 279.05C154.473 279.832 154.793 280.777 154.779 281.892ZM148.203 281.21H154.039C153.939 280.492 153.626 279.874 153.1 279.363C152.566 278.837 151.918 278.567 151.164 278.567C150.402 278.567 149.733 278.837 149.171 279.363C148.602 279.874 148.274 280.492 148.203 281.21Z" fill="white"/>
<path d="M160.238 285.104C161.142 285.104 161.867 284.784 162.401 284.138C162.949 283.477 163.227 282.688 163.227 281.779C163.227 280.933 162.935 280.18 162.373 279.533C161.818 278.894 161.127 278.567 160.295 278.567C159.362 278.567 158.622 278.887 158.074 279.505C157.541 280.116 157.277 280.883 157.277 281.807C157.277 282.717 157.541 283.498 158.074 284.138C158.622 284.784 159.341 285.104 160.238 285.104ZM156.566 285.616V272.115H157.306V279.363H157.334C157.654 278.894 158.074 278.531 158.587 278.283C159.113 278.02 159.676 277.885 160.266 277.885C161.384 277.885 162.273 278.261 162.942 278.993C163.618 279.732 163.967 280.663 163.967 281.779C163.967 282.916 163.618 283.875 162.942 284.649C162.259 285.41 161.355 285.786 160.238 285.786C159.647 285.786 159.085 285.651 158.558 285.388C158.025 285.111 157.612 284.727 157.334 284.251H157.306V285.616H156.566Z" fill="white"/>
<path d="M169.591 279.107L168.936 279.42C168.666 278.858 168.217 278.567 167.598 278.567C167.271 278.567 166.979 278.695 166.716 278.936C166.445 279.164 166.317 279.441 166.317 279.761C166.317 280.087 166.438 280.35 166.687 280.556C166.929 280.77 167.235 280.94 167.598 281.068C167.954 281.182 168.317 281.317 168.68 281.466C169.057 281.622 169.37 281.857 169.619 282.176C169.882 282.503 170.018 282.923 170.018 283.427C170.018 284.109 169.776 284.685 169.306 285.132C168.829 285.573 168.246 285.786 167.57 285.786C166.922 285.786 166.36 285.608 165.89 285.246C165.413 284.891 165.1 284.393 164.951 283.768L165.662 283.541C165.983 284.585 166.616 285.104 167.57 285.104C168.018 285.104 168.424 284.948 168.765 284.621C169.1 284.287 169.278 283.875 169.278 283.399C169.278 282.986 169.142 282.674 168.879 282.461C168.63 282.255 168.267 282.063 167.797 281.892C167.434 281.764 167.157 281.658 166.972 281.58C166.801 281.509 166.58 281.381 166.317 281.21C166.068 281.047 165.876 280.841 165.748 280.613C165.634 280.393 165.577 280.123 165.577 279.817C165.577 279.256 165.776 278.787 166.175 278.425C166.588 278.07 167.086 277.885 167.655 277.885C168.032 277.885 168.402 278.006 168.765 278.226C169.142 278.453 169.42 278.752 169.591 279.107Z" fill="white"/>
<path d="M172.921 278.055V285.616H172.181V278.055H172.921ZM172.096 275.071C172.224 274.943 172.38 274.872 172.551 274.872C172.736 274.872 172.9 274.943 173.035 275.071C173.163 275.185 173.234 275.341 173.234 275.526C173.234 275.718 173.163 275.881 173.035 276.009C172.9 276.144 172.736 276.208 172.551 276.208C172.38 276.208 172.224 276.144 172.096 276.009C171.961 275.881 171.896 275.718 171.896 275.526C171.896 275.341 171.961 275.185 172.096 275.071Z" fill="white"/>
<path d="M176.559 278.738V285.616H175.819V278.738H174.993V278.056H175.819V275.355H176.559V278.056H177.897V278.738H176.559Z" fill="white"/>
<path d="M185.736 281.892H179.16C179.139 282.844 179.416 283.619 179.986 284.223C180.569 284.813 181.309 285.104 182.206 285.104C182.768 285.104 183.288 284.955 183.743 284.649C184.213 284.329 184.597 283.903 184.882 283.37L185.508 283.74C184.782 285.104 183.644 285.786 182.092 285.786C181.011 285.786 180.121 285.409 179.445 284.649C178.762 283.875 178.42 282.93 178.42 281.807C178.42 280.734 178.762 279.81 179.445 279.05C180.121 278.276 181.011 277.885 182.092 277.885C183.21 277.885 184.099 278.276 184.768 279.05C185.43 279.832 185.75 280.777 185.736 281.892ZM179.16 281.21H184.996C184.896 280.492 184.583 279.874 184.056 279.363C183.523 278.837 182.875 278.567 182.121 278.567C181.359 278.567 180.69 278.837 180.128 279.363C179.559 279.874 179.231 280.492 179.16 281.21Z" fill="white"/>
<path d="M198.255 274.02H193.131V278.482H198.113V279.221H193.131V284.877H198.255V285.616H192.363V273.281H198.255V274.02Z" fill="white"/>
<path d="M201.331 278.056V279.222H201.359C201.58 278.809 201.886 278.483 202.27 278.255C202.661 278.014 203.11 277.886 203.608 277.886C204.533 277.886 205.181 278.156 205.544 278.682C205.921 279.214 206.113 280.003 206.113 281.041V285.616H205.373V281.041C205.373 280.664 205.352 280.344 205.316 280.074C205.273 279.811 205.195 279.556 205.088 279.307C204.974 279.065 204.782 278.881 204.519 278.767C204.27 278.639 203.942 278.568 203.551 278.568C202.071 278.568 201.331 279.683 201.331 281.893V285.616H200.591V278.056H201.331Z" fill="white"/>
<path d="M211.671 278.568C210.831 278.568 210.126 278.895 209.564 279.534C209.009 280.181 208.739 280.934 208.739 281.78C208.739 282.689 209.009 283.478 209.564 284.139C210.126 284.785 210.852 285.105 211.728 285.105C212.653 285.105 213.386 284.785 213.92 284.139C214.446 283.478 214.717 282.661 214.717 281.694C214.717 280.806 214.425 280.067 213.863 279.477C213.308 278.873 212.575 278.568 211.671 278.568ZM215.4 278.056V285.247C215.4 285.737 215.386 286.128 215.371 286.412C215.35 286.689 215.279 287.023 215.172 287.407C215.058 287.798 214.88 288.153 214.66 288.459C213.934 289.418 212.93 289.908 211.642 289.908C210.618 289.908 209.742 289.61 209.023 289.027C208.319 288.459 207.935 287.67 207.885 286.668H208.625C208.675 287.443 208.981 288.061 209.536 288.516C210.098 288.984 210.774 289.226 211.557 289.226C212.653 289.226 213.471 288.849 214.005 288.118C214.439 287.45 214.66 286.49 214.66 285.247V284.309H214.631C214.29 284.764 213.848 285.126 213.322 285.389C212.788 285.652 212.233 285.787 211.671 285.787C210.603 285.787 209.721 285.403 209.023 284.622C208.34 283.847 207.999 282.909 207.999 281.808C207.999 280.714 208.347 279.783 209.052 279.023C209.771 278.269 210.682 277.886 211.785 277.886C212.959 277.886 213.905 278.383 214.631 279.364H214.66V278.056H215.4Z" fill="white"/>
<path d="M218.947 278.056V285.617H218.206V278.056H218.947ZM218.121 275.072C218.249 274.944 218.406 274.873 218.577 274.873C218.762 274.873 218.925 274.944 219.06 275.072C219.189 275.186 219.26 275.342 219.26 275.527C219.26 275.719 219.189 275.882 219.06 276.01C218.925 276.145 218.762 276.209 218.577 276.209C218.406 276.209 218.249 276.145 218.121 276.01C217.986 275.882 217.922 275.719 217.922 275.527C217.922 275.342 217.986 275.186 218.121 275.072Z" fill="white"/>
<path d="M222.499 278.056V279.222H222.527C222.748 278.809 223.054 278.483 223.438 278.255C223.83 278.014 224.278 277.886 224.776 277.886C225.701 277.886 226.349 278.156 226.712 278.682C227.089 279.214 227.281 280.003 227.281 281.041V285.616H226.541V281.041C226.541 280.664 226.52 280.344 226.484 280.074C226.441 279.811 226.363 279.556 226.256 279.307C226.142 279.065 225.95 278.881 225.687 278.767C225.438 278.639 225.111 278.568 224.719 278.568C223.239 278.568 222.499 279.683 222.499 281.893V285.616H221.759V278.056H222.499Z" fill="white"/>
<path d="M236.369 281.893H229.793C229.772 282.845 230.049 283.62 230.619 284.224C231.202 284.814 231.942 285.105 232.839 285.105C233.401 285.105 233.921 284.956 234.376 284.65C234.846 284.33 235.23 283.904 235.515 283.371L236.141 283.741C235.415 285.105 234.276 285.787 232.725 285.787C231.643 285.787 230.754 285.41 230.078 284.65C229.394 283.876 229.053 282.931 229.053 281.808C229.053 280.735 229.394 279.811 230.078 279.051C230.754 278.277 231.643 277.886 232.725 277.886C233.842 277.886 234.732 278.277 235.401 279.051C236.063 279.833 236.383 280.778 236.369 281.893ZM229.793 281.211H235.629C235.529 280.493 235.216 279.875 234.689 279.364C234.155 278.838 233.508 278.568 232.753 278.568C231.992 278.568 231.323 278.838 230.761 279.364C230.192 279.875 229.864 280.493 229.793 281.211Z" fill="white"/>
</g>
<defs>
<clipPath id="clip0_4_216">
<rect width="325" height="364" fill="white"/>
</clipPath>
</defs>
</svg>
