<?xml version="1.0" standalone="no"?>
<!DOCTYPE svg PUBLIC "-//W3C//DTD SVG 20010904//EN"
 "http://www.w3.org/TR/2001/REC-SVG-20010904/DTD/svg10.dtd">
<svg version="1.0" xmlns="http://www.w3.org/2000/svg"
 width="800.000000pt" height="800.000000pt" viewBox="0 0 800.000000 800.000000"
 preserveAspectRatio="xMidYMid meet">
<metadata>
Created by potrace 1.11, written by Peter Selinger 2001-2013
</metadata>
<g transform="translate(0.000000,800.000000) scale(0.100000,-0.100000)"
fill="#000000" stroke="none">
<path d="M3769 7706 c-2 -2 -47 -7 -100 -10 -52 -4 -106 -8 -120 -11 -13 -2
-46 -6 -74 -10 -504 -62 -1056 -267 -1510 -560 -707 -456 -1241 -1146 -1511
-1952 -82 -244 -152 -580 -170 -813 -2 -36 -7 -85 -10 -110 -6 -53 -6 -425 0
-490 3 -25 8 -76 11 -115 4 -38 8 -81 10 -95 2 -14 6 -50 10 -80 4 -30 10 -71
15 -90 5 -19 12 -55 15 -80 4 -25 17 -88 30 -140 124 -505 294 -877 602 -1320
41 -60 162 -211 222 -279 441 -499 981 -858 1611 -1073 136 -46 402 -115 515
-132 304 -48 404 -57 646 -58 155 0 341 8 387 17 9 1 46 6 82 10 170 18 397
64 592 121 488 141 976 406 1363 738 139 119 329 309 420 420 22 27 45 54 50
60 6 6 24 29 40 51 17 22 38 49 47 59 33 37 195 281 253 381 269 468 438 1009
483 1544 8 107 8 519 0 622 -63 731 -344 1435 -802 2004 -183 228 -407 448
-635 623 -320 247 -679 441 -1056 570 -81 28 -247 79 -285 87 -8 2 -53 12
-100 23 -47 11 -103 23 -125 26 -22 3 -62 10 -90 16 -27 5 -72 12 -100 15 -27
3 -63 8 -80 11 -16 2 -52 7 -80 9 -58 7 -551 16 -556 11z m346 -930 c467 -21
905 -154 1307 -399 530 -323 947 -825 1162 -1400 64 -172 126 -404 141 -533 4
-26 8 -50 10 -53 2 -4 6 -42 10 -86 4 -44 9 -96 11 -115 5 -48 5 -359 0 -390
-2 -14 -7 -59 -11 -100 -4 -41 -9 -84 -10 -95 -2 -11 -7 -40 -11 -65 -10 -60
-24 -135 -29 -150 -1 -3 -5 -18 -9 -35 -58 -239 -117 -399 -233 -630 -84 -167
-226 -380 -345 -520 -55 -64 -284 -294 -332 -333 -436 -357 -891 -557 -1446
-636 -169 -24 -572 -25 -698 -2 -16 3 -67 11 -137 22 -16 3 -37 7 -45 9 -8 2
-29 7 -46 9 -48 9 -261 65 -302 80 -20 8 -75 29 -122 46 -621 232 -1166 722
-1476 1325 -124 242 -229 547 -259 750 -4 22 -8 47 -10 55 -2 8 -7 38 -11 65
-3 28 -8 59 -10 70 -22 111 -22 556 0 672 2 10 7 38 10 63 3 25 8 55 10 66 2
12 7 39 10 60 21 130 114 432 172 561 173 380 333 614 598 878 152 152 253
234 426 350 276 185 654 347 931 400 11 2 28 6 37 9 9 3 35 7 57 11 22 3 66
10 97 16 76 13 108 16 263 24 72 4 132 9 133 11 2 1 9 1 15 -1 7 -2 71 -6 142
-9z"/>
<path d="M2465 5679 c-3 -4 275 -451 539 -864 28 -45 56 -90 63 -100 14 -24
161 -255 354 -560 77 -121 148 -233 158 -250 10 -16 44 -70 76 -120 l57 -90 0
-723 0 -722 346 2 346 3 1 720 1 720 193 305 c107 168 218 343 248 390 30 47
103 162 162 255 59 94 227 359 374 591 147 232 269 427 272 435 4 12 -54 14
-390 14 -437 0 -401 5 -437 -65 -7 -14 -22 -41 -34 -60 -11 -19 -32 -55 -46
-80 -14 -25 -87 -151 -163 -280 -76 -129 -148 -253 -160 -275 -79 -139 -338
-580 -345 -588 -4 -5 -29 29 -55 75 -27 46 -63 106 -80 133 -18 28 -34 55 -36
60 -2 6 -85 145 -183 310 -99 165 -230 386 -292 490 -62 105 -125 210 -141
235 l-28 45 -398 0 c-219 0 -400 -2 -402 -6z"/>
</g>
</svg>
